<?xml version="1.0" encoding="utf-8"?>
<!-- Generator: Adobe Illustrator 27.5.0, SVG Export Plug-In . SVG Version: 6.00 Build 0)  -->
<svg version="1.1" xmlns="http://www.w3.org/2000/svg" xmlns:xlink="http://www.w3.org/1999/xlink" x="0px" y="0px"
	 viewBox="0 0 750 500" style="enable-background:new 0 0 750 500;" xml:space="preserve">
<g id="BACKGROUND">
	<rect style="fill:#14213D;" width="750" height="500"/>
</g>
<g id="OBJECTS">
	<g>
		<defs>
			<rect id="SVGID_1_" x="0" width="750" height="500"/>
		</defs>
		<clipPath id="SVGID_00000159466478877959791320000007460342421291844508_">
			<use xlink:href="#SVGID_1_"  style="overflow:visible;"/>
		</clipPath>
		<g style="clip-path:url(#SVGID_00000159466478877959791320000007460342421291844508_);">
			<g style="opacity:0.4;">
				<path style="fill:none;stroke:#293A56;stroke-miterlimit:10;" d="M160.158,361.373c0.761-4.927,1.285-9.882,1.562-14.849
					L18.044,490.2c4.968-0.277,9.923-0.801,14.85-1.562L160.158,361.373z"/>
				<path style="fill:none;stroke:#293A56;stroke-miterlimit:10;" d="M141.082,260.862c-1.618-2.756-3.349-5.462-5.154-8.133
					L-75.751,464.407c2.672,1.805,5.377,3.537,8.133,5.154L141.082,260.862z"/>
				<path style="fill:none;stroke:#293A56;stroke-miterlimit:10;" d="M0.941,185.744c-4.968,0.277-9.922,0.801-14.849,1.562
					l-127.265,127.265c-0.761,4.927-1.285,9.882-1.562,14.85L0.941,185.744z"/>
				<path style="fill:none;stroke:#293A56;stroke-miterlimit:10;" d="M151.256,394.193c2.534-6.4,4.634-12.931,6.269-19.556
					L46.158,486.004c6.625-1.634,13.156-3.734,19.556-6.269L151.256,394.193z"/>
				<path style="fill:none;stroke:#293A56;stroke-miterlimit:10;" d="M161.929,335.685c-0.063-4.209-0.268-8.417-0.677-12.61
					L-5.405,489.732c4.194,0.409,8.401,0.614,12.61,0.677L161.929,335.685z"/>
				<path style="fill:none;stroke:#293A56;stroke-miterlimit:10;" d="M149.138,276.723c-1.331-3.037-2.738-6.048-4.277-9.01
					L-60.767,473.341c2.963,1.539,5.974,2.946,9.011,4.277L149.138,276.723z"/>
				<path style="fill:none;stroke:#293A56;stroke-miterlimit:10;" d="M-89.323,454.061c2.411,2.056,4.862,4.039,7.366,5.921
					l213.46-213.46c-1.882-2.505-3.865-4.955-5.921-7.366L-89.323,454.061z"/>
				<path style="fill:none;stroke:#293A56;stroke-miterlimit:10;" d="M160.009,313.687c-0.597-3.72-1.313-7.425-2.186-11.101
					L-25.893,486.302c3.676,0.873,7.381,1.589,11.101,2.186L160.009,313.687z"/>
				<path style="fill:none;stroke:#293A56;stroke-miterlimit:10;" d="M155.586,294.193c-0.997-3.337-2.145-6.636-3.375-9.912
					L-44.199,480.69c3.276,1.23,6.575,2.378,9.912,3.375L155.586,294.193z"/>
				<path style="fill:none;stroke:#293A56;stroke-miterlimit:10;" d="M63.184,195.254c-3.276-1.23-6.575-2.378-9.912-3.375
					l-189.872,189.872c0.997,3.337,2.145,6.636,3.375,9.912L63.184,195.254z"/>
				<path style="fill:none;stroke:#293A56;stroke-miterlimit:10;" d="M120.558,233.551c-1.072-1.14-2.124-2.292-3.238-3.406
					c-1.114-1.114-2.266-2.165-3.406-3.238l-215.487,215.487c1.072,1.14,2.124,2.292,3.238,3.406
					c1.114,1.114,2.266,2.165,3.406,3.238L120.558,233.551z"/>
				<path style="fill:none;stroke:#293A56;stroke-miterlimit:10;" d="M-67.426,206.276c-11.038,6.456-21.444,14.404-30.909,23.869
					s-17.413,19.871-23.869,30.909L-67.426,206.276z"/>
				<path style="fill:none;stroke:#293A56;stroke-miterlimit:10;" d="M108.308,221.883c-2.411-2.056-4.862-4.039-7.366-5.921
					l-213.46,213.46c1.882,2.505,3.865,4.955,5.921,7.366L108.308,221.883z"/>
				<path style="fill:none;stroke:#293A56;stroke-miterlimit:10;" d="M86.411,469.669c11.038-6.456,21.444-14.404,30.909-23.869
					c9.465-9.465,17.413-19.871,23.869-30.909L86.411,469.669z"/>
				<path style="fill:none;stroke:#293A56;stroke-miterlimit:10;" d="M-132.271,281.751c-2.534,6.4-4.634,12.931-6.269,19.556
					L-27.173,189.94c-6.625,1.634-13.156,3.734-19.556,6.269L-132.271,281.751z"/>
				<path style="fill:none;stroke:#293A56;stroke-miterlimit:10;" d="M44.878,189.642c-3.676-0.873-7.381-1.589-11.101-2.186
					l-174.801,174.801c0.597,3.72,1.313,7.425,2.186,11.101L44.878,189.642z"/>
				<path style="fill:none;stroke:#293A56;stroke-miterlimit:10;" d="M94.736,211.537c-2.672-1.805-5.377-3.537-8.133-5.154
					l-208.7,208.7c1.618,2.756,3.349,5.462,5.154,8.133L94.736,211.537z"/>
				<path style="fill:none;stroke:#293A56;stroke-miterlimit:10;" d="M24.39,186.213c-4.194-0.409-8.401-0.614-12.61-0.677
					l-154.723,154.723c0.063,4.209,0.268,8.417,0.677,12.611L24.39,186.213z"/>
				<path style="fill:none;stroke:#293A56;stroke-miterlimit:10;" d="M79.752,202.604c-2.963-1.539-5.973-2.946-9.01-4.277
					l-200.894,200.894c1.331,3.037,2.738,6.048,4.277,9.011L79.752,202.604z"/>
			</g>
			<g style="opacity:0.4;">
				<path style="fill:none;stroke:#293A56;stroke-miterlimit:10;" d="M391.201,11.051c0.761-4.927,1.285-9.882,1.562-14.849
					L249.087,139.878c4.968-0.277,9.923-0.801,14.85-1.562L391.201,11.051z"/>
				<path style="fill:none;stroke:#293A56;stroke-miterlimit:10;" d="M372.124-89.46c-1.618-2.756-3.349-5.462-5.154-8.133
					L155.291,114.085c2.672,1.805,5.377,3.537,8.133,5.154L372.124-89.46z"/>
				<path style="fill:none;stroke:#293A56;stroke-miterlimit:10;" d="M231.983-164.578c-4.968,0.277-9.922,0.801-14.849,1.562
					L89.869-35.751c-0.761,4.927-1.285,9.882-1.562,14.85L231.983-164.578z"/>
				<path style="fill:none;stroke:#293A56;stroke-miterlimit:10;" d="M382.298,43.871c2.534-6.4,4.634-12.931,6.269-19.556
					L277.2,135.682c6.625-1.634,13.156-3.734,19.556-6.269L382.298,43.871z"/>
				<path style="fill:none;stroke:#293A56;stroke-miterlimit:10;" d="M392.971-14.637c-0.063-4.209-0.268-8.417-0.677-12.61
					L225.637,139.41c4.194,0.409,8.401,0.614,12.61,0.677L392.971-14.637z"/>
				<path style="fill:none;stroke:#293A56;stroke-miterlimit:10;" d="M380.18-73.599c-1.331-3.037-2.738-6.048-4.277-9.01
					L170.276,123.019c2.963,1.539,5.974,2.946,9.011,4.277L380.18-73.599z"/>
				<path style="fill:none;stroke:#293A56;stroke-miterlimit:10;" d="M141.72,103.739c2.411,2.056,4.862,4.039,7.366,5.921
					l213.46-213.46c-1.882-2.505-3.865-4.955-5.921-7.366L141.72,103.739z"/>
				<path style="fill:none;stroke:#293A56;stroke-miterlimit:10;" d="M391.052-36.635c-0.597-3.72-1.313-7.425-2.186-11.101
					L205.149,135.98c3.676,0.873,7.381,1.589,11.101,2.186L391.052-36.635z"/>
				<path style="fill:none;stroke:#293A56;stroke-miterlimit:10;" d="M386.628-56.129c-0.997-3.337-2.145-6.636-3.375-9.912
					L186.844,130.368c3.276,1.23,6.575,2.378,9.912,3.375L386.628-56.129z"/>
				<path style="fill:none;stroke:#293A56;stroke-miterlimit:10;" d="M294.226-155.068c-3.276-1.23-6.575-2.378-9.912-3.375
					L94.442,31.429c0.997,3.337,2.145,6.636,3.375,9.912L294.226-155.068z"/>
				<path style="fill:none;stroke:#293A56;stroke-miterlimit:10;" d="M351.6-116.771c-1.072-1.14-2.124-2.292-3.238-3.406
					s-2.266-2.165-3.406-3.238L129.47,92.072c1.072,1.14,2.124,2.292,3.238,3.406c1.114,1.114,2.266,2.165,3.406,3.238
					L351.6-116.771z"/>
				<path style="fill:none;stroke:#293A56;stroke-miterlimit:10;" d="M163.617-144.046c-11.038,6.456-21.444,14.404-30.909,23.869
					s-17.413,19.871-23.869,30.909L163.617-144.046z"/>
				<path style="fill:none;stroke:#293A56;stroke-miterlimit:10;" d="M339.35-128.439c-2.411-2.056-4.862-4.039-7.366-5.921
					l-213.46,213.46c1.882,2.505,3.865,4.955,5.921,7.366L339.35-128.439z"/>
				<path style="fill:none;stroke:#293A56;stroke-miterlimit:10;" d="M317.453,119.347c11.038-6.456,21.444-14.404,30.909-23.869
					s17.413-19.871,23.869-30.909L317.453,119.347z"/>
				<path style="fill:none;stroke:#293A56;stroke-miterlimit:10;" d="M98.772-68.571c-2.534,6.4-4.634,12.931-6.269,19.556
					L203.87-160.382c-6.625,1.634-13.156,3.734-19.556,6.269L98.772-68.571z"/>
				<path style="fill:none;stroke:#293A56;stroke-miterlimit:10;" d="M275.921-160.68c-3.676-0.873-7.381-1.589-11.101-2.186
					L90.018,11.935c0.597,3.72,1.313,7.425,2.186,11.101L275.921-160.68z"/>
				<path style="fill:none;stroke:#293A56;stroke-miterlimit:10;" d="M325.779-138.785c-2.672-1.805-5.377-3.537-8.133-5.154
					l-208.7,208.7c1.618,2.756,3.349,5.462,5.154,8.133L325.779-138.785z"/>
				<path style="fill:none;stroke:#293A56;stroke-miterlimit:10;" d="M255.433-164.109c-4.194-0.409-8.401-0.614-12.61-0.677
					L88.099-10.063c0.063,4.209,0.268,8.417,0.677,12.611L255.433-164.109z"/>
				<path style="fill:none;stroke:#293A56;stroke-miterlimit:10;" d="M310.794-147.718c-2.963-1.539-5.973-2.946-9.01-4.277
					L100.89,48.899c1.331,3.037,2.738,6.048,4.277,9.011L310.794-147.718z"/>
			</g>
			<g style="opacity:0.4;">
				<path style="fill:none;stroke:#293A56;stroke-miterlimit:10;" d="M791.206,82.956c0.761-4.927,1.285-9.882,1.562-14.849
					L649.092,211.783c4.968-0.277,9.923-0.801,14.85-1.562L791.206,82.956z"/>
				<path style="fill:none;stroke:#293A56;stroke-miterlimit:10;" d="M772.129-17.556c-1.618-2.756-3.349-5.462-5.154-8.133
					L555.296,185.99c2.672,1.805,5.377,3.537,8.133,5.154L772.129-17.556z"/>
				<path style="fill:none;stroke:#293A56;stroke-miterlimit:10;" d="M631.988-92.673c-4.968,0.277-9.922,0.801-14.849,1.562
					L489.874,36.154c-0.761,4.927-1.285,9.882-1.562,14.85L631.988-92.673z"/>
				<path style="fill:none;stroke:#293A56;stroke-miterlimit:10;" d="M782.303,115.776c2.534-6.4,4.634-12.931,6.269-19.556
					L677.205,207.587c6.625-1.634,13.156-3.734,19.556-6.269L782.303,115.776z"/>
				<path style="fill:none;stroke:#293A56;stroke-miterlimit:10;" d="M792.976,57.268c-0.063-4.209-0.268-8.417-0.677-12.61
					L625.642,211.314c4.194,0.409,8.401,0.614,12.61,0.677L792.976,57.268z"/>
				<path style="fill:none;stroke:#293A56;stroke-miterlimit:10;" d="M780.185-1.694c-1.331-3.037-2.738-6.048-4.277-9.01
					L570.281,194.923c2.963,1.539,5.974,2.946,9.011,4.277L780.185-1.694z"/>
				<path style="fill:none;stroke:#293A56;stroke-miterlimit:10;" d="M541.725,175.644c2.411,2.056,4.862,4.039,7.366,5.921
					l213.46-213.46c-1.882-2.505-3.865-4.955-5.921-7.366L541.725,175.644z"/>
				<path style="fill:none;stroke:#293A56;stroke-miterlimit:10;" d="M791.057,35.27c-0.597-3.72-1.313-7.425-2.186-11.101
					L605.154,207.885c3.676,0.873,7.381,1.589,11.101,2.186L791.057,35.27z"/>
				<path style="fill:none;stroke:#293A56;stroke-miterlimit:10;" d="M786.633,15.776c-0.997-3.337-2.145-6.636-3.375-9.912
					L586.849,202.273c3.276,1.23,6.575,2.378,9.912,3.375L786.633,15.776z"/>
				<path style="fill:none;stroke:#293A56;stroke-miterlimit:10;" d="M694.231-83.163c-3.276-1.23-6.575-2.378-9.912-3.375
					L494.447,103.334c0.997,3.337,2.145,6.636,3.375,9.912L694.231-83.163z"/>
				<path style="fill:none;stroke:#293A56;stroke-miterlimit:10;" d="M751.605-44.867c-1.072-1.14-2.124-2.292-3.238-3.406
					s-2.266-2.165-3.406-3.238L529.475,163.976c1.072,1.14,2.124,2.292,3.238,3.406c1.114,1.114,2.266,2.165,3.406,3.238
					L751.605-44.867z"/>
				<path style="fill:none;stroke:#293A56;stroke-miterlimit:10;" d="M563.622-72.142c-11.038,6.456-21.444,14.404-30.909,23.869
					c-9.466,9.465-17.413,19.871-23.869,30.909L563.622-72.142z"/>
				<path style="fill:none;stroke:#293A56;stroke-miterlimit:10;" d="M739.355-56.534c-2.411-2.056-4.862-4.039-7.366-5.921
					l-213.46,213.46c1.882,2.505,3.865,4.955,5.921,7.366L739.355-56.534z"/>
				<path style="fill:none;stroke:#293A56;stroke-miterlimit:10;" d="M717.458,191.251c11.038-6.456,21.444-14.404,30.909-23.869
					c9.466-9.465,17.413-19.871,23.869-30.909L717.458,191.251z"/>
				<path style="fill:none;stroke:#293A56;stroke-miterlimit:10;" d="M498.777,3.333c-2.534,6.4-4.634,12.931-6.269,19.556
					L603.875-88.477c-6.625,1.634-13.156,3.734-19.556,6.269L498.777,3.333z"/>
				<path style="fill:none;stroke:#293A56;stroke-miterlimit:10;" d="M675.926-88.775c-3.676-0.873-7.381-1.589-11.101-2.186
					L490.023,83.84c0.597,3.72,1.313,7.425,2.186,11.101L675.926-88.775z"/>
				<path style="fill:none;stroke:#293A56;stroke-miterlimit:10;" d="M725.784-66.88c-2.672-1.805-5.377-3.537-8.133-5.154
					l-208.7,208.7c1.618,2.756,3.349,5.462,5.154,8.133L725.784-66.88z"/>
				<path style="fill:none;stroke:#293A56;stroke-miterlimit:10;" d="M655.438-92.205c-4.194-0.409-8.401-0.614-12.61-0.677
					L488.104,61.842c0.063,4.209,0.268,8.417,0.677,12.611L655.438-92.205z"/>
				<path style="fill:none;stroke:#293A56;stroke-miterlimit:10;" d="M710.799-75.814c-2.963-1.539-5.973-2.946-9.01-4.277
					L500.895,120.804c1.331,3.037,2.738,6.048,4.277,9.011L710.799-75.814z"/>
			</g>
			<g style="opacity:0.4;">
				<path style="fill:none;stroke:#293A56;stroke-miterlimit:10;" d="M666.712,501.019c0.761-4.927,1.285-9.882,1.562-14.849
					L524.598,629.845c4.968-0.277,9.923-0.801,14.85-1.562L666.712,501.019z"/>
				<path style="fill:none;stroke:#293A56;stroke-miterlimit:10;" d="M647.635,400.507c-1.618-2.756-3.349-5.462-5.154-8.133
					L430.802,604.053c2.672,1.805,5.377,3.537,8.133,5.154L647.635,400.507z"/>
				<path style="fill:none;stroke:#293A56;stroke-miterlimit:10;" d="M507.494,325.39c-4.968,0.277-9.922,0.801-14.849,1.562
					L365.38,454.216c-0.761,4.927-1.285,9.882-1.562,14.85L507.494,325.39z"/>
				<path style="fill:none;stroke:#293A56;stroke-miterlimit:10;" d="M657.809,533.839c2.534-6.4,4.634-12.931,6.269-19.556
					L552.711,625.649c6.625-1.634,13.156-3.734,19.556-6.269L657.809,533.839z"/>
				<path style="fill:none;stroke:#293A56;stroke-miterlimit:10;" d="M668.482,475.33c-0.063-4.209-0.268-8.417-0.677-12.61
					L501.148,629.377c4.194,0.409,8.401,0.614,12.611,0.677L668.482,475.33z"/>
				<path style="fill:none;stroke:#293A56;stroke-miterlimit:10;" d="M655.691,416.369c-1.331-3.037-2.738-6.048-4.277-9.01
					L445.787,612.986c2.963,1.539,5.974,2.946,9.011,4.277L655.691,416.369z"/>
				<path style="fill:none;stroke:#293A56;stroke-miterlimit:10;" d="M417.231,593.707c2.411,2.056,4.862,4.039,7.366,5.921
					l213.46-213.46c-1.882-2.505-3.865-4.955-5.921-7.366L417.231,593.707z"/>
				<path style="fill:none;stroke:#293A56;stroke-miterlimit:10;" d="M666.563,453.333c-0.597-3.72-1.313-7.425-2.186-11.101
					L480.66,625.948c3.676,0.873,7.381,1.589,11.101,2.186L666.563,453.333z"/>
				<path style="fill:none;stroke:#293A56;stroke-miterlimit:10;" d="M662.139,433.838c-0.997-3.337-2.145-6.636-3.375-9.912
					L462.355,620.335c3.276,1.23,6.575,2.378,9.912,3.375L662.139,433.838z"/>
				<path style="fill:none;stroke:#293A56;stroke-miterlimit:10;" d="M569.737,334.9c-3.276-1.23-6.575-2.378-9.912-3.375
					L369.953,521.396c0.997,3.337,2.145,6.636,3.375,9.912L569.737,334.9z"/>
				<path style="fill:none;stroke:#293A56;stroke-miterlimit:10;" d="M627.111,373.196c-1.072-1.14-2.124-2.292-3.238-3.406
					c-1.114-1.114-2.266-2.165-3.406-3.238L404.981,582.039c1.072,1.14,2.124,2.292,3.238,3.406
					c1.114,1.114,2.266,2.165,3.406,3.238L627.111,373.196z"/>
				<path style="fill:none;stroke:#293A56;stroke-miterlimit:10;" d="M439.128,345.921c-11.038,6.456-21.444,14.404-30.909,23.869
					c-9.465,9.465-17.413,19.871-23.869,30.909L439.128,345.921z"/>
				<path style="fill:none;stroke:#293A56;stroke-miterlimit:10;" d="M614.861,361.528c-2.411-2.056-4.862-4.039-7.366-5.921
					l-213.46,213.46c1.882,2.505,3.865,4.955,5.921,7.366L614.861,361.528z"/>
				<path style="fill:none;stroke:#293A56;stroke-miterlimit:10;" d="M592.964,609.314c11.038-6.456,21.444-14.404,30.909-23.869
					c9.466-9.465,17.413-19.871,23.869-30.909L592.964,609.314z"/>
				<path style="fill:none;stroke:#293A56;stroke-miterlimit:10;" d="M374.283,421.396c-2.534,6.4-4.634,12.931-6.269,19.556
					l111.367-111.367c-6.625,1.634-13.156,3.734-19.556,6.269L374.283,421.396z"/>
				<path style="fill:none;stroke:#293A56;stroke-miterlimit:10;" d="M551.432,329.287c-3.676-0.873-7.381-1.589-11.101-2.186
					L365.529,501.902c0.597,3.72,1.313,7.425,2.186,11.101L551.432,329.287z"/>
				<path style="fill:none;stroke:#293A56;stroke-miterlimit:10;" d="M601.29,351.182c-2.672-1.805-5.377-3.537-8.133-5.154
					l-208.7,208.7c1.618,2.756,3.349,5.462,5.154,8.133L601.29,351.182z"/>
				<path style="fill:none;stroke:#293A56;stroke-miterlimit:10;" d="M530.944,325.858c-4.194-0.409-8.401-0.614-12.61-0.677
					L363.61,479.904c0.063,4.209,0.268,8.417,0.677,12.611L530.944,325.858z"/>
				<path style="fill:none;stroke:#293A56;stroke-miterlimit:10;" d="M586.305,342.249c-2.963-1.539-5.973-2.946-9.01-4.277
					L376.401,538.866c1.331,3.037,2.738,6.048,4.277,9.011L586.305,342.249z"/>
			</g>
			<g>
				<g>
					<path style="fill:none;stroke:#293A56;stroke-width:2;stroke-miterlimit:10;" d="M179.735,94.277
						c-19.884,0-39.083-8.328-52.676-22.849c-12.555-13.41-19.469-30.917-19.469-49.296c0-15.876,5.059-30.939,14.631-43.561
						c6.285-8.288,14.449-15.25,23.61-20.135l6.618-3.529l12.772,23.957l-6.618,3.528c-5.72,3.05-10.821,7.401-14.75,12.583
						c-5.963,7.863-9.115,17.254-9.115,27.157c0,11.462,4.312,22.381,12.14,30.743c8.605,9.192,20.274,14.254,32.857,14.254
						c14.306,0,27.897-6.907,36.355-18.476c5.653-7.732,8.642-16.903,8.642-26.521v-7.5h27.148v7.5
						c0,15.418-4.798,30.129-13.875,42.544C224.454,83.212,202.67,94.277,179.735,94.277z"/>
				</g>
			</g>
			<g>
				<g>
					<path style="fill:none;stroke:#293A56;stroke-width:2;stroke-miterlimit:10;" d="M68.791,308.17H41.642v-7.5
						c0-24.812-20.186-44.997-44.997-44.997s-44.997,20.186-44.997,44.997v7.5H-75.5v-7.5c0-39.781,32.364-72.145,72.145-72.145
						c39.781,0,72.146,32.364,72.146,72.145V308.17z"/>
				</g>
			</g>
			<g>
				<g>
					<path style="fill:none;stroke:#293A56;stroke-width:2;stroke-miterlimit:10;" d="M251.756,465.662h-7.5v-27.148h7.5
						c24.812,0,44.997-20.186,44.997-44.997s-20.186-44.997-44.997-44.997h-7.5v-27.148h7.5c39.781,0,72.145,32.364,72.145,72.146
						S291.536,465.662,251.756,465.662z"/>
				</g>
			</g>
			<g>
				<g>
					<path style="fill:none;stroke:#293A56;stroke-width:2;stroke-miterlimit:10;" d="M471.414,385.831h-27.148v-7.5
						c0-45.283,36.841-82.124,82.124-82.124h148.938v27.148H526.389c-30.313,0-54.976,24.662-54.976,54.976V385.831z"/>
				</g>
			</g>
			<g>
				<g>
					<path style="fill:none;stroke:#293A56;stroke-width:2;stroke-miterlimit:10;" d="M576.284,177.578
						c-26.385,0-47.85-21.465-47.85-47.849V-11.709c0-26.384,21.465-47.849,47.85-47.849h7.5v27.148h-7.5
						c-11.415,0-20.701,9.287-20.701,20.701v141.438c0,11.415,9.286,20.701,20.701,20.701c11.414,0,20.7-9.287,20.7-20.701v-7.5
						h27.148v7.5C624.132,156.114,602.668,177.578,576.284,177.578z"/>
				</g>
			</g>
			<g>
				
					<linearGradient id="SVGID_00000177483821144350592660000010106063056554775184_" gradientUnits="userSpaceOnUse" x1="133.4344" y1="-27.9644" x2="215.4344" y2="80.0356">
					<stop  offset="0" style="stop-color:#FFB603"/>
					<stop  offset="1" style="stop-color:#FA8400"/>
				</linearGradient>
				<path style="fill:url(#SVGID_00000177483821144350592660000010106063056554775184_);" d="M179.735,86.777
					c-17.816,0-35.021-7.462-47.201-20.475c-11.249-12.016-17.444-27.703-17.444-44.171c0-14.226,4.533-27.722,13.107-39.029
					c5.634-7.429,12.952-13.67,21.162-18.048l5.716,10.719c-6.671,3.557-12.618,8.629-17.198,14.669
					c-6.96,9.178-10.639,20.136-10.639,31.689c0,13.373,5.03,26.112,14.164,35.869c10.038,10.723,23.651,16.628,38.333,16.628
					c16.69,0,32.544-8.056,42.409-21.549c6.599-9.026,10.088-19.728,10.088-30.949h12.148c0,13.816-4.298,26.997-12.429,38.118
					C219.806,76.861,200.286,86.777,179.735,86.777z"/>
			</g>
			<g>
				
					<linearGradient id="SVGID_00000109751095235845231890000017832006454404274868_" gradientUnits="userSpaceOnUse" x1="-68" y1="268.348" x2="61.2906" y2="268.348">
					<stop  offset="0" style="stop-color:#FFB603"/>
					<stop  offset="1" style="stop-color:#FA8400"/>
				</linearGradient>
				<path style="fill:url(#SVGID_00000109751095235845231890000017832006454404274868_);" d="M61.291,300.671H49.142
					c0-28.947-23.55-52.497-52.497-52.497s-52.497,23.551-52.497,52.497H-68c0-35.645,29-64.645,64.645-64.645
					S61.291,265.025,61.291,300.671z"/>
			</g>
			<g>
				
					<linearGradient id="SVGID_00000047061443746980824530000002446550005979415225_" gradientUnits="userSpaceOnUse" x1="237.7788" y1="336.2443" x2="297.7788" y2="441.2443">
					<stop  offset="0" style="stop-color:#FFB603"/>
					<stop  offset="1" style="stop-color:#FA8400"/>
				</linearGradient>
				<path style="fill:url(#SVGID_00000047061443746980824530000002446550005979415225_);" d="M251.755,458.162v-12.148
					c28.947,0,52.497-23.551,52.497-52.497s-23.55-52.497-52.497-52.497v-12.148c35.646,0,64.645,29,64.645,64.645
					S287.401,458.162,251.755,458.162z"/>
			</g>
			<g>
				
					<linearGradient id="SVGID_00000116204753755596965520000005953480793219378869_" gradientUnits="userSpaceOnUse" x1="451.7653" y1="341.0197" x2="667.828" y2="341.0197">
					<stop  offset="0" style="stop-color:#FFB603"/>
					<stop  offset="1" style="stop-color:#FA8400"/>
				</linearGradient>
				<path style="fill:url(#SVGID_00000116204753755596965520000005953480793219378869_);" d="M463.913,378.332h-12.148
					c0-41.148,33.476-74.624,74.624-74.624h141.439v12.148H526.389C491.94,315.856,463.913,343.882,463.913,378.332z"/>
			</g>
			<g>
				
					<linearGradient id="SVGID_00000142874077620471118080000018424441005175329181_" gradientUnits="userSpaceOnUse" x1="535.9343" y1="59.0101" x2="616.6324" y2="59.0101">
					<stop  offset="0" style="stop-color:#FFB603"/>
					<stop  offset="1" style="stop-color:#FA8400"/>
				</linearGradient>
				<path style="fill:url(#SVGID_00000142874077620471118080000018424441005175329181_);" d="M576.283,170.079
					c-22.249,0-40.349-18.101-40.349-40.349V-11.709c0-22.249,18.1-40.349,40.349-40.349v12.148
					c-15.55,0-28.201,12.651-28.201,28.201v141.439c0,15.55,12.651,28.201,28.201,28.201s28.201-12.651,28.201-28.201h12.148
					C616.632,151.978,598.532,170.079,576.283,170.079z"/>
			</g>
			<g>
				<circle style="fill:#293A56;" cx="26.88" cy="370.755" r="2.901"/>
				<circle style="fill:#293A56;" cx="26.88" cy="386.711" r="2.901"/>
				<circle style="fill:#293A56;" cx="41.385" cy="370.755" r="2.901"/>
				<circle style="fill:#293A56;" cx="41.385" cy="386.711" r="2.901"/>
				<circle style="fill:#293A56;" cx="55.89" cy="370.755" r="2.901"/>
				<circle style="fill:#293A56;" cx="55.89" cy="386.711" r="2.901"/>
				<circle style="fill:#293A56;" cx="70.395" cy="370.755" r="2.901"/>
				<circle style="fill:#293A56;" cx="70.395" cy="386.711" r="2.901"/>
				<circle style="fill:#293A56;" cx="84.9" cy="370.755" r="2.901"/>
				<circle style="fill:#293A56;" cx="84.9" cy="386.711" r="2.901"/>
				<circle style="fill:#293A56;" cx="99.406" cy="370.755" r="2.901"/>
				<circle style="fill:#293A56;" cx="99.406" cy="386.711" r="2.901"/>
				<circle style="fill:#293A56;" cx="113.911" cy="370.755" r="2.901"/>
				<circle style="fill:#293A56;" cx="113.911" cy="386.711" r="2.901"/>
				<circle style="fill:#293A56;" cx="128.416" cy="370.755" r="2.901"/>
				<circle style="fill:#293A56;" cx="128.416" cy="386.711" r="2.901"/>
				<circle style="fill:#293A56;" cx="142.921" cy="370.755" r="2.901"/>
				<circle style="fill:#293A56;" cx="142.921" cy="386.711" r="2.901"/>
				<circle style="fill:#293A56;" cx="157.426" cy="370.755" r="2.901"/>
				<circle style="fill:#293A56;" cx="157.426" cy="386.711" r="2.901"/>
				<circle style="fill:#293A56;" cx="171.932" cy="370.755" r="2.901"/>
				<circle style="fill:#293A56;" cx="171.932" cy="386.711" r="2.901"/>
				<circle style="fill:#293A56;" cx="186.437" cy="370.755" r="2.901"/>
				<circle style="fill:#293A56;" cx="186.437" cy="386.711" r="2.901"/>
				<circle style="fill:#293A56;" cx="200.942" cy="370.755" r="2.901"/>
				<circle style="fill:#293A56;" cx="200.942" cy="386.711" r="2.901"/>
				<circle style="fill:#293A56;" cx="215.447" cy="370.755" r="2.901"/>
				<circle style="fill:#293A56;" cx="215.447" cy="386.711" r="2.901"/>
			</g>
			<g>
				<circle style="fill:#293A56;" cx="579.618" cy="18.15" r="2.901"/>
				<circle style="fill:#293A56;" cx="579.618" cy="34.106" r="2.901"/>
				<circle style="fill:#293A56;" cx="594.123" cy="18.15" r="2.901"/>
				<circle style="fill:#293A56;" cx="594.123" cy="34.106" r="2.901"/>
				<circle style="fill:#293A56;" cx="608.629" cy="18.15" r="2.901"/>
				<circle style="fill:#293A56;" cx="608.629" cy="34.106" r="2.901"/>
				<circle style="fill:#293A56;" cx="623.134" cy="18.15" r="2.901"/>
				<circle style="fill:#293A56;" cx="623.134" cy="34.106" r="2.901"/>
				<circle style="fill:#293A56;" cx="637.639" cy="18.15" r="2.901"/>
				<circle style="fill:#293A56;" cx="637.639" cy="34.106" r="2.901"/>
				<circle style="fill:#293A56;" cx="652.144" cy="18.15" r="2.901"/>
				<circle style="fill:#293A56;" cx="652.144" cy="34.106" r="2.901"/>
				<circle style="fill:#293A56;" cx="666.649" cy="18.15" r="2.901"/>
				<circle style="fill:#293A56;" cx="666.649" cy="34.106" r="2.901"/>
				<circle style="fill:#293A56;" cx="681.155" cy="18.15" r="2.901"/>
				<circle style="fill:#293A56;" cx="681.155" cy="34.106" r="2.901"/>
				<circle style="fill:#293A56;" cx="695.66" cy="18.15" r="2.901"/>
				<circle style="fill:#293A56;" cx="695.66" cy="34.106" r="2.901"/>
				<circle style="fill:#293A56;" cx="710.165" cy="18.15" r="2.901"/>
				<circle style="fill:#293A56;" cx="710.165" cy="34.106" r="2.901"/>
				<circle style="fill:#293A56;" cx="724.67" cy="18.15" r="2.901"/>
				<circle style="fill:#293A56;" cx="724.67" cy="34.106" r="2.901"/>
				<circle style="fill:#293A56;" cx="739.175" cy="18.15" r="2.901"/>
				<circle style="fill:#293A56;" cx="739.175" cy="34.106" r="2.901"/>
				<circle style="fill:#293A56;" cx="753.681" cy="18.15" r="2.901"/>
				<circle style="fill:#293A56;" cx="753.681" cy="34.106" r="2.901"/>
				<circle style="fill:#293A56;" cx="768.186" cy="18.15" r="2.901"/>
				<circle style="fill:#293A56;" cx="768.186" cy="34.106" r="2.901"/>
			</g>
			<g>
				<circle style="fill:#293A56;" cx="693.108" cy="440.724" r="2.901"/>
				<circle style="fill:#293A56;" cx="693.108" cy="456.68" r="2.901"/>
				<circle style="fill:#293A56;" cx="707.613" cy="440.724" r="2.901"/>
				<circle style="fill:#293A56;" cx="707.613" cy="456.68" r="2.901"/>
				<circle style="fill:#293A56;" cx="722.118" cy="440.724" r="2.901"/>
				<circle style="fill:#293A56;" cx="722.118" cy="456.68" r="2.901"/>
				<circle style="fill:#293A56;" cx="736.623" cy="440.724" r="2.901"/>
				<circle style="fill:#293A56;" cx="736.623" cy="456.68" r="2.901"/>
				<circle style="fill:#293A56;" cx="751.128" cy="440.724" r="2.901"/>
				<circle style="fill:#293A56;" cx="751.128" cy="456.68" r="2.901"/>
				<circle style="fill:#293A56;" cx="765.633" cy="440.724" r="2.901"/>
				<circle style="fill:#293A56;" cx="765.633" cy="456.68" r="2.901"/>
				<circle style="fill:#293A56;" cx="780.139" cy="440.724" r="2.901"/>
				<circle style="fill:#293A56;" cx="780.139" cy="456.68" r="2.901"/>
				<circle style="fill:#293A56;" cx="794.644" cy="440.724" r="2.901"/>
				<circle style="fill:#293A56;" cx="794.644" cy="456.68" r="2.901"/>
				<circle style="fill:#293A56;" cx="809.149" cy="440.724" r="2.901"/>
				<circle style="fill:#293A56;" cx="809.149" cy="456.68" r="2.901"/>
				<circle style="fill:#293A56;" cx="823.654" cy="440.724" r="2.901"/>
				<circle style="fill:#293A56;" cx="823.654" cy="456.68" r="2.901"/>
				<circle style="fill:#293A56;" cx="838.159" cy="440.724" r="2.901"/>
				<circle style="fill:#293A56;" cx="838.159" cy="456.68" r="2.901"/>
				<circle style="fill:#293A56;" cx="852.665" cy="440.724" r="2.901"/>
				<circle style="fill:#293A56;" cx="852.665" cy="456.68" r="2.901"/>
				<circle style="fill:#293A56;" cx="867.17" cy="440.724" r="2.901"/>
				<circle style="fill:#293A56;" cx="867.17" cy="456.68" r="2.901"/>
				<circle style="fill:#293A56;" cx="881.675" cy="440.724" r="2.901"/>
				<circle style="fill:#293A56;" cx="881.675" cy="456.68" r="2.901"/>
			</g>
			<g style="opacity:0.5;">
				<path style="fill:#293A56;" d="M81.288,72.968c0.292-1.888,0.492-3.787,0.599-5.691l-55.064,55.064
					c1.904-0.106,3.803-0.307,5.691-0.599L81.288,72.968z"/>
				<path style="fill:#293A56;" d="M73.977,34.447c-0.62-1.056-1.283-2.093-1.975-3.117l-81.127,81.127
					c1.024,0.692,2.061,1.355,3.117,1.975L73.977,34.447z"/>
				<path style="fill:#293A56;" d="M20.267,5.658c-1.904,0.106-3.803,0.307-5.691,0.599l-48.775,48.775
					c-0.292,1.888-0.492,3.787-0.599,5.691L20.267,5.658z"/>
				<path style="fill:#293A56;" d="M77.876,85.547c0.971-2.453,1.776-4.956,2.402-7.495l-42.682,42.682
					c2.539-0.626,5.042-1.431,7.495-2.403L77.876,85.547z"/>
				<path style="fill:#293A56;" d="M81.966,63.123c-0.024-1.613-0.103-3.226-0.259-4.833l-63.872,63.872
					c1.607,0.157,3.22,0.235,4.833,0.259L81.966,63.123z"/>
				<path style="fill:#293A56;" d="M77.064,40.526c-0.51-1.164-1.049-2.318-1.639-3.453L-3.383,115.88
					c1.135,0.59,2.289,1.129,3.453,1.639L77.064,40.526z"/>
				<path style="fill:#293A56;" d="M-14.327,108.491c0.924,0.788,1.863,1.548,2.823,2.269l81.809-81.809
					c-0.721-0.96-1.481-1.899-2.269-2.823L-14.327,108.491z"/>
				<path style="fill:#293A56;" d="M81.231,54.692c-0.229-1.426-0.503-2.846-0.838-4.254l-70.41,70.41
					c1.409,0.335,2.829,0.609,4.254,0.838L81.231,54.692z"/>
				<path style="fill:#293A56;" d="M79.535,47.221c-0.382-1.279-0.822-2.543-1.294-3.799L2.967,118.697
					c1.256,0.471,2.52,0.912,3.799,1.294L79.535,47.221z"/>
				<path style="fill:#293A56;" d="M44.122,9.302c-1.256-0.471-2.52-0.912-3.799-1.294l-72.769,72.769
					c0.382,1.279,0.822,2.543,1.294,3.799L44.122,9.302z"/>
				<path style="fill:#293A56;" d="M66.111,23.98c-0.411-0.437-0.814-0.878-1.241-1.305c-0.427-0.427-0.869-0.83-1.305-1.241
					l-82.586,82.586c0.411,0.437,0.814,0.878,1.241,1.305c0.427,0.427,0.869,0.83,1.305,1.241L66.111,23.98z"/>
				<path style="fill:#293A56;" d="M-5.934,13.526c-4.23,2.474-8.218,5.52-11.846,9.148s-6.673,7.616-9.148,11.846L-5.934,13.526z"
					/>
				<path style="fill:#293A56;" d="M61.416,19.508c-0.924-0.788-1.863-1.548-2.823-2.269l-81.809,81.809
					c0.721,0.96,1.481,1.899,2.269,2.823L61.416,19.508z"/>
				<path style="fill:#293A56;" d="M53.024,114.473c4.23-2.474,8.218-5.52,11.846-9.148c3.628-3.628,6.673-7.616,9.148-11.846
					L53.024,114.473z"/>
				<path style="fill:#293A56;" d="M-30.787,42.453c-0.971,2.453-1.776,4.956-2.403,7.495L9.493,7.266
					C6.954,7.892,4.45,8.697,1.998,9.668L-30.787,42.453z"/>
				<path style="fill:#293A56;" d="M37.106,7.151c-1.409-0.335-2.829-0.609-4.254-0.838l-66.993,66.993
					c0.229,1.426,0.503,2.846,0.838,4.255L37.106,7.151z"/>
				<path style="fill:#293A56;" d="M56.215,15.543c-1.024-0.692-2.061-1.355-3.117-1.975l-79.985,79.985
					c0.62,1.056,1.283,2.093,1.975,3.117L56.215,15.543z"/>
				<path style="fill:#293A56;" d="M29.254,5.837c-1.607-0.157-3.22-0.235-4.833-0.259l-59.298,59.298
					c0.024,1.613,0.103,3.226,0.259,4.833L29.254,5.837z"/>
				<path style="fill:#293A56;" d="M50.472,12.119c-1.135-0.59-2.289-1.129-3.453-1.639l-76.993,76.993
					c0.51,1.164,1.049,2.318,1.639,3.453L50.472,12.119z"/>
			</g>
			<g style="opacity:0.5;">
				<path style="fill:#293A56;" d="M814.325,328.295c0.292-1.888,0.492-3.787,0.599-5.691l-55.064,55.064
					c1.904-0.106,3.803-0.307,5.691-0.599L814.325,328.295z"/>
				<path style="fill:#293A56;" d="M807.014,289.774c-0.62-1.056-1.284-2.093-1.975-3.117l-81.127,81.127
					c1.024,0.692,2.061,1.355,3.117,1.975L807.014,289.774z"/>
				<path style="fill:#293A56;" d="M753.304,260.985c-1.904,0.106-3.803,0.307-5.691,0.599l-48.775,48.775
					c-0.292,1.888-0.492,3.787-0.599,5.691L753.304,260.985z"/>
				<path style="fill:#293A56;" d="M810.913,340.874c0.971-2.453,1.776-4.956,2.402-7.495l-42.682,42.682
					c2.539-0.626,5.042-1.431,7.495-2.403L810.913,340.874z"/>
				<path style="fill:#293A56;" d="M815.003,318.45c-0.024-1.613-0.103-3.226-0.259-4.833l-63.872,63.872
					c1.607,0.157,3.22,0.235,4.833,0.259L815.003,318.45z"/>
				<path style="fill:#293A56;" d="M810.101,295.853c-0.51-1.164-1.049-2.318-1.639-3.453l-78.808,78.808
					c1.135,0.59,2.289,1.129,3.453,1.639L810.101,295.853z"/>
				<path style="fill:#293A56;" d="M718.71,363.818c0.924,0.788,1.863,1.548,2.823,2.269l81.809-81.809
					c-0.721-0.96-1.481-1.899-2.269-2.823L718.71,363.818z"/>
				<path style="fill:#293A56;" d="M814.268,310.019c-0.229-1.426-0.503-2.845-0.838-4.254l-70.41,70.41
					c1.409,0.335,2.829,0.609,4.255,0.838L814.268,310.019z"/>
				<path style="fill:#293A56;" d="M812.572,302.548c-0.382-1.279-0.822-2.543-1.294-3.799l-75.274,75.274
					c1.256,0.471,2.52,0.912,3.799,1.294L812.572,302.548z"/>
				<path style="fill:#293A56;" d="M777.159,264.63c-1.256-0.471-2.52-0.912-3.799-1.294l-72.769,72.769
					c0.382,1.279,0.822,2.543,1.294,3.799L777.159,264.63z"/>
				<path style="fill:#293A56;" d="M799.148,279.307c-0.411-0.437-0.814-0.878-1.241-1.305c-0.427-0.427-0.869-0.83-1.305-1.241
					l-82.586,82.586c0.411,0.437,0.814,0.878,1.241,1.305c0.427,0.427,0.869,0.83,1.305,1.241L799.148,279.307z"/>
				<path style="fill:#293A56;" d="M727.102,268.854c-4.23,2.474-8.218,5.52-11.846,9.148s-6.673,7.616-9.148,11.846
					L727.102,268.854z"/>
				<path style="fill:#293A56;" d="M794.453,274.835c-0.924-0.788-1.863-1.548-2.823-2.269l-81.809,81.809
					c0.721,0.96,1.481,1.899,2.269,2.823L794.453,274.835z"/>
				<path style="fill:#293A56;" d="M786.061,369.8c4.23-2.474,8.218-5.52,11.846-9.148c3.628-3.628,6.673-7.616,9.148-11.846
					L786.061,369.8z"/>
				<path style="fill:#293A56;" d="M702.25,297.78c-0.971,2.453-1.776,4.956-2.403,7.495l42.682-42.682
					c-2.539,0.626-5.042,1.431-7.495,2.402L702.25,297.78z"/>
				<path style="fill:#293A56;" d="M770.143,262.479c-1.409-0.335-2.829-0.609-4.254-0.838l-66.993,66.993
					c0.229,1.426,0.503,2.845,0.838,4.254L770.143,262.479z"/>
				<path style="fill:#293A56;" d="M789.252,270.87c-1.024-0.692-2.061-1.355-3.117-1.975l-79.985,79.985
					c0.62,1.056,1.283,2.093,1.975,3.117L789.252,270.87z"/>
				<path style="fill:#293A56;" d="M762.291,261.164c-1.607-0.157-3.22-0.235-4.833-0.259l-59.298,59.298
					c0.024,1.613,0.103,3.226,0.259,4.833L762.291,261.164z"/>
				<path style="fill:#293A56;" d="M783.509,267.446c-1.135-0.59-2.289-1.129-3.453-1.639L703.062,342.8
					c0.51,1.164,1.049,2.318,1.639,3.453L783.509,267.446z"/>
			</g>
			<g style="opacity:0.5;">
				<path style="fill:#293A56;" d="M257.917,210.829c0.162-1.046,0.273-2.097,0.332-3.152l-30.493,30.493
					c1.054-0.059,2.106-0.17,3.152-0.332L257.917,210.829z"/>
				<path style="fill:#293A56;" d="M253.868,189.497c-0.343-0.585-0.711-1.159-1.094-1.726l-44.926,44.926
					c0.567,0.383,1.141,0.751,1.726,1.094L253.868,189.497z"/>
				<path style="fill:#293A56;" d="M224.125,173.554c-1.054,0.059-2.106,0.17-3.152,0.332l-27.01,27.01
					c-0.162,1.046-0.273,2.097-0.332,3.152L224.125,173.554z"/>
				<path style="fill:#293A56;" d="M256.027,217.795c0.538-1.358,0.984-2.744,1.33-4.151l-23.636,23.636
					c1.406-0.347,2.792-0.793,4.151-1.33L256.027,217.795z"/>
				<path style="fill:#293A56;" d="M258.292,205.377c-0.013-0.893-0.057-1.786-0.144-2.676l-35.371,35.371
					c0.89,0.087,1.783,0.13,2.676,0.144L258.292,205.377z"/>
				<path style="fill:#293A56;" d="M255.578,192.863c-0.283-0.645-0.581-1.284-0.908-1.912l-43.642,43.642
					c0.629,0.327,1.268,0.625,1.912,0.908L255.578,192.863z"/>
				<path style="fill:#293A56;" d="M204.967,230.501c0.512,0.436,1.032,0.857,1.563,1.257l45.304-45.304
					c-0.399-0.532-0.82-1.052-1.257-1.563L204.967,230.501z"/>
				<path style="fill:#293A56;" d="M257.885,200.708c-0.127-0.79-0.279-1.576-0.464-2.356l-38.991,38.991
					c0.78,0.185,1.566,0.337,2.356,0.464L257.885,200.708z"/>
				<path style="fill:#293A56;" d="M256.946,196.571c-0.212-0.708-0.455-1.408-0.716-2.104l-41.685,41.685
					c0.695,0.261,1.395,0.505,2.104,0.716L256.946,196.571z"/>
				<path style="fill:#293A56;" d="M237.335,175.572c-0.695-0.261-1.395-0.505-2.104-0.716l-40.298,40.298
					c0.212,0.708,0.455,1.408,0.716,2.104L237.335,175.572z"/>
				<path style="fill:#293A56;" d="M249.512,183.7c-0.228-0.242-0.451-0.486-0.687-0.723s-0.481-0.46-0.723-0.687l-45.734,45.734
					c0.228,0.242,0.451,0.486,0.687,0.723s0.481,0.46,0.723,0.687L249.512,183.7z"/>
				<path style="fill:#293A56;" d="M209.615,177.911c-2.343,1.37-4.551,3.057-6.56,5.066c-2.009,2.009-3.696,4.217-5.066,6.56
					L209.615,177.911z"/>
				<path style="fill:#293A56;" d="M246.912,181.224c-0.512-0.436-1.032-0.857-1.563-1.257l-45.304,45.304
					c0.399,0.532,0.82,1.052,1.257,1.563L246.912,181.224z"/>
				<path style="fill:#293A56;" d="M242.265,233.813c2.343-1.37,4.551-3.057,6.56-5.066c2.009-2.009,3.696-4.217,5.066-6.56
					L242.265,233.813z"/>
				<path style="fill:#293A56;" d="M195.852,193.93c-0.538,1.358-0.984,2.744-1.33,4.151l23.636-23.636
					c-1.406,0.347-2.792,0.793-4.151,1.33L195.852,193.93z"/>
				<path style="fill:#293A56;" d="M233.45,174.381c-0.78-0.185-1.566-0.337-2.356-0.464l-37.099,37.099
					c0.127,0.79,0.279,1.576,0.464,2.356L233.45,174.381z"/>
				<path style="fill:#293A56;" d="M244.032,179.028c-0.567-0.383-1.141-0.751-1.726-1.094l-44.294,44.294
					c0.343,0.585,0.711,1.159,1.094,1.726L244.032,179.028z"/>
				<path style="fill:#293A56;" d="M229.101,173.653c-0.89-0.087-1.783-0.13-2.676-0.144l-32.838,32.838
					c0.013,0.893,0.057,1.786,0.144,2.676L229.101,173.653z"/>
				<path style="fill:#293A56;" d="M240.851,177.132c-0.629-0.327-1.268-0.625-1.912-0.908l-42.637,42.637
					c0.283,0.645,0.581,1.284,0.908,1.912L240.851,177.132z"/>
			</g>
			<g style="opacity:0.5;">
				<path style="fill:#293A56;" d="M722.183,401.892c0.162-1.046,0.273-2.097,0.332-3.152l-30.494,30.494
					c1.054-0.059,2.106-0.17,3.152-0.332L722.183,401.892z"/>
				<path style="fill:#293A56;" d="M718.135,380.56c-0.343-0.585-0.711-1.159-1.094-1.726l-44.926,44.926
					c0.567,0.383,1.141,0.751,1.726,1.094L718.135,380.56z"/>
				<path style="fill:#293A56;" d="M688.391,364.617c-1.054,0.059-2.106,0.17-3.152,0.332l-27.01,27.01
					c-0.161,1.046-0.273,2.097-0.332,3.152L688.391,364.617z"/>
				<path style="fill:#293A56;" d="M720.294,408.858c0.538-1.358,0.984-2.744,1.33-4.151l-23.636,23.636
					c1.406-0.347,2.792-0.793,4.151-1.33L720.294,408.858z"/>
				<path style="fill:#293A56;" d="M722.559,396.44c-0.013-0.893-0.057-1.786-0.144-2.676l-35.371,35.371
					c0.89,0.087,1.783,0.13,2.676,0.144L722.559,396.44z"/>
				<path style="fill:#293A56;" d="M719.844,383.927c-0.283-0.645-0.581-1.284-0.908-1.912l-43.642,43.642
					c0.629,0.327,1.268,0.625,1.912,0.908L719.844,383.927z"/>
				<path style="fill:#293A56;" d="M669.234,421.564c0.512,0.436,1.032,0.857,1.563,1.257l45.304-45.304
					c-0.399-0.532-0.82-1.052-1.257-1.563L669.234,421.564z"/>
				<path style="fill:#293A56;" d="M722.152,391.772c-0.127-0.79-0.279-1.576-0.464-2.356l-38.991,38.991
					c0.78,0.185,1.566,0.337,2.356,0.464L722.152,391.772z"/>
				<path style="fill:#293A56;" d="M721.213,387.634c-0.212-0.708-0.455-1.408-0.716-2.104l-41.685,41.685
					c0.695,0.261,1.395,0.505,2.104,0.716L721.213,387.634z"/>
				<path style="fill:#293A56;" d="M701.602,366.636c-0.695-0.261-1.395-0.505-2.104-0.716L659.2,406.217
					c0.212,0.708,0.455,1.408,0.716,2.104L701.602,366.636z"/>
				<path style="fill:#293A56;" d="M713.779,374.764c-0.228-0.242-0.451-0.486-0.687-0.723s-0.481-0.46-0.723-0.687l-45.734,45.734
					c0.228,0.242,0.451,0.486,0.687,0.723s0.481,0.46,0.723,0.687L713.779,374.764z"/>
				<path style="fill:#293A56;" d="M673.882,368.975c-2.343,1.37-4.551,3.057-6.56,5.066c-2.009,2.009-3.696,4.217-5.066,6.56
					L673.882,368.975z"/>
				<path style="fill:#293A56;" d="M711.179,372.287c-0.512-0.436-1.032-0.857-1.563-1.257l-45.304,45.304
					c0.399,0.532,0.82,1.052,1.257,1.563L711.179,372.287z"/>
				<path style="fill:#293A56;" d="M706.531,424.877c2.343-1.37,4.551-3.057,6.56-5.066s3.696-4.217,5.066-6.56L706.531,424.877z"/>
				<path style="fill:#293A56;" d="M660.119,384.994c-0.538,1.358-0.984,2.744-1.33,4.151l23.636-23.636
					c-1.406,0.347-2.792,0.793-4.151,1.33L660.119,384.994z"/>
				<path style="fill:#293A56;" d="M697.717,365.445c-0.78-0.185-1.566-0.337-2.356-0.464l-37.099,37.099
					c0.127,0.79,0.279,1.576,0.464,2.356L697.717,365.445z"/>
				<path style="fill:#293A56;" d="M708.298,370.092c-0.567-0.383-1.141-0.751-1.726-1.094l-44.294,44.294
					c0.343,0.585,0.711,1.159,1.094,1.726L708.298,370.092z"/>
				<path style="fill:#293A56;" d="M693.368,364.717c-0.89-0.087-1.783-0.13-2.676-0.144l-32.838,32.838
					c0.013,0.893,0.057,1.786,0.144,2.676L693.368,364.717z"/>
				<path style="fill:#293A56;" d="M705.118,368.196c-0.629-0.327-1.268-0.625-1.912-0.908l-42.637,42.637
					c0.282,0.645,0.581,1.284,0.908,1.912L705.118,368.196z"/>
			</g>
			<g style="opacity:0.5;">
				<path style="fill:#293A56;" d="M189.403,489.144c0.162-1.046,0.273-2.097,0.332-3.152l-30.494,30.494
					c1.054-0.059,2.106-0.17,3.152-0.332L189.403,489.144z"/>
				<path style="fill:#293A56;" d="M185.355,467.812c-0.343-0.585-0.711-1.159-1.094-1.726l-44.926,44.926
					c0.567,0.383,1.141,0.751,1.726,1.094L185.355,467.812z"/>
				<path style="fill:#293A56;" d="M155.611,451.869c-1.054,0.059-2.106,0.17-3.152,0.332l-27.01,27.01
					c-0.162,1.046-0.273,2.097-0.332,3.152L155.611,451.869z"/>
				<path style="fill:#293A56;" d="M187.514,496.11c0.538-1.358,0.984-2.744,1.33-4.151l-23.636,23.636
					c1.406-0.347,2.792-0.793,4.151-1.33L187.514,496.11z"/>
				<path style="fill:#293A56;" d="M189.779,483.692c-0.013-0.893-0.057-1.786-0.144-2.676l-35.371,35.371
					c0.89,0.087,1.783,0.13,2.676,0.144L189.779,483.692z"/>
				<path style="fill:#293A56;" d="M187.064,471.178c-0.283-0.645-0.581-1.284-0.908-1.912l-43.642,43.642
					c0.629,0.327,1.268,0.625,1.912,0.908L187.064,471.178z"/>
				<path style="fill:#293A56;" d="M136.454,508.816c0.512,0.436,1.032,0.857,1.563,1.257l45.304-45.304
					c-0.399-0.532-0.82-1.052-1.257-1.563L136.454,508.816z"/>
				<path style="fill:#293A56;" d="M189.372,479.023c-0.127-0.79-0.279-1.576-0.464-2.356l-38.991,38.991
					c0.78,0.185,1.566,0.337,2.356,0.464L189.372,479.023z"/>
				<path style="fill:#293A56;" d="M188.433,474.886c-0.212-0.708-0.455-1.408-0.716-2.104l-41.685,41.685
					c0.695,0.261,1.395,0.505,2.104,0.716L188.433,474.886z"/>
				<path style="fill:#293A56;" d="M168.822,453.888c-0.695-0.261-1.395-0.505-2.104-0.716l-40.298,40.298
					c0.212,0.708,0.455,1.408,0.716,2.104L168.822,453.888z"/>
				<path style="fill:#293A56;" d="M180.999,462.015c-0.228-0.242-0.451-0.486-0.687-0.723s-0.481-0.46-0.723-0.687l-45.734,45.734
					c0.228,0.242,0.451,0.486,0.687,0.723s0.481,0.46,0.723,0.687L180.999,462.015z"/>
				<path style="fill:#293A56;" d="M141.101,456.227c-2.343,1.37-4.551,3.057-6.56,5.066c-2.009,2.009-3.696,4.217-5.066,6.56
					L141.101,456.227z"/>
				<path style="fill:#293A56;" d="M178.399,459.539c-0.512-0.436-1.032-0.857-1.563-1.257l-45.304,45.304
					c0.399,0.532,0.82,1.052,1.257,1.563L178.399,459.539z"/>
				<path style="fill:#293A56;" d="M173.751,512.129c2.343-1.37,4.551-3.057,6.56-5.066c2.009-2.009,3.696-4.217,5.066-6.56
					L173.751,512.129z"/>
				<path style="fill:#293A56;" d="M127.339,472.245c-0.538,1.358-0.984,2.744-1.33,4.151l23.636-23.636
					c-1.406,0.347-2.792,0.793-4.151,1.33L127.339,472.245z"/>
				<path style="fill:#293A56;" d="M164.937,452.696c-0.78-0.185-1.566-0.337-2.356-0.464l-37.099,37.099
					c0.127,0.79,0.279,1.576,0.464,2.356L164.937,452.696z"/>
				<path style="fill:#293A56;" d="M175.518,457.343c-0.567-0.383-1.141-0.751-1.726-1.094l-44.294,44.294
					c0.343,0.585,0.711,1.159,1.094,1.726L175.518,457.343z"/>
				<path style="fill:#293A56;" d="M160.588,451.969c-0.89-0.087-1.783-0.13-2.676-0.144l-32.838,32.838
					c0.013,0.893,0.057,1.786,0.144,2.676L160.588,451.969z"/>
				<path style="fill:#293A56;" d="M172.338,455.447c-0.629-0.327-1.268-0.625-1.912-0.908l-42.637,42.637
					c0.282,0.645,0.581,1.284,0.908,1.912L172.338,455.447z"/>
			</g>
			<g>
				<path style="fill:#293A56;" d="M655.68,267.659c0,0.543-0.47,0.971-1.011,0.926c-5.235-0.444-7.956-4.332-10.594-8.1
					c-2.647-3.782-5.148-7.353-10.09-7.353c-4.943,0-7.443,3.572-10.091,7.353c-2.802,4.003-5.699,8.142-11.605,8.142
					c-5.904,0-8.801-4.139-11.603-8.142c-2.647-3.781-5.148-7.353-10.089-7.353c-4.941,0-7.441,3.572-10.088,7.353
					c-2.802,4.003-5.699,8.142-11.603,8.142c-5.904,0-8.801-4.139-11.603-8.142c-2.496-3.566-4.861-6.945-9.265-7.319
					c-0.469-0.04-0.823-0.445-0.823-0.916l0,0c0-0.543,0.47-0.971,1.011-0.926c5.234,0.444,7.955,4.332,10.592,8.1
					c2.647,3.782,5.147,7.353,10.088,7.353c4.941,0,7.441-3.572,10.088-7.353c2.802-4.003,5.699-8.142,11.603-8.142
					c5.905,0,8.802,4.139,11.603,8.142c2.647,3.781,5.147,7.353,10.089,7.353c4.942,0,7.443-3.572,10.09-7.353
					c2.802-4.003,5.7-8.142,11.605-8.142s8.802,4.139,11.605,8.142c2.496,3.566,4.862,6.945,9.267,7.319
					C655.326,266.783,655.68,267.189,655.68,267.659L655.68,267.659z"/>
			</g>
			<g>
				<path style="fill:#293A56;" d="M655.68,250.315c0,0.543-0.47,0.971-1.011,0.926c-5.235-0.444-7.956-4.332-10.594-8.1
					c-2.647-3.782-5.148-7.353-10.09-7.353c-4.943,0-7.443,3.572-10.091,7.353c-2.802,4.003-5.699,8.142-11.605,8.142
					c-5.904,0-8.801-4.139-11.603-8.142c-2.647-3.781-5.148-7.353-10.089-7.353c-4.941,0-7.441,3.572-10.088,7.353
					c-2.802,4.003-5.699,8.142-11.603,8.142c-5.904,0-8.801-4.139-11.603-8.142c-2.496-3.566-4.861-6.945-9.265-7.319
					c-0.469-0.04-0.823-0.445-0.823-0.916v0c0-0.543,0.47-0.971,1.011-0.926c5.234,0.444,7.955,4.332,10.592,8.1
					c2.647,3.782,5.147,7.353,10.088,7.353c4.941,0,7.441-3.572,10.088-7.353c2.802-4.003,5.699-8.142,11.603-8.142
					c5.905,0,8.802,4.139,11.603,8.142c2.647,3.781,5.147,7.353,10.089,7.353c4.942,0,7.443-3.572,10.09-7.353
					c2.802-4.003,5.7-8.142,11.605-8.142s8.802,4.139,11.605,8.142c2.496,3.566,4.862,6.945,9.267,7.319
					C655.326,249.44,655.68,249.845,655.68,250.315L655.68,250.315z"/>
			</g>
			<g>
				<path style="fill:#293A56;" d="M68.896,203.798c0,0.543-0.47,0.971-1.011,0.926c-5.235-0.444-7.956-4.332-10.594-8.1
					c-2.647-3.782-5.148-7.353-10.09-7.353c-4.943,0-7.444,3.572-10.091,7.353c-2.802,4.003-5.699,8.142-11.605,8.142
					c-5.904,0-8.801-4.139-11.603-8.142c-2.647-3.781-5.147-7.353-10.089-7.353c-4.941,0-7.441,3.572-10.088,7.353
					c-2.802,4.003-5.699,8.142-11.603,8.142s-8.801-4.139-11.603-8.142c-2.496-3.566-4.861-6.945-9.265-7.319
					c-0.469-0.04-0.823-0.445-0.823-0.916v0c0-0.543,0.47-0.971,1.011-0.926c5.234,0.444,7.955,4.332,10.592,8.1
					c2.647,3.782,5.147,7.353,10.088,7.353c4.941,0,7.441-3.572,10.088-7.353c2.802-4.003,5.699-8.142,11.603-8.142
					c5.905,0,8.802,4.139,11.603,8.142c2.647,3.781,5.147,7.353,10.089,7.353c4.942,0,7.443-3.572,10.09-7.353
					c2.802-4.003,5.7-8.142,11.605-8.142s8.802,4.139,11.605,8.142c2.496,3.566,4.862,6.945,9.267,7.319
					C68.542,202.923,68.896,203.328,68.896,203.798L68.896,203.798z"/>
			</g>
			<g>
				<path style="fill:#293A56;" d="M68.896,186.455c0,0.543-0.47,0.971-1.011,0.926c-5.235-0.444-7.956-4.332-10.594-8.1
					c-2.647-3.782-5.148-7.353-10.09-7.353c-4.943,0-7.444,3.572-10.091,7.353c-2.802,4.003-5.699,8.142-11.605,8.142
					c-5.904,0-8.801-4.139-11.603-8.142c-2.647-3.781-5.147-7.353-10.089-7.353c-4.941,0-7.441,3.572-10.088,7.353
					c-2.802,4.003-5.699,8.142-11.603,8.142s-8.801-4.139-11.603-8.142c-2.496-3.566-4.861-6.945-9.265-7.319
					c-0.469-0.04-0.823-0.445-0.823-0.916l0,0c0-0.543,0.47-0.971,1.011-0.926c5.234,0.444,7.955,4.332,10.592,8.1
					c2.647,3.782,5.147,7.353,10.088,7.353c4.941,0,7.441-3.572,10.088-7.353c2.802-4.003,5.699-8.142,11.603-8.142
					c5.905,0,8.802,4.139,11.603,8.142c2.647,3.781,5.147,7.353,10.089,7.353c4.942,0,7.443-3.572,10.09-7.353
					c2.802-4.003,5.7-8.142,11.605-8.142s8.802,4.139,11.605,8.142c2.496,3.566,4.862,6.945,9.267,7.319
					C68.542,185.579,68.896,185.984,68.896,186.455L68.896,186.455z"/>
			</g>
			<g>
				<path style="fill:#293A56;" d="M392.543,491.882c0,0.543-0.47,0.971-1.011,0.926c-5.235-0.444-7.956-4.332-10.594-8.1
					c-2.647-3.782-5.148-7.353-10.09-7.353c-4.943,0-7.443,3.572-10.091,7.353c-2.802,4.003-5.699,8.142-11.605,8.142
					c-5.904,0-8.801-4.139-11.603-8.142c-2.647-3.781-5.148-7.353-10.089-7.353c-4.941,0-7.441,3.572-10.088,7.353
					c-2.802,4.003-5.699,8.142-11.603,8.142c-5.904,0-8.801-4.139-11.603-8.142c-2.496-3.566-4.861-6.945-9.265-7.319
					c-0.469-0.04-0.823-0.445-0.823-0.916l0,0c0-0.543,0.47-0.971,1.011-0.926c5.234,0.444,7.955,4.332,10.592,8.1
					c2.647,3.782,5.147,7.353,10.088,7.353c4.941,0,7.441-3.572,10.088-7.353c2.802-4.003,5.699-8.142,11.603-8.142
					c5.905,0,8.802,4.139,11.603,8.142c2.647,3.781,5.147,7.353,10.089,7.353c4.942,0,7.443-3.572,10.09-7.353
					c2.802-4.003,5.7-8.142,11.605-8.142s8.802,4.139,11.605,8.142c2.496,3.566,4.862,6.945,9.267,7.319
					C392.189,491.006,392.543,491.411,392.543,491.882L392.543,491.882z"/>
			</g>
			<g>
				<path style="fill:#293A56;" d="M392.543,474.538c0,0.543-0.47,0.971-1.011,0.926c-5.235-0.444-7.956-4.332-10.594-8.1
					c-2.647-3.782-5.148-7.353-10.09-7.353c-4.943,0-7.443,3.572-10.091,7.353c-2.802,4.003-5.699,8.142-11.605,8.142
					c-5.904,0-8.801-4.139-11.603-8.142c-2.647-3.781-5.148-7.353-10.089-7.353c-4.941,0-7.441,3.572-10.088,7.353
					c-2.802,4.003-5.699,8.142-11.603,8.142c-5.904,0-8.801-4.139-11.603-8.142c-2.496-3.566-4.861-6.945-9.265-7.319
					c-0.469-0.04-0.823-0.445-0.823-0.916v0c0-0.543,0.47-0.971,1.011-0.926c5.234,0.444,7.955,4.332,10.592,8.1
					c2.647,3.782,5.147,7.353,10.088,7.353c4.941,0,7.441-3.572,10.088-7.353c2.802-4.003,5.699-8.142,11.603-8.142
					c5.905,0,8.802,4.139,11.603,8.142c2.647,3.781,5.147,7.353,10.089,7.353c4.942,0,7.443-3.572,10.09-7.353
					c2.802-4.003,5.7-8.142,11.605-8.142s8.802,4.139,11.605,8.142c2.496,3.566,4.862,6.945,9.267,7.319
					C392.189,473.663,392.543,474.068,392.543,474.538L392.543,474.538z"/>
			</g>
			<circle style="fill:#219DBB;" cx="179.735" cy="21.433" r="18.656"/>
			<circle style="fill:#219DBB;" cx="251.755" cy="393.517" r="18.656"/>
			<circle style="fill:#219DBB;" cx="-3.355" cy="300.671" r="18.656"/>
			<circle style="fill:#219DBB;" cx="515.543" cy="378.332" r="18.656"/>
			<circle style="fill:#219DBB;" cx="576.283" cy="78.052" r="18.656"/>
			<polygon style="fill:#FFB603;" points="141.101,170.997 121.942,170.997 141.101,151.838 160.261,170.997 			"/>
			<polygon style="fill:#FFB603;" points="579.618,446.367 560.459,446.367 579.618,427.208 598.778,446.367 			"/>
			<polygon style="fill:#FFB603;" points="698.033,198.499 698.033,179.34 717.192,198.499 698.033,217.659 			"/>
			<polygon style="fill:#FFB603;" points="684.056,69.006 674.476,69.006 684.056,59.427 693.635,69.006 			"/>
			<polygon style="fill:#FFB603;" points="628.889,367.854 628.889,358.275 638.468,367.854 628.889,377.434 			"/>
			<polygon style="fill:#FFB603;" points="293.658,41.503 303.237,41.503 293.658,51.083 284.078,41.503 			"/>
			<polygon style="fill:#FFB603;" points="27.636,84.577 27.636,74.997 37.216,84.577 27.636,94.156 			"/>
			<polygon style="fill:#FFB603;" points="155.914,437.327 146.335,437.327 155.914,427.747 165.494,437.327 			"/>
			<g>
				<path style="fill:#293A56;" d="M172.625,296.066h-59.537c-7.509,0-13.618-6.109-13.618-13.618
					c0-7.509,6.109-13.618,13.618-13.618h59.537c7.509,0,13.618,6.109,13.618,13.618
					C186.242,289.957,180.134,296.066,172.625,296.066z M113.088,270.731c-6.461,0-11.717,5.256-11.717,11.717
					s5.256,11.717,11.717,11.717h59.537c6.461,0,11.717-5.256,11.717-11.717s-5.256-11.717-11.717-11.717H113.088z"/>
			</g>
			<g>
				<path style="fill:#293A56;" d="M771.845,133.608h-59.537c-7.509,0-13.617-6.109-13.617-13.618
					c0-7.509,6.109-13.618,13.617-13.618h59.537c7.509,0,13.618,6.109,13.618,13.618
					C785.463,127.499,779.354,133.608,771.845,133.608z M712.308,108.273c-6.461,0-11.717,5.256-11.717,11.717
					s5.256,11.717,11.717,11.717h59.537c6.461,0,11.717-5.256,11.717-11.717s-5.256-11.717-11.717-11.717H712.308z"/>
			</g>
			<g>
				<path style="fill:#293A56;" d="M616.617,513.618H557.08c-7.509,0-13.617-6.109-13.617-13.618
					c0-7.509,6.109-13.618,13.617-13.618h59.537c7.509,0,13.618,6.109,13.618,13.618
					C630.235,507.509,624.126,513.618,616.617,513.618z M557.08,488.283c-6.461,0-11.717,5.256-11.717,11.717
					s5.256,11.717,11.717,11.717h59.537c6.461,0,11.717-5.256,11.717-11.717s-5.256-11.717-11.717-11.717H557.08z"/>
			</g>
			<g>
				<path style="fill:#293A56;" d="M29.769,439.408h-59.537c-7.509,0-13.618-6.109-13.618-13.618
					c0-7.509,6.109-13.618,13.618-13.618h59.537c7.509,0,13.618,6.109,13.618,13.618C43.386,433.299,37.278,439.408,29.769,439.408z
					 M-29.769,414.073c-6.461,0-11.717,5.256-11.717,11.717s5.256,11.717,11.717,11.717h59.537c6.461,0,11.717-5.256,11.717-11.717
					s-5.256-11.717-11.717-11.717H-29.769z"/>
			</g>
			<g>
				<g>
					<path style="fill:#293A56;" d="M358.919,71.158c-19.856,0-36.01-16.154-36.01-36.01V-22.99c0-19.856,16.154-36.01,36.01-36.01
						c19.856,0,36.01,16.154,36.01,36.01v58.137C394.93,55.004,378.775,71.158,358.919,71.158z M358.919-57.265
						c-18.899,0-34.275,15.376-34.275,34.275v58.137c0,18.899,15.376,34.275,34.275,34.275c18.899,0,34.275-15.376,34.275-34.275
						V-22.99C393.194-41.889,377.818-57.265,358.919-57.265z"/>
				</g>
				<g>
					<path style="fill:#293A56;" d="M358.919,67.687c-17.943,0-32.54-14.597-32.54-32.54V-22.99c0-17.943,14.597-32.54,32.54-32.54
						s32.54,14.597,32.54,32.54v58.137C391.459,53.09,376.862,67.687,358.919,67.687z M358.919-53.794
						c-16.985,0-30.804,13.819-30.804,30.804v58.137c0,16.985,13.819,30.804,30.804,30.804c16.986,0,30.804-13.819,30.804-30.804
						V-22.99C389.723-39.975,375.905-53.794,358.919-53.794z"/>
				</g>
				<g>
					<path style="fill:#293A56;" d="M358.919,64.216c-16.029,0-29.069-13.04-29.069-29.069V-22.99
						c0-16.029,13.04-29.069,29.069-29.069c16.028,0,29.069,13.04,29.069,29.069v58.137
						C387.988,51.177,374.947,64.216,358.919,64.216z M358.919-50.323c-15.072,0-27.333,12.262-27.333,27.333v58.137
						c0,15.072,12.262,27.333,27.333,27.333c15.072,0,27.333-12.262,27.333-27.333V-22.99
						C386.252-38.061,373.991-50.323,358.919-50.323z"/>
				</g>
			</g>
			<g>
				<g>
					<path style="fill:#293A56;" d="M481.353,557.039c-19.856,0-36.01-16.154-36.01-36.01v-58.137
						c0-19.856,16.154-36.01,36.01-36.01c19.856,0,36.01,16.154,36.01,36.01v58.137
						C517.363,540.884,501.209,557.039,481.353,557.039z M481.353,428.616c-18.899,0-34.275,15.376-34.275,34.275v58.137
						c0,18.899,15.376,34.275,34.275,34.275c18.899,0,34.275-15.376,34.275-34.275v-58.137
						C515.628,443.992,500.252,428.616,481.353,428.616z"/>
				</g>
				<g>
					<path style="fill:#293A56;" d="M481.353,553.568c-17.943,0-32.54-14.597-32.54-32.54v-58.137
						c0-17.943,14.597-32.54,32.54-32.54c17.943,0,32.54,14.597,32.54,32.54v58.137
						C513.893,538.971,499.296,553.568,481.353,553.568z M481.353,432.087c-16.985,0-30.804,13.819-30.804,30.804v58.137
						c0,16.985,13.819,30.804,30.804,30.804c16.986,0,30.804-13.819,30.804-30.804v-58.137
						C512.157,445.905,498.339,432.087,481.353,432.087z"/>
				</g>
				<g>
					<path style="fill:#293A56;" d="M481.353,550.097c-16.029,0-29.069-13.04-29.069-29.069v-58.137
						c0-16.029,13.04-29.069,29.069-29.069c16.028,0,29.069,13.04,29.069,29.069v58.137
						C510.422,537.057,497.381,550.097,481.353,550.097z M481.353,435.557c-15.072,0-27.333,12.262-27.333,27.333v58.137
						c0,15.072,12.262,27.333,27.333,27.333c15.072,0,27.333-12.262,27.333-27.333v-58.137
						C508.686,447.819,496.425,435.557,481.353,435.557z"/>
				</g>
			</g>
		</g>
	</g>
</g>
</svg>
