<?xml version="1.0" encoding="utf-8"?>
<!-- Generator: Adobe Illustrator 27.5.0, SVG Export Plug-In . SVG Version: 6.00 Build 0)  -->
<svg version="1.1" xmlns="http://www.w3.org/2000/svg" xmlns:xlink="http://www.w3.org/1999/xlink" x="0px" y="0px"
	 viewBox="0 0 500 500" style="enable-background:new 0 0 500 500;" xml:space="preserve">
<g id="BACKGROUND">
	<rect x="-0.001" style="fill:#FFFFFF;" width="500" height="500"/>
</g>
<g id="OBJECTS">
	<g style="opacity:0.7;">
		<g>
			<rect x="85.814" y="208.498" style="fill:#7B8C9D;" width="9.209" height="11.83"/>
			<path style="fill:#CED4DA;" d="M126.114,232.846c0-7.106-15.981-17.122-35.695-17.122s-35.695,10.016-35.695,17.122
				c0,7.106,15.981,12.867,35.695,12.867S126.114,239.952,126.114,232.846z"/>
			<rect x="54.723" y="232.846" style="fill:#7B8C9D;" width="71.39" height="179.349"/>
			<rect x="117.74" y="232.846" style="opacity:0.15;fill:#CED4DA;" width="8.374" height="179.349"/>
			<path style="fill:#7B8C9D;" d="M95.847,208.498c0-1.244-2.43-2.253-5.428-2.253s-5.428,1.008-5.428,2.253H95.847z"/>
			<path style="fill:#13304E;" d="M94.374,209.971h-7.911c-0.813,0-1.473-0.659-1.473-1.473l0,0h10.857l0,0
				C95.847,209.312,95.188,209.971,94.374,209.971z"/>
		</g>
		<path style="fill:#13304E;" d="M128.493,237.135H52.344c-1.184,0-2.144-0.96-2.144-2.145l0,0c0-1.184,0.96-2.145,2.144-2.145
			h76.148c1.184,0,2.145,0.96,2.145,2.145l0,0C130.637,236.174,129.677,237.135,128.493,237.135z"/>
		<path style="opacity:0.15;fill:#CED4DA;" d="M61.665,295.36L61.665,295.36c-0.716,0-1.297-0.581-1.297-1.297v-50.589
			c0-0.716,0.581-1.297,1.297-1.297l0,0c0.716,0,1.297,0.581,1.297,1.297v50.589C62.962,294.779,62.381,295.36,61.665,295.36z"/>
		
			<rect x="80.095" y="255.832" transform="matrix(0.7071 0.7071 -0.7071 0.7071 214.6835 14.0196)" style="opacity:0.4;fill:#4A318F;" width="20.647" height="20.647"/>
		
			<rect x="85.081" y="260.818" transform="matrix(0.7071 0.7071 -0.7071 0.7071 214.6835 14.0196)" style="opacity:0.4;fill:#4A318F;" width="10.676" height="10.676"/>
	</g>
	<g>
		<g>
			<rect x="158.609" y="147.261" style="fill:#7B8C9D;" width="12.987" height="16.683"/>
			<path style="fill:#CED4DA;" d="M215.441,181.597c0-10.022-22.538-24.146-50.339-24.146c-27.801,0-50.339,14.125-50.339,24.146
				c0,10.022,22.538,18.146,50.339,18.146C192.904,199.743,215.441,191.618,215.441,181.597z"/>
			<rect x="114.763" y="181.597" style="fill:#7B8C9D;" width="100.678" height="252.926"/>
			<rect x="203.632" y="181.597" style="opacity:0.15;fill:#CED4DA;" width="11.809" height="252.926"/>
			<path style="fill:#7B8C9D;" d="M172.757,147.261c0-1.754-3.427-3.177-7.655-3.177c-4.228,0-7.655,1.422-7.655,3.177H172.757z"/>
			<path style="fill:#13304E;" d="M170.68,149.338h-11.156c-1.147,0-2.077-0.93-2.077-2.077l0,0h15.311l0,0
				C172.757,148.408,171.827,149.338,170.68,149.338z"/>
		</g>
		<path style="fill:#13304E;" d="M218.796,187.645H111.408c-1.67,0-3.024-1.354-3.024-3.024l0,0c0-1.67,1.354-3.024,3.024-3.024
			h107.388c1.67,0,3.024,1.354,3.024,3.024l0,0C221.82,186.291,220.466,187.645,218.796,187.645z"/>
		<path style="opacity:0.15;fill:#CED4DA;" d="M124.552,269.758L124.552,269.758c-1.01,0-1.829-0.819-1.829-1.829v-71.343
			c0-1.01,0.819-1.829,1.829-1.829l0,0c1.01,0,1.829,0.819,1.829,1.829v71.343C126.381,268.939,125.562,269.758,124.552,269.758z"/>
		
			<rect x="150.543" y="214.014" transform="matrix(0.7071 0.7071 -0.7071 0.7071 209.9822 -49.7976)" style="opacity:0.4;fill:#4A318F;" width="29.117" height="29.117"/>
		
			<rect x="157.574" y="221.044" transform="matrix(0.7071 0.7071 -0.7071 0.7071 209.981 -49.7978)" style="opacity:0.4;fill:#4A318F;" width="15.056" height="15.056"/>
	</g>
	<g>
		<path style="fill:#9FC86A;" d="M337.621,433.387c0,0-32.692-52.753,39.877-88.411
			C393.765,421.703,337.621,433.387,337.621,433.387z"/>
		<path style="opacity:0.3;fill:#59843D;" d="M337.621,433.387l39.877-88.411C393.765,421.703,337.621,433.387,337.621,433.387z"/>
	</g>
	<g>
		<path style="fill:#59843D;" d="M328.237,438.701c0,0-10.391-69.611,81.19-74.204C391.957,451.713,328.237,438.701,328.237,438.701
			z"/>
		<path style="opacity:0.3;fill:#59843D;" d="M328.237,438.701l81.19-74.204C391.957,451.713,328.237,438.701,328.237,438.701z"/>
	</g>
	<g>
		<path style="fill:#59843D;" d="M252.057,445.813c0,0-69.096-13.396-42.913-101.274
			C285.556,390.069,252.057,445.813,252.057,445.813z"/>
		<path style="opacity:0.3;fill:#59843D;" d="M252.057,445.813l-42.913-101.274C285.556,390.069,252.057,445.813,252.057,445.813z"
			/>
	</g>
	<g>
		<path style="fill:#9FC86A;" d="M86.835,441.844c0,0,32.692-52.753-39.877-88.411C30.691,430.161,86.835,441.844,86.835,441.844z"
			/>
		<path style="opacity:0.3;fill:#59843D;" d="M86.835,441.844l-39.877-88.411C30.691,430.161,86.835,441.844,86.835,441.844z"/>
	</g>
	<g>
		<path style="fill:#59843D;" d="M96.219,447.158c0,0,10.391-69.611-81.19-74.204C32.499,460.17,96.219,447.158,96.219,447.158z"/>
		<path style="opacity:0.3;fill:#59843D;" d="M96.219,447.158l-81.19-74.204C32.499,460.17,96.219,447.158,96.219,447.158z"/>
	</g>
	<g>
		<g>
			<rect x="436.349" y="176.601" style="fill:#FBD34C;" width="9.57" height="257.3"/>
			<rect x="245.209" y="176.601" style="fill:#FBD34C;" width="9.58" height="257.3"/>
			<rect x="283.099" y="176.601" style="fill:#FBD34C;" width="9.58" height="257.3"/>
			<g>
				<g>
					<path style="fill:#FBB62D;" d="M232.866,176.596h212.16c14.084,0,25.501-11.417,25.501-25.501v0
						c0-14.084-11.417-25.501-25.501-25.501h-212.16V176.596z"/>
					<path style="fill:#FB9129;" d="M232.866,176.596h179.026c14.084,0,25.501-11.417,25.501-25.501v0
						c0-14.084-11.417-25.501-25.501-25.501H232.866V176.596z"/>
				</g>
				<g>
					
						<ellipse transform="matrix(0.9239 -0.3827 0.3827 0.9239 -37.8272 110.833)" style="fill:#38516A;" cx="259.684" cy="150.502" rx="19.65" ry="19.65"/>
					
						<ellipse transform="matrix(0.7071 -0.7071 0.7071 0.7071 -30.3611 227.7054)" style="fill:#13304E;" cx="259.684" cy="150.502" rx="13.191" ry="13.191"/>
					<path style="fill:#9FC86A;" d="M254.992,152.758c0-2.591,4.692-9.205,4.692-9.205s4.692,6.614,4.692,9.205
						c0,2.591-2.101,4.692-4.692,4.692C257.093,157.45,254.992,155.35,254.992,152.758z"/>
				</g>
				<path style="fill:#13304E;" d="M343.139,167.241h63.382c1.407,0,2.548-1.141,2.548-2.548l0,0c0-1.407-1.141-2.548-2.548-2.548
					h-63.382c-1.407,0-2.548,1.141-2.548,2.548l0,0C340.591,166.1,341.732,167.241,343.139,167.241z"/>
				<path style="fill:#13304E;" d="M343.139,158.451h63.382c1.407,0,2.548-1.141,2.548-2.548l0,0c0-1.407-1.141-2.548-2.548-2.548
					h-63.382c-1.407,0-2.548,1.141-2.548,2.548l0,0C340.591,157.31,341.732,158.451,343.139,158.451z"/>
			</g>
			<rect x="245.209" y="176.601" style="fill:#FBB62D;" width="9.58" height="26.31"/>
			<rect x="283.099" y="176.601" style="fill:#FBB62D;" width="9.58" height="26.31"/>
			<rect x="250" y="182.645" style="fill:#FBB62D;" width="191.134" height="6.484"/>
			<rect x="436.349" y="176.601" style="fill:#FBB62D;" width="9.57" height="26.31"/>
		</g>
	</g>
	<path style="opacity:0.5;fill:#CED4DA;" d="M437.232,88.011h-79.974c0,0,1.762-10.607,18.143-7.539
		c-6.634-25.316,40.431-30.266,35.311-0.557C426.304,72.034,437.232,88.011,437.232,88.011z"/>
	<path style="opacity:0.5;fill:#CED4DA;" d="M96.642,151.892H34.959c0,0,1.359-8.181,13.994-5.815
		c-5.116-19.526,31.184-23.344,27.235-0.43C88.214,139.568,96.642,151.892,96.642,151.892z"/>
	<path style="opacity:0.5;fill:#CED4DA;" d="M179.236,98.491H57.525c0,0,5.67-15.098,30.05-12.601
		c14.756-27.526,53.287-27.526,63.732,0.409C179.236,77.145,179.236,98.491,179.236,98.491z"/>
	<path style="fill:#38516A;" d="M315.899,25.728H184.101c-7.163,0-12.969,5.806-12.969,12.969l0,0
		c0,7.163,5.806,12.969,12.969,12.969h131.799c7.163,0,12.969-5.806,12.969-12.969l0,0
		C328.868,31.534,323.062,25.728,315.899,25.728z"/>
	<ellipse style="fill:#9FC86A;" cx="252.868" cy="441.863" rx="231.163" ry="19.496"/>
	<ellipse style="opacity:0.5;fill:#59843D;" cx="252.868" cy="441.863" rx="211.075" ry="9.244"/>
	<g>
		<g>
			<rect x="62.574" y="325.221" style="fill:#38516A;" width="73.359" height="116.642"/>
			<rect x="62.574" y="435.944" style="fill:#13304E;" width="73.359" height="5.919"/>
			<path style="fill:#13304E;" d="M132.965,320.946H65.543c-1.64,0-2.969,1.329-2.969,2.969v5.581h73.359v-5.581
				C135.934,322.275,134.604,320.946,132.965,320.946z"/>
			<path style="fill:#13304E;" d="M135.165,340.413H63.343c-2.357,0-4.268,1.911-4.268,4.268v0.014c0,2.357,1.911,4.268,4.268,4.268
				h71.822c2.357,0,4.268-1.911,4.268-4.268v-0.014C139.433,342.324,137.522,340.413,135.165,340.413z"/>
			<path style="fill:#13304E;" d="M135.165,364.881H63.343c-2.357,0-4.268,1.911-4.268,4.268v0.014c0,2.357,1.911,4.268,4.268,4.268
				h71.822c2.357,0,4.268-1.911,4.268-4.268v-0.014C139.433,366.792,137.522,364.881,135.165,364.881z"/>
			<path style="fill:#13304E;" d="M135.165,389.349H63.343c-2.357,0-4.268,1.911-4.268,4.268v0.014c0,2.357,1.911,4.268,4.268,4.268
				h71.822c2.357,0,4.268-1.911,4.268-4.268v-0.014C139.433,391.259,137.522,389.349,135.165,389.349z"/>
			<path style="fill:#13304E;" d="M135.165,413.816H63.343c-2.357,0-4.268,1.911-4.268,4.268v0.014c0,2.357,1.911,4.268,4.268,4.268
				h71.822c2.357,0,4.268-1.911,4.268-4.268v-0.014C139.433,415.727,137.522,413.816,135.165,413.816z"/>
		</g>
		<path style="fill:#7B8C9D;" d="M132.498,344.759h-29.711c-0.566,0-1.024-0.459-1.024-1.025l0,0c0-0.566,0.459-1.025,1.024-1.025
			h29.711c0.566,0,1.024,0.459,1.024,1.025l0,0C133.522,344.3,133.064,344.759,132.498,344.759z"/>
		<path style="fill:#7B8C9D;" d="M132.498,369.416h-7.452c-0.566,0-1.024-0.459-1.024-1.024l0,0c0-0.566,0.459-1.025,1.024-1.025
			h7.452c0.566,0,1.024,0.459,1.024,1.025l0,0C133.522,368.957,133.064,369.416,132.498,369.416z"/>
		<path style="fill:#7B8C9D;" d="M132.498,394.073h-7.452c-0.566,0-1.024-0.459-1.024-1.025l0,0c0-0.566,0.459-1.025,1.024-1.025
			h7.452c0.566,0,1.024,0.459,1.024,1.025l0,0C133.522,393.614,133.064,394.073,132.498,394.073z"/>
		<path style="fill:#7B8C9D;" d="M132.498,418.73h-29.711c-0.566,0-1.024-0.459-1.024-1.025l0,0c0-0.566,0.459-1.025,1.024-1.025
			h29.711c0.566,0,1.024,0.459,1.024,1.025l0,0C133.522,418.271,133.064,418.73,132.498,418.73z"/>
		<circle style="fill:#13304E;" cx="99.254" cy="380.638" r="21.304"/>
		<path style="fill:#FBD34C;" d="M106.831,384.283c0-4.185-7.577-14.867-7.577-14.867s-7.577,10.682-7.577,14.867
			c0,4.185,3.393,7.577,7.577,7.577S106.831,388.468,106.831,384.283z"/>
		<circle style="fill:#FFFFFF;" cx="95.617" cy="385.508" r="1.532"/>
	</g>
	<g>
		<g>
			<rect x="149.372" y="325.221" style="fill:#38516A;" width="73.359" height="116.642"/>
			<rect x="149.372" y="435.944" style="fill:#13304E;" width="73.359" height="5.919"/>
			<path style="fill:#13304E;" d="M219.763,320.946h-67.421c-1.64,0-2.969,1.329-2.969,2.969v5.581h73.359v-5.581
				C222.732,322.275,221.402,320.946,219.763,320.946z"/>
			<path style="fill:#13304E;" d="M221.963,340.413h-71.822c-2.357,0-4.268,1.911-4.268,4.268v0.014
				c0,2.357,1.911,4.268,4.268,4.268h71.822c2.357,0,4.268-1.911,4.268-4.268v-0.014
				C226.231,342.324,224.32,340.413,221.963,340.413z"/>
			<path style="fill:#13304E;" d="M221.963,364.881h-71.822c-2.357,0-4.268,1.911-4.268,4.268v0.014
				c0,2.357,1.911,4.268,4.268,4.268h71.822c2.357,0,4.268-1.911,4.268-4.268v-0.014
				C226.231,366.792,224.32,364.881,221.963,364.881z"/>
			<path style="fill:#13304E;" d="M221.963,389.349h-71.822c-2.357,0-4.268,1.911-4.268,4.268v0.014
				c0,2.357,1.911,4.268,4.268,4.268h71.822c2.357,0,4.268-1.911,4.268-4.268v-0.014
				C226.231,391.259,224.32,389.349,221.963,389.349z"/>
			<path style="fill:#13304E;" d="M221.963,413.816h-71.822c-2.357,0-4.268,1.911-4.268,4.268v0.014
				c0,2.357,1.911,4.268,4.268,4.268h71.822c2.357,0,4.268-1.911,4.268-4.268v-0.014
				C226.231,415.727,224.32,413.816,221.963,413.816z"/>
		</g>
		<path style="fill:#7B8C9D;" d="M219.296,344.759h-29.711c-0.566,0-1.025-0.459-1.025-1.025l0,0c0-0.566,0.459-1.025,1.025-1.025
			h29.711c0.566,0,1.025,0.459,1.025,1.025l0,0C220.32,344.3,219.862,344.759,219.296,344.759z"/>
		<path style="fill:#7B8C9D;" d="M219.296,369.416h-7.452c-0.566,0-1.024-0.459-1.024-1.024l0,0c0-0.566,0.459-1.025,1.024-1.025
			h7.452c0.566,0,1.025,0.459,1.025,1.025l0,0C220.32,368.957,219.862,369.416,219.296,369.416z"/>
		<path style="fill:#7B8C9D;" d="M219.296,394.073h-7.452c-0.566,0-1.024-0.459-1.024-1.025l0,0c0-0.566,0.459-1.025,1.024-1.025
			h7.452c0.566,0,1.025,0.459,1.025,1.025l0,0C220.32,393.614,219.862,394.073,219.296,394.073z"/>
		<path style="fill:#7B8C9D;" d="M219.296,418.73h-29.711c-0.566,0-1.025-0.459-1.025-1.025l0,0c0-0.566,0.459-1.025,1.025-1.025
			h29.711c0.566,0,1.025,0.459,1.025,1.025l0,0C220.32,418.271,219.862,418.73,219.296,418.73z"/>
		<circle style="fill:#13304E;" cx="186.052" cy="380.638" r="21.304"/>
		<path style="fill:#FBD34C;" d="M193.63,384.283c0-4.185-7.577-14.867-7.577-14.867s-7.577,10.682-7.577,14.867
			c0,4.185,3.393,7.577,7.577,7.577C190.237,391.86,193.63,388.468,193.63,384.283z"/>
		<circle style="fill:#FFFFFF;" cx="182.415" cy="385.508" r="1.532"/>
	</g>
	<g>
		<g>
			<path style="fill:#38516A;" d="M328.908,275.801l-82.359-0.289c-4.724-0.016-8.562,3.808-8.562,8.532v158.509l99.423,0.349
				V284.333C337.41,279.633,333.608,275.818,328.908,275.801z"/>
			<path style="fill:#13304E;" d="M318.445,442.868h18.965V284.363c0-4.712-3.82-8.532-8.532-8.532h-10.433V442.868z"/>
			<rect x="248" y="288.181" style="fill:#FB9129;" width="62.562" height="23.765"/>
			<rect x="252.419" y="291.631" style="fill:#FBD34C;" width="53.73" height="16.87"/>
			<polygon style="fill:#FFFFFF;" points="298.519,291.631 293.159,308.501 287.549,308.501 292.909,291.631 			"/>
			<polygon style="fill:#FFFFFF;" points="281.359,291.631 275.999,308.501 259.829,308.501 265.189,291.631 			"/>
			<path style="fill:#13304E;" d="M261.359,350.333H251.09c-1.707,0-3.092-1.384-3.092-3.091v-25.255
				c0-1.707,1.384-3.091,3.092-3.091h10.269c1.707,0,3.091,1.384,3.091,3.091v25.255
				C264.451,348.949,263.067,350.333,261.359,350.333z"/>
			<path style="fill:#13304E;" d="M281.407,328.245h-10.269c-1.707,0-3.092-1.384-3.092-3.091v-3.167
				c0-1.707,1.384-3.091,3.092-3.091h10.269c1.707,0,3.092,1.384,3.092,3.091v3.167
				C284.498,326.861,283.114,328.245,281.407,328.245z"/>
			<path style="fill:#13304E;" d="M281.407,340.434h-10.269c-1.707,0-3.092-1.384-3.092-3.091v-3.167
				c0-1.707,1.384-3.092,3.092-3.092h10.269c1.707,0,3.092,1.384,3.092,3.092v3.167
				C284.498,339.049,283.114,340.434,281.407,340.434z"/>
			<path style="fill:#13304E;" d="M303.923,434.106H251.57c-2.245,0-4.071-1.826-4.071-4.07v-57.747c0-2.244,1.826-4.07,4.071-4.07
				h52.353c2.244,0,4.07,1.826,4.07,4.07v57.747C307.993,432.28,306.167,434.106,303.923,434.106z M251.57,369.219
				c-1.693,0-3.071,1.377-3.071,3.07v57.747c0,1.693,1.377,3.07,3.071,3.07h52.353c1.693,0,3.07-1.377,3.07-3.07v-57.747
				c0-1.693-1.377-3.07-3.07-3.07H251.57z"/>
			<path style="fill:#7B8C9D;" d="M299.617,380.348h-13.14c-1.093,0-1.98-0.886-1.98-1.98v-1.847c0-1.093,0.886-1.98,1.98-1.98
				h13.14c1.093,0,1.98,0.886,1.98,1.98v1.847C301.597,379.462,300.711,380.348,299.617,380.348z"/>
			<path style="fill:#7B8C9D;" d="M299.617,389.854h-13.14c-1.093,0-1.98-0.886-1.98-1.98v-1.847c0-1.093,0.886-1.98,1.98-1.98
				h13.14c1.093,0,1.98,0.886,1.98,1.98v1.847C301.597,388.968,300.711,389.854,299.617,389.854z"/>
			<path style="fill:#7B8C9D;" d="M299.617,399.361h-13.14c-1.093,0-1.98-0.886-1.98-1.98v-1.847c0-1.093,0.886-1.98,1.98-1.98
				h13.14c1.093,0,1.98,0.886,1.98,1.98v1.847C301.597,398.474,300.711,399.361,299.617,399.361z"/>
			<path style="fill:#7B8C9D;" d="M299.617,408.867h-13.14c-1.093,0-1.98-0.886-1.98-1.98v-1.847c0-1.093,0.886-1.98,1.98-1.98
				h13.14c1.093,0,1.98,0.886,1.98,1.98v1.847C301.597,407.981,300.711,408.867,299.617,408.867z"/>
			
				<ellipse transform="matrix(0.7071 -0.7071 0.7071 0.7071 -152.9915 311.5128)" style="fill:#13304E;" cx="299.533" cy="340.433" rx="9.021" ry="9.021"/>
			<circle style="fill:#38516A;" cx="299.534" cy="340.434" r="6.724"/>
			<path style="fill:#7B8C9D;" d="M303.224,340.434c0-2.038-1.652-3.69-3.69-3.69c-2.038,0-3.69,1.652-3.69,3.69
				c0,2.038,1.652,3.69,3.69,3.69C301.571,344.124,303.224,342.471,303.224,340.434z"/>
			<path style="fill:#7B8C9D;" d="M331.72,352.786c-3.875,0-8.067-0.558-12.545-1.682c-11.375-2.853-20.541-8.296-20.926-8.526
				c-1.184-0.709-1.569-2.243-0.861-3.428c0.708-1.184,2.244-1.569,3.428-0.862c0.346,0.206,34.698,20.402,49.508,1.192
				c5.862-7.604,5.049-20.369,4.189-33.884c-1.188-18.648-2.533-39.783,17.021-46.552c1.307-0.451,2.729,0.24,3.18,1.545
				c0.452,1.305-0.24,2.729-1.544,3.18c-15.958,5.523-14.845,23.003-13.667,41.509c0.881,13.844,1.793,28.159-5.219,37.255
				C349.046,349.33,341.365,352.786,331.72,352.786z"/>
		</g>
		<g>
			<path style="fill:#13304E;" d="M410.662,246.409l-20.526,5.751l-3.649-5.785l23.065-4.602c0.969-0.193,1.957,0.231,2.484,1.066
				l0,0C412.888,244.189,412.199,245.978,410.662,246.409z"/>
			<g>
				<g>
					<path style="fill:#FBD34C;" d="M389.745,261.185L389.745,261.185l-3.172-5.029l1.838-1.159l2.013,3.191
						C391.064,259.203,390.76,260.545,389.745,261.185z"/>
					<path style="fill:#FBB62D;" d="M395.743,253.896l-10.722,6.764l-14.946,14.134c-1.983,1.876-5.186,1.472-6.642-0.836
						l-4.471-7.087c-1.277-2.024-0.671-4.7,1.353-5.977l28.501-17.979L395.743,253.896z"/>
					
						<rect x="393.162" y="251.661" transform="matrix(0.8458 -0.5335 0.5335 0.8458 -75.8729 250.3167)" style="fill:#FBB62D;" width="3.816" height="9.491"/>
					
						<rect x="384.383" y="261.243" transform="matrix(0.8458 -0.5335 0.5335 0.8458 -79.5697 249.6546)" style="fill:#FBB62D;" width="15.365" height="2.446"/>
					
						<rect x="382.404" y="258.345" transform="matrix(-0.8458 0.5335 -0.5335 -0.8458 850.0223 280.4877)" style="fill:#FBB62D;" width="4.142" height="9.491"/>
				</g>
				<path style="fill:#FBD34C;" d="M370.298,268.72c-0.573-0.908-1.773-1.18-2.681-0.607c-0.908,0.573-1.18,1.773-0.607,2.681
					c0.573,0.908,1.773,1.18,2.681,0.607C370.599,270.829,370.871,269.628,370.298,268.72z"/>
				<path style="fill:#FBD34C;" d="M376.28,263.199c-0.573-0.908-1.773-1.18-2.681-0.607c-0.908,0.573-1.18,1.773-0.607,2.681
					c0.573,0.908,1.773,1.18,2.681,0.607C376.581,265.308,376.852,264.108,376.28,263.199z"/>
			</g>
		</g>
		<path style="fill:#9FC86A;" d="M417.097,260.348c0-2.591-4.692-9.205-4.692-9.205s-4.692,6.614-4.692,9.205
			c0,2.591,2.101,4.692,4.692,4.692C414.997,265.039,417.097,262.939,417.097,260.348z"/>
		<path style="fill:#9FC86A;" d="M417.097,279.253c0-2.591-4.692-9.205-4.692-9.205s-4.692,6.614-4.692,9.205
			c0,2.591,2.101,4.692,4.692,4.692C414.997,283.945,417.097,281.844,417.097,279.253z"/>
	</g>
	<g>
		
			<rect x="381.989" y="389.423" transform="matrix(0.9647 0.2632 -0.2632 0.9647 118.389 -87.6348)" style="fill:#FBD34C;" width="8.541" height="17.207"/>
		<path style="fill:#FB9129;" d="M393.506,392.654l-10.494-2.863c-0.537-0.147-0.854-0.701-0.708-1.239l0.582-2.135
			c0.147-0.537,0.701-0.854,1.239-0.708l10.495,2.863c0.537,0.147,0.854,0.701,0.708,1.239l-0.582,2.135
			C394.598,392.483,394.044,392.8,393.506,392.654z"/>
		<path style="fill:#FB9129;" d="M378.609,392.246v-2.555c0-1.315-1.066-2.381-2.381-2.381h-23.392
			c-1.315,0-2.381,1.066-2.381,2.381v50.969c0,1.315,1.066,2.381,2.381,2.381h42.028c1.315,0,2.381-1.066,2.381-2.381V400.9
			c0-1.077-0.724-2.021-1.764-2.3l-15.108-4.054C379.332,394.267,378.609,393.324,378.609,392.246z"/>
		<path style="fill:#FBD34C;" d="M388.074,437.927h-29.083c-1.518,0-2.749-1.231-2.749-2.749V407.92
			c0-1.518,1.231-2.749,2.749-2.749h29.083c1.518,0,2.749,1.231,2.749,2.749v27.258
			C390.823,436.696,389.592,437.927,388.074,437.927z"/>
		
			<ellipse transform="matrix(0.9732 -0.2298 0.2298 0.9732 -86.86 97.0975)" style="fill:#FB9129;" cx="373.532" cy="421.549" rx="8.374" ry="8.374"/>
		<path style="fill:#FBB62D;" d="M378.956,421.548c0-2.995-2.428-5.424-5.424-5.424c-2.995,0-5.424,2.428-5.424,5.424
			c0,2.996,2.428,5.424,5.424,5.424C376.528,426.972,378.956,424.544,378.956,421.548z"/>
		<path style="fill:#13304E;" d="M364.202,392.784h-8.685c-0.528,0-0.956-0.428-0.956-0.956l0,0c0-0.528,0.428-0.956,0.956-0.956
			h8.685c0.528,0,0.956,0.428,0.956,0.956l0,0C365.158,392.356,364.73,392.784,364.202,392.784z"/>
		<path style="fill:#13304E;" d="M364.202,397.356h-8.685c-0.528,0-0.956-0.428-0.956-0.956l0,0c0-0.528,0.428-0.956,0.956-0.956
			h8.685c0.528,0,0.956,0.428,0.956,0.956l0,0C365.158,396.928,364.73,397.356,364.202,397.356z"/>
	</g>
	<g>
		
			<rect x="438.249" y="389.423" transform="matrix(0.9647 0.2632 -0.2632 0.9647 120.3713 -102.4423)" style="fill:#FBB62D;" width="8.541" height="17.207"/>
		<path style="fill:#FB9129;" d="M449.766,392.654l-10.494-2.863c-0.538-0.147-0.854-0.701-0.708-1.239l0.582-2.135
			c0.147-0.537,0.701-0.854,1.239-0.708l10.495,2.863c0.537,0.147,0.854,0.701,0.708,1.239l-0.582,2.135
			C450.858,392.483,450.303,392.8,449.766,392.654z"/>
		<path style="fill:#FB9129;" d="M434.868,392.246v-2.555c0-1.315-1.066-2.381-2.381-2.381h-23.392
			c-1.315,0-2.381,1.066-2.381,2.381v50.969c0,1.315,1.066,2.381,2.381,2.381h42.028c1.315,0,2.381-1.066,2.381-2.381V400.9
			c0-1.077-0.724-2.021-1.764-2.3l-15.108-4.054C435.592,394.267,434.868,393.324,434.868,392.246z"/>
		<path style="fill:#FBD34C;" d="M444.333,437.927H415.25c-1.518,0-2.749-1.231-2.749-2.749V407.92c0-1.518,1.231-2.749,2.749-2.749
			h29.083c1.518,0,2.749,1.231,2.749,2.749v27.258C447.082,436.696,445.851,437.927,444.333,437.927z"/>
		
			<ellipse transform="matrix(0.3827 -0.9239 0.9239 0.3827 -124.1428 657.304)" style="fill:#FB9129;" cx="429.792" cy="421.549" rx="8.374" ry="8.374"/>
		<path style="fill:#FBB62D;" d="M435.215,421.548c0-2.995-2.428-5.424-5.424-5.424s-5.424,2.428-5.424,5.424
			c0,2.996,2.428,5.424,5.424,5.424S435.215,424.544,435.215,421.548z"/>
		<path style="fill:#13304E;" d="M420.462,392.784h-8.685c-0.528,0-0.956-0.428-0.956-0.956l0,0c0-0.528,0.428-0.956,0.956-0.956
			h8.685c0.528,0,0.956,0.428,0.956,0.956l0,0C421.418,392.356,420.99,392.784,420.462,392.784z"/>
		<path style="fill:#13304E;" d="M420.462,397.356h-8.685c-0.528,0-0.956-0.428-0.956-0.956l0,0c0-0.528,0.428-0.956,0.956-0.956
			h8.685c0.528,0,0.956,0.428,0.956,0.956l0,0C421.418,396.928,420.99,397.356,420.462,397.356z"/>
	</g>
</g>
<g id="TEXTS">
	
		<text transform="matrix(1 0 0 1 206.2793 45.8512)" style="fill:#FFFFFF; font-family:'Barlow-Bold'; font-size:18px; letter-spacing:2;">Biofuel</text>
</g>
</svg>
