<?xml version="1.0" encoding="utf-8"?>
<!-- Generator: Adobe Illustrator 27.5.0, SVG Export Plug-In . SVG Version: 6.00 Build 0)  -->
<svg version="1.1" xmlns="http://www.w3.org/2000/svg" xmlns:xlink="http://www.w3.org/1999/xlink" x="0px" y="0px"
	 viewBox="0 0 3710 3710" style="enable-background:new 0 0 3710 3710;" xml:space="preserve">
<g id="Background">
	<g>
		<g>
			<rect style="fill:#FFFFFF;" width="3710" height="3710"/>
		</g>
	</g>
</g>
<g id="Illustration">
	<g>
		<path style="fill:#F4F7FA;" d="M2588.021,617.716c95.858,134.197-12.564,354.539,128.632,454.739
			c137.444,97.537,303.304-66.455,432.751,17.388c192.028,124.375,163.287,703.041-111.743,1065.282
			c-82.711,108.938-152.329,151.718-182.072,274.252c-63.868,263.11,171.941,416.743,128.744,546.995
			c-97.262,293.28-1637.786,554.725-2266.188-316.99c-293.489-407.127-342.987-998.96-89.352-1451.524
			C1087.108,390.08,2372.931,316.603,2588.021,617.716z"/>
		<g>
			
				<linearGradient id="SVGID_1_" gradientUnits="userSpaceOnUse" x1="771.8651" y1="1314.9402" x2="2111.8057" y2="1314.9402" gradientTransform="matrix(0.9472 0.3206 -0.3206 0.9472 204.6973 -98.6772)">
				<stop  offset="0.0036" style="stop-color:#E38DDD"/>
				<stop  offset="1" style="stop-color:#9571F6"/>
			</linearGradient>
			<path style="fill:url(#SVGID_1_);" d="M1278.661,2607.149c66.363-0.461,169.828,4.708,241.042-63.178
				c41.435-39.5,53.008-84.904,96.159-275.376c37.291-164.609,55.937-246.913,55.857-251.486
				c-1.803-103.634-56.375-174.571-347.316-508.429c-197.722-226.888-275.615-269.358-268.386-369.916
				c10.307-143.356,179.042-202.086,165.989-371.127c-1.567-20.284-6.947-89.954-57.109-130.473
				c-85.867-69.362-242.698-4.623-324.292,53.259c-78.704,55.832-179.753,170.793-165.585,292.214
				c10.265,87.973,72.291,104.602,63.994,180.247c-8.349,76.109-73.655,82.231-135.991,193.038
				c-24.904,44.268-74.893,133.127-57.273,227.608c22.782,122.166,137.97,143.144,132.081,237.353
				c-4.255,68.069-65.784,79.373-86.525,153.488c-27.307,97.569,46.058,196.862,108.215,278.674
				C772.714,2349.383,970.178,2609.292,1278.661,2607.149z"/>
			<path style="opacity:0.16;fill:#FFFFFF;" d="M1115.192,667.266c40.586,54.001-165.438,166.94-193.438,396.405
				c-30.126,246.893,164.223,478.066,254.037,584.897c153.237,182.273,243.449,184.089,323.141,358.823
				c31.541,69.156,97.25,213.231,35.327,362.682c-5.753,13.885-72.203,167.73-219.18,202.446
				c-166.712,39.379-310.273-104.452-433.975-228.382c-74.747-74.886-224.063-224.479-178.313-319.688
				c27.968-58.202,122.392-82.679,191.227-76.065c98.247,9.438,157.824,83.502,171.318,70.333
				c12.153-11.86-24.49-83.358-85.883-147.621c-122.799-128.537-219.068-96.708-305.341-207.076
				c-10.458-13.377-91.776-120.578-57.382-231.834c19.836-64.167,78.681-131.351,134.494-127.372
				c63.124,4.5,95.125,98.086,112.781,90.038c16.883-7.694-2.119-97.933-33.925-184.376
				c-46.734-127.013-82.171-139.994-90.76-213.488c-13.104-112.129,55.329-202.187,65.352-214.992
				C898.594,662.008,1080.492,621.097,1115.192,667.266z"/>
		</g>
		<g>
			
				<linearGradient id="SVGID_00000080164582033894366970000007349149086317236867_" gradientUnits="userSpaceOnUse" x1="1303.4729" y1="1500.8077" x2="1379.8851" y2="1228.5885">
				<stop  offset="0" style="stop-color:#D8DEE8"/>
				<stop  offset="0.9964" style="stop-color:#97A6B7"/>
			</linearGradient>
			
				<ellipse style="fill:url(#SVGID_00000080164582033894366970000007349149086317236867_);" cx="1375.685" cy="1243.551" rx="517.551" ry="118.569"/>
			
				<linearGradient id="SVGID_00000096766228907682079990000012742185978102606730_" gradientUnits="userSpaceOnUse" x1="1371.5402" y1="2641.1262" x2="1382.8826" y2="2807.6812">
				<stop  offset="0" style="stop-color:#D8DEE8"/>
				<stop  offset="0.9964" style="stop-color:#97A6B7"/>
			</linearGradient>
			
				<ellipse style="fill:url(#SVGID_00000096766228907682079990000012742185978102606730_);" cx="1375.685" cy="2701.992" rx="517.551" ry="118.569"/>
			<g>
				
					<linearGradient id="SVGID_00000060017411143546018150000002839924346946043553_" gradientUnits="userSpaceOnUse" x1="867.0649" y1="1977.4332" x2="1884.3054" y2="1977.4332">
					<stop  offset="0" style="stop-color:#D8DEE8"/>
					<stop  offset="0.9964" style="stop-color:#97A6B7"/>
				</linearGradient>
				
					<rect x="867.065" y="1261.829" style="fill:url(#SVGID_00000060017411143546018150000002839924346946043553_);" width="1017.24" height="1431.209"/>
				
					<linearGradient id="SVGID_00000132066046350757690010000011528420779453837209_" gradientUnits="userSpaceOnUse" x1="867.0649" y1="1261.8289" x2="1884.3054" y2="1261.8289">
					<stop  offset="0" style="stop-color:#D8DEE8"/>
					<stop  offset="0.9964" style="stop-color:#97A6B7"/>
				</linearGradient>
				
					<ellipse style="fill:url(#SVGID_00000132066046350757690010000011528420779453837209_);" cx="1375.685" cy="1261.829" rx="508.62" ry="112.231"/>
				
					<linearGradient id="SVGID_00000018196216897534838040000018308920782581138621_" gradientUnits="userSpaceOnUse" x1="867.0649" y1="2690.0586" x2="1884.3054" y2="2690.0586">
					<stop  offset="0" style="stop-color:#D8DEE8"/>
					<stop  offset="0.9964" style="stop-color:#97A6B7"/>
				</linearGradient>
				
					<ellipse style="fill:url(#SVGID_00000018196216897534838040000018308920782581138621_);" cx="1375.685" cy="2690.059" rx="508.62" ry="112.231"/>
			</g>
			<g>
				<g>
					<path style="fill:#FFFFFF;" d="M1408.89,1919.804c4.053-22.979,17.038-42.526,35.201-55.868
						c3.682-2.705,4.724-7.492,2.409-11.363l-98.619-164.772c-1.216-2.035-3.215-3.422-5.534-3.965
						c-2.321-0.542-4.77-0.096-6.792,1.182c-80.011,50.581-134.877,137.943-140.347,237.911c-0.133,2.44,0.747,3.773,2.446,5.514
						c1.698,1.742,4.056,1.663,6.522,1.614l196.065-3.892C1404.51,1926.079,1408.148,1924.01,1408.89,1919.804z"/>
					<path style="fill:#FFFFFF;" d="M1543.964,2015.822c-2.306-3.856-7.184-5.242-11.257-3.186
						c-11.307,5.707-23.983,9.061-37.38,9.384c-13.691,0.331-26.678-2.532-38.261-7.922c-4.116-1.916-9.08-0.298-11.394,3.704
						l-97.154,168.163c-1.211,2.096-1.529,4.57-0.884,6.852c0.644,2.282,2.194,4.181,4.299,5.261
						c42.496,21.806,91.035,33.343,142.367,31.635c51.865-1.727,100.324-16.773,142.196-41.667c2.029-1.206,3.513-3.173,4.116-5.458
						c0.602-2.285,0.273-4.693-0.915-6.678L1543.964,2015.822z"/>
					<path style="fill:#FFFFFF;" d="M1783.804,1911.445c-5.761-96.516-57.933-179.915-134.584-228.196
						c-1.976-1.245-4.372-1.627-6.641-1.054c-2.27,0.572-4.218,2.047-5.398,4.09l-94.995,164.462
						c-2.29,3.964-1.198,8.975,2.523,11.531c18.375,12.625,31.554,31.252,35.737,54.167c0.756,4.137,4.361,6.055,8.55,5.972
						l186.331-3.699c2.343-0.046,4.583-0.058,6.186-1.819C1783.115,1915.137,1783.947,1913.817,1783.804,1911.445z"/>
					<path style="fill:#FFFFFF;" d="M1495.24,1995.661c33.57-0.772,60.62-28.643,60.51-62.25
						c-0.111-33.601-27.334-60.359-60.895-59.768c-33.662,0.594-60.939,28.458-60.837,62.24
						C1434.12,1969.671,1461.57,1996.435,1495.24,1995.661z"/>
				</g>
			</g>
			
				<linearGradient id="SVGID_00000142158114833132751930000002494623737982426518_" gradientUnits="userSpaceOnUse" x1="867.0652" y1="1984.7959" x2="1884.3055" y2="1984.7959">
				<stop  offset="0" style="stop-color:#D8DEE8"/>
				<stop  offset="0.9964" style="stop-color:#97A6B7"/>
			</linearGradient>
			<path style="opacity:0.3;fill:url(#SVGID_00000142158114833132751930000002494623737982426518_);" d="M1476.972,2421.605
				c-40.937-190.302,77.521-254.948,16.715-434.596c-100.871-298.015-453.041-361.144-444.147-611.3
				c2.87-80.745,24.781-151.035,51.84-208.407c-140.931,19.954-234.314,54.833-234.314,94.526v1431.208h0.18
				c7.158,60.607,232.052,109.252,508.441,109.252c127.963,0,244.866-10.433,334.254-27.647
				C1602.739,2685.358,1508.749,2569.323,1476.972,2421.605z"/>
			<g>
				
					<linearGradient id="SVGID_00000031913584633458185860000006188733489504199056_" gradientUnits="userSpaceOnUse" x1="1372.6874" y1="2283.7559" x2="1379.1393" y2="2378.4968">
					<stop  offset="0" style="stop-color:#D8DEE8"/>
					<stop  offset="0.9964" style="stop-color:#97A6B7"/>
				</linearGradient>
				<path style="fill:url(#SVGID_00000031913584633458185860000006188733489504199056_);" d="M1378.733,2369.095
					c-170.333,0-341.668-10.617-512.843-31.85c-5.235-0.649-8.952-5.421-8.304-10.655c0.648-5.235,5.408-8.956,10.655-8.304
					c340.776,42.273,682.22,42.274,1014.862,0.003c5.24-0.652,10.013,3.04,10.678,8.271c0.665,5.234-3.039,10.014-8.271,10.68
					C1718.399,2358.475,1549.066,2369.095,1378.733,2369.095z"/>
				
					<linearGradient id="SVGID_00000174576339903747815620000013849334967528038804_" gradientUnits="userSpaceOnUse" x1="1372.6875" y1="-4900.8203" x2="1379.1393" y2="-4806.0796" gradientTransform="matrix(1 0 0 -1 0 -3295.2239)">
					<stop  offset="0" style="stop-color:#D8DEE8"/>
					<stop  offset="0.9964" style="stop-color:#97A6B7"/>
				</linearGradient>
				<path style="fill:url(#SVGID_00000174576339903747815620000013849334967528038804_);" d="M1378.733,1520.257
					c-170.333,0-341.668,10.617-512.843,31.85c-5.235,0.65-8.952,5.421-8.304,10.655c0.648,5.235,5.408,8.956,10.655,8.304
					c340.776-42.273,682.22-42.274,1014.862-0.003c5.24,0.652,10.013-3.04,10.678-8.271c0.665-5.234-3.039-10.014-8.271-10.68
					C1718.399,1530.877,1549.066,1520.257,1378.733,1520.257z"/>
			</g>
		</g>
		<g>
			<g>
				
					<linearGradient id="SVGID_00000161632426845343202440000004204102836063924115_" gradientUnits="userSpaceOnUse" x1="-822.0813" y1="1763.614" x2="-772.8366" y2="1763.614" gradientTransform="matrix(-1 0 0 1 230.2854 0)">
					<stop  offset="0" style="stop-color:#311944"/>
					<stop  offset="1" style="stop-color:#6B3976"/>
				</linearGradient>
				<path style="fill:url(#SVGID_00000161632426845343202440000004204102836063924115_);" d="M1042.272,1763.599l-24.639-14.805
					h-11.119c0,0-3.788,14.1-3.358,14.805c4.954,8.119,28.021,14.295,42.416,14.805c2.39,0.085,5.725,0.098,6.586-1.635
					C1053.618,1773.836,1047.098,1767.683,1042.272,1763.599z"/>
				
					<linearGradient id="SVGID_00000069399574007714140170000009713923919322092428_" gradientUnits="userSpaceOnUse" x1="-788.1505" y1="1760.8167" x2="-747.3934" y2="1638.5453" gradientTransform="matrix(-1 0 0 1 230.2854 0)">
					<stop  offset="0" style="stop-color:#FFC444"/>
					<stop  offset="0.9964" style="stop-color:#F36F56"/>
				</linearGradient>
				<path style="fill:url(#SVGID_00000069399574007714140170000009713923919322092428_);" d="M1017.198,1732.64
					c-0.041,8.626,0.328,14.711,2.487,17.387c1.52,1.885-13.091,6.124-13.171-1.232c-0.053-4.842-0.814-13.147-1.588-15.586
					C1009.017,1733.019,1013.107,1732.829,1017.198,1732.64z"/>
			</g>
			<g>
				
					<linearGradient id="SVGID_00000121245799293012034120000014131088530249372859_" gradientUnits="userSpaceOnUse" x1="-986.8169" y1="1744.1836" x2="-937.5722" y2="1744.1836" gradientTransform="matrix(-1 0 0 1 230.2854 0)">
					<stop  offset="0" style="stop-color:#311944"/>
					<stop  offset="1" style="stop-color:#6B3976"/>
				</linearGradient>
				<path style="fill:url(#SVGID_00000121245799293012034120000014131088530249372859_);" d="M1207.008,1744.169l-24.639-14.805
					h-11.119c0,0-3.788,14.1-3.358,14.805c4.954,8.118,28.022,14.295,42.416,14.805c2.39,0.085,5.725,0.097,6.586-1.635
					C1218.353,1754.406,1211.834,1748.252,1207.008,1744.169z"/>
				
					<linearGradient id="SVGID_00000127742676925484461130000003660134644407680188_" gradientUnits="userSpaceOnUse" x1="-950.2623" y1="1743.2673" x2="-905.3799" y2="1608.6199" gradientTransform="matrix(-1 0 0 1 230.2854 0)">
					<stop  offset="0" style="stop-color:#FFC444"/>
					<stop  offset="0.9964" style="stop-color:#F36F56"/>
				</linearGradient>
				<path style="fill:url(#SVGID_00000127742676925484461130000003660134644407680188_);" d="M1174.885,1713.315
					c3.59,6.864,7.376,14.605,9.536,17.282c1.52,1.884-10.621,5.668-13.171-1.232c-2.067-5.595-7.862-13.042-8.635-15.481
					C1166.704,1713.694,1170.795,1713.505,1174.885,1713.315z"/>
			</g>
			
				<linearGradient id="SVGID_00000138549452275384105400000014559765580990644135_" gradientUnits="userSpaceOnUse" x1="1254.9301" y1="1712.7732" x2="1103.2813" y2="1416.8138">
				<stop  offset="0" style="stop-color:#FCB148"/>
				<stop  offset="0.0521" style="stop-color:#FDBA46"/>
				<stop  offset="0.1424" style="stop-color:#FFC244"/>
				<stop  offset="0.3183" style="stop-color:#FFC444"/>
				<stop  offset="0.4849" style="stop-color:#FDB946"/>
				<stop  offset="0.7754" style="stop-color:#F99C4D"/>
				<stop  offset="0.8658" style="stop-color:#F8924F"/>
				<stop  offset="1" style="stop-color:#F8924F"/>
			</linearGradient>
			<path style="fill:url(#SVGID_00000138549452275384105400000014559765580990644135_);" d="M1169.816,1309.395
				c-9.534,63.4-15.761,142.253-10.138,232.32c4.154,66.525,13.925,125.592,25.344,175.718c-7.603,1.971-15.206,3.942-22.81,5.914
				c-9.466-2.193-22.884-6.938-32.102-18.586c-12.12-15.314-6.593-29.437-15.206-54.912c-8.223-24.32-18.049-25.611-27.878-46.464
				c-12.821-27.2-4.991-43.859-5.914-80.256c-1.561-61.571-25.296-66.344-32.947-142.771c-4.006-40.013-5.981-62.991,8.448-77.722
				C1076.82,1282.01,1121.247,1285.668,1169.816,1309.395z"/>
			
				<linearGradient id="SVGID_00000035514840619063120040000017484311880112229555_" gradientUnits="userSpaceOnUse" x1="1491.2401" y1="1276.0349" x2="1444.7762" y2="1434.8569">
				<stop  offset="0" style="stop-color:#311944"/>
				<stop  offset="1" style="stop-color:#6B3976"/>
			</linearGradient>
			<path style="fill:url(#SVGID_00000035514840619063120040000017484311880112229555_);" d="M1450.295,1306.205l9.934,8.806
				c0,0,21.812-0.86,29.666,1.137c7.854,1.997,21.403,8.807,21.403,8.807s-3.386,5.002-8.191,3.107
				c-4.804-1.895-12.226-4.455-13.652-3.761c-1.426,0.695-4.784,9.74-16.221,11.252c-11.437,1.512-16.759-11.951-16.759-11.951
				l-10.829-9.193L1450.295,1306.205z"/>
			
				<linearGradient id="SVGID_00000116219371749278811340000009359301696331555470_" gradientUnits="userSpaceOnUse" x1="1179.2461" y1="1389.2247" x2="1447.8922" y2="1138.3195">
				<stop  offset="0" style="stop-color:#FCB148"/>
				<stop  offset="0.0521" style="stop-color:#FDBA46"/>
				<stop  offset="0.1424" style="stop-color:#FFC244"/>
				<stop  offset="0.3183" style="stop-color:#FFC444"/>
				<stop  offset="0.4849" style="stop-color:#FDB946"/>
				<stop  offset="0.7754" style="stop-color:#F99C4D"/>
				<stop  offset="0.8658" style="stop-color:#F8924F"/>
				<stop  offset="1" style="stop-color:#F8924F"/>
			</linearGradient>
			<path style="fill:url(#SVGID_00000116219371749278811340000009359301696331555470_);" d="M1336.453,1074.33
				c4.025,0.494,11.913,2.928,29.779,36.115c23.121,42.949,29.184,74.673,38.016,100.742c8.266,24.395,23.782,58.08,55.757,95.04
				c-5.28,5.491-10.56,10.983-15.84,16.474c-45.294-1.123-67.724-15.566-79.833-28.512c-17.676-18.898-12.218-33.385-33.581-62.093
				c-24.991-33.582-43.933-29.174-52.589-51.321C1261.932,1139.249,1307.839,1070.819,1336.453,1074.33z"/>
			
				<linearGradient id="SVGID_00000151506028203281961370000015710258940122213032_" gradientUnits="userSpaceOnUse" x1="999.4205" y1="1433.2952" x2="1398.178" y2="1060.871">
				<stop  offset="0" style="stop-color:#FCB148"/>
				<stop  offset="0.0521" style="stop-color:#FDBA46"/>
				<stop  offset="0.1424" style="stop-color:#FFC244"/>
				<stop  offset="0.3183" style="stop-color:#FFC444"/>
				<stop  offset="0.4849" style="stop-color:#FDB946"/>
				<stop  offset="0.7754" style="stop-color:#F99C4D"/>
				<stop  offset="0.8658" style="stop-color:#F8924F"/>
				<stop  offset="1" style="stop-color:#F8924F"/>
			</linearGradient>
			<path style="fill:url(#SVGID_00000151506028203281961370000015710258940122213032_);" d="M1348.491,1085.101
				c-4.094-9.63-11.727-18.042-40.55-32.947c-29.328-15.166-63.165-32.664-115.949-38.65c-36.168-4.102-56.453-6.402-82.368,1.901
				c-67.504,21.628-94.869,90.099-98.208,98.841c-9.937,26.015-0.772,21.988-12.671,67.795
				c-11.458,44.109-23.676,62.162-37.383,117.849c-8.916,36.22,0.734,77.229,0.632,83.002
				c-0.772,44.026,18.929,58.748,13.518,106.444c-3.658,32.243-13.409,32.116-14.362,64.205
				c-0.83,27.923,5.869,30.077,10.981,76.876c3.753,34.338,0.086,39.94,5.914,61.67c5.846,21.795,15.48,38.332,22.811,48.999
				c8.447,0,16.895,0,25.344,0c0.819-56.264,6.003-122.978,20.274-196.838c13.565-70.194,59.387-165.89,68.662-173.539
				c23.413-19.308,61.124-52.935,69.414-64.505c27.045-37.746,42.454-34.543,77.77-75.376
				c40.143-46.415,57.723-45.075,76.666-83.636C1346.406,1132.092,1358.038,1107.558,1348.491,1085.101z"/>
			
				<linearGradient id="SVGID_00000088094987340911458250000006681175712464006325_" gradientUnits="userSpaceOnUse" x1="1321.3778" y1="1291.4625" x2="1252.5856" y2="1236.4288">
				<stop  offset="0" style="stop-color:#444B8C"/>
				<stop  offset="0.9964" style="stop-color:#26264F"/>
			</linearGradient>
			<path style="fill:url(#SVGID_00000088094987340911458250000006681175712464006325_);" d="M1114.941,1246.274l91.333-100.244
				c2.204-2.911,5.839-4.364,9.442-3.775l104.599,17.098c4.482,0.733,6.547,5.994,3.76,9.58l-85.031,109.399
				c-2.28,2.934-6.017,4.335-9.664,3.624l-108.473-20.065C1113.755,1260.495,1110.541,1252.084,1114.941,1246.274z"/>
			
				<linearGradient id="SVGID_00000158732208360589692740000004834742123851367326_" gradientUnits="userSpaceOnUse" x1="999.4203" y1="1433.2953" x2="1398.178" y2="1060.871">
				<stop  offset="0" style="stop-color:#FCB148"/>
				<stop  offset="0.0521" style="stop-color:#FDBA46"/>
				<stop  offset="0.1424" style="stop-color:#FFC244"/>
				<stop  offset="0.3183" style="stop-color:#FFC444"/>
				<stop  offset="0.4849" style="stop-color:#FDB946"/>
				<stop  offset="0.7754" style="stop-color:#F99C4D"/>
				<stop  offset="0.8658" style="stop-color:#F8924F"/>
				<stop  offset="1" style="stop-color:#F8924F"/>
			</linearGradient>
			<path style="opacity:0.3;fill:url(#SVGID_00000158732208360589692740000004834742123851367326_);" d="M1007.366,1479.555
				c6.549-33.873,9.373-58.603,10.663-78.11c2.15-32.505-6.623-49.646,3.934-72.682c7.254-15.826,18.078-24.887,25.761-31.431
				c74.967-63.84,114.562-97.558,110.202-124.098c-3.065-18.655-25.111-17.117-42.938-42.227
				c-23.185-32.657-16.437-78.285-4.772-115.779c-0.063,0.019-0.299,0.083-0.591,0.177c-67.504,21.628-94.869,90.099-98.208,98.841
				c-9.937,26.015-0.772,21.988-12.671,67.795c-11.458,44.109-23.676,62.162-37.383,117.849c-8.916,36.22,0.734,77.229,0.632,83.002
				c-0.772,44.026,18.929,58.748,13.518,106.444c-3.658,32.243-13.409,32.116-14.362,64.205
				c-0.83,27.923,5.869,30.077,10.981,76.876c3.753,34.338,0.086,39.94,5.914,61.67c5.846,21.795,15.48,38.332,22.811,48.999
				c8.447,0,16.895,0,25.344,0c0.072-4.87,0.188-9.847,0.328-14.872c-22.266-34.542-42.803-80.331-42.4-134.148
				C984.401,1555.772,993.946,1548.939,1007.366,1479.555z"/>
			
				<linearGradient id="SVGID_00000078727570752083151190000006638937244257612203_" gradientUnits="userSpaceOnUse" x1="1054.1382" y1="1254.049" x2="1133.6315" y2="1210.022">
				<stop  offset="0" style="stop-color:#311944"/>
				<stop  offset="1" style="stop-color:#6B3976"/>
			</linearGradient>
			<path style="fill:url(#SVGID_00000078727570752083151190000006638937244257612203_);" d="M1111.103,1214.004l19.552-8.531
				c0,0,7.465-10.665,13.508-12.442c6.043-1.777,27.727,0.711,27.727,0.711s-2.133,8.531-6.398,9.953s-17.419,2.488-19.552,6.754
				c-2.133,4.266-9.953,7.465-12.797,6.043c-2.844-1.422-20.973,4.621-20.973,4.621L1111.103,1214.004z"/>
			
				<linearGradient id="SVGID_00000137835584070317930970000009555340658272108438_" gradientUnits="userSpaceOnUse" x1="1002.3201" y1="1199.79" x2="1270.9666" y2="948.8846">
				<stop  offset="0" style="stop-color:#FCB148"/>
				<stop  offset="0.0521" style="stop-color:#FDBA46"/>
				<stop  offset="0.1424" style="stop-color:#FFC244"/>
				<stop  offset="0.3183" style="stop-color:#FFC444"/>
				<stop  offset="0.4849" style="stop-color:#FDB946"/>
				<stop  offset="0.7754" style="stop-color:#F99C4D"/>
				<stop  offset="0.8658" style="stop-color:#F8924F"/>
				<stop  offset="1" style="stop-color:#F8924F"/>
			</linearGradient>
			<path style="fill:url(#SVGID_00000137835584070317930970000009555340658272108438_);" d="M1193.259,1024.276
				c-17.127-28.91-97.75-18.335-152.063,13.306c-17.688,10.304-71.627,41.727-75.398,96.307c-0.41,5.932-1.464,30.036,12.672,52.589
				c23.777,37.934,79.994,54.672,139.392,39.917c-0.634-6.336-1.267-12.672-1.901-19.008c-5.06,0.175-25.192,0.289-43.084-14.573
				c-3.584-2.977-24.882-20.668-21.542-36.749c5.607-26.997,72.936-12.277,116.582-57.658
				C1187.484,1078.06,1204.532,1043.303,1193.259,1024.276z"/>
			
				<linearGradient id="SVGID_00000062911243048291603560000015205842699584583808_" gradientUnits="userSpaceOnUse" x1="1274.8755" y1="1035.2188" x2="1353.4967" y2="961.7896">
				<stop  offset="0" style="stop-color:#FCB148"/>
				<stop  offset="0.0521" style="stop-color:#FDBA46"/>
				<stop  offset="0.1424" style="stop-color:#FFC244"/>
				<stop  offset="0.3183" style="stop-color:#FFC444"/>
				<stop  offset="0.4849" style="stop-color:#FDB946"/>
				<stop  offset="0.7754" style="stop-color:#F99C4D"/>
				<stop  offset="0.8658" style="stop-color:#F8924F"/>
				<stop  offset="1" style="stop-color:#F8924F"/>
			</linearGradient>
			<path style="fill:url(#SVGID_00000062911243048291603560000015205842699584583808_);" d="M1219.323,1036.113
				c-3.871-4.246-1.517-11.13,4.16-12.016c14.669-2.288,38.006-9.189,45.362-29.997c7.238-20.472,24.722-40.323,55.929-35.737
				s31.314,29.587,19.075,49.223l-33.915-10.872c0,0,6.204,30.729,6.465,43.301c0.261,12.571-9.886,26.48-9.886,26.48
				S1251.224,1071.109,1219.323,1036.113z"/>
			
				<linearGradient id="SVGID_00000165919320982668535890000011340553502364683430_" gradientUnits="userSpaceOnUse" x1="1357.6409" y1="1062.9152" x2="1325.7875" y2="1037.4325">
				<stop  offset="0" style="stop-color:#444B8C"/>
				<stop  offset="0.9964" style="stop-color:#26264F"/>
			</linearGradient>
			<path style="fill:url(#SVGID_00000165919320982668535890000011340553502364683430_);" d="M1308.313,1052.154l-13.492-18.6
				c-3.747-5.166-4.869-11.785-3.034-17.897l5.209-17.346l37.178,17.13l-5.588,30.058L1308.313,1052.154z"/>
			
				<linearGradient id="SVGID_00000159461713862267630870000006129441688893801900_" gradientUnits="userSpaceOnUse" x1="1357.7747" y1="1040.0631" x2="1330.7759" y2="1018.4642">
				<stop  offset="0" style="stop-color:#D8DEE8"/>
				<stop  offset="0.9964" style="stop-color:#97A6B7"/>
			</linearGradient>
			<path style="fill:url(#SVGID_00000159461713862267630870000006129441688893801900_);" d="M1296.333,999.297l-0.755,2.51
				c-1.87,6.221,1.439,12.821,7.544,15.044l28.49,10.37l12.238-19.636l-29.947-15.68
				C1307.025,988.304,1298.568,991.862,1296.333,999.297z"/>
			<g>
				
					<linearGradient id="SVGID_00000152242838215762263460000017880316841132585630_" gradientUnits="userSpaceOnUse" x1="4999.4775" y1="-4502.6304" x2="5043.623" y2="-4433.0166" gradientTransform="matrix(0.3591 0.9333 0.9333 -0.3591 3697.0112 -5234.9102)">
					<stop  offset="0" style="stop-color:#D8DEE8"/>
					<stop  offset="0.9964" style="stop-color:#97A6B7"/>
				</linearGradient>
				<path style="fill:url(#SVGID_00000152242838215762263460000017880316841132585630_);" d="M1327.467,1068.775
					c14.918-5.74,24.535-16.831,21.479-24.773c-3.056-7.943-17.627-9.728-32.546-3.988c-14.918,5.74-24.535,16.832-21.479,24.774
					C1297.977,1072.73,1312.548,1074.515,1327.467,1068.775z"/>
				
					<linearGradient id="SVGID_00000084495936625633298570000004382395879386146741_" gradientUnits="userSpaceOnUse" x1="5004.8452" y1="-4506.6436" x2="5055.4355" y2="-4426.8672" gradientTransform="matrix(0.3591 0.9333 0.9333 -0.3591 3697.0112 -5234.9102)">
					<stop  offset="0" style="stop-color:#D8DEE8"/>
					<stop  offset="0.9964" style="stop-color:#97A6B7"/>
				</linearGradient>
				<polygon style="fill:url(#SVGID_00000084495936625633298570000004382395879386146741_);" points="1355.226,1060.326 
					1348.348,1042.447 1294.323,1063.233 1301.202,1081.112 				"/>
				
					<linearGradient id="SVGID_00000104683504062969222930000013514735131831094440_" gradientUnits="userSpaceOnUse" x1="5060.1245" y1="-4502.1528" x2="5018.4805" y2="-4458.4263" gradientTransform="matrix(0.3591 0.9333 0.9333 -0.3591 3697.0112 -5234.9102)">
					<stop  offset="0" style="stop-color:#D8DEE8"/>
					<stop  offset="0.9964" style="stop-color:#97A6B7"/>
				</linearGradient>
				<path style="fill:url(#SVGID_00000104683504062969222930000013514735131831094440_);" d="M1333.747,1085.099
					c14.919-5.74,24.535-16.832,21.479-24.774c-3.056-7.942-17.627-9.727-32.545-3.987c-14.919,5.74-24.535,16.831-21.479,24.774
					C1304.258,1089.054,1318.829,1090.839,1333.747,1085.099z"/>
			</g>
		</g>
		<g>
			<path style="fill:#A2A7AE;" d="M1376.823,2863.168c2.924,0,5.296-2.372,5.296-5.296V1775.199c0-2.925-2.372-5.296-5.296-5.296
				s-5.296,2.371-5.296,5.296v1082.673C1371.526,2860.796,1373.898,2863.168,1376.823,2863.168z"/>
			<path style="fill:#A2A7AE;" d="M903.834,2840.91c2.924,0,5.296-2.372,5.296-5.296V1775.199c0-2.925-2.372-5.296-5.296-5.296
				s-5.296,2.371-5.296,5.296v1060.415C898.538,2838.539,900.909,2840.91,903.834,2840.91z"/>
			<path style="fill:#FFFFFF;" d="M951.597,2990.07c2.398,0,4.572-1.641,5.147-4.076l284.03-1199.86
				c0.673-2.845-1.086-5.699-3.933-6.372c-2.845-0.674-5.699,1.086-6.372,3.933l-284.029,1199.86
				c-0.673,2.845,1.086,5.699,3.933,6.372C950.782,2990.024,951.192,2990.07,951.597,2990.07z"/>
			<path style="fill:#FFFFFF;" d="M512.193,2931.092c2.363,0,4.517-1.593,5.128-3.988l291.019-1140.882
				c0.723-2.834-0.988-5.717-3.822-6.44c-2.837-0.728-5.719,0.989-6.44,3.822L507.058,2924.487c-0.723,2.834,0.989,5.717,3.823,6.44
				C511.319,2931.039,511.76,2931.092,512.193,2931.092z"/>
			<polygon style="fill:#D8DEE8;" points="786.515,1785.887 1239.547,1795.602 1384.706,1785.887 1384.706,1764.51 
				1047.145,1757.664 786.515,1764.51 			"/>
			
				<linearGradient id="SVGID_00000175309317258589723330000007058799918216266381_" gradientUnits="userSpaceOnUse" x1="2853.6455" y1="1779.494" x2="2422.2009" y2="1780.9519" gradientTransform="matrix(-1 0 0 1 3700.3308 0)">
				<stop  offset="0.494" style="stop-color:#EBEFF2"/>
				<stop  offset="1" style="stop-color:#FFFFFF"/>
			</linearGradient>
			<polygon style="fill:url(#SVGID_00000175309317258589723330000007058799918216266381_);" points="786.515,1785.887 
				1239.547,1795.602 1239.547,1774.226 786.515,1764.51 			"/>
			<path style="fill:#FFFFFF;" d="M1174.292,2049.309c2.789,0,5.126-2.182,5.283-5.002c0.161-2.92-2.073-5.418-4.994-5.582
				l-426.787-23.769c-2.875-0.124-5.42,2.075-5.582,4.994c-0.162,2.92,2.073,5.418,4.994,5.582l426.787,23.769
				C1174.093,2049.306,1174.193,2049.309,1174.292,2049.309z"/>
			<path style="fill:#FFFFFF;" d="M1117.83,2287.832c2.764,0,5.091-1.878,5.28-4.326c0.193-2.555-2.013-4.763-4.931-4.933
				l-434.009-25.333c-2.944-0.137-5.441,1.762-5.638,4.315c-0.193,2.555,2.013,4.763,4.931,4.934l434.009,25.333
				C1117.592,2287.828,1117.711,2287.832,1117.83,2287.832z"/>
			<path style="fill:#FFFFFF;" d="M1061.691,2524.988c2.743,0,5.063-2.114,5.275-4.893c0.223-2.916-1.961-5.461-4.877-5.682
				l-437.161-33.294c-2.929-0.251-5.459,1.963-5.682,4.877c-0.223,2.916,1.961,5.461,4.877,5.682l437.162,33.294
				C1061.42,2524.983,1061.557,2524.988,1061.691,2524.988z"/>
			<path style="fill:#FFFFFF;" d="M1005.874,2760.789c2.712,0,5.022-2.073,5.268-4.826c0.259-2.913-1.892-5.486-4.804-5.745
				l-439.837-39.222c-2.898-0.256-5.486,1.892-5.745,4.804c-0.259,2.913,1.891,5.486,4.804,5.745l439.837,39.222
				C1005.557,2760.783,1005.716,2760.789,1005.874,2760.789z"/>
		</g>
		<g>
			
				<linearGradient id="SVGID_00000044151217163448167790000001003843205920583829_" gradientUnits="userSpaceOnUse" x1="2317.363" y1="1208.1345" x2="2424.1096" y2="827.8488">
				<stop  offset="0" style="stop-color:#FCB148"/>
				<stop  offset="0.0521" style="stop-color:#FDBA46"/>
				<stop  offset="0.1424" style="stop-color:#FFC244"/>
				<stop  offset="0.3183" style="stop-color:#FFC444"/>
				<stop  offset="0.4849" style="stop-color:#FDB946"/>
				<stop  offset="0.7754" style="stop-color:#F99C4D"/>
				<stop  offset="0.8658" style="stop-color:#F8924F"/>
				<stop  offset="1" style="stop-color:#F8924F"/>
			</linearGradient>
			
				<ellipse style="fill:url(#SVGID_00000044151217163448167790000001003843205920583829_);" cx="2418.242" cy="848.751" rx="723.01" ry="165.639"/>
			
				<linearGradient id="SVGID_00000139994075419316763170000015089105368741422258_" gradientUnits="userSpaceOnUse" x1="2412.4519" y1="2801.1411" x2="2428.2969" y2="3033.8157">
				<stop  offset="0" style="stop-color:#FCB148"/>
				<stop  offset="0.0521" style="stop-color:#FDBA46"/>
				<stop  offset="0.1424" style="stop-color:#FFC244"/>
				<stop  offset="0.3183" style="stop-color:#FFC444"/>
				<stop  offset="0.4849" style="stop-color:#FDB946"/>
				<stop  offset="0.7754" style="stop-color:#F99C4D"/>
				<stop  offset="0.8658" style="stop-color:#F8924F"/>
				<stop  offset="1" style="stop-color:#F8924F"/>
			</linearGradient>
			
				<ellipse style="fill:url(#SVGID_00000139994075419316763170000015089105368741422258_);" cx="2418.242" cy="2886.169" rx="723.01" ry="165.639"/>
			<g>
				
					<linearGradient id="SVGID_00000180326653685474752760000000281837296821990557_" gradientUnits="userSpaceOnUse" x1="1707.708" y1="1873.9725" x2="3128.7766" y2="1873.9725">
					<stop  offset="0" style="stop-color:#FCB148"/>
					<stop  offset="0.0521" style="stop-color:#FDBA46"/>
					<stop  offset="0.1424" style="stop-color:#FFC244"/>
					<stop  offset="0.3183" style="stop-color:#FFC444"/>
					<stop  offset="0.4849" style="stop-color:#FDB946"/>
					<stop  offset="0.7754" style="stop-color:#F99C4D"/>
					<stop  offset="0.8658" style="stop-color:#F8924F"/>
					<stop  offset="1" style="stop-color:#F8924F"/>
				</linearGradient>
				
					<rect x="1707.708" y="874.285" style="fill:url(#SVGID_00000180326653685474752760000000281837296821990557_);" width="1421.069" height="1999.375"/>
				
					<linearGradient id="SVGID_00000134240633211423718890000006769322644235325838_" gradientUnits="userSpaceOnUse" x1="1707.708" y1="874.285" x2="3128.7766" y2="874.285">
					<stop  offset="0" style="stop-color:#FCB148"/>
					<stop  offset="0.0521" style="stop-color:#FDBA46"/>
					<stop  offset="0.1424" style="stop-color:#FFC244"/>
					<stop  offset="0.3183" style="stop-color:#FFC444"/>
					<stop  offset="0.4849" style="stop-color:#FDB946"/>
					<stop  offset="0.7754" style="stop-color:#F99C4D"/>
					<stop  offset="0.8658" style="stop-color:#F8924F"/>
					<stop  offset="1" style="stop-color:#F8924F"/>
				</linearGradient>
				
					<ellipse style="fill:url(#SVGID_00000134240633211423718890000006769322644235325838_);" cx="2418.242" cy="874.285" rx="710.534" ry="156.785"/>
				
					<linearGradient id="SVGID_00000181059782785087200340000005975781843647699390_" gradientUnits="userSpaceOnUse" x1="1707.708" y1="2869.4985" x2="3128.7766" y2="2869.4985">
					<stop  offset="0" style="stop-color:#FCB148"/>
					<stop  offset="0.0521" style="stop-color:#FDBA46"/>
					<stop  offset="0.1424" style="stop-color:#FFC244"/>
					<stop  offset="0.3183" style="stop-color:#FFC444"/>
					<stop  offset="0.4849" style="stop-color:#FDB946"/>
					<stop  offset="0.7754" style="stop-color:#F99C4D"/>
					<stop  offset="0.8658" style="stop-color:#F8924F"/>
					<stop  offset="1" style="stop-color:#F8924F"/>
				</linearGradient>
				
					<ellipse style="fill:url(#SVGID_00000181059782785087200340000005975781843647699390_);" cx="2418.242" cy="2869.499" rx="710.534" ry="156.785"/>
			</g>
			<g>
				<g>
					
						<linearGradient id="SVGID_00000171697855968786539510000011349741595965846699_" gradientUnits="userSpaceOnUse" x1="2166.1016" y1="1635.6593" x2="2518.8862" y2="1635.6593">
						<stop  offset="0" style="stop-color:#40447E"/>
						<stop  offset="0.9964" style="stop-color:#3C3B6B"/>
					</linearGradient>
					<path style="fill:url(#SVGID_00000171697855968786539510000011349741595965846699_);" d="M2464.629,1793.465
						c5.662-32.101,23.802-59.409,49.176-78.047c5.144-3.778,6.6-10.466,3.366-15.874l-137.769-230.184
						c-1.699-2.843-4.491-4.781-7.731-5.539c-3.242-0.758-6.663-0.134-9.488,1.651c-111.774,70.661-188.421,192.705-196.063,332.359
						c-0.186,3.409,1.044,5.27,3.417,7.702c2.373,2.433,5.667,2.323,9.111,2.255l273.9-5.438
						C2458.511,1802.231,2463.592,1799.342,2464.629,1793.465z"/>
					
						<linearGradient id="SVGID_00000082357058129593996750000008873014833215737993_" gradientUnits="userSpaceOnUse" x1="2378.6006" y1="2074.2297" x2="2788.7529" y2="2074.2297">
						<stop  offset="0" style="stop-color:#40447E"/>
						<stop  offset="0.9964" style="stop-color:#3C3B6B"/>
					</linearGradient>
					<path style="fill:url(#SVGID_00000082357058129593996750000008873014833215737993_);" d="M2653.326,1927.601
						c-3.221-5.387-10.036-7.323-15.726-4.451c-15.795,7.973-33.504,12.658-52.219,13.11c-19.126,0.462-37.269-3.537-53.45-11.067
						c-5.75-2.676-12.685-0.416-15.917,5.175l-135.722,234.921c-1.693,2.927-2.135,6.383-1.236,9.572s3.065,5.84,6.005,7.349
						c59.367,30.462,127.174,46.58,198.885,44.193c72.455-2.412,140.152-23.431,198.646-58.209c2.834-1.684,4.908-4.433,5.749-7.624
						c0.842-3.192,0.381-6.556-1.278-9.33L2653.326,1927.601z"/>
					
						<linearGradient id="SVGID_00000070105884890326841880000001595193041996793750_" gradientUnits="userSpaceOnUse" x1="2649.1741" y1="1629.1423" x2="2988.4001" y2="1629.1423">
						<stop  offset="0" style="stop-color:#40447E"/>
						<stop  offset="0.9964" style="stop-color:#3C3B6B"/>
					</linearGradient>
					<path style="fill:url(#SVGID_00000070105884890326841880000001595193041996793750_);" d="M2988.378,1781.789
						c-8.048-134.831-80.931-251.339-188.011-318.786c-2.761-1.739-6.108-2.272-9.278-1.473c-3.171,0.799-5.893,2.86-7.542,5.713
						l-132.706,229.751c-3.198,5.538-1.674,12.538,3.525,16.109c25.67,17.637,44.08,43.658,49.924,75.67
						c1.056,5.779,6.092,8.458,11.945,8.342l260.301-5.168c3.273-0.065,6.402-0.081,8.641-2.541
						C2987.415,1786.947,2988.577,1785.102,2988.378,1781.789z"/>
					
						<linearGradient id="SVGID_00000031194046892154371820000008451379981390337929_" gradientUnits="userSpaceOnUse" x1="2499.7319" y1="1814.2133" x2="2669.7903" y2="1814.2133">
						<stop  offset="0" style="stop-color:#40447E"/>
						<stop  offset="0.9964" style="stop-color:#3C3B6B"/>
					</linearGradient>
					<path style="fill:url(#SVGID_00000031194046892154371820000008451379981390337929_);" d="M2585.259,1899.437
						c46.896-1.078,84.686-40.014,84.531-86.962c-0.154-46.94-38.185-84.321-85.069-83.494
						c-47.025,0.829-85.131,39.755-84.988,86.948C2499.875,1863.129,2538.221,1900.519,2585.259,1899.437z"/>
				</g>
			</g>
			
				<linearGradient id="SVGID_00000176023668502184162810000001256127153797785228_" gradientUnits="userSpaceOnUse" x1="1707.7086" y1="1884.2583" x2="3128.7766" y2="1884.2583">
				<stop  offset="0" style="stop-color:#FCB148"/>
				<stop  offset="0.0521" style="stop-color:#FDBA46"/>
				<stop  offset="0.1424" style="stop-color:#FFC244"/>
				<stop  offset="0.3183" style="stop-color:#FFC444"/>
				<stop  offset="0.4849" style="stop-color:#FDB946"/>
				<stop  offset="0.7754" style="stop-color:#F99C4D"/>
				<stop  offset="0.8658" style="stop-color:#F8924F"/>
				<stop  offset="1" style="stop-color:#F8924F"/>
			</linearGradient>
			<path style="opacity:0.3;fill:url(#SVGID_00000176023668502184162810000001256127153797785228_);" d="M2559.738,2494.474
				c-57.188-265.848,108.296-356.158,23.351-607.123c-140.915-416.322-632.891-504.512-620.466-853.976
				c4.01-112.799,34.619-210.994,72.419-291.142c-196.878,27.876-327.333,76.601-327.333,132.051V2873.66h0.251
				c9.999,84.667,324.173,152.623,710.283,152.623c178.762,0,342.073-14.574,466.948-38.622
				C2735.433,2862.932,2604.13,2700.833,2559.738,2494.474z"/>
			<g>
				
					<linearGradient id="SVGID_00000109024490790072354950000004805022288585723567_" gradientUnits="userSpaceOnUse" x1="2414.0547" y1="2301.9004" x2="2423.0676" y2="2434.252">
					<stop  offset="0" style="stop-color:#FCB148"/>
					<stop  offset="0.0521" style="stop-color:#FDBA46"/>
					<stop  offset="0.1424" style="stop-color:#FFC244"/>
					<stop  offset="0.3183" style="stop-color:#FFC444"/>
					<stop  offset="0.4849" style="stop-color:#FDB946"/>
					<stop  offset="0.7754" style="stop-color:#F99C4D"/>
					<stop  offset="0.8658" style="stop-color:#F8924F"/>
					<stop  offset="1" style="stop-color:#F8924F"/>
				</linearGradient>
				<path style="fill:url(#SVGID_00000109024490790072354950000004805022288585723567_);" d="M2422.501,2421.118
					c-237.952,0-477.306-14.832-716.434-44.495c-7.314-0.907-12.506-7.573-11.601-14.884c0.906-7.313,7.554-12.511,14.884-11.601
					c476.058,59.055,953.051,59.056,1417.746,0.005c7.32-0.91,13.989,4.246,14.917,11.555c0.928,7.312-4.245,13.99-11.555,14.92
					C2897.008,2406.283,2660.453,2421.118,2422.501,2421.118z"/>
				
					<linearGradient id="SVGID_00000137853590504403680320000004347484907047377568_" gradientUnits="userSpaceOnUse" x1="2414.0547" y1="-4649.7466" x2="2423.0676" y2="-4517.395" gradientTransform="matrix(1 0 0 -1 0 -3295.2239)">
					<stop  offset="0" style="stop-color:#FCB148"/>
					<stop  offset="0.0521" style="stop-color:#FDBA46"/>
					<stop  offset="0.1424" style="stop-color:#FFC244"/>
					<stop  offset="0.3183" style="stop-color:#FFC444"/>
					<stop  offset="0.4849" style="stop-color:#FDB946"/>
					<stop  offset="0.7754" style="stop-color:#F99C4D"/>
					<stop  offset="0.8658" style="stop-color:#F8924F"/>
					<stop  offset="1" style="stop-color:#F8924F"/>
				</linearGradient>
				<path style="fill:url(#SVGID_00000137853590504403680320000004347484907047377568_);" d="M2422.501,1235.306
					c-237.952,0-477.306,14.832-716.434,44.495c-7.314,0.907-12.506,7.572-11.601,14.884c0.906,7.313,7.554,12.511,14.884,11.6
					c476.058-59.055,953.051-59.056,1417.746-0.005c7.32,0.911,13.989-4.246,14.917-11.555c0.928-7.312-4.245-13.99-11.555-14.92
					C2897.008,1250.141,2660.453,1235.306,2422.501,1235.306z"/>
			</g>
		</g>
		<g>
			<g>
				
					<linearGradient id="SVGID_00000123405364060140311320000007688792222173614245_" gradientUnits="userSpaceOnUse" x1="-767.752" y1="479.4827" x2="-737.8052" y2="372.7971" gradientTransform="matrix(0.8304 -0.5572 0.5572 0.8304 1569.9904 1222.5022)">
					<stop  offset="0" style="stop-color:#FB6FBB"/>
					<stop  offset="1" style="stop-color:#FF9085"/>
				</linearGradient>
				<path style="fill:url(#SVGID_00000123405364060140311320000007688792222173614245_);" d="M1335.363,1835.947
					c14.3,21.31-49.514,89.185-142.531,151.603c-93.018,62.418-180.015,95.743-194.315,74.432
					c-14.3-21.31,49.514-89.185,142.531-151.603C1234.066,1847.962,1321.064,1814.637,1335.363,1835.947z"/>
				
					<linearGradient id="SVGID_00000006707613021411365180000004081985820707301802_" gradientUnits="userSpaceOnUse" x1="-741.0635" y1="926.3626" x2="-736.6187" y2="991.6329" gradientTransform="matrix(0.8304 -0.5572 0.5572 0.8304 1569.9904 1222.5022)">
					<stop  offset="0" style="stop-color:#FB6FBB"/>
					<stop  offset="1" style="stop-color:#FF9085"/>
				</linearGradient>
				<path style="fill:url(#SVGID_00000006707613021411365180000004081985820707301802_);" d="M1653.843,2310.559
					c14.3,21.31-49.514,89.185-142.531,151.603c-93.017,62.418-180.015,95.742-194.315,74.432
					c-14.3-21.31,49.514-89.185,142.531-151.603C1552.546,2322.573,1639.543,2289.249,1653.843,2310.559z"/>
				<g>
					
						<linearGradient id="SVGID_00000111161468067393392540000003435302297044694932_" gradientUnits="userSpaceOnUse" x1="-938.7762" y1="666.2649" x2="-540.1143" y2="666.2649" gradientTransform="matrix(0.8304 -0.5572 0.5572 0.8304 1569.9904 1222.5022)">
						<stop  offset="0" style="stop-color:#FB6FBB"/>
						<stop  offset="1" style="stop-color:#FF9085"/>
					</linearGradient>
					<polygon style="fill:url(#SVGID_00000111161468067393392540000003435302297044694932_);" points="1648.981,2309.595 
						1317.947,2531.729 1005.414,2065.98 1336.449,1843.845 					"/>
					
						<linearGradient id="SVGID_00000084494672826342684840000006711497208523799708_" gradientUnits="userSpaceOnUse" x1="-938.7762" y1="385.8239" x2="-540.1261" y2="385.8239" gradientTransform="matrix(0.8304 -0.5572 0.5572 0.8304 1569.9904 1222.5022)">
						<stop  offset="0" style="stop-color:#FB6FBB"/>
						<stop  offset="1" style="stop-color:#FF9085"/>
					</linearGradient>
					<path style="fill:url(#SVGID_00000084494672826342684840000006711497208523799708_);" d="M1336.449,1843.845
						c13.535,20.171-49.597,86.249-141.009,147.59c-91.413,61.341-176.49,94.716-190.025,74.545
						c-13.535-20.171,49.597-86.249,141.009-147.59C1237.836,1857.049,1322.913,1823.674,1336.449,1843.845z"/>
					
						<linearGradient id="SVGID_00000074440255517627150820000001505910673469611917_" gradientUnits="userSpaceOnUse" x1="-938.7644" y1="945.5383" x2="-540.1143" y2="945.5383" gradientTransform="matrix(0.8304 -0.5572 0.5572 0.8304 1569.9904 1222.5022)">
						<stop  offset="0" style="stop-color:#FB6FBB"/>
						<stop  offset="1" style="stop-color:#FF9085"/>
					</linearGradient>
					<path style="fill:url(#SVGID_00000074440255517627150820000001505910673469611917_);" d="M1648.331,2308.625
						c13.535,20.171-49.597,86.249-141.009,147.59c-91.413,61.341-176.49,94.716-190.025,74.545
						c-13.535-20.171,49.597-86.249,141.009-147.59C1549.719,2321.829,1634.796,2288.455,1648.331,2308.625z"/>
				</g>
				<g>
					<g>
						
							<linearGradient id="SVGID_00000022534103286147697200000017537285815532472469_" gradientUnits="userSpaceOnUse" x1="-810.1783" y1="599.4121" x2="-711.2128" y2="599.4121" gradientTransform="matrix(0.8304 -0.5572 0.5572 0.8304 1569.9904 1222.5022)">
							<stop  offset="0" style="stop-color:#40447E"/>
							<stop  offset="0.9964" style="stop-color:#3C3B6B"/>
						</linearGradient>
						<path style="fill:url(#SVGID_00000022534103286147697200000017537285815532472469_);" d="M1325.419,2161.783
							c-3.699-8.363-3.742-17.56-0.744-25.868c0.608-1.684-0.099-3.469-1.697-4.224l-68.074-32.085
							c-0.84-0.397-1.793-0.412-2.667-0.082c-0.873,0.33-1.573,1.01-1.952,1.867c-14.992,33.933-13.77,74.344,6.281,108.07
							c0.489,0.823,1.067,1.064,2,1.26c0.933,0.196,1.683-0.345,2.475-0.899l62.954-44.081
							C1325.364,2164.781,1326.096,2163.313,1325.419,2161.783z"/>
						
							<linearGradient id="SVGID_00000098930124551261283310000008340548967038606723_" gradientUnits="userSpaceOnUse" x1="-750.5641" y1="722.4416" x2="-635.5049" y2="722.4416" gradientTransform="matrix(0.8304 -0.5572 0.5572 0.8304 1569.9904 1222.5022)">
							<stop  offset="0" style="stop-color:#40447E"/>
							<stop  offset="0.9964" style="stop-color:#3C3B6B"/>
						</linearGradient>
						<path style="fill:url(#SVGID_00000098930124551261283310000008340548967038606723_);" d="M1390.343,2163.533
							c-1.593-0.751-3.483-0.137-4.359,1.421c-2.433,4.326-5.826,8.186-10.115,11.217c-4.383,3.097-9.235,5.002-14.181,5.777
							c-1.757,0.276-3.02,1.886-2.899,3.694l5.105,75.939c0.064,0.947,0.501,1.821,1.209,2.423c0.708,0.602,1.627,0.882,2.548,0.773
							c18.591-2.184,36.906-9.028,53.238-20.794c16.501-11.887,28.985-27.366,37.175-44.611c0.397-0.835,0.45-1.8,0.147-2.675
							c-0.303-0.875-0.936-1.587-1.756-1.974L1390.343,2163.533z"/>
						
							<linearGradient id="SVGID_00000166635858524214021850000009922629026867427232_" gradientUnits="userSpaceOnUse" x1="-674.6633" y1="597.581" x2="-579.5004" y2="597.581" gradientTransform="matrix(0.8304 -0.5572 0.5572 0.8304 1569.9904 1222.5022)">
							<stop  offset="0" style="stop-color:#40447E"/>
							<stop  offset="0.9964" style="stop-color:#3C3B6B"/>
						</linearGradient>
						<path style="fill:url(#SVGID_00000166635858524214021850000009922629026867427232_);" d="M1445.6,2077.193
							c-22.951-30.151-58.141-45.898-93.628-44.872c-0.915,0.026-1.778,0.426-2.391,1.107c-0.614,0.682-0.926,1.588-0.864,2.51
							l5,74.264c0.12,1.79,1.57,3.182,3.339,3.202c8.736,0.096,17.093,3.28,23.458,9.823c1.149,1.181,2.741,1.018,4.086,0.076
							l59.829-41.893c0.752-0.527,1.479-1.02,1.615-1.943C1446.182,2078.544,1446.164,2077.933,1445.6,2077.193z"/>
						
							<linearGradient id="SVGID_00000089560264267980029050000000182401695744097169_" gradientUnits="userSpaceOnUse" x1="-716.5855" y1="649.4997" x2="-668.8793" y2="649.4997" gradientTransform="matrix(0.8304 -0.5572 0.5572 0.8304 1569.9904 1222.5022)">
							<stop  offset="0" style="stop-color:#40447E"/>
							<stop  offset="0.9964" style="stop-color:#3C3B6B"/>
						</linearGradient>
						<path style="fill:url(#SVGID_00000089560264267980029050000000182401695744097169_);" d="M1370.084,2167.612
							c10.756-7.582,13.472-22.559,6.098-33.471c-7.373-10.911-22.076-13.674-32.868-6.152
							c-10.825,7.544-13.617,22.568-6.207,33.539C1344.519,2172.501,1359.296,2175.217,1370.084,2167.612z"/>
					</g>
				</g>
				
					<linearGradient id="SVGID_00000169530078420009844650000008381615834443968900_" gradientUnits="userSpaceOnUse" x1="-938.7762" y1="669.1515" x2="-540.1111" y2="669.1515" gradientTransform="matrix(0.8304 -0.5572 0.5572 0.8304 1569.9904 1222.5022)">
					<stop  offset="0" style="stop-color:#FB6FBB"/>
					<stop  offset="1" style="stop-color:#FF9085"/>
				</linearGradient>
				<path style="opacity:0.3;fill:url(#SVGID_00000169530078420009844650000008381615834443968900_);" d="M1457.153,2310.214
					c-54.878-52.989-54.821-137.042-113.839-182.225c-97.903-74.954-201.918,18.553-253.65-64.796
					c-16.698-26.903-24.917-54.562-28.64-79.141c-41.505,37.269-64.277,69.011-55.61,81.928l312.533,465.749l0.058-0.039
					c15.564,18.16,99.373-15.12,189.316-75.475c41.642-27.943,77.407-56.866,102.737-81.988
					C1555.676,2368.582,1499.751,2351.345,1457.153,2310.214z"/>
				<g>
					
						<linearGradient id="SVGID_00000018952678763877826200000017677456573504271239_" gradientUnits="userSpaceOnUse" x1="-740.6169" y1="786.315" x2="-738.089" y2="823.437" gradientTransform="matrix(0.8304 -0.5572 0.5572 0.8304 1569.9904 1222.5022)">
						<stop  offset="0" style="stop-color:#FB6FBB"/>
						<stop  offset="1" style="stop-color:#FF9085"/>
					</linearGradient>
					<path style="fill:url(#SVGID_00000018952678763877826200000017677456573504271239_);" d="M1413.717,2314.578
						c-55.43,37.196-113.506,71.155-173.847,101.625c-1.845,0.932-4.097,0.191-5.029-1.654c-0.932-1.845-0.196-4.095,1.654-5.029
						c120.128-60.658,231.242-135.219,330.261-221.615c1.563-1.356,3.922-1.197,5.281,0.36c1.359,1.558,1.198,3.923-0.359,5.282
						C1521.933,2236.949,1469.148,2277.382,1413.717,2314.578z"/>
					
						<linearGradient id="SVGID_00000085951906302793398820000009038744927538203531_" gradientUnits="userSpaceOnUse" x1="-740.8231" y1="-3815.9412" x2="-738.2943" y2="-3778.8064" gradientTransform="matrix(0.8304 -0.5572 -0.5572 -0.8304 -266.0369 -1514.1029)">
						<stop  offset="0" style="stop-color:#FB6FBB"/>
						<stop  offset="1" style="stop-color:#FF9085"/>
					</linearGradient>
					<path style="fill:url(#SVGID_00000085951906302793398820000009038744927538203531_);" d="M1228.356,2038.346
						c-55.43,37.196-108.868,78.065-159.936,122.355c-1.562,1.355-1.729,3.719-0.375,5.281c1.354,1.562,3.715,1.734,5.28,0.376
						c101.665-88.172,212.779-162.734,330.26-221.617c1.847-0.932,2.595-3.176,1.668-5.023c-0.927-1.849-3.175-2.596-5.024-1.669
						C1341.211,1967.629,1283.787,2001.15,1228.356,2038.346z"/>
				</g>
			</g>
			<g>
				
					<linearGradient id="SVGID_00000013897589539357796970000000074604797822855856_" gradientUnits="userSpaceOnUse" x1="787.3079" y1="3063.8699" x2="866.3828" y2="3063.8699" gradientTransform="matrix(1 0 0 1 271.8956 0)">
					<stop  offset="0" style="stop-color:#40447E"/>
					<stop  offset="0.9964" style="stop-color:#3C3B6B"/>
				</linearGradient>
				<path style="fill:url(#SVGID_00000013897589539357796970000000074604797822855856_);" d="M1069.97,3047.845
					c-9.177,9.261-12.896,19.201-9.563,25.027c2.303,4.026,7.397,5.076,12.979,6.148c8.812,1.691,17.998,1.235,36.887-4.099
					c17.633-4.98,27.997-7.906,28.006-12.142c0.009-3.965-9.058-7.045-17.015-9.749c-11.249-3.821-21.121-4.903-27.896-5.185
					C1085.568,3047.845,1077.769,3047.845,1069.97,3047.845z"/>
				
					<linearGradient id="SVGID_00000062166353228658249210000002075241435509968052_" gradientUnits="userSpaceOnUse" x1="1061.0861" y1="2927.9248" x2="1113.3656" y2="2927.9248" gradientTransform="matrix(1 0 0 1 271.8956 0)">
					<stop  offset="0" style="stop-color:#40447E"/>
					<stop  offset="0.9964" style="stop-color:#3C3B6B"/>
				</linearGradient>
				<path style="fill:url(#SVGID_00000062166353228658249210000002075241435509968052_);" d="M1344.172,2897.663
					c-4.132,1.786-9.433,4.935-10.845,10.136c-2.231,8.212,6.547,16.691,20.584,29.913c10.533,9.922,24.759,23.322,29.71,19.942
					c3.032-2.07,1.24-9.514-0.427-16.443c-2.008-8.341-6.447-21.248-17.439-35.395
					C1365.755,2905.815,1365.755,2905.815,1344.172,2897.663z"/>
				
					<linearGradient id="SVGID_00000061448384113042693400000001240728202404536454_" gradientUnits="userSpaceOnUse" x1="825.9089" y1="3060.0354" x2="854.5981" y2="3119.4631" gradientTransform="matrix(1 0 0 1 271.8956 0)">
					<stop  offset="0" style="stop-color:#311944"/>
					<stop  offset="1" style="stop-color:#A03976"/>
				</linearGradient>
				<path style="fill:url(#SVGID_00000061448384113042693400000001240728202404536454_);" d="M1090.105,3027.44l-19.751,21.9
					c-2.028,2.249-1.013,5.863,1.905,6.678c4.325,1.207,10.356,2.186,15.891,0.619c1.217-0.344,2.29-1.077,3.195-1.961l19.711-19.25
					L1090.105,3027.44z"/>
				
					<linearGradient id="SVGID_00000166671425833153966510000000230225030342577087_" gradientUnits="userSpaceOnUse" x1="1102.0751" y1="2824.7947" x2="1058.202" y2="3020.229" gradientTransform="matrix(1 0 0 1 271.8956 0)">
					<stop  offset="0" style="stop-color:#311944"/>
					<stop  offset="1" style="stop-color:#A03976"/>
				</linearGradient>
				<path style="fill:url(#SVGID_00000166671425833153966510000000230225030342577087_);" d="M1355.115,2884.438l-10.649,15.344
					c-1.509,2.174-0.786,5.157,1.532,6.435c1.531,0.844,3.359,1.74,5.267,2.43c3.094,1.12,6.56,0.284,8.746-2.176l11.55-13.003
					L1355.115,2884.438z"/>
				
					<linearGradient id="SVGID_00000145025076482106272900000009586961817701408189_" gradientUnits="userSpaceOnUse" x1="1068.6163" y1="2782.4368" x2="1308.2135" y2="2782.4368">
					<stop  offset="0" style="stop-color:#FCB148"/>
					<stop  offset="0.0521" style="stop-color:#FDBA46"/>
					<stop  offset="0.1424" style="stop-color:#FFC244"/>
					<stop  offset="0.3183" style="stop-color:#FFC444"/>
					<stop  offset="0.4849" style="stop-color:#FDB946"/>
					<stop  offset="0.7754" style="stop-color:#F99C4D"/>
					<stop  offset="0.8658" style="stop-color:#F8924F"/>
					<stop  offset="1" style="stop-color:#F8924F"/>
				</linearGradient>
				<path style="fill:url(#SVGID_00000145025076482106272900000009586961817701408189_);" d="M1163.876,2563.042
					c10.123,21.157,22.324,51.671,29.727,89.855c3.114,16.059,17.679,96.923-13.628,194.368
					c-29.138,90.692-82.805,148.422-111.359,175.188c4.043,3.42,9.644,7.438,16.89,10.81c11.601,5.397,22.207,6.715,28.994,6.99
					c87.206-62.251,129.493-132.78,148.69-171.162c64.766-129.494,48.518-256.621,20.207-310.386
					c-9.297-17.656-19.797-27.216-31.692-31.47C1213.532,2513.585,1169.268,2557.556,1163.876,2563.042z"/>
				
					<linearGradient id="SVGID_00000170985437880876822250000014420139096249965496_" gradientUnits="userSpaceOnUse" x1="1090.7874" y1="2974.3066" x2="888.1058" y2="2771.6252" gradientTransform="matrix(1 0 0 1 271.8956 0)">
					<stop  offset="0" style="stop-color:#FFC444"/>
					<stop  offset="0.9964" style="stop-color:#F36F56"/>
				</linearGradient>
				<path style="opacity:0.3;fill:url(#SVGID_00000170985437880876822250000014420139096249965496_);" d="M1283.397,2558.705
					c-9.297-17.656-19.797-27.216-31.692-31.47c-38.173-13.65-82.437,30.321-87.829,35.807c9.981,20.859,21.96,50.851,29.391,88.285
					c26.669,6.27,63.928,21.142,82.085,56.295c29.374,56.872-12.857,125.032-21.62,139.175
					c-19.287,31.129-30.967,28.21-59.453,72.965c-21.515,33.802-23.159,48.519-41.887,64.858
					c-22.019,19.209-49.516,24.84-71.719,26.063c-4.356,4.425-8.414,8.357-12.056,11.771c4.043,3.42,9.644,7.438,16.89,10.81
					c11.601,5.397,22.207,6.715,28.994,6.99c87.206-62.251,129.493-132.78,148.69-171.162
					C1327.956,2739.597,1311.708,2612.47,1283.397,2558.705z"/>
				
					<linearGradient id="SVGID_00000018226569542420384890000011911355878849878426_" gradientUnits="userSpaceOnUse" x1="1203.1766" y1="2205.5889" x2="1505.8466" y2="3372.2463">
					<stop  offset="0" style="stop-color:#FCB148"/>
					<stop  offset="0.0521" style="stop-color:#FDBA46"/>
					<stop  offset="0.1424" style="stop-color:#FFC244"/>
					<stop  offset="0.3183" style="stop-color:#FFC444"/>
					<stop  offset="0.4849" style="stop-color:#FDB946"/>
					<stop  offset="0.7754" style="stop-color:#F99C4D"/>
					<stop  offset="0.8658" style="stop-color:#F8924F"/>
					<stop  offset="1" style="stop-color:#F8924F"/>
				</linearGradient>
				<path style="fill:url(#SVGID_00000018226569542420384890000011911355878849878426_);" d="M1123.237,2572.35
					c33.312,33.776,64.736,48.922,87.006,56.521c58.036,19.803,90.786,0.934,131.796,28.992
					c32.083,21.951,44.367,55.75,48.448,69.116c22.832,74.797-43.518,148.556-50.865,156.498
					c4.264,3.951,10.713,9.063,19.504,13.314c8.088,3.911,15.475,5.795,20.944,6.756c95.132-86.923,141.617-192.257,109.96-260.704
					c-17.268-37.335-58.147-64.482-88.341-84.53c-49.367-32.781-96.483-47.669-127.158-54.939
					C1224.1,2526.366,1173.668,2549.358,1123.237,2572.35z"/>
				
					<linearGradient id="SVGID_00000178911108301317685930000015992069029360869545_" gradientUnits="userSpaceOnUse" x1="1103.1382" y1="2231.5425" x2="1405.8085" y2="3398.2017">
					<stop  offset="0" style="stop-color:#FCB148"/>
					<stop  offset="0.0521" style="stop-color:#FDBA46"/>
					<stop  offset="0.1424" style="stop-color:#FFC244"/>
					<stop  offset="0.3183" style="stop-color:#FFC444"/>
					<stop  offset="0.4849" style="stop-color:#FDB946"/>
					<stop  offset="0.7754" style="stop-color:#F99C4D"/>
					<stop  offset="0.8658" style="stop-color:#F8924F"/>
					<stop  offset="1" style="stop-color:#F8924F"/>
				</linearGradient>
				<path style="fill:url(#SVGID_00000178911108301317685930000015992069029360869545_);" d="M1269.946,2359.91
					c1.432,42.063-8.32,63.876,5.339,98.206c9.814,24.667,38.051,50.509,50.389,61.047c-7.024,13.475-35.358,31.488-67.296,52.503
					c-38.585,25.388-76.96,27.087-92.026,26.958c-31.92-16.425-80.336-47.377-119.198-102.499
					c-26.343-37.365-55.267-78.391-47.614-130.688c9.722-66.439,71.286-101.93,88.741-111.994
					c11.488-6.623,90.83-52.366,139.326-18.745C1266.604,2261.732,1268.875,2328.448,1269.946,2359.91z"/>
				
					<linearGradient id="SVGID_00000023261181201988469960000012461323659817876659_" gradientUnits="userSpaceOnUse" x1="1325.0654" y1="2437.3025" x2="1290.3204" y2="2402.5574" gradientTransform="matrix(1 0 0 1 271.8956 0)">
					<stop  offset="0" style="stop-color:#311944"/>
					<stop  offset="1" style="stop-color:#A03976"/>
				</linearGradient>
				<path style="fill:url(#SVGID_00000023261181201988469960000012461323659817876659_);" d="M1535.121,2407.653
					c1.27-6.794,6.134-11.728,8.91-14.53c3.222-3.251,3.882-2.739,5.984-5.4c5.293-6.7,4.014-13.619,6.05-13.85
					c1.769-0.202,4.877,4.781,4.665,9.935c-0.236,5.76-4.445,7.478-3.652,10.671c1.115,4.49,11.094,7.753,19.93,6.081
					c10.246-1.94,15.245-10.199,19.255-8.107c2.91,1.519,2.724,6.957,2.702,7.432c-0.447,10.197-14.071,20.898-27.362,22.295
					c-7.652,0.805-10.515-1.969-19.593,0.338c-6.02,1.529-8.125,3.604-11.147,2.365
					C1535.914,2422.851,1533.907,2414.148,1535.121,2407.653z"/>
				
					<linearGradient id="SVGID_00000026139943185429867460000008008899587799321766_" gradientUnits="userSpaceOnUse" x1="1213.9666" y1="2142.8772" x2="1531.939" y2="2644.2949">
					<stop  offset="0" style="stop-color:#FCB148"/>
					<stop  offset="0.0521" style="stop-color:#FDBA46"/>
					<stop  offset="0.1424" style="stop-color:#FFC244"/>
					<stop  offset="0.3183" style="stop-color:#FFC444"/>
					<stop  offset="0.4849" style="stop-color:#FDB946"/>
					<stop  offset="0.7754" style="stop-color:#F99C4D"/>
					<stop  offset="0.8658" style="stop-color:#F8924F"/>
					<stop  offset="1" style="stop-color:#F8924F"/>
				</linearGradient>
				<path style="fill:url(#SVGID_00000026139943185429867460000008008899587799321766_);" d="M1536.585,2404.05
					c-81.919,5.672-130.848-15.635-160.343-36.033c-66.911-46.272-80.04-119.838-157.642-139.625
					c-14.151-3.608-38.797-9.893-52.247,2.702c-27.945,26.172,5.009,122.099,63.057,181.062
					c12.818,13.02,59.004,58.565,135.227,68.848c97.695,13.18,167.776-41.953,179.865-51.792c3.831-4.315,4.998-10.358,3.008-15.656
					C1544.712,2406.108,1537.2,2404.195,1536.585,2404.05z"/>
				<g>
					<g>
						
							<linearGradient id="SVGID_00000182509939615997368130000011499707947835537546_" gradientUnits="userSpaceOnUse" x1="806.1398" y1="2289.1035" x2="896.2201" y2="2140.4712" gradientTransform="matrix(1 0 0 1 271.8956 0)">
							<stop  offset="0" style="stop-color:#311944"/>
							<stop  offset="1" style="stop-color:#A03976"/>
						</linearGradient>
						<path style="fill:url(#SVGID_00000182509939615997368130000011499707947835537546_);" d="M1129.481,2219.334
							c2.571-0.571,21.216,2.481,26.515-6.481c7.195-12.165,0.035-31.604-0.687-34.607c-3.026-12.572-4.152-14.479-6.485-17.139
							l-3.3-3.489c0,0-0.204-0.153-0.422-0.302c-2.294-1.578-10.861-4.143-12.711-4.236c-5.908-0.296-17.931,20.89-24.816,53.539
							c-0.559,1.165-1.112,2.342-1.661,3.532C1104.488,2213.244,1129.313,2220.522,1129.481,2219.334z"/>
						
							<linearGradient id="SVGID_00000155863022553979907420000002813166874175496890_" gradientUnits="userSpaceOnUse" x1="807.7709" y1="2290.0928" x2="897.8513" y2="2141.4602" gradientTransform="matrix(1 0 0 1 271.8956 0)">
							<stop  offset="0" style="stop-color:#311944"/>
							<stop  offset="1" style="stop-color:#A03976"/>
						</linearGradient>
						<path style="fill:url(#SVGID_00000155863022553979907420000002813166874175496890_);" d="M1139.44,2190.775
							c-1.549-4.011-6.687-2-7.87,2.34c-1.184,4.339,1.822,9.981,6.137,10.211
							C1142.021,2203.558,1141.524,2196.173,1139.44,2190.775z"/>
					</g>
				</g>
			</g>
			<g>
				
					<linearGradient id="SVGID_00000098920000818421380910000008524702083247279780_" gradientUnits="userSpaceOnUse" x1="4344.5415" y1="2161.1199" x2="4388.687" y2="2230.7334" gradientTransform="matrix(-1 0 0 1 5551.125 0)">
					<stop  offset="0" style="stop-color:#D8DEE8"/>
					<stop  offset="0.9964" style="stop-color:#97A6B7"/>
				</linearGradient>
				
					<ellipse style="fill:url(#SVGID_00000098920000818421380910000008524702083247279780_);" cx="1189.152" cy="2188.608" rx="15.408" ry="28.943"/>
				
					<linearGradient id="SVGID_00000041977699587993307440000003337165918854358673_" gradientUnits="userSpaceOnUse" x1="4349.9092" y1="2157.1072" x2="4400.499" y2="2236.8831" gradientTransform="matrix(-1 0 0 1 5551.125 0)">
					<stop  offset="0" style="stop-color:#D8DEE8"/>
					<stop  offset="0.9964" style="stop-color:#97A6B7"/>
				</linearGradient>
				<polygon style="fill:url(#SVGID_00000041977699587993307440000003337165918854358673_);" points="1171.661,2217.551 
					1190.817,2217.551 1190.817,2159.666 1171.661,2159.666 				"/>
				
					<linearGradient id="SVGID_00000173851958350632751430000016925104514777670528_" gradientUnits="userSpaceOnUse" x1="4405.1885" y1="2161.5979" x2="4363.5439" y2="2205.3242" gradientTransform="matrix(-1 0 0 1 5551.125 0)">
					<stop  offset="0" style="stop-color:#D8DEE8"/>
					<stop  offset="0.9964" style="stop-color:#97A6B7"/>
				</linearGradient>
				
					<ellipse style="fill:url(#SVGID_00000173851958350632751430000016925104514777670528_);" cx="1171.661" cy="2188.608" rx="15.408" ry="28.943"/>
			</g>
			
				<linearGradient id="SVGID_00000067940860438215595720000013394223081165383060_" gradientUnits="userSpaceOnUse" x1="1122.9659" y1="2149.0183" x2="1178.4496" y2="2236.5117">
				<stop  offset="0" style="stop-color:#40447E"/>
				<stop  offset="0.9964" style="stop-color:#3C3B6B"/>
			</linearGradient>
			<path style="fill:url(#SVGID_00000067940860438215595720000013394223081165383060_);" d="M1132.391,2153.08
				c3.456-1.096,14.862,1.111,22.718,13.58s16.656,12.842,16.656,12.842c5.281,1.834,7.496,15.21,0.772,19.567
				c0,0-19.666,21.76-31.541,23.415C1129.121,2224.139,1132.391,2153.08,1132.391,2153.08z"/>
			
				<linearGradient id="SVGID_00000168829233978115009940000005195731024086912958_" gradientUnits="userSpaceOnUse" x1="1066.0194" y1="2128.0964" x2="1169.0831" y2="2290.6199">
				<stop  offset="0" style="stop-color:#FCB148"/>
				<stop  offset="0.0521" style="stop-color:#FDBA46"/>
				<stop  offset="0.1424" style="stop-color:#FFC244"/>
				<stop  offset="0.3183" style="stop-color:#FFC444"/>
				<stop  offset="0.4849" style="stop-color:#FDB946"/>
				<stop  offset="0.7754" style="stop-color:#F99C4D"/>
				<stop  offset="0.8658" style="stop-color:#F8924F"/>
				<stop  offset="1" style="stop-color:#F8924F"/>
			</linearGradient>
			<path style="fill:url(#SVGID_00000168829233978115009940000005195731024086912958_);" d="M1153.134,2228.337
				c0,0-33.797-49.096-5.669-75.26c0,0-46.473-53.786-82.298,1.949c-26.283,40.891,38.271,72.782,17.48,102.745
				C1082.648,2257.771,1132.51,2260.663,1153.134,2228.337z"/>
		</g>
	</g>
</g>
</svg>
