<?xml version="1.0" encoding="utf-8"?>
<!-- Generator: Adobe Illustrator 27.5.0, SVG Export Plug-In . SVG Version: 6.00 Build 0)  -->
<svg version="1.1" id="Layer_1" xmlns="http://www.w3.org/2000/svg" xmlns:xlink="http://www.w3.org/1999/xlink" x="0px" y="0px"
	 viewBox="0 0 425.2 425.2" style="enable-background:new 0 0 425.2 425.2;" xml:space="preserve">
<g>
	<defs>
		<rect id="SVGID_1_" x="-0.001" y="-0.001" width="425.2" height="425.2"/>
	</defs>
	<use xlink:href="#SVGID_1_"  style="overflow:visible;fill:#FFFFFF;"/>
	<clipPath id="SVGID_00000085947633165638035830000010065553201738007970_">
		<use xlink:href="#SVGID_1_"  style="overflow:visible;"/>
	</clipPath>
</g>
<g>
	<g>
		
			<linearGradient id="SVGID_00000078032157940485858070000010604587633029640876_" gradientUnits="userSpaceOnUse" x1="249.1445" y1="231.0104" x2="361.5215" y2="231.0104">
			<stop  offset="0" style="stop-color:#3E3B3C"/>
			<stop  offset="0.0635" style="stop-color:#464344"/>
			<stop  offset="0.1722" style="stop-color:#5F5C5D"/>
			<stop  offset="0.2424" style="stop-color:#767273"/>
			<stop  offset="0.294" style="stop-color:#706D6E"/>
			<stop  offset="0.4077" style="stop-color:#626162"/>
			<stop  offset="0.5235" style="stop-color:#535253"/>
			<stop  offset="0.64" style="stop-color:#424143"/>
			<stop  offset="0.7575" style="stop-color:#2C2B2C"/>
			<stop  offset="0.8767" style="stop-color:#0F0F10"/>
			<stop  offset="1" style="stop-color:#000000"/>
		</linearGradient>
		<path style="fill:url(#SVGID_00000078032157940485858070000010604587633029640876_);" d="M361.522,298.191
			c0,20.824-112.377,20.105-112.377,0V148.48c0,16.513,112.377,18.669,112.377,0V298.191z"/>
		
			<linearGradient id="SVGID_00000057105819556992585930000004065139862183079592_" gradientUnits="userSpaceOnUse" x1="249.1445" y1="149.927" x2="361.4961" y2="149.927">
			<stop  offset="0" style="stop-color:#2C2B2C"/>
			<stop  offset="0.2391" style="stop-color:#323132"/>
			<stop  offset="0.5992" style="stop-color:#444142"/>
			<stop  offset="1" style="stop-color:#605C5D"/>
		</linearGradient>
		<path style="fill:url(#SVGID_00000057105819556992585930000004065139862183079592_);" d="M361.496,149.084
			c0,6.717-20.98,13.847-56.176,13.847c-31.023,0-56.176-6.374-56.176-13.847c0-6.717,25.152-12.161,56.176-12.161
			C336.344,136.923,361.496,142.367,361.496,149.084z"/>
		
			<linearGradient id="SVGID_00000017511865900152878140000011036676773067096240_" gradientUnits="userSpaceOnUse" x1="251.7734" y1="149.9268" x2="359.9238" y2="149.9268">
			<stop  offset="0" style="stop-color:#4E4B4C"/>
			<stop  offset="0.1403" style="stop-color:#4E4B4C"/>
			<stop  offset="0.3752" style="stop-color:#4C4A4B"/>
			<stop  offset="0.6757" style="stop-color:#434143"/>
			<stop  offset="1" style="stop-color:#000000"/>
		</linearGradient>
		<path style="fill:url(#SVGID_00000017511865900152878140000011036676773067096240_);" d="M359.924,149.148
			c0,6.22-20.195,12.825-54.074,12.825c-29.861,0-54.076-5.903-54.076-12.825c0-6.224,24.215-11.266,54.076-11.266
			C335.715,137.881,359.924,142.924,359.924,149.148z"/>
		
			<linearGradient id="SVGID_00000144308926247523117780000001279423841708006552_" gradientUnits="userSpaceOnUse" x1="249.0996" y1="194.6969" x2="361.4727" y2="194.6969">
			<stop  offset="0" style="stop-color:#3E3B3C"/>
			<stop  offset="0.0414" style="stop-color:#464344"/>
			<stop  offset="0.1125" style="stop-color:#605C5D"/>
			<stop  offset="0.2042" style="stop-color:#918D8E"/>
			<stop  offset="0.2242" style="stop-color:#9F9B9C"/>
			<stop  offset="0.4485" style="stop-color:#4E4B4C"/>
			<stop  offset="0.5854" style="stop-color:#454243"/>
			<stop  offset="0.82" style="stop-color:#2E2D2E"/>
			<stop  offset="0.8364" style="stop-color:#2C2B2C"/>
			<stop  offset="1" style="stop-color:#000000"/>
		</linearGradient>
		<path style="fill:url(#SVGID_00000144308926247523117780000001279423841708006552_);" d="M249.145,184.576
			c0,0,58.639,16.799,112.328-0.043v11.426c0,0-50.217,20.017-112.373,0.016L249.145,184.576z"/>
		
			<linearGradient id="SVGID_00000067927084596479645960000014111229847205471622_" gradientUnits="userSpaceOnUse" x1="249.0996" y1="228.445" x2="361.4727" y2="228.445">
			<stop  offset="0" style="stop-color:#3E3B3C"/>
			<stop  offset="0.0414" style="stop-color:#464344"/>
			<stop  offset="0.1125" style="stop-color:#605C5D"/>
			<stop  offset="0.2042" style="stop-color:#918D8E"/>
			<stop  offset="0.2242" style="stop-color:#9F9B9C"/>
			<stop  offset="0.4485" style="stop-color:#4E4B4C"/>
			<stop  offset="0.5854" style="stop-color:#454243"/>
			<stop  offset="0.82" style="stop-color:#2E2D2E"/>
			<stop  offset="0.8364" style="stop-color:#2C2B2C"/>
			<stop  offset="1" style="stop-color:#000000"/>
		</linearGradient>
		<path style="fill:url(#SVGID_00000067927084596479645960000014111229847205471622_);" d="M249.145,218.324
			c0,0,58.639,16.799,112.328-0.042v11.425c0,0-50.217,20.017-112.373,0.015L249.145,218.324z"/>
		
			<linearGradient id="SVGID_00000026860547774878734390000009951363408179213978_" gradientUnits="userSpaceOnUse" x1="249.0996" y1="266.144" x2="361.4727" y2="266.144">
			<stop  offset="0" style="stop-color:#3E3B3C"/>
			<stop  offset="0.0414" style="stop-color:#464344"/>
			<stop  offset="0.1125" style="stop-color:#605C5D"/>
			<stop  offset="0.2042" style="stop-color:#918D8E"/>
			<stop  offset="0.2242" style="stop-color:#9F9B9C"/>
			<stop  offset="0.4485" style="stop-color:#4E4B4C"/>
			<stop  offset="0.5854" style="stop-color:#454243"/>
			<stop  offset="0.82" style="stop-color:#2E2D2E"/>
			<stop  offset="0.8364" style="stop-color:#2C2B2C"/>
			<stop  offset="1" style="stop-color:#000000"/>
		</linearGradient>
		<path style="fill:url(#SVGID_00000026860547774878734390000009951363408179213978_);" d="M249.145,256.022
			c0,0,58.639,16.797,112.328-0.04v11.422c0,0-50.217,20.018-112.373,0.018L249.145,256.022z"/>
	</g>
	<g>
		
			<linearGradient id="SVGID_00000165937053581651412030000007023223382575345036_" gradientUnits="userSpaceOnUse" x1="63.7285" y1="209.6069" x2="199.1035" y2="209.6069">
			<stop  offset="0" style="stop-color:#3E3B3C"/>
			<stop  offset="0.0635" style="stop-color:#464344"/>
			<stop  offset="0.1722" style="stop-color:#5F5C5D"/>
			<stop  offset="0.2424" style="stop-color:#767273"/>
			<stop  offset="0.294" style="stop-color:#706D6E"/>
			<stop  offset="0.4077" style="stop-color:#626162"/>
			<stop  offset="0.5235" style="stop-color:#535253"/>
			<stop  offset="0.64" style="stop-color:#424143"/>
			<stop  offset="0.7575" style="stop-color:#2C2B2C"/>
			<stop  offset="0.8767" style="stop-color:#0F0F10"/>
			<stop  offset="1" style="stop-color:#000000"/>
		</linearGradient>
		<path style="fill:url(#SVGID_00000165937053581651412030000007023223382575345036_);" d="M199.104,290.538
			c0,25.088-135.375,24.219-135.375,0V110.185c0,19.895,135.375,22.491,135.375,0V290.538z"/>
		
			<linearGradient id="SVGID_00000176002385941144863980000015426819759577586354_" gradientUnits="userSpaceOnUse" x1="63.7285" y1="111.9295" x2="199.0781" y2="111.9295">
			<stop  offset="0" style="stop-color:#2C2B2C"/>
			<stop  offset="0.2391" style="stop-color:#323132"/>
			<stop  offset="0.5992" style="stop-color:#444142"/>
			<stop  offset="1" style="stop-color:#605C5D"/>
		</linearGradient>
		<path style="fill:url(#SVGID_00000176002385941144863980000015426819759577586354_);" d="M199.078,110.913
			c0,8.093-25.275,16.682-67.674,16.682c-37.373,0-67.676-7.679-67.676-16.682c0-8.092,30.303-14.649,67.676-14.649
			C168.781,96.264,199.078,102.821,199.078,110.913z"/>
		
			<linearGradient id="SVGID_00000044866003404591765630000009971076599921597352_" gradientUnits="userSpaceOnUse" x1="66.9004" y1="111.9277" x2="197.1817" y2="111.9277">
			<stop  offset="0" style="stop-color:#4E4B4C"/>
			<stop  offset="0.1403" style="stop-color:#4E4B4C"/>
			<stop  offset="0.3752" style="stop-color:#4C4A4B"/>
			<stop  offset="0.6757" style="stop-color:#434143"/>
			<stop  offset="1" style="stop-color:#000000"/>
		</linearGradient>
		<path style="fill:url(#SVGID_00000044866003404591765630000009971076599921597352_);" d="M197.182,110.989
			c0,7.495-24.324,15.45-65.137,15.45c-35.979,0-65.145-7.111-65.145-15.45c0-7.495,29.166-13.573,65.145-13.573
			C168.021,97.416,197.182,103.494,197.182,110.989z"/>
		
			<linearGradient id="SVGID_00000059308890023551228030000004696130878328377475_" gradientUnits="userSpaceOnUse" x1="63.6777" y1="165.8615" x2="199.0527" y2="165.8615">
			<stop  offset="0" style="stop-color:#3E3B3C"/>
			<stop  offset="0.0414" style="stop-color:#464344"/>
			<stop  offset="0.1125" style="stop-color:#605C5D"/>
			<stop  offset="0.2042" style="stop-color:#918D8E"/>
			<stop  offset="0.2242" style="stop-color:#9F9B9C"/>
			<stop  offset="0.4485" style="stop-color:#4E4B4C"/>
			<stop  offset="0.5854" style="stop-color:#454243"/>
			<stop  offset="0.82" style="stop-color:#2E2D2E"/>
			<stop  offset="0.8364" style="stop-color:#2C2B2C"/>
			<stop  offset="1" style="stop-color:#000000"/>
		</linearGradient>
		<path style="fill:url(#SVGID_00000059308890023551228030000004696130878328377475_);" d="M63.729,153.669
			c0,0,70.645,20.237,135.324-0.052v13.766c0,0-60.5,24.113-135.375,0.019L63.729,153.669z"/>
		
			<linearGradient id="SVGID_00000002372305172620631100000017119251256124927890_" gradientUnits="userSpaceOnUse" x1="63.6777" y1="206.517" x2="199.0527" y2="206.517">
			<stop  offset="0" style="stop-color:#3E3B3C"/>
			<stop  offset="0.0414" style="stop-color:#464344"/>
			<stop  offset="0.1125" style="stop-color:#605C5D"/>
			<stop  offset="0.2042" style="stop-color:#918D8E"/>
			<stop  offset="0.2242" style="stop-color:#9F9B9C"/>
			<stop  offset="0.4485" style="stop-color:#4E4B4C"/>
			<stop  offset="0.5854" style="stop-color:#454243"/>
			<stop  offset="0.82" style="stop-color:#2E2D2E"/>
			<stop  offset="0.8364" style="stop-color:#2C2B2C"/>
			<stop  offset="1" style="stop-color:#000000"/>
		</linearGradient>
		<path style="fill:url(#SVGID_00000002372305172620631100000017119251256124927890_);" d="M63.729,194.325
			c0,0,70.645,20.235,135.324-0.051v13.763c0,0-60.5,24.115-135.375,0.019L63.729,194.325z"/>
		
			<linearGradient id="SVGID_00000066490356053710439130000015905618401725221038_" gradientUnits="userSpaceOnUse" x1="63.6777" y1="251.932" x2="199.0527" y2="251.932">
			<stop  offset="0" style="stop-color:#3E3B3C"/>
			<stop  offset="0.0414" style="stop-color:#464344"/>
			<stop  offset="0.1125" style="stop-color:#605C5D"/>
			<stop  offset="0.2042" style="stop-color:#918D8E"/>
			<stop  offset="0.2242" style="stop-color:#9F9B9C"/>
			<stop  offset="0.4485" style="stop-color:#4E4B4C"/>
			<stop  offset="0.5854" style="stop-color:#454243"/>
			<stop  offset="0.82" style="stop-color:#2E2D2E"/>
			<stop  offset="0.8364" style="stop-color:#2C2B2C"/>
			<stop  offset="1" style="stop-color:#000000"/>
		</linearGradient>
		<path style="fill:url(#SVGID_00000066490356053710439130000015905618401725221038_);" d="M63.729,239.738
			c0,0,70.645,20.236,135.324-0.049v13.761c0,0-60.5,24.115-135.375,0.021L63.729,239.738z"/>
	</g>
	
		<linearGradient id="SVGID_00000006702174392299667920000002006524261553359236_" gradientUnits="userSpaceOnUse" x1="123.7422" y1="220.9466" x2="286.0645" y2="220.9466">
		<stop  offset="0" style="stop-color:#3E3B3C"/>
		<stop  offset="0.0635" style="stop-color:#464344"/>
		<stop  offset="0.1722" style="stop-color:#5F5C5D"/>
		<stop  offset="0.2424" style="stop-color:#767273"/>
		<stop  offset="0.294" style="stop-color:#706D6E"/>
		<stop  offset="0.4077" style="stop-color:#626162"/>
		<stop  offset="0.5235" style="stop-color:#535253"/>
		<stop  offset="0.64" style="stop-color:#424143"/>
		<stop  offset="0.7575" style="stop-color:#2C2B2C"/>
		<stop  offset="0.8767" style="stop-color:#0F0F10"/>
		<stop  offset="1" style="stop-color:#000000"/>
	</linearGradient>
	<path style="fill:url(#SVGID_00000006702174392299667920000002006524261553359236_);" d="M286.065,317.987
		c0,30.081-162.322,29.04-162.322,0V101.734c0,23.853,162.322,26.967,162.322,0V317.987z"/>
	
		<linearGradient id="SVGID_00000031905502157307605440000010953388585243117957_" gradientUnits="userSpaceOnUse" x1="123.7422" y1="103.8252" x2="286.0352" y2="103.8252">
		<stop  offset="0" style="stop-color:#2C2B2C"/>
		<stop  offset="0.2391" style="stop-color:#323132"/>
		<stop  offset="0.5992" style="stop-color:#444142"/>
		<stop  offset="1" style="stop-color:#605C5D"/>
	</linearGradient>
	<path style="fill:url(#SVGID_00000031905502157307605440000010953388585243117957_);" d="M286.035,102.608
		c0,9.703-30.307,20.001-81.145,20.001c-44.814,0-81.148-9.207-81.148-20.001c0-9.704,36.334-17.567,81.148-17.567
		C249.703,85.041,286.035,92.904,286.035,102.608z"/>
	
		<linearGradient id="SVGID_00000044161451387090927410000012635914050907176125_" gradientUnits="userSpaceOnUse" x1="127.541" y1="103.8235" x2="283.7617" y2="103.8235">
		<stop  offset="0" style="stop-color:#4E4B4C"/>
		<stop  offset="0.1403" style="stop-color:#4E4B4C"/>
		<stop  offset="0.3752" style="stop-color:#4C4A4B"/>
		<stop  offset="0.6757" style="stop-color:#434143"/>
		<stop  offset="1" style="stop-color:#000000"/>
	</linearGradient>
	<path style="fill:url(#SVGID_00000044161451387090927410000012635914050907176125_);" d="M283.762,102.699
		c0,8.985-29.17,18.524-78.107,18.524c-43.137,0-78.113-8.527-78.113-18.524c0-8.989,34.977-16.276,78.113-16.276
		C248.793,86.423,283.762,93.711,283.762,102.699z"/>
	
		<linearGradient id="SVGID_00000087370951978887631280000017116596383218985877_" gradientUnits="userSpaceOnUse" x1="123.6817" y1="168.4923" x2="286" y2="168.4923">
		<stop  offset="0" style="stop-color:#3E3B3C"/>
		<stop  offset="0.0414" style="stop-color:#464344"/>
		<stop  offset="0.1125" style="stop-color:#605C5D"/>
		<stop  offset="0.2042" style="stop-color:#918D8E"/>
		<stop  offset="0.2242" style="stop-color:#9F9B9C"/>
		<stop  offset="0.4485" style="stop-color:#4E4B4C"/>
		<stop  offset="0.5854" style="stop-color:#454243"/>
		<stop  offset="0.82" style="stop-color:#2E2D2E"/>
		<stop  offset="0.8364" style="stop-color:#2C2B2C"/>
		<stop  offset="1" style="stop-color:#000000"/>
	</linearGradient>
	<path style="fill:url(#SVGID_00000087370951978887631280000017116596383218985877_);" d="M123.742,153.873
		c0,0,84.707,24.267,162.258-0.062v16.507c0,0-72.539,28.912-162.318,0.02L123.742,153.873z"/>
	
		<linearGradient id="SVGID_00000072271546839335314150000003448627443798466211_" gradientUnits="userSpaceOnUse" x1="123.6817" y1="217.2409" x2="286" y2="217.2409">
		<stop  offset="0" style="stop-color:#3E3B3C"/>
		<stop  offset="0.0414" style="stop-color:#464344"/>
		<stop  offset="0.1125" style="stop-color:#605C5D"/>
		<stop  offset="0.2042" style="stop-color:#918D8E"/>
		<stop  offset="0.2242" style="stop-color:#9F9B9C"/>
		<stop  offset="0.4485" style="stop-color:#4E4B4C"/>
		<stop  offset="0.5854" style="stop-color:#454243"/>
		<stop  offset="0.82" style="stop-color:#2E2D2E"/>
		<stop  offset="0.8364" style="stop-color:#2C2B2C"/>
		<stop  offset="1" style="stop-color:#000000"/>
	</linearGradient>
	<path style="fill:url(#SVGID_00000072271546839335314150000003448627443798466211_);" d="M123.742,202.62
		c0,0,84.707,24.267,162.258-0.059v16.502c0,0-72.539,28.914-162.318,0.022L123.742,202.62z"/>
	
		<linearGradient id="SVGID_00000182522458323740006430000008065618621568695424_" gradientUnits="userSpaceOnUse" x1="123.6817" y1="271.6951" x2="286" y2="271.6951">
		<stop  offset="0" style="stop-color:#3E3B3C"/>
		<stop  offset="0.0414" style="stop-color:#464344"/>
		<stop  offset="0.1125" style="stop-color:#605C5D"/>
		<stop  offset="0.2042" style="stop-color:#918D8E"/>
		<stop  offset="0.2242" style="stop-color:#9F9B9C"/>
		<stop  offset="0.4485" style="stop-color:#4E4B4C"/>
		<stop  offset="0.5854" style="stop-color:#454243"/>
		<stop  offset="0.82" style="stop-color:#2E2D2E"/>
		<stop  offset="0.8364" style="stop-color:#2C2B2C"/>
		<stop  offset="1" style="stop-color:#000000"/>
	</linearGradient>
	<path style="fill:url(#SVGID_00000182522458323740006430000008065618621568695424_);" d="M123.742,257.073
		c0,0,84.707,24.267,162.258-0.057v16.5c0,0-72.539,28.915-162.318,0.025L123.742,257.073z"/>
	<g>
		
			<linearGradient id="SVGID_00000074409852895571384840000009205264471300753027_" gradientUnits="userSpaceOnUse" x1="139.1856" y1="227.1192" x2="268.2461" y2="227.1192">
			<stop  offset="0" style="stop-color:#F5CE7D"/>
			<stop  offset="0.1265" style="stop-color:#F4CA72"/>
			<stop  offset="0.7179" style="stop-color:#F0BB3A"/>
			<stop  offset="1" style="stop-color:#EFB522"/>
		</linearGradient>
		<path style="fill:url(#SVGID_00000074409852895571384840000009205264471300753027_);" d="M268.246,227.119
			c0,35.639-28.891,64.53-64.531,64.53c-35.633,0-64.529-28.891-64.529-64.53c0-35.637,28.896-64.529,64.529-64.529
			C239.355,162.59,268.246,191.482,268.246,227.119z"/>
		
			<linearGradient id="SVGID_00000088124176049817215960000017735835521399985335_" gradientUnits="userSpaceOnUse" x1="145.4043" y1="227.7112" x2="260.8496" y2="227.7112">
			<stop  offset="0" style="stop-color:#EFB522"/>
			<stop  offset="0.2821" style="stop-color:#F0BB3A"/>
			<stop  offset="0.8735" style="stop-color:#F4CA72"/>
			<stop  offset="1" style="stop-color:#F5CE7D"/>
		</linearGradient>
		<path style="fill:url(#SVGID_00000088124176049817215960000017735835521399985335_);" d="M260.85,227.706
			c0,31.879-25.844,57.729-57.725,57.729c-31.877,0-57.721-25.85-57.721-57.729c0-31.874,25.844-57.718,57.721-57.718
			C235.006,169.988,260.85,195.831,260.85,227.706z"/>
		<g>
			<g>
				<path d="M206.055,173.891l27.844,55.15c0,0,7.119,10.685,4.123,24.015c-2.488,11.079-12.053,26.11-32.738,26.034
					c-21.271-0.082-32.389-19.694-32.215-30.67c0.15-9.308,0.852-11.962,5.547-20.62
					C183.307,219.14,206.055,173.891,206.055,173.891z"/>
				
					<linearGradient id="SVGID_00000073688704832162327980000011172485206206540942_" gradientUnits="userSpaceOnUse" x1="173.9902" y1="227.6969" x2="237.4187" y2="227.6969">
					<stop  offset="0" style="stop-color:#000000"/>
					<stop  offset="0.5707" style="stop-color:#171717"/>
					<stop  offset="1" style="stop-color:#2C2B2C"/>
				</linearGradient>
				<path style="fill:url(#SVGID_00000073688704832162327980000011172485206206540942_);" d="M205.836,176.911l26.887,53.25
					c0,0,6.881,10.317,3.984,23.182c-2.406,10.699-11.643,25.216-31.613,25.14c-20.539-0.079-31.271-19.018-31.102-29.611
					c0.141-8.987,0.82-11.55,5.354-19.908C183.875,220.6,205.836,176.911,205.836,176.911z"/>
				
					<linearGradient id="SVGID_00000083779008555819510720000015900509092572970422_" gradientUnits="userSpaceOnUse" x1="175.6583" y1="228.3263" x2="236.0913" y2="228.3263">
					<stop  offset="0" style="stop-color:#2C2B2C"/>
					<stop  offset="0.4293" style="stop-color:#171717"/>
					<stop  offset="1" style="stop-color:#000000"/>
				</linearGradient>
				<path style="fill:url(#SVGID_00000083779008555819510720000015900509092572970422_);" d="M206.004,179.936l25.615,50.736
					c0,0,6.549,9.83,3.797,22.088c-2.289,10.195-11.092,24.029-30.123,23.955c-19.566-0.074-29.795-18.121-29.633-28.216
					c0.139-8.561,0.783-11.001,5.102-18.971C185.078,221.561,206.004,179.936,206.004,179.936z"/>
				<path style="fill:#1E1E20;" d="M205.256,193.307l17.709,35.072c0,0,4.531,6.791,2.625,15.268
					c-1.584,7.049-7.672,16.608-20.82,16.558c-13.529-0.052-20.6-12.525-20.484-19.505c0.092-5.919,0.535-7.605,3.525-13.108
					C190.795,222.079,205.256,193.307,205.256,193.307z"/>
				
					<linearGradient id="SVGID_00000032616528777639386960000001460548101984495541_" gradientUnits="userSpaceOnUse" x1="177.5606" y1="228.9362" x2="205.9512" y2="228.9362">
					<stop  offset="0" style="stop-color:#FFFFFF"/>
					<stop  offset="0.1202" style="stop-color:#E8E9EA"/>
					<stop  offset="0.3741" style="stop-color:#B5B7BA"/>
					<stop  offset="0.7372" style="stop-color:#6B6C6F"/>
					<stop  offset="1" style="stop-color:#000000"/>
				</linearGradient>
				<path style="fill:url(#SVGID_00000032616528777639386960000001460548101984495541_);" d="M205.951,182.957
					c0,0-15.115,46.54-1.896,83.586c7.203,20.187-26.494-0.082-26.494-19.183c0-6.069,1.295-10.442,3.686-15.401
					C183.549,227.186,183.332,227.945,205.951,182.957z"/>
				<path style="opacity:0.37;fill:#A4A0A1;" d="M232.387,253.27c0,12.161-15.363,21.875-27.521,22.178
					c-6.473,0.162-19.91-6.801-26.387-21.532C173.584,242.784,232.387,241.11,232.387,253.27z"/>
			</g>
			<g>
				<g>
					<polygon style="fill:#FFFFFF;" points="187.855,247.401 188.539,256.26 198.611,256.954 188.539,257.662 187.855,268.69 
						187.174,257.712 177.535,257.028 187.225,256.169 					"/>
					<polygon style="fill:#FFFFFF;" points="193.141,251.811 188.643,256.806 193.516,262.691 187.869,257.534 181.465,262.912 
						187.133,256.813 182.479,251.171 188.006,256.036 					"/>
				</g>
				<g>
					<polygon style="fill:#FFFFFF;" points="194.145,259.223 194.525,264.179 200.164,264.569 194.525,264.966 194.145,271.135 
						193.76,264.991 188.367,264.609 193.793,264.131 					"/>
					<polygon style="fill:#FFFFFF;" points="197.1,261.69 194.582,264.483 197.309,267.78 194.15,264.895 190.566,267.904 
						193.734,264.488 191.133,261.331 194.227,264.055 					"/>
				</g>
			</g>
		</g>
	</g>
</g>
</svg>
