<?xml version="1.0" encoding="utf-8"?>
<!-- Generator: Adobe Illustrator 27.5.0, SVG Export Plug-In . SVG Version: 6.00 Build 0)  -->
<svg version="1.1" xmlns="http://www.w3.org/2000/svg" xmlns:xlink="http://www.w3.org/1999/xlink" x="0px" y="0px"
	 viewBox="0 0 750 500" style="enable-background:new 0 0 750 500;" xml:space="preserve">
<g id="BACKGROUND">
	<rect style="fill:#ECECEC;" width="750" height="500"/>
</g>
<g id="OBJECTS">
	<g>
		<g>
			<path style="fill:#E1E2E3;" d="M83.739,383.327c0,0-68.363-81.202-23.873-161.389c44.49-80.187,133.603-61.209,182.651-73.084
				c61.49-14.887,96.221-105.465,209.067-96.766c131.66,10.15,91.16,115.038,161.691,128.233
				c70.533,13.195,129.842,122.138,60.768,203.004H83.739z"/>
			<g>
				<path style="fill:#FFFFFF;" d="M254.333,129.833h140.001c0,0-4.668-28.666-33.334-18.666c0,0,0-30.666-24-33.333
					c-24-2.667-32,22.666-32,22.666s-7.333-10.666-19.333-4.666s-8,17.333-8,17.333S254.333,103.834,254.333,129.833z"/>
				<path style="opacity:0.4;fill:#E1E2E3;" d="M309.039,129.833h85.295c0,0-4.668-28.666-33.334-18.666
					c0,0-0.003-4.215-1.225-9.653c-0.071,0.204-0.108,0.319-0.108,0.319s-7.333-10.667-19.333-4.667s-8,17.334-8,17.334
					S309.842,105.522,309.039,129.833z"/>
			</g>
			<g>
				<path style="fill:#FFFFFF;" d="M543,168.501h97.086c0,0-3.236-19.879-23.115-12.945c0,0,0-21.266-16.644-23.115
					c-16.643-1.85-22.191,15.718-22.191,15.718s-5.085-7.397-13.406-3.236c-8.322,4.161-5.548,12.02-5.548,12.02
					S543,150.47,543,168.501z"/>
				<path style="opacity:0.4;fill:#E1E2E3;" d="M580.305,155.556c0,0-0.005-4.257-1.494-9.125c-0.461,1.058-0.675,1.729-0.675,1.729
					s-5.085-7.397-13.406-3.236c-8.322,4.161-5.548,12.02-5.548,12.02S543,150.47,543,168.501h60.42
					C603.42,168.501,600.184,148.621,580.305,155.556z"/>
			</g>
			<g>
				<path style="fill:#FFFFFF;" d="M155.666,187.168H61.419c0,0,3.142-19.879,22.439-12.945c0,0,0-21.266,16.157-23.115
					c16.157-1.85,21.543,15.718,21.543,15.718s4.936-7.397,13.014-3.236c8.079,4.161,5.386,12.02,5.386,12.02
					S155.666,169.138,155.666,187.168z"/>
				<path style="opacity:0.4;fill:#E1E2E3;" d="M119.453,174.223c0,0,0.004-4.257,1.45-9.125c0.448,1.058,0.655,1.729,0.655,1.729
					s4.936-7.397,13.014-3.236c8.079,4.161,5.386,12.02,5.386,12.02s15.708-6.473,15.708,11.558H97.013
					C97.013,187.168,100.155,167.289,119.453,174.223z"/>
			</g>
		</g>
		<g>
			<g>
				<g>
					<path style="fill:#CCCECF;" d="M519.225,382.205c0,0,11.382-46.73-26.575-60.73
						C492.649,321.475,473.023,368.22,519.225,382.205z"/>
					<path style="fill:#E1E2E3;" d="M497.307,333.955c-1.331,0.87,13.917,34.818,20.254,47.715c0.546,0.183,1.098,0.363,1.664,0.535
						c0,0,0.255-1.05,0.56-2.871C513.5,364.719,498.837,332.952,497.307,333.955z"/>
				</g>
				<g>
					<path style="fill:#CCCECF;" d="M515.362,383.293c0,0-15.503-32.773-44.339-22.794
						C471.023,360.499,481.716,397.228,515.362,383.293z"/>
					<path style="fill:#E1E2E3;" d="M479.663,365.569c-0.363,1.145,24.652,13.697,34.471,18.208
						c0.408-0.156,0.815-0.313,1.229-0.484c0,0-0.35-0.735-1.033-1.946C503.722,375.807,480.085,364.249,479.663,365.569z"/>
				</g>
			</g>
			<g>
				<g>
					<path style="fill:#CCCECF;" d="M629.67,375.28c0,0-14.808-60.788,34.572-79.004C664.242,296.276,689.771,357.087,629.67,375.28
						z"/>
					<path style="fill:#E1E2E3;" d="M658.184,312.513c1.73,1.133-18.104,45.294-26.347,62.071c-0.713,0.238-1.43,0.474-2.167,0.696
						c0,0-0.331-1.365-0.728-3.735C637.117,352.533,656.191,311.208,658.184,312.513z"/>
				</g>
				<g>
					<path style="fill:#CCCECF;" d="M634.693,376.695c0,0,20.167-42.634,57.681-29.652
						C692.374,347.043,678.467,394.822,634.693,376.695z"/>
					<path style="fill:#E1E2E3;" d="M681.134,353.64c0.475,1.488-32.068,17.818-44.841,23.686c-0.532-0.203-1.062-0.406-1.6-0.63
						c0,0,0.455-0.956,1.346-2.532C649.839,366.957,680.586,351.922,681.134,353.64z"/>
				</g>
			</g>
			<g>
				<g>
					<path style="fill:#8E9093;" d="M502.667,293.833c-3.176,0-4.594-1.12-5.384-1.964c-2.648-2.824-2.917-8.288-2.798-10.13
						l0.015-0.203v-63.956h-11v63.578c-0.11,1.928-0.338,11.67,5.702,18.175c3.342,3.599,7.998,5.5,13.465,5.5H538v-11H502.667z"/>
					<path style="fill:#163161;" d="M498.5,228.416c0,3.176-2.574,5.75-5.75,5.75h-9c-3.176,0-5.75-2.574-5.75-5.75l0,0
						c0-3.176,2.574-5.75,5.75-5.75h9C495.926,222.666,498.5,225.24,498.5,228.416L498.5,228.416z"/>
					<g>
						<path style="fill:#8E9093;" d="M484.68,124.713c1.917-1.579,4.001-2.227,5.481-0.431l15.108,18.342
							c0.165,0.2,0.303,0.413,0.423,0.632c0.64,0.726,1.023,1.652,1.023,2.662v48.201c0,2.327-2.037,4.213-4.55,4.213
							c-2.514,0-4.551-1.886-4.551-4.213v-46.643l-14.395-17.477C481.74,128.204,482.763,126.293,484.68,124.713z"/>
						<path style="fill:#8E9093;" d="M484.68,124.713c1.917-1.579,4.001-2.227,5.481-0.431l15.108,18.342
							c0.165,0.2,0.303,0.413,0.423,0.632c0.64,0.726,1.023,1.652,1.023,2.662v48.201c0,2.327-2.037,4.213-4.55,4.213
							c-2.514,0-4.551-1.886-4.551-4.213v-46.643l-14.395-17.477C481.74,128.204,482.763,126.293,484.68,124.713z"/>
						<path style="fill:#0077B0;" d="M494.253,184.372c0,1.976,2.023,3.579,4.52,3.579h6.33c2.496,0,4.522-1.603,4.522-3.579v-8.349
							c0-1.977-2.025-3.579-4.522-3.579h-6.33c-2.497,0-4.52,1.602-4.52,3.579V184.372z"/>
						<path style="fill:#EB372B;" d="M470.789,211.636l3.508,0.773v12.216c0,2.234,1.812,4.045,4.046,4.045h22.382v-9.169
							c0-2.234,12.675-3.775,12.675-8.629c0-4.855,0-31.012,0-31.012c0-2.234-1.812-4.045-4.044-4.045h-18.168l-11.924-2.628
							c-2.183-0.48-4.34,0.898-4.82,3.08l-6.734,30.548C467.228,208.997,468.606,211.155,470.789,211.636z M473.488,203.591
							l5.478-23.298c0.286-1.296,1.568-2.115,2.864-1.83l9.386,2.069c1.295,0.286,2.114,1.568,1.829,2.863l-5.479,23.298
							c-0.286,1.296-1.568,2.115-2.863,1.829l-9.386-2.068C474.02,206.169,473.203,204.887,473.488,203.591z"/>
						<path style="fill:#163161;" d="M500.667,218.332l-8.334-7c0,0,7.334,16,7.667,17.333l0.001,0.005h0.724v-9.169
							c0-0.146,0.058-0.29,0.159-0.432L500.667,218.332z"/>
					</g>
				</g>
				<polygon style="fill:#163161;" points="503.25,147.416 497.565,147.416 497.615,147.476 497.615,153.051 				"/>
				<g>
					<path style="fill:#163161;" d="M521.846,309.898c0,3.452-2.801,6.253-6.254,6.253l0,0c-3.454,0-6.255-2.801-6.255-6.253
						v-21.542c0-3.454,2.801-6.254,6.255-6.254l0,0c3.453,0,6.254,2.8,6.254,6.254V309.898z"/>
					<path style="fill:#0077B0;" d="M534.846,315.065c0,5.109-4.145,9.253-9.254,9.253l0,0c-5.11,0-9.255-4.144-9.255-9.253V283.19
						c0-5.111,4.144-9.254,9.255-9.254l0,0c5.109,0,9.254,4.143,9.254,9.254V315.065z"/>
					<path style="fill:#163161;" d="M534.846,283.19c0-2.628-1.102-4.995-2.86-6.68l-6.652-1.512l-4.81,47.802
						c1.456,0.956,3.196,1.517,5.068,1.517c2.961,0,5.592-1.398,7.285-3.562c0.555-2.384,1.241-5.517,1.969-9.008V283.19z"/>
					<g>
						<g>
							<path style="fill:#EB372B;" d="M633.704,364.928V218.61c0-17.858-14.478-32.335-32.335-32.335h-43.594
								c-17.858,0-32.336,14.477-32.336,32.335v146.318H633.704z"/>
						</g>
					</g>
					<path style="fill:#AE202A;" d="M601.369,186.275h-9.768c17.857,0,32.335,14.477,32.335,32.335v146.318h9.768V218.61
						C633.704,200.752,619.227,186.275,601.369,186.275z"/>
					<path style="opacity:0.5;fill:#EB687C;" d="M569.085,186.275h-11.31c-17.858,0-32.336,14.477-32.336,32.335v139.122v7.195
						h11.31V218.61C536.75,200.752,551.227,186.275,569.085,186.275z"/>
					<polygon style="fill:#0077B0;" points="644.346,382.92 514.797,382.92 522.509,358.759 636.634,358.759 					"/>
					<polygon style="fill:#163161;" points="633.704,358.759 633.704,349.341 525.44,358.759 525.44,358.759 					"/>
					<polygon style="opacity:0.5;fill:#0077B0;" points="522.509,358.759 514.797,382.92 528.164,382.92 535.874,358.759 					"/>
					<polygon style="opacity:0.3;fill:#0077B0;" points="636.634,358.759 606.304,358.759 614.016,382.92 644.346,382.92 					"/>
					<path style="fill:#FFFFFF;" d="M615.301,262.882c0,6.389-5.18,11.566-11.567,11.566h-48.324
						c-6.388,0-11.567-5.178-11.567-11.566v-41.126c0-6.388,5.18-11.567,11.567-11.567h48.324c6.388,0,11.567,5.179,11.567,11.567
						V262.882z"/>
					<path style="fill:#49B97A;" d="M611.442,260.661c0,5.698-4.62,10.317-10.318,10.317h-43.105
						c-5.698,0-10.317-4.619-10.317-10.317v-36.686c0-5.698,4.619-10.317,10.317-10.317h43.105c5.698,0,10.318,4.619,10.318,10.317
						V260.661z"/>
					<g>
						<path style="fill:#49E37A;" d="M553.504,260.695l-0.039-36.686c-0.006-5.698,4.608-10.322,10.306-10.329l21.554-0.022h-27.306
							c-5.698,0-10.317,4.619-10.317,10.317v36.686c0,5.698,4.619,10.317,10.317,10.317h5.35
							C557.887,270.739,553.51,266.236,553.504,260.695z"/>
						<path style="fill:#49E37A;" d="M585.386,270.978h15.738c0.115,0,0.227-0.014,0.339-0.017L585.386,270.978z"/>
					</g>
					<path style="fill:#499A7A;" d="M601.124,213.659H593.8c5.697,0,10.316,4.619,10.316,10.317v36.686
						c0,5.698-4.619,10.317-10.316,10.317h7.324c5.698,0,10.318-4.619,10.318-10.317v-36.686
						C611.442,218.277,606.822,213.659,601.124,213.659z"/>
					<g>
						<path style="fill:#163161;" d="M616.071,264.877v-45.786c0-0.677-0.321-1.255-0.835-1.255c-0.352,0-0.706,0.385-0.706,1.171
							v45.798C614.53,265.967,616.071,266.031,616.071,264.877z"/>
						<path style="fill:#163161;" d="M556.594,209.417h-1.185c-6.804,0-12.338,5.535-12.338,12.338c0,0,0,40.036,0,41.383
							c0,1.348,1.542,1.095,1.542,0c0-1.094,0-41.383,0-41.383c0-5.953,4.843-10.796,10.796-10.796h1.185
							C558.301,210.96,558.301,209.417,556.594,209.417z"/>
					</g>
				</g>
				<polyline style="fill:#163161;" points="553.667,302.666 607.667,306.666 612.021,302.833 553.667,302.666 				"/>
				<polyline style="fill:#163161;" points="553.667,274.333 603.04,278.333 607.021,274.5 553.667,274.333 				"/>
				<g>
					<path style="fill:#FFFFFF;" d="M579.706,226.191c0,0-14.346,12.454-14.346,21.917c0,5.583,2.245,9.885,5.702,12.489l0,0
						c0.004,0.002,0.007,0.003,0.009,0.006c1.178,0.885,2.495,1.57,3.917,2.041c0.046,0.014,0.09,0.031,0.134,0.047
						c0.667,0.213,1.357,0.377,2.064,0.494c0.114,0.018,0.231,0.032,0.347,0.048c0.71,0.101,1.433,0.168,2.173,0.168
						c7.923,0,14.346-5.827,14.346-15.292C594.052,238.645,579.706,226.191,579.706,226.191z"/>
					<path style="fill:#49B97A;" d="M579.707,256.947c-0.321-4.625-2.237-11.901-11.142-11.781c0,0,0.176,12.858,11.097,15.501
						c-5.107-7.046-7.75-11.626-7.75-11.626c5.285,2.29,7.75,11.626,7.75,11.626s0.021-0.181,0.045-0.488
						c0.023,0.308,0.044,0.488,0.044,0.488s2.465-9.336,7.75-11.626c0,0-2.643,4.579-7.75,11.626
						c10.921-2.643,11.097-15.501,11.097-15.501C581.943,245.046,580.027,252.322,579.707,256.947z"/>
				</g>
				<g>
					<path style="fill:#163161;" d="M632.586,335.67v-81.559c0-0.905,0.432-1.68,1.117-1.68c0.473,0,0.945,0.517,0.945,1.567v81.575
						C634.648,337.127,632.586,337.213,632.586,335.67z"/>
				</g>
				<g>
					<path style="fill:#163161;" d="M524.919,261.512v-38.233c0-0.905,0.432-1.68,1.117-1.68c0.473,0,0.945,0.517,0.945,1.567v38.25
						C526.981,262.969,524.919,263.055,524.919,261.512z"/>
				</g>
				<path style="fill:#FFFFFF;" d="M612.021,284.166h-65.374c-0.542,0-0.98,0.5-0.98,1.119v16.427c0,0.619,0.438,1.121,0.98,1.121
					h65.374c0.542,0,0.98-0.502,0.98-1.121v-16.427C613.001,284.666,612.563,284.166,612.021,284.166z"/>
				<path style="fill:#FE9F2B;" d="M480.5,121.4c0,0-12.243-19.842-20.264-11.821C452.215,117.601,480.5,121.4,480.5,121.4z"/>
				<path style="fill:#FE9F2B;" d="M474.5,126.666c0,0-11,0.5-10,4S474.5,126.666,474.5,126.666z"/>
			</g>
		</g>
		<path style="fill:#FFFFFF;" d="M77.662,255.164c0,2.209-1.791,4-4,4c-2.209,0-4-1.791-4-4c0-2.209,1.791-3.999,4-3.999
			C75.871,251.165,77.662,252.955,77.662,255.164z"/>
		<path style="fill:#FFFFFF;" d="M429.995,179.497c0,2.025-1.642,3.667-3.666,3.667c-2.025,0-3.667-1.642-3.667-3.667
			s1.642-3.667,3.667-3.667C428.353,175.83,429.995,177.472,429.995,179.497z"/>
		<path style="fill:#FFFFFF;" d="M667.662,260.83c0,2.393-1.94,4.334-4.334,4.334c-2.393,0-4.333-1.94-4.333-4.334
			c0-2.393,1.94-4.333,4.333-4.333C665.722,256.497,667.662,258.438,667.662,260.83z"/>
		<polygon style="fill:#FFFFFF;" points="117.078,220.402 118.968,223.858 122.422,225.748 118.968,227.638 117.078,231.094 
			115.188,227.638 111.733,225.748 115.188,223.858 		"/>
		<polygon style="fill:#FFFFFF;" points="443.106,325.928 444.996,329.383 448.45,331.273 444.996,333.163 443.106,336.619 
			441.216,333.163 437.761,331.273 441.216,329.383 		"/>
		<polygon style="fill:#FFFFFF;" points="528.22,118.595 530.109,122.05 533.563,123.94 530.109,125.831 528.22,129.286 
			526.329,125.831 522.874,123.94 526.329,122.05 		"/>
		<path style="fill:#49B97A;" d="M684.172,385.838c0,3.504-2.826,6.344-6.315,6.344H72.143c-3.488,0-6.315-2.84-6.315-6.344l0,0
			c0-3.504,2.827-6.344,6.315-6.344h605.715C681.346,379.494,684.172,382.334,684.172,385.838L684.172,385.838z"/>
		<g>
			<g>
				<path style="fill:#163161;" d="M282.796,174.409c0.004,1.911-1.541,3.463-3.452,3.467l-14.904,0.033
					c-1.91,0.004-3.463-1.541-3.467-3.452l0,0c-0.004-1.911,1.542-3.463,3.452-3.467l14.904-0.033
					C281.24,170.953,282.792,172.499,282.796,174.409L282.796,174.409z"/>
				<g>
					<g>
						<path style="fill:#49B97A;" d="M321.529,217.364c0,0-1.916-10.411-1.939-20.51c-0.02-8.837,3.273-17.997,3.273-17.997
							l-31.881-2.258l0-0.196l-1.34,0.102l-1.341-0.096l0,0.196l-31.871,2.399c0,0,3.335,9.145,3.354,17.982
							c0.022,10.099-1.849,20.519-1.849,20.519s2.865,11.04,2.888,21.139c0.022,10.099-3.113,19.258-3.113,19.258l30.771-0.067
							l2.682-0.006l30.772-0.068c0,0-3.176-9.146-3.198-19.245C318.713,228.416,321.529,217.364,321.529,217.364z"/>
						<path style="fill:#49E37A;" d="M264.326,217.491c0,0,1.871-10.419,1.849-20.519c-0.02-8.837-3.354-17.982-3.354-17.982
							l30.017-2.26l-1.855-0.131l0-0.196l-1.34,0.102l-1.341-0.096l0,0.196l-31.871,2.399c0,0,3.335,9.145,3.354,17.982
							c0.022,10.099-1.849,20.519-1.849,20.519s2.865,11.04,2.888,21.139c0.022,10.099-3.113,19.258-3.113,19.258l6.391-0.014
							c0,0,3.136-9.16,3.113-19.259C267.19,228.53,264.326,217.491,264.326,217.491z"/>
						<path style="fill:#499A7A;" d="M321.529,217.364c0,0-1.916-10.411-1.939-20.51c-0.02-8.837,3.273-17.997,3.273-17.997
							l-31.881-2.258l0-0.196l-1.34,0.102l-1.341-0.096l0,0.196l-5.404,0.407l26.476,1.876c0,0-3.294,9.16-3.274,17.997
							c0.023,10.099,1.939,20.51,1.939,20.51s-2.816,11.052-2.794,21.152c0.022,10.099,3.198,19.245,3.198,19.245l13.492-0.029
							c0,0-3.176-9.146-3.198-19.245C318.713,228.416,321.529,217.364,321.529,217.364z"/>
						<path style="fill:#0077B0;" d="M324.437,176.802c0.002,1.133-0.914,2.054-2.046,2.056l-65.961,0.146
							c-1.133,0.002-2.053-0.914-2.056-2.047l0,0c-0.002-1.133,0.914-2.054,2.047-2.056l65.961-0.146
							C323.514,174.753,324.435,175.669,324.437,176.802L324.437,176.802z"/>
						<path style="fill:#0077B0;" d="M324.527,217.515c0.003,1.133-0.914,2.054-2.046,2.057l-65.961,0.146
							c-1.133,0.002-2.053-0.915-2.056-2.048l0,0c-0.003-1.132,0.914-2.053,2.047-2.055l65.961-0.146
							C323.604,215.466,324.525,216.382,324.527,217.515L324.527,217.515z"/>
						<path style="fill:#0077B0;" d="M324.617,258.228c0.003,1.133-0.914,2.052-2.046,2.054l-65.961,0.147
							c-1.133,0.002-2.053-0.912-2.056-2.045l0,0c-0.002-1.134,0.914-2.054,2.046-2.057l65.961-0.146
							C323.694,256.179,324.615,257.095,324.617,258.228L324.617,258.228z"/>
					</g>
					<path style="fill:#FFFFFF;" d="M303.95,217.388c0.019,8.622-6.955,15.628-15.577,15.647
						c-8.623,0.019-15.628-6.956-15.647-15.578c-0.019-8.622,6.955-15.628,15.578-15.647
						C296.926,201.791,303.931,208.766,303.95,217.388z"/>
				</g>
				<g>
					<path style="fill:#FE9F2B;" d="M294.719,218.526c0.009,4.208-2.841,6.805-6.363,6.813c-3.522,0.008-6.384-2.577-6.394-6.785
						c-0.009-4.208,6.357-9.758,6.357-9.758S294.71,214.319,294.719,218.526z"/>
					<path style="fill:#FEA12B;" d="M284.51,224.101c1.072,0.802,2.401,1.241,3.846,1.238c3.522-0.008,6.372-2.605,6.363-6.813
						c-0.009-4.208-6.4-9.73-6.4-9.73S296.861,221.674,284.51,224.101z"/>
				</g>
			</g>
			<g>
				<path style="fill:#163161;" d="M360.375,174.237c0.004,1.911-1.541,3.463-3.453,3.468l-14.904,0.033
					c-1.91,0.004-3.463-1.541-3.467-3.452l0,0c-0.004-1.911,1.542-3.463,3.452-3.467l14.904-0.033
					C358.819,170.781,360.371,172.327,360.375,174.237L360.375,174.237z"/>
				<g>
					<g>
						<path style="fill:#49B97A;" d="M399.107,217.192c0,0-1.916-10.411-1.939-20.51c-0.02-8.837,3.273-17.997,3.273-17.997
							l-31.881-2.258l0-0.196l-1.341,0.102l-1.341-0.096l0,0.196l-31.872,2.399c0,0,3.335,9.145,3.354,17.982
							c0.022,10.099-1.849,20.518-1.849,20.518s2.865,11.04,2.888,21.139c0.022,10.099-3.113,19.258-3.113,19.258l30.772-0.067
							l2.682-0.006l30.772-0.068c0,0-3.177-9.146-3.199-19.245C396.291,228.244,399.107,217.192,399.107,217.192z"/>
						<path style="fill:#49E37A;" d="M341.905,217.319c0,0,1.871-10.419,1.849-20.519c-0.02-8.837-3.354-17.982-3.354-17.982
							l30.017-2.26l-1.854-0.131l0-0.196l-1.341,0.102l-1.341-0.096l0,0.196l-31.872,2.399c0,0,3.335,9.145,3.354,17.982
							c0.022,10.099-1.849,20.518-1.849,20.518s2.865,11.04,2.888,21.139c0.022,10.099-3.113,19.258-3.113,19.258l6.391-0.014
							c0,0,3.136-9.16,3.113-19.259C344.77,228.358,341.905,217.319,341.905,217.319z"/>
						<path style="fill:#499A7A;" d="M399.107,217.192c0,0-1.916-10.411-1.939-20.51c-0.02-8.837,3.273-17.997,3.273-17.997
							l-31.881-2.258l0-0.196l-1.341,0.102l-1.341-0.096l0,0.196l-5.405,0.407l26.476,1.876c0,0-3.294,9.16-3.274,17.997
							c0.022,10.099,1.939,20.51,1.939,20.51s-2.817,11.052-2.795,21.151c0.022,10.099,3.199,19.245,3.199,19.245l13.492-0.029
							c0,0-3.177-9.146-3.199-19.245C396.291,228.244,399.107,217.192,399.107,217.192z"/>
						<path style="fill:#0077B0;" d="M402.016,176.63c0.003,1.133-0.914,2.054-2.046,2.056l-65.961,0.146
							c-1.133,0.003-2.053-0.914-2.056-2.047l0,0c-0.002-1.133,0.914-2.053,2.047-2.056l65.961-0.146
							C401.093,174.581,402.014,175.498,402.016,176.63L402.016,176.63z"/>
						<path style="fill:#0077B0;" d="M402.106,217.343c0.002,1.133-0.915,2.054-2.047,2.057l-65.961,0.146
							c-1.133,0.003-2.053-0.914-2.056-2.047l0,0c-0.003-1.132,0.913-2.053,2.046-2.056l65.961-0.146
							C401.183,215.294,402.103,216.21,402.106,217.343L402.106,217.343z"/>
						<path style="fill:#0077B0;" d="M402.196,258.057c0.003,1.133-0.914,2.052-2.046,2.054l-65.961,0.146
							c-1.133,0.003-2.054-0.912-2.056-2.045l0,0c-0.002-1.134,0.914-2.054,2.047-2.057l65.961-0.147
							C401.272,256.007,402.193,256.923,402.196,258.057L402.196,258.057z"/>
					</g>
					<path style="fill:#FFFFFF;" d="M381.528,217.216c0.02,8.622-6.954,15.628-15.576,15.648
						c-8.623,0.019-15.628-6.956-15.647-15.578c-0.019-8.622,6.955-15.628,15.578-15.647
						C374.505,201.619,381.51,208.594,381.528,217.216z"/>
				</g>
				<g>
					<path style="fill:#FE9F2B;" d="M372.298,218.355c0.009,4.208-2.841,6.805-6.363,6.813c-3.522,0.008-6.384-2.577-6.394-6.785
						c-0.009-4.208,6.357-9.758,6.357-9.758S372.289,214.147,372.298,218.355z"/>
					<path style="fill:#FEA12B;" d="M362.089,223.929c1.072,0.802,2.401,1.241,3.846,1.238c3.522-0.008,6.372-2.605,6.363-6.813
						c-0.009-4.208-6.4-9.73-6.4-9.73S374.44,221.502,362.089,223.929z"/>
				</g>
			</g>
			<g>
				<path style="fill:#FFFFFF;" d="M252.095,255.268c0.012,5.315-4.289,9.636-9.606,9.647l0,0c-5.317,0.012-9.636-4.289-9.647-9.605
					l-0.072-32.537c-0.012-5.317,4.288-9.637,9.605-9.648l0,0c5.317-0.012,9.637,4.289,9.648,9.605L252.095,255.268z"/>
				<g>
					<path style="fill:#FFFFFF;" d="M213.951,268.648l-83.536,0.185l14.107-42.141c2.628-7.396,5.75-9.81,12.87-9.825l56.444-0.125
						L213.951,268.648z"/>
					<g>
						<path style="fill:#FE9F2B;" d="M402.292,264.558h-0.145H402.292l-154.104,0.341l-0.134-60.609l-81.856,0.182
							c-8.544,0.019-11.252,2.604-13.643,10.172l-17.492,51.776l-40.902,7.652c-9.791,3.117-15.455,6.962-15.436,15.504
							l0.105,47.273c1.263-0.557,2.656-0.871,4.124-0.874l32.04-0.071c4.281-18.62,20.925-32.531,40.852-32.575
							c19.928-0.045,36.634,13.793,40.997,32.395l84.706-0.188c4.28-18.621,20.926-32.532,40.853-32.576
							c19.927-0.044,36.633,13.793,40.997,32.394l45.102-0.1c1.402-0.004,2.736,0.276,3.956,0.78l-0.126-56.814
							C412.31,270.678,410.798,264.538,402.292,264.558z"/>
						<path style="fill:#163161;" d="M199.815,264.063c0,0,12.956,17.959,22.953,16.688c9.997-1.272,5.72-13.763,5.72-13.763
							L199.815,264.063"/>
						<path style="fill:#FFFFFF;" d="M231.819,265.173l-82.504,0.183l13.082-38.703c1.992-6.306,5.744-12.904,12.864-12.919
							l56.443-0.125L231.819,265.173z"/>
						<path style="fill:#0077B0;" d="M222.792,238.858l0.04,18.364l-1.331,0.003c-7.343,0.016-11.584,2.015-12.62,7.999
							l22.937-0.051l-0.018-7.972l-0.055-24.974c-0.648-0.199-1.336-0.306-2.05-0.304
							C225.875,231.932,222.784,235.037,222.792,238.858z"/>
						<path style="fill:#49B97A;" d="M199.162,232.802c-16.931,3.027-24.287,23.808-26.703,32.503l54.994-0.122
							c-0.02-2.988-0.09-6.947-0.246-12.192C226.666,234.741,220.404,229.005,199.162,232.802z"/>
						<path style="fill:#ECECEC;" d="M175.262,213.733c-7.12,0.016-10.872,6.613-12.864,12.919l-13.082,38.703l3.336-0.007
							l13.852-0.031l13.083-38.703c0.328-1.035,0.708-2.076,1.136-3.097l51.005-0.113l-0.022-9.796l-39.256,0.087L175.262,213.733z"
							/>
						<path style="fill:#49B97A;" d="M196.012,233.602l2.896-2.632c0,0-19.498,1.21-26.835,17.893
							c-2.225,5.058-10.733,7.774-10.733,7.774l-4.978,8.704l16.097-0.035C174.72,257.169,181.306,238.456,196.012,233.602z"/>
						<path style="fill:#EBB58B;" d="M157.288,251.645c0,0-0.678-5.082,3.988-5.259c4.666-0.177,7.677,4.983,7.825,14.982
							c0.055,3.727-9.129-1.979-9.129-1.979L157.288,251.645z"/>
						<path style="fill:#0077B0;" d="M159.366,249.557c-1.151,0.003-2.081,0.937-2.079,2.088l0.006,2.694l0.003,1.39l-4.73,0.011
							l-3.251,9.616l8.003-0.018l1.009-0.002l3.157-0.007l-0.03-13.694C161.451,250.484,160.517,249.554,159.366,249.557z"/>
						<path style="fill:#EBB58B;" d="M161.635,258.301c0,0-6.942-2.244-4.828,2.261c0.346,0.737,2.423,2.995,4.295,4.769
							l8.049-0.019C170.026,261.836,167.591,255.892,161.635,258.301z"/>
						<path style="fill:#163161;" d="M130.93,345.408c0.042,19.224,15.661,34.772,34.884,34.729
							c19.223-0.042,34.772-15.66,34.729-34.884c-0.042-19.222-15.66-34.772-34.883-34.729
							C146.436,310.567,130.887,326.186,130.93,345.408z"/>
						<g>
							<path style="fill:#163161;" d="M114.993,335.903c4.281-18.62,20.925-32.531,40.852-32.575
								c19.928-0.045,36.634,13.793,40.997,32.395l84.706-0.188c4.28-18.621,20.926-32.532,40.853-32.576
								c19.927-0.044,36.633,13.793,40.997,32.394l7.302-0.017l-0.741,20.63l-266.85,0.591l-0.045-20.628L114.993,335.903z"/>
							<path style="fill:#163161;" d="M295.25,345.045c0.042,19.223,15.661,34.772,34.884,34.729
								c19.223-0.042,34.772-15.659,34.73-34.883c-0.043-19.222-15.662-34.772-34.884-34.729
								C310.757,310.203,295.207,325.823,295.25,345.045z"/>
							<path style="opacity:0.5;fill:#FEA12B;" d="M240.715,323.765l-0.265-119.458l-3.093,0.007l0.265,119.459l-45.576,0.101
								c2.164,3.636,3.802,7.617,4.796,11.851l40.806-0.091l3.093-0.007l40.807-0.09c0.975-4.238,2.595-8.227,4.744-11.871
								L240.715,323.765z"/>
							<g>
								<g>
									<g style="opacity:0.5;">
										<path style="fill:#FEA12B;" d="M114.993,335.903c0.974-4.237,2.595-8.227,4.743-11.871l-40.935,0.091l0.028,12.726
											c1.263-0.557,2.656-0.871,4.124-0.874L114.993,335.903z"/>
									</g>
									<g style="opacity:0.5;">
										<path style="fill:#FEA12B;" d="M358.602,323.504c2.164,3.635,3.802,7.616,4.795,11.85l45.102-0.1
											c1.402-0.004,2.736,0.276,3.956,0.78l-0.028-12.649L358.602,323.504z"/>
									</g>
								</g>
							</g>
							<g>
								<path style="fill:#CCCECF;" d="M78.829,336.849c1.263-0.557,2.656-0.871,4.124-0.874l32.04-0.071
									c-0.705,3.069-1.087,6.26-1.08,9.543c0.006,2.976,0.798,11.086-7.194,11.104l-23.72,0.053
									c-5.695,0.013-10.324-4.596-10.336-10.292C72.653,342.082,75.193,338.449,78.829,336.849z"/>
								<path style="fill:#CCCECF;" d="M197.963,345.26c-0.007-3.283-0.403-6.472-1.122-9.537l84.706-0.188
									c-0.706,3.068-1.087,6.259-1.08,9.542c0.006,2.976,2.345,11.083-7.453,11.105l-66.518,0.147
									C197.215,356.35,197.97,348.235,197.963,345.26z"/>
								<path style="fill:#CCCECF;" d="M364.52,344.891c-0.007-3.283-0.404-6.472-1.122-9.537l45.102-0.1
									c1.402-0.004,2.736,0.276,3.956,0.78c3.735,1.542,6.371,5.215,6.38,9.51c0.013,5.696-4.594,10.325-10.29,10.338
									l-38.587,0.085C367.579,355.973,364.543,355.462,364.52,344.891z"/>
							</g>
						</g>
						<path style="fill:#0077B0;" d="M121.132,345.43c0.042,19.224,15.66,34.772,34.883,34.73
							c19.224-0.042,34.772-15.66,34.729-34.884c-0.042-19.221-15.66-34.771-34.883-34.728
							C136.638,310.589,121.089,326.208,121.132,345.43z"/>
						<path style="fill:#163161;" d="M140.211,345.388c0.019,8.686,7.076,15.712,15.762,15.692
							c8.686-0.019,15.712-7.076,15.693-15.762c-0.02-8.687-7.077-15.712-15.763-15.693
							C147.217,329.645,140.191,336.701,140.211,345.388z"/>
						<path style="fill:#0077B0;" d="M287.688,345.061c0.043,19.224,15.66,34.772,34.883,34.729
							c19.223-0.043,34.772-15.66,34.729-34.884c-0.043-19.222-15.661-34.772-34.884-34.729
							C303.193,310.22,287.645,325.84,287.688,345.061z"/>
						<path style="fill:#CCCECF;" d="M275.207,335.549c4.379-22.065,23.819-38.728,47.18-38.779
							c23.361-0.052,42.875,16.524,47.351,38.57l-6.341,0.014c-4.363-18.601-21.069-32.438-40.997-32.394
							c-19.927,0.044-36.572,13.955-40.853,32.576L275.207,335.549z"/>
						<path style="fill:#CCCECF;" d="M155.831,297.139c23.361-0.052,42.875,16.523,47.351,38.569l-6.341,0.015
							c-4.363-18.602-21.069-32.439-40.997-32.395c-19.927,0.044-36.571,13.955-40.852,32.575l-6.341,0.015
							C113.031,313.853,132.471,297.19,155.831,297.139z"/>
						<path style="fill:#163161;" d="M306.766,345.019c0.019,8.686,7.077,15.712,15.762,15.693
							c8.686-0.02,15.712-7.077,15.693-15.763c-0.02-8.686-7.077-15.712-15.763-15.692
							C313.773,329.275,306.747,336.332,306.766,345.019z"/>
						<path style="fill:#FFFFFF;" d="M315.017,345.001c0.009,4.129,3.365,7.469,7.494,7.46c4.129-0.01,7.469-3.364,7.46-7.493
							s-3.364-7.47-7.493-7.46C318.348,337.517,315.007,340.872,315.017,345.001z"/>
						<path style="fill:#FFFFFF;" d="M148.29,345.37c0.009,4.129,3.364,7.469,7.494,7.46c4.128-0.01,7.469-3.364,7.46-7.493
							c-0.009-4.129-3.364-7.47-7.493-7.46C151.621,337.886,148.281,341.241,148.29,345.37z"/>
						<path style="fill:#AE202A;" d="M362.28,264.646"/>
						<path style="fill:#FFFFFF;" d="M247.323,280.693c0.004,1.853,1.508,3.35,3.359,3.345l15.985-0.035
							c1.851-0.004,3.348-1.507,3.344-3.359l0,0c-0.004-1.852-1.508-3.348-3.359-3.344l-15.985,0.035
							C248.817,277.34,247.319,278.842,247.323,280.693L247.323,280.693z"/>
						<g>
							<path style="fill:#163161;" d="M112.202,356.963l-32.232,0.071c-0.905,0.002-1.68-0.427-1.682-1.113
								c-0.001-0.472,0.514-0.946,1.565-0.948l32.249-0.071C113.655,354.897,113.745,356.959,112.202,356.963z"/>
						</g>
						<g>
							<path style="fill:#163161;" d="M232.606,356.696l-32.232,0.071c-0.905,0.002-1.68-0.428-1.681-1.113
								c-0.001-0.473,0.513-0.946,1.563-0.948l32.25-0.071C234.059,354.631,234.149,356.692,232.606,356.696z"/>
						</g>
						<g>
							<path style="fill:#163161;" d="M231.374,266.053l-83.259,0.185c-0.906,0.002-1.68-0.426-1.682-1.113
								c-0.001-0.471,0.513-0.944,1.564-0.947l83.277-0.185C232.827,263.989,232.918,266.05,231.374,266.053z"/>
						</g>
						<g>
							<path style="fill:#163161;" d="M279.272,356.593l-17.343,0.038c-0.906,0.002-1.679-0.427-1.681-1.113
								c-0.001-0.472,0.513-0.945,1.564-0.948l17.36-0.038C280.726,354.527,280.815,356.589,279.272,356.593z"/>
						</g>
						<g>
							<path style="fill:#163161;" d="M398.817,356.328l-31.953,0.07c-0.905,0.002-1.68-0.427-1.681-1.113
								c-0.001-0.472,0.514-0.945,1.564-0.948l31.97-0.07C400.27,354.263,400.361,356.324,398.817,356.328z"/>
						</g>
						<path style="fill:#EB372B;" d="M252.762,209.135c0.007,3.062-2.823,5.549-5.763,5.556l-91.439,0.203
							c-2.94,0.006-5.331-2.469-5.337-5.531l0,0c-0.007-3.062,2.372-5.549,5.313-5.555l91.438-0.203
							C249.915,203.598,252.755,206.074,252.762,209.135L252.762,209.135z"/>
						<path style="opacity:0.5;fill:#EB687C;" d="M162.72,209.335c-0.007-3.062,2.372-5.548,5.313-5.555l-12.497,0.028
							c-2.94,0.006-5.32,2.494-5.313,5.555c0.007,3.062,2.397,5.538,5.337,5.531l12.497-0.028
							C165.116,214.873,162.727,212.396,162.72,209.335z"/>
						<path style="fill:#EB372B;" d="M413.258,261.342c0.007,3.061-3.4,5.549-6.341,5.556l-156.226,0.346
							c-2.94,0.007-5.33-2.47-5.337-5.53l0,0c-0.007-3.061,2.373-5.549,5.313-5.556l156.226-0.346
							C409.833,255.805,413.252,258.28,413.258,261.342L413.258,261.342z"/>
						<path style="fill:#AE202A;" d="M406.893,255.811l-17.617,0.039c2.941-0.007,6.359,2.469,6.365,5.53
							c0.007,3.061-3.399,5.549-6.341,5.556l17.617-0.039c2.94-0.007,6.348-2.495,6.341-5.556
							C413.252,258.28,409.833,255.805,406.893,255.811z"/>
						<path style="opacity:0.5;fill:#EB687C;" d="M263.684,261.673c-0.007-3.062,2.372-5.55,5.313-5.556l-18.33,0.04
							c-2.94,0.007-5.32,2.494-5.313,5.556c0.007,3.061,2.397,5.537,5.337,5.53l18.33-0.04
							C266.08,267.209,263.69,264.733,263.684,261.673z"/>
					</g>
					<path style="fill:#FEA12B;" d="M381.418,292c0.014,6.264-5.053,11.354-11.319,11.369c-6.266,0.014-11.355-5.056-11.369-11.319
						c-0.014-6.266,5.053-11.355,11.319-11.369C376.314,280.667,381.404,285.734,381.418,292z"/>
					<path style="fill:#163161;" d="M379.698,286.042c1.079,1.73,1.715,3.768,1.72,5.958c0.014,6.264-5.053,11.354-11.319,11.369
						c-3.211,0.007-6.108-1.327-8.176-3.468c2.007,3.223,5.575,5.372,9.65,5.362c6.266-0.014,11.332-5.104,11.318-11.368
						C382.885,290.841,381.666,288.076,379.698,286.042z"/>
					<path style="fill:#EB372B;" d="M94.16,274.071c-9.791,3.117-15.455,6.962-15.436,15.504l0.034,15.065
						c1.523,0.582,3.172,0.913,4.901,0.909c7.547-0.017,13.651-6.149,13.635-13.695l-0.041-18.363L94.16,274.071z"/>
					<g>
						<path style="fill:#163161;" d="M78.06,336.074l-0.071-32.232c-0.002-0.905,0.427-1.681,1.113-1.682
							c0.472-0.002,0.946,0.514,0.948,1.564l0.072,32.249C80.124,337.526,78.063,337.617,78.06,336.074z"/>
					</g>
					<path style="fill:#EB372B;" d="M402.382,275.823l0.035,15.765c0.014,6.253,4.231,11.494,9.969,13.103l-0.057-25.47
						c-0.003-1.218-0.041-2.381-0.12-3.49C408.432,275.76,404.384,275.819,402.382,275.823z"/>
					<g>
						<path style="fill:#163161;" d="M411.392,335.336l-0.071-32.232c-0.002-0.905,0.428-1.681,1.113-1.682
							c0.473-0.001,0.947,0.515,0.949,1.565l0.071,32.248C413.458,336.788,411.395,336.879,411.392,335.336z"/>
					</g>
				</g>
			</g>
			<path style="fill:#49B97A;" d="M223.171,236.624c0,0,10.528,12.602,10.574,33.227c0.045,20.625-33.929-5.788-33.929-5.788
				L223.171,236.624z"/>
			<g>
				<path style="fill:#163161;" d="M406.563,257.165l-155.967,0.346c-0.906,0.002-1.68-0.427-1.682-1.114
					c-0.001-0.471,0.513-0.944,1.564-0.946l155.984-0.346C408.015,255.102,408.105,257.161,406.563,257.165z"/>
			</g>
			<g>
				<path style="fill:#163161;" d="M249.672,380.809l-155.967,0.346c-0.906,0.002-1.68-0.428-1.682-1.115
					c-0.001-0.471,0.513-0.944,1.564-0.946l155.984-0.346C251.124,378.744,251.215,380.805,249.672,380.809z"/>
			</g>
			<g>
				<path style="fill:#163161;" d="M357.335,380.57l-71.631,0.158c-0.906,0.002-1.68-0.427-1.682-1.114
					c-0.001-0.471,0.513-0.944,1.564-0.946l71.648-0.159C358.788,378.506,358.878,380.566,357.335,380.57z"/>
			</g>
			<g>
				<path style="fill:#FFFFFF;" d="M437.511,276.893l-36.535,0.081c-0.906,0.002-1.681-0.428-1.683-1.115
					c-0.001-0.471,0.514-0.944,1.564-0.946l36.553-0.081C438.963,274.827,439.054,276.889,437.511,276.893z"/>
			</g>
			<g>
				<path style="fill:#FFFFFF;" d="M447.526,283.87l-36.535,0.081c-0.906,0.002-1.681-0.427-1.683-1.114
					c-0.001-0.471,0.514-0.944,1.564-0.947l36.553-0.081C448.978,281.806,449.069,283.867,447.526,283.87z"/>
			</g>
			<g>
				<path style="fill:#FFFFFF;" d="M330.327,194.129l-36.535,0.081c-0.906,0.002-1.681-0.427-1.682-1.115
					c-0.001-0.471,0.513-0.944,1.564-0.947l36.553-0.08C331.779,192.065,331.87,194.126,330.327,194.129z"/>
			</g>
			<g>
				<path style="fill:#FFFFFF;" d="M115.071,304.606l-36.535,0.081c-0.906,0.002-1.681-0.427-1.682-1.114
					c-0.001-0.471,0.513-0.945,1.564-0.947l36.553-0.081C116.523,302.542,116.614,304.603,115.071,304.606z"/>
			</g>
			<g>
				<path style="fill:#FFFFFF;" d="M130.051,295.573l-36.535,0.081c-0.906,0.002-1.681-0.427-1.682-1.114
					c-0.001-0.471,0.514-0.944,1.564-0.947l36.552-0.081C131.503,293.509,131.594,295.569,130.051,295.573z"/>
			</g>
			<path style="fill:#EBB58B;" d="M189.801,257.822c-7.833,0.352-11.486,6.359-11.486,6.359s-4.322,5.343,3.179,5.826
				c5.491,0.354,9.987-5.927,9.987-5.927l9.166-0.021C198.143,261.639,195.296,257.576,189.801,257.822z"/>
			<path style="fill:#EBB58B;" d="M199.901,227.967c0,0-3.321,5.341-1.642,11.17c1.119,3.881,12.099,6.973,15.334,0.466
				c3.236-6.507,1.811-10.504,1.811-10.504L199.901,227.967z"/>
			<path style="fill:#163161;" d="M210.526,237.685c1.369,0.112,2.66,0.113,3.897,0.042c2.123-5.387,0.981-8.628,0.981-8.628
				l-15.503-1.133c0,0-1.624,2.623-2.023,6.196C201.19,235.997,205.338,237.262,210.526,237.685z"/>
			<path style="fill:#163161;" d="M232.286,172.414c2.138-2.504,4.156-5.503,2.531-6.445c-2.368-1.374-5.564,2.32-6.844,4.631
				c-0.499-2.517-2.874-6.557-4.869-6.621c-1.376-0.044-0.888,3.227-0.154,6.233c-7.941-3.97-24.886-10.04-37.747,2.028
				c-17.218,16.156-9.557,46.34,0.612,48.932l35.827,3.259c8.557-0.421,15.32-2.514,19.404-22.012
				C244.781,184.592,238.806,174.126,232.286,172.414z"/>
			<path style="fill:#EBB58B;" d="M233.837,198.725c0,0,1.309,34.935-23.608,36.829c-1.376,0.105-2.831,0.1-4.374-0.026
				c-33.662-2.741-23.702-40.881-23.702-40.881s14.336,8.431,30.892-6.607c0,0-1.399,10.243,1.404,10.155
				c2.804-0.088,9.737-9.094,9.737-9.094S225.72,201.536,233.837,198.725z"/>
			<path style="fill:#EBB58B;" d="M182.153,194.648c0,0-5.334-4.129-7.989,1.376c-2.655,5.506-1.135,14.336,7.696,13.316
				L182.153,194.648z"/>
			<path style="fill:#EBB58B;" d="M234.388,203.481c0,0,6.294-2.425,7.258,3.61c0.964,6.036-3.024,14.059-11.192,10.549
				L234.388,203.481z"/>
			<path style="fill:#163161;" d="M182.32,191.339c0,0-1.969,14.005,0.368,15.333c2.336,1.328,3.633-15.008,3.633-15.008
				L182.32,191.339z"/>
			<path style="fill:#163161;" d="M237.403,198.831c0,0-3.21,13.773-5.867,14.17c-2.658,0.396,2.019-15.309,2.019-15.309
				L237.403,198.831z"/>
			<path style="fill:#CE8663;" d="M175.703,196.253c0,0,2.942-0.599,3.539,2.724c0.597,3.323-0.194,6.678-1.505,6.002
				c-1.311-0.676-1.004-3.89,0.708-5.051C178.445,199.928,178.352,196.588,175.703,196.253z"/>
			<path style="fill:#CE8663;" d="M240.485,206.895c0,0-2.587-1.525-4.233,1.422c-1.647,2.946-1.993,6.376-0.533,6.165
				c1.46-0.211,2.217-3.35,0.976-5.006C236.696,209.476,237.873,206.349,240.485,206.895z"/>
			<path style="fill:#CE8663;" d="M205.29,204.206c-0.946-0.367-5.54,10.405-2.757,14.439c2.783,4.034,8.543,0.542,8.444,0.11
				c-0.1-0.433-6.475,2.482-7.542-1.259C202.369,213.756,206.235,204.574,205.29,204.206z"/>
			<path style="fill:#163161;" d="M197.977,224.222c0,0,8.168,0.454,13.421,1.862c0,0-0.05,5.267-7.324,4.477
				C196.156,229.7,197.977,224.222,197.977,224.222z"/>
			<path style="fill:#EB372B;" d="M210.836,228.028c-4.358-2.292-8.501-0.872-11.395,0.93c0.943,0.751,2.401,1.36,4.633,1.603
				C208.299,231.02,210.079,229.437,210.836,228.028z"/>
			<g>
				<path style="fill:#163161;" d="M196.415,207.214c-0.351,2.459-1.632,4.312-2.862,4.137c-1.23-0.176-1.943-2.313-1.592-4.773
					c0.351-2.46,1.632-4.313,2.863-4.137C196.053,202.617,196.767,204.753,196.415,207.214z"/>
				<path style="fill:#FFFFFF;" d="M192.732,205.024c-0.13-0.021-0.259-0.03-0.386-0.034c-0.169,0.487-0.304,1.019-0.385,1.588
					c-0.087,0.611-0.108,1.203-0.072,1.749c0.094,0.026,0.188,0.054,0.286,0.07c1.213,0.2,2.32-0.393,2.474-1.325
					C194.802,206.142,193.944,205.224,192.732,205.024z"/>
			</g>
			<g>
				<path style="fill:#163161;" d="M221.067,211.192c-0.753,2.664-2.444,4.519-3.777,4.143c-1.332-0.377-1.802-2.843-1.048-5.508
					c0.753-2.664,2.444-4.519,3.777-4.143C221.352,206.061,221.821,208.526,221.067,211.192z"/>
				<path style="fill:#FFFFFF;" d="M217.325,208.225c-0.14-0.043-0.281-0.071-0.42-0.094c-0.258,0.513-0.487,1.08-0.662,1.696
					c-0.187,0.663-0.298,1.313-0.34,1.921c0.1,0.042,0.199,0.087,0.305,0.121c1.31,0.402,2.621-0.089,2.929-1.095
					C219.445,209.767,218.635,208.626,217.325,208.225z"/>
			</g>
			<path style="fill:#FFFFFF;" d="M199.697,224.343c-0.034,0.674,0.023,1.701,0.577,2.331c0.877,0.998,6.656,1.333,7.628,1.233
				c0.886-0.091,1.163-1.362,1.322-2.325C205.802,224.896,201.889,224.518,199.697,224.343z"/>
			<g>
				<path style="fill:none;stroke:#163161;stroke-width:2;stroke-linecap:round;stroke-linejoin:round;stroke-miterlimit:10;" d="
					M143.666,319.675c0,0-15.05,5.466-15.011,22.996"/>
				<path style="fill:none;stroke:#163161;stroke-width:2;stroke-linecap:round;stroke-linejoin:round;stroke-miterlimit:10;" d="
					M167.63,371.914c6.113-1.736,11.556-6.303,14.471-11.907"/>
			</g>
			<g>
				<path style="fill:none;stroke:#163161;stroke-width:2;stroke-linecap:round;stroke-linejoin:round;stroke-miterlimit:10;" d="
					M308.999,319.309c0,0-15.05,5.466-15.011,22.996"/>
				<path style="fill:none;stroke:#163161;stroke-width:2;stroke-linecap:round;stroke-linejoin:round;stroke-miterlimit:10;" d="
					M332.963,371.548c6.114-1.736,11.556-6.303,14.471-11.907"/>
			</g>
		</g>
	</g>
</g>
<g id="TEXTS">
	<g>
		<g>
			
				<text transform="matrix(1 0 0 1 554.7324 298.5626)" style="fill:#EB372B; font-family:'BebasNeue-Regular'; font-size:14.5545px; letter-spacing:2;">BIOFUEL</text>
		</g>
	</g>
</g>
<g id="EFFECTS">
</g>
</svg>
