<?xml version="1.0" encoding="utf-8"?>
<!-- Generator: Adobe Illustrator 27.5.0, SVG Export Plug-In . SVG Version: 6.00 Build 0)  -->
<svg version="1.1" id="Capa_1" xmlns="http://www.w3.org/2000/svg" xmlns:xlink="http://www.w3.org/1999/xlink" x="0px" y="0px"
	 viewBox="0 0 425.196 425.197" style="enable-background:new 0 0 425.196 425.197;" xml:space="preserve">
<rect x="0" y="0" style="fill:#F7F8F8;" width="425.196" height="425.197"/>
<g>
	<linearGradient id="SVGID_1_" gradientUnits="userSpaceOnUse" x1="372.5258" y1="214.0566" x2="216.5323" y2="131.5599">
		<stop  offset="0" style="stop-color:#FFFFFF"/>
		<stop  offset="1" style="stop-color:#000000"/>
	</linearGradient>
	<polygon style="fill:url(#SVGID_1_);" points="425.198,130.715 347.349,88.326 255.854,256.317 398.698,340.314 425.198,277.844 	
		"/>
	<g>
		<g>
			<g>
				<g>
					<path style="fill:#D23626;" d="M351.908,251.448c0,5.74-4.653,10.395-10.394,10.395h-77.382
						c-5.742,0-10.395-4.654-10.395-10.395V95.526c0-5.742,4.653-10.395,10.395-10.395h77.382c5.741,0,10.394,4.652,10.394,10.395
						V251.448z"/>
					<path style="fill:#E86E64;" d="M335.906,90.077h-70.002c0.177,1.232,0.368,2.464,0.568,3.693h65.364
						c5.742,0,10.395,4.653,10.395,10.395v129.741c1.222,0.883,2.461,1.74,3.73,2.56c0.112,0.073,0.228,0.143,0.339,0.215V100.472
						C346.301,94.729,341.647,90.077,335.906,90.077z"/>
					<path style="fill:#AC2F21;" d="M339.04,233.349c-11.461-8.996-21.039-20.521-29.477-32.327
						c-8.514-11.909-16.096-24.601-22.316-37.86c-11.561-24.643-20.816-50.861-24.572-77.916c-5.051,0.709-8.939,5.035-8.939,10.281
						v155.922c0,5.74,4.653,10.395,10.395,10.395h77.382c5.741,0,10.394-4.654,10.394-10.395v-9.366
						C347.45,239.436,343.131,236.561,339.04,233.349z"/>
					<path style="fill:#C2E3EA;" d="M343.824,139.415c0,5.742-4.653,10.395-10.395,10.395h-61.213
						c-5.742,0-10.395-4.652-10.395-10.395v-30.556c0-5.741,4.653-10.395,10.395-10.395h61.213c5.742,0,10.395,4.653,10.395,10.395
						V139.415z"/>
					<rect x="351.908" y="108.808" style="fill:#333030;" width="10.974" height="58.615"/>
					<g>
						<path style="fill:#333030;" d="M379.642,127.731c0,0-2.541-13.869-15.863-14.879v4.415c0,0,9.976,2.616,9.648,10.464H379.642z
							"/>
						<polygon style="fill:#333030;" points="385.696,158.831 379.642,163.378 368.521,163.378 365.581,135.951 371.711,127.731 
							381.408,127.731 						"/>
					</g>
					<g>
						<path d="M363.942,230.113c-1.418,0-3.703-0.291-5.723-1.856c-2.318-1.796-3.645-4.764-3.941-8.823v-52.011h1.037v51.973
							c0.272,3.717,1.464,6.433,3.541,8.041c2.783,2.158,6.234,1.563,6.267,1.557l0.094-0.009h0.002c3.466,0,6.084-0.925,7.783-2.75
							c2.339-2.513,2.123-5.9,2.119-5.935v-56.922h1.037v56.886c0.011,0.119,0.246,3.836-2.396,6.677
							c-1.895,2.037-4.755,3.073-8.501,3.081C365.103,230.046,364.622,230.113,363.942,230.113z"/>
					</g>
					<path style="fill:#92D0E5;" d="M298.517,124.522c-3.477-8.594-6.592-17.321-9.681-26.058h-16.62
						c-5.742,0-10.395,4.653-10.395,10.395v30.556c0,5.742,4.653,10.395,10.395,10.395h39.426
						C306.297,141.988,302.144,133.488,298.517,124.522z"/>
				</g>
			</g>
			<g>
				<g>
					<path style="fill:#F6B63E;" d="M328.231,196.485c0,14.637-11.867,26.503-26.503,26.503c-14.638,0-26.5-11.866-26.5-26.503
						c0-14.639,11.862-26.503,26.5-26.503C316.364,169.982,328.231,181.847,328.231,196.485z"/>
					<g>
						<g>
							<path style="fill:#B0AFB5;" d="M300.651,215.303l0.016-6.3c-2.557-0.28-4.541-0.93-5.947-1.952
								c-1.406-1.022-2.108-2.313-2.104-3.875c0.001-0.943,0.288-1.708,0.855-2.295c0.573-0.585,1.31-0.879,2.213-0.876
								c0.847,0.002,1.52,0.251,2.017,0.755c0.499,0.499,0.747,1.175,0.745,2.021c-0.001,0.343-0.05,0.649-0.146,0.926
								c-0.098,0.27-0.245,0.51-0.456,0.716c-0.148,0.134-0.375,0.271-0.675,0.407c-0.302,0.138-0.456,0.279-0.456,0.431
								c0,0.463,0.373,0.858,1.118,1.183c0.745,0.322,1.693,0.486,2.84,0.49l0.023-10.077l-1.516-0.724
								c-2.089-0.933-3.625-2.023-4.61-3.271c-0.979-1.249-1.468-2.713-1.463-4.395c0.003-2.012,0.673-3.667,2.002-4.97
								c1.33-1.304,3.206-2.132,5.627-2.48l0.007-2.994l2.135,0.005l0.012,2.995c2.451,0.113,4.357,0.658,5.734,1.624
								c1.369,0.968,2.054,2.251,2.05,3.852c-0.002,0.865-0.26,1.566-0.774,2.111c-0.512,0.546-1.183,0.817-2.003,0.815
								c-0.903-0.003-1.623-0.229-2.163-0.683c-0.539-0.451-0.805-1.049-0.802-1.787c0-0.572,0.222-1.128,0.668-1.657
								c0.444-0.533,0.668-0.893,0.668-1.087c0.002-0.412-0.264-0.75-0.795-1.019c-0.533-0.268-1.234-0.403-2.093-0.406
								l-0.514-0.002l-0.022,8.661l1.107,0.576c0.244,0.138,0.647,0.336,1.208,0.596c1.778,0.8,3.103,1.618,3.975,2.454
								c0.714,0.671,1.246,1.468,1.606,2.383c0.361,0.918,0.539,1.944,0.537,3.081c-0.006,2.338-0.74,4.24-2.211,5.708
								c-1.468,1.467-3.556,2.387-6.265,2.764l-0.014,6.3L300.651,215.303z M300.795,190.681l0.02-7.693
								c-1.247,0.257-2.198,0.684-2.848,1.285c-0.65,0.602-0.977,1.344-0.981,2.232c-0.001,0.756,0.324,1.487,0.97,2.201
								C298.602,189.418,299.551,190.076,300.795,190.681z M302.764,206.854c1.535-0.283,2.697-0.791,3.494-1.53
								c0.794-0.734,1.194-1.679,1.196-2.828c0.002-0.957-0.393-1.844-1.181-2.659c-0.793-0.817-1.952-1.527-3.485-2.133
								L302.764,206.854z"/>
						</g>
						<g>
							<path style="fill:#434041;" d="M301.116,213.881l0.015-6.3c-2.555-0.28-4.538-0.93-5.943-1.952
								c-1.409-1.024-2.111-2.314-2.108-3.875c0.003-0.942,0.289-1.708,0.858-2.295c0.568-0.586,1.305-0.879,2.209-0.876
								c0.846,0.002,1.52,0.252,2.015,0.754c0.503,0.501,0.749,1.176,0.748,2.021c0,0.344-0.051,0.649-0.146,0.926
								c-0.098,0.27-0.248,0.51-0.456,0.716c-0.146,0.133-0.376,0.271-0.675,0.408c-0.302,0.138-0.455,0.278-0.455,0.43
								c-0.001,0.463,0.373,0.859,1.116,1.183c0.745,0.323,1.693,0.487,2.842,0.49l0.025-10.076l-1.516-0.723
								c-2.094-0.936-3.629-2.025-4.608-3.272c-0.979-1.248-1.47-2.712-1.465-4.394c0.004-2.012,0.667-3.667,1.999-4.971
								c1.33-1.303,3.207-2.131,5.631-2.48l0.007-2.995l2.133,0.005l0.013,2.994c2.448,0.116,4.36,0.661,5.732,1.627
								c1.371,0.967,2.056,2.252,2.051,3.851c-0.002,0.865-0.261,1.567-0.775,2.111c-0.513,0.547-1.182,0.819-2,0.817
								c-0.906-0.003-1.625-0.23-2.165-0.684c-0.539-0.451-0.807-1.048-0.805-1.786c0.002-0.573,0.224-1.129,0.675-1.659
								c0.441-0.533,0.667-0.894,0.667-1.086c0.001-0.412-0.265-0.75-0.8-1.018c-0.531-0.267-1.23-0.403-2.089-0.406l-0.514-0.001
								l-0.021,8.661l1.107,0.575c0.245,0.138,0.648,0.336,1.208,0.597c1.778,0.799,3.101,1.617,3.977,2.453
								c0.708,0.671,1.243,1.469,1.604,2.383c0.364,0.918,0.539,1.944,0.537,3.081c-0.005,2.337-0.744,4.24-2.211,5.708
								c-1.467,1.467-3.559,2.387-6.263,2.765l-0.017,6.3L301.116,213.881z M301.258,189.259l0.018-7.693
								c-1.245,0.256-2.196,0.685-2.844,1.285c-0.653,0.602-0.977,1.344-0.98,2.233c-0.001,0.754,0.319,1.486,0.97,2.2
								C299.067,187.997,300.016,188.655,301.258,189.259z M303.228,205.432c1.537-0.282,2.696-0.792,3.491-1.53
								c0.798-0.734,1.198-1.678,1.199-2.827c0.004-0.958-0.393-1.847-1.186-2.66c-0.791-0.817-1.948-1.526-3.482-2.134
								L303.228,205.432z"/>
						</g>
					</g>
				</g>
				<g>
					<path style="fill:#F6B63E;" d="M301.963,169.982c-0.061,0-0.121,0.006-0.184,0.007v52.994c0.063,0,0.122,0.005,0.184,0.005
						c14.637,0,26.503-11.866,26.503-26.503C328.466,181.847,316.6,169.982,301.963,169.982z"/>
				</g>
			</g>
		</g>
		<g>
			<g>
				<g>
					<path style="fill:#A7C505;" d="M338.548,135.454l-16.458-26.453l-24.609,30.939l-10.859-22.181l-20.733,20.491l1.635,1.653
						l18.432-18.21l11.054,22.582l24.345-30.606l14.776,23.021C337.087,137.366,338.548,135.454,338.548,135.454z"/>
				</g>
				<g>
					<g>
						<path style="fill:#F7F8F8;" d="M290.446,120.232c0,2.147-1.742,3.886-3.883,3.886c-2.146,0-3.886-1.738-3.886-3.886
							c0-2.146,1.741-3.883,3.886-3.883C288.704,116.35,290.446,118.087,290.446,120.232z"/>
					</g>
					<g>
						<path style="fill:#A7C505;" d="M286.563,124.818c-2.528,0-4.586-2.058-4.586-4.586c0-2.524,2.058-4.585,4.586-4.585
							c2.527,0,4.583,2.061,4.583,4.585C291.146,122.761,289.09,124.818,286.563,124.818z M286.563,117.047
							c-1.759,0-3.187,1.433-3.187,3.186c0,1.759,1.428,3.186,3.187,3.186c1.754,0,3.185-1.427,3.185-3.186
							C289.747,118.479,288.316,117.047,286.563,117.047z"/>
					</g>
				</g>
				<g>
					<g>
						<path style="fill:#F7F8F8;" d="M325.85,111.065c0,2.145-1.739,3.885-3.883,3.885c-2.148,0-3.887-1.74-3.887-3.885
							c0-2.148,1.738-3.887,3.887-3.887C324.111,107.179,325.85,108.917,325.85,111.065z"/>
					</g>
					<g>
						<path style="fill:#A7C505;" d="M321.967,115.647c-2.529,0-4.586-2.057-4.586-4.582c0-2.529,2.057-4.588,4.586-4.588
							c2.524,0,4.583,2.059,4.583,4.588C326.55,113.591,324.491,115.647,321.967,115.647z M321.967,107.879
							c-1.76,0-3.187,1.429-3.187,3.187c0,1.754,1.427,3.184,3.187,3.184c1.756,0,3.185-1.43,3.185-3.184
							C325.152,109.308,323.723,107.879,321.967,107.879z"/>
					</g>
				</g>
				<g>
					<g>
						<path style="fill:#F7F8F8;" d="M301.024,141.875c0,2.145-1.739,3.886-3.887,3.886c-2.145,0-3.883-1.74-3.883-3.886
							s1.739-3.884,3.883-3.884C299.286,137.991,301.024,139.73,301.024,141.875z"/>
					</g>
					<g>
						<path style="fill:#A7C505;" d="M297.137,146.46c-2.528,0-4.584-2.056-4.584-4.585s2.055-4.585,4.584-4.585
							c2.528,0,4.586,2.056,4.586,4.585S299.665,146.46,297.137,146.46z M297.137,138.689c-1.758,0-3.187,1.428-3.187,3.186
							s1.429,3.184,3.187,3.184c1.758,0,3.187-1.427,3.187-3.184S298.895,138.689,297.137,138.689z"/>
					</g>
				</g>
				<polygon style="fill:#A7C505;" points="337.867,134.637 340.363,132.13 338.786,139.796 332.539,135.768 335.756,135.628 				
					"/>
			</g>
		</g>
	</g>
</g>
<g>
	<path style="fill:#E86732;" d="M141.499,358.6c0,21.547-17.466,39.016-39.015,39.016c-21.549,0-39.017-17.469-39.017-39.016
		c0-21.549,17.468-39.02,39.017-39.02C124.033,319.58,141.499,337.051,141.499,358.6z"/>
	<path style="fill:#E45A4B;" d="M373.014,358.6c0,21.547-17.467,39.016-39.016,39.016c-21.547,0-39.016-17.469-39.016-39.016
		c0-21.549,17.469-39.02,39.016-39.02C355.547,319.58,373.014,337.051,373.014,358.6z"/>
	<g>
		<rect x="344.928" y="342.494" style="fill:#FFFFFF;" width="2.733" height="14.594"/>
		<g>
			<path style="fill:#FFFFFF;" d="M351.834,347.205c0,0-0.633-3.453-3.949-3.705v1.1c0,0,2.482,0.652,2.402,2.605H351.834z"/>
			<polygon style="fill:#FFFFFF;" points="353.342,354.947 351.834,356.082 349.064,356.082 348.332,349.25 349.859,347.205 
				352.272,347.205 			"/>
		</g>
		<g>
			<path style="fill:#FFFFFF;" d="M347.924,372.863c-0.364,0-0.98-0.074-1.526-0.498c-0.616-0.477-0.968-1.256-1.046-2.316
				l-0.001-12.961h0.594v12.939c0.063,0.859,0.336,1.496,0.811,1.865c0.629,0.49,1.427,0.359,1.436,0.359
				c0.866-0.006,1.476-0.217,1.867-0.635c0.531-0.574,0.483-1.344,0.483-1.353l-0.002-14.182h0.594v14.16
				c0.001,0.022,0.065,1.018-0.642,1.777c-0.506,0.545-1.264,0.822-2.249,0.822c0,0,0,0-0.001,0
				C348.246,372.842,348.121,372.863,347.924,372.863z"/>
		</g>
		<g>
			<path style="fill:#FFFFFF;" d="M329.771,364.15c0,2.098,1.314,3.154,2.936,3.154c1.621,0,2.935-1.057,2.935-3.154
				c0-2.103-2.935-5.219-2.935-5.219S329.771,362.047,329.771,364.15z"/>
			<path style="fill:#FFFFFF;" d="M342.342,336.6h-19.268c-1.43,0-2.588,1.158-2.588,2.586v38.82c0,1.432,1.158,2.59,2.588,2.59
				h19.268c1.428,0,2.586-1.158,2.586-2.59v-38.82C344.928,337.758,343.77,336.6,342.342,336.6z M332.707,369.213
				c-3.209,0-5.809-2.602-5.809-5.809c0-3.211,2.6-5.811,5.809-5.811c3.209,0,5.81,2.6,5.81,5.811
				C338.517,366.611,335.916,369.213,332.707,369.213z M342.916,350.113c0,1.432-1.159,2.59-2.588,2.59h-15.241
				c-1.429,0-2.589-1.158-2.589-2.59v-7.608c0-1.428,1.16-2.588,2.589-2.588h15.241c1.429,0,2.588,1.16,2.588,2.588V350.113z"/>
		</g>
	</g>
	<g>
		<g>
			<rect x="87.338" y="376.685" style="fill:#FFFFFF;" width="31.066" height="4.456"/>
			<rect x="88.885" y="375.013" style="fill:#FFFFFF;" width="27.971" height="1.672"/>
			<rect x="89.285" y="380.568" style="fill:#FFFFFF;" width="2.179" height="8.598"/>
			<rect x="114.506" y="380.568" style="fill:#FFFFFF;" width="2.178" height="8.598"/>
		</g>
		<g>
			
				<rect x="77.791" y="354.956" transform="matrix(0.1111 -0.9938 0.9938 0.1111 -266.167 413.4954)" style="fill:#FFFFFF;" width="40.529" height="1.152"/>
			
				<rect x="107.109" y="335.267" transform="matrix(0.9938 -0.1112 0.1112 0.9938 -38.882 14.1858)" style="fill:#FFFFFF;" width="1.151" height="40.529"/>
			<rect x="99.91" y="336.778" style="fill:#FFFFFF;" width="5.574" height="0.633"/>
			<polygon style="fill:#FFFFFF;" points="105.633,343.302 100.408,337.383 100.883,336.963 106.107,342.882 			"/>
			
				<rect x="98.614" y="339.947" transform="matrix(0.6615 -0.7499 0.7499 0.6615 -220.4623 192.095)" style="fill:#FFFFFF;" width="7.895" height="0.633"/>
			<polygon style="fill:#FFFFFF;" points="107.283,348.939 103.52,345.858 106.318,343.569 105.66,343.151 102.936,345.38 
				100.051,343.02 99.393,343.436 102.35,345.858 98.428,349.07 99.084,349.487 102.936,346.337 106.625,349.356 			"/>
			<polygon style="fill:#FFFFFF;" points="107.983,356.022 103.61,352.502 106.863,349.885 106.098,349.404 102.932,351.956 
				99.577,349.255 98.814,349.733 102.252,352.502 97.691,356.173 98.457,356.651 102.932,353.05 107.221,356.501 			"/>
			<polygon style="fill:#FFFFFF;" points="108.783,362.379 103.746,359.351 107.684,356.874 106.611,356.685 102.965,358.88 
				99.102,356.557 98.221,356.968 102.182,359.351 96.93,362.509 97.81,362.923 102.965,359.821 107.904,362.792 			"/>
			<polygon style="fill:#FFFFFF;" points="109.333,368.493 103.723,365.462 108.109,362.985 106.914,362.796 102.85,364.991 
				98.549,362.668 97.568,363.081 101.979,365.462 96.129,368.62 97.11,369.034 102.85,365.933 108.351,368.903 			"/>
			<polygon style="fill:#FFFFFF;" points="110.232,374.542 103.912,371.513 108.854,369.034 107.507,368.847 102.93,371.04 
				98.082,368.717 96.979,369.13 101.947,371.513 95.357,374.671 96.462,375.083 102.93,371.981 109.128,374.953 			"/>
			<rect x="99.193" y="342.942" style="fill:#FFFFFF;" width="6.986" height="0.634"/>
			<rect x="99.058" y="348.939" style="fill:#FFFFFF;" width="7.761" height="0.634"/>
			<rect x="98.057" y="356.24" style="fill:#FFFFFF;" width="9.628" height="0.634"/>
			<rect x="97.481" y="362.405" style="fill:#FFFFFF;" width="10.731" height="0.633"/>
			<rect x="96.93" y="368.4" style="fill:#FFFFFF;" width="11.666" height="0.634"/>
			<rect x="99.058" y="332.867" style="fill:#FFFFFF;" width="7.761" height="3.193"/>
			<rect x="99.712" y="332.161" style="fill:#FFFFFF;" width="6.585" height="0.706"/>
			<polygon style="fill:#FFFFFF;" points="101.633,332.161 104.573,332.161 103.374,328.03 102.854,328.03 			"/>
		</g>
	</g>
	<path style="fill:#B0AFB5;" d="M103.104,319.59v78.016c21.354-0.225,38.6-17.6,38.6-39.008S124.457,319.814,103.104,319.59z"/>
	<g>
		<path style="fill:#003751;" d="M259.614,358.598c0,21.549-17.469,39.018-39.015,39.018c-21.551,0-39.017-17.469-39.017-39.018
			c0-21.547,17.466-39.017,39.017-39.017C242.145,319.58,259.614,337.051,259.614,358.598z"/>
		<g>
			<g>
				<polygon style="fill:#FFFFFF;" points="218.999,377.418 224.19,348.406 222.844,348.314 217.636,377.418 				"/>
				<polygon style="fill:#FFFFFF;" points="235.477,377.418 230.27,348.314 228.922,348.406 234.114,377.418 				"/>
				<rect x="223.073" y="349.371" style="fill:#FFFFFF;" width="6.559" height="0.463"/>
				<polygon style="fill:#FFFFFF;" points="229.805,354.123 223.661,349.81 224.219,349.506 230.364,353.816 				"/>
				<polygon style="fill:#FFFFFF;" points="223.399,354.217 229.545,349.906 228.985,349.602 222.84,353.912 				"/>
				<polygon style="fill:#FFFFFF;" points="231.747,358.227 227.321,355.984 230.612,354.316 229.839,354.012 226.633,355.635 
					223.238,353.916 222.464,354.221 225.944,355.984 221.33,358.322 222.102,358.627 226.633,356.332 230.975,358.531 				"/>
				<polygon style="fill:#FFFFFF;" points="232.573,363.385 227.428,360.822 231.252,358.916 230.354,358.566 226.627,360.424 
					222.682,358.457 221.783,358.807 225.827,360.822 220.463,363.496 221.364,363.844 226.627,361.221 231.673,363.734 				"/>
				<polygon style="fill:#FFFFFF;" points="233.513,368.016 227.586,365.81 232.219,364.006 230.957,363.869 226.665,365.467 
					222.121,363.775 221.086,364.076 225.746,365.81 219.567,368.109 220.602,368.41 226.665,366.152 232.478,368.316 				"/>
				<polygon style="fill:#FFFFFF;" points="234.161,372.465 227.561,370.26 232.719,368.455 231.315,368.32 226.534,369.918 
					221.471,368.225 220.319,368.525 225.507,370.26 218.625,372.56 219.78,372.863 226.534,370.603 233.006,372.768 				"/>
				<polygon style="fill:#FFFFFF;" points="235.217,376.873 227.782,374.666 233.596,372.863 232.012,372.725 226.625,374.322 
					220.923,372.631 219.625,372.932 225.469,374.666 217.718,376.967 219.016,377.268 226.625,375.008 233.917,377.172 				"/>
				<rect x="222.23" y="353.859" style="fill:#FFFFFF;" width="8.22" height="0.463"/>
				<rect x="222.07" y="358.227" style="fill:#FFFFFF;" width="9.132" height="0.461"/>
				<rect x="220.892" y="363.543" style="fill:#FFFFFF;" width="11.327" height="0.463"/>
				<rect x="220.216" y="368.035" style="fill:#FFFFFF;" width="12.624" height="0.459"/>
				<rect x="219.567" y="372.4" style="fill:#FFFFFF;" width="13.724" height="0.463"/>
				<rect x="222.07" y="346.523" style="fill:#FFFFFF;" width="9.132" height="2.326"/>
				<rect x="222.84" y="346.01" style="fill:#FFFFFF;" width="7.746" height="0.514"/>
			</g>
			
				<rect x="225.167" y="326.36" transform="matrix(0.4191 -0.9079 0.9079 0.4191 -182.1277 406.6254)" style="fill:#FFFFFF;" width="3.093" height="38.572"/>
			
				<rect x="241.281" y="355.243" transform="matrix(0.0051 -1 1 0.0051 -114.3703 597.0396)" style="fill:#FFFFFF;" width="3.187" height="1.515"/>
			<rect x="242.34" y="357.455" style="fill:#FFFFFF;" width="0.397" height="18.547"/>
			<rect x="243.026" y="357.455" style="fill:#FFFFFF;" width="0.399" height="18.547"/>
			<rect x="238.389" y="374.75" style="fill:#FFFFFF;" width="8.85" height="2.668"/>
			<rect x="241.043" y="373.395" style="fill:#FFFFFF;" width="3.846" height="1.355"/>
			<polygon style="fill:#FFFFFF;" points="201.329,349.012 199.161,348.016 200.938,337.617 204.59,329.662 211.705,332.928 
				208.109,340.768 			"/>
			<rect x="199.922" y="348.314" style="fill:#FFFFFF;" width="0.54" height="24.549"/>
			<rect x="198.659" y="367.412" style="fill:#FFFFFF;" width="2.93" height="7.994"/>
			<rect x="196.827" y="375.406" style="fill:#FFFFFF;" width="6.999" height="2.012"/>
			<rect x="193.532" y="377.268" style="fill:#FFFFFF;" width="58.242" height="2.838"/>
		</g>
		<path style="fill:#B0AFB5;" d="M221.015,319.592v78.014c21.354-0.225,38.599-17.598,38.599-39.008
			C259.614,337.189,242.369,319.814,221.015,319.592z"/>
	</g>
	<path style="fill:#B0AFB5;" d="M334.415,319.592v78.014c21.354-0.225,38.599-17.598,38.599-39.008
		C373.014,337.191,355.77,319.816,334.415,319.592z"/>
</g>
<g>
	
		<line style="fill:none;stroke:#C3C5CA;stroke-width:0.6441;stroke-miterlimit:10;" x1="41.594" y1="100.572" x2="190.905" y2="100.572"/>
	
		<line style="fill:none;stroke:#C3C5CA;stroke-width:0.6441;stroke-miterlimit:10;" x1="41.594" y1="113.023" x2="190.905" y2="113.023"/>
	
		<line style="fill:none;stroke:#C3C5CA;stroke-width:0.6441;stroke-miterlimit:10;" x1="41.594" y1="125.476" x2="190.905" y2="125.476"/>
	
		<line style="fill:none;stroke:#C3C5CA;stroke-width:0.6441;stroke-miterlimit:10;" x1="41.594" y1="137.928" x2="190.905" y2="137.928"/>
	
		<line style="fill:none;stroke:#C3C5CA;stroke-width:0.6441;stroke-miterlimit:10;" x1="48.028" y1="180.936" x2="48.028" y2="67.069"/>
	
		<line style="fill:none;stroke:#C3C5CA;stroke-width:0.6441;stroke-miterlimit:10;" x1="61.322" y1="180.936" x2="61.322" y2="67.069"/>
	
		<line style="fill:none;stroke:#C3C5CA;stroke-width:0.6441;stroke-miterlimit:10;" x1="75.231" y1="180.936" x2="75.231" y2="67.069"/>
	
		<line style="fill:none;stroke:#C3C5CA;stroke-width:0.6441;stroke-miterlimit:10;" x1="89.14" y1="180.936" x2="89.14" y2="67.069"/>
	
		<line style="fill:none;stroke:#C3C5CA;stroke-width:0.6441;stroke-miterlimit:10;" x1="103.051" y1="180.936" x2="103.051" y2="67.069"/>
	
		<line style="fill:none;stroke:#C3C5CA;stroke-width:0.6441;stroke-miterlimit:10;" x1="116.961" y1="180.936" x2="116.961" y2="67.069"/>
	
		<line style="fill:none;stroke:#C3C5CA;stroke-width:0.6441;stroke-miterlimit:10;" x1="130.871" y1="180.936" x2="130.871" y2="67.069"/>
	
		<line style="fill:none;stroke:#C3C5CA;stroke-width:0.6441;stroke-miterlimit:10;" x1="144.782" y1="180.936" x2="144.782" y2="67.069"/>
	
		<line style="fill:none;stroke:#C3C5CA;stroke-width:0.6441;stroke-miterlimit:10;" x1="158.691" y1="180.936" x2="158.691" y2="67.069"/>
	
		<line style="fill:none;stroke:#C3C5CA;stroke-width:0.6441;stroke-miterlimit:10;" x1="172.602" y1="180.936" x2="172.602" y2="67.069"/>
	
		<line style="fill:none;stroke:#C3C5CA;stroke-width:0.6441;stroke-miterlimit:10;" x1="186.51" y1="180.936" x2="186.51" y2="67.069"/>
	
		<line style="fill:none;stroke:#C3C5CA;stroke-width:0.6441;stroke-miterlimit:10;" x1="41.594" y1="150.379" x2="190.905" y2="150.379"/>
	
		<line style="fill:none;stroke:#C3C5CA;stroke-width:0.6441;stroke-miterlimit:10;" x1="41.594" y1="162.832" x2="190.905" y2="162.832"/>
	
		<line style="fill:none;stroke:#C3C5CA;stroke-width:0.6441;stroke-miterlimit:10;" x1="41.594" y1="175.283" x2="190.905" y2="175.283"/>
	<g>
		<path style="fill:#2F2B2F;" d="M39.582,170.775h0.387v4.508H39.35l-0.007-3.961l-0.335,0.245l-0.167-0.29L39.582,170.775z"/>
	</g>
	<g>
		<path style="fill:#2F2B2F;" d="M40.689,159.488c0,0.264-0.077,0.535-0.226,0.747l-1.609,2.356h1.925v0.238H38.03l1.86-2.729
			c0.116-0.167,0.181-0.394,0.181-0.612c0-1.101-1.294-1.101-1.72-0.258l-0.271-0.135C38.539,157.911,40.689,158.047,40.689,159.488
			z"/>
	</g>
	<g>
		<path style="fill:#2F2B2F;" d="M40.738,147.049c0,0.477-0.284,0.889-0.677,1.074c0.399,0.188,0.677,0.605,0.677,1.076
			c0,1.301-2.087,1.629-2.641,0.554l0.316-0.097c0.387,0.766,1.707,0.406,1.707-0.457c0-0.561-0.464-0.934-0.967-0.953h-0.604
			v-0.238h0.431c0.335-0.006,0.625-0.052,0.856-0.283c0.174-0.174,0.284-0.412,0.284-0.676c0-1.031-1.301-1.179-1.765-0.419
			l-0.283-0.091C38.599,145.458,40.738,145.677,40.738,147.049z"/>
	</g>
	<g>
		<path style="fill:#2F2B2F;" d="M38.049,136.761l2.041-3.342h0.387v3.11h0.283v0.231h-0.283v1.165h-0.618v-1.165H38.049z
			 M39.859,134.713l-1.024,1.816h1.024V134.713z"/>
	</g>
	<g>
		<path style="fill:#2F2B2F;" d="M40.36,120.967v0.231h-1.699v1.403h0.683c0.785,0,1.423,0.65,1.423,1.436
			c0,0.786-0.631,1.437-1.423,1.437h-1.301v-0.238h0.914c0.657,0,1.191-0.534,1.191-1.198c0-0.669-0.548-1.197-1.191-1.197h-0.914
			v-1.873H40.36z"/>
	</g>
	<g>
		<path style="fill:#2F2B2F;" d="M40.93,111.682c0,1.829-3.052,1.811-3.052,0.059c0-0.451,0.187-0.792,0.36-1.191l0.889-2.035h0.644
			l-0.798,1.842C39.868,110.207,40.93,110.588,40.93,111.682z M38.496,111.682c0,1.365,1.835,1.365,1.816,0
			C40.312,110.33,38.496,110.291,38.496,111.682z"/>
	</g>
	<g>
		<path style="fill:#2F2B2F;" d="M39.907,96.294h-1.713v-0.231h2.421l-1.385,4.507h-0.631L39.907,96.294z"/>
	</g>
	
		<line style="fill:none;stroke:#C3C5CA;stroke-width:0.6441;stroke-miterlimit:10;" x1="41.594" y1="75.012" x2="190.905" y2="75.012"/>
	
		<line style="fill:none;stroke:#C3C5CA;stroke-width:0.6441;stroke-miterlimit:10;" x1="41.594" y1="87.463" x2="190.905" y2="87.463"/>
	<g>
		<path style="fill:#2F2B2F;" d="M37.878,86.107c0-0.592,0.36-1.088,0.85-1.287c-0.296-0.162-0.502-0.51-0.502-0.883
			c0-1.332,2.356-1.365,2.356,0c0,0.38-0.206,0.721-0.502,0.883c0.496,0.205,0.85,0.695,0.85,1.287
			C40.93,87.904,37.878,87.93,37.878,86.107z M38.496,86.107c0,1.397,1.816,1.397,1.816,0
			C40.312,84.742,38.496,84.697,38.496,86.107z M38.844,83.938c0,0.921,1.12,0.921,1.12,0
			C39.964,83.043,38.844,83.004,38.844,83.938z"/>
	</g>
	<g>
		<path style="fill:#2F2B2F;" d="M39.835,73.167c-0.895,0.148-1.957-0.231-1.957-1.326c0-1.829,3.052-1.81,3.052-0.058
			c0,0.45-0.187,0.791-0.36,1.191l-0.889,2.034h-0.643L39.835,73.167z M40.312,71.841c0-1.365-1.835-1.365-1.816,0
			C38.496,73.193,40.312,73.231,40.312,71.841z"/>
	</g>
	<g>
		<path style="fill:#2F2B2F;" d="M48.204,181.92h0.387v4.508h-0.618l-0.007-3.96l-0.335,0.245l-0.167-0.291L48.204,181.92z"/>
	</g>
	<g>
		<path style="fill:#2F2B2F;" d="M63.12,183.086c0,0.264-0.077,0.534-0.226,0.746l-1.609,2.357h1.925v0.238H60.46l1.86-2.73
			c0.116-0.167,0.181-0.393,0.181-0.611c0-1.102-1.294-1.102-1.72-0.258l-0.27-0.135C60.969,181.508,63.12,181.643,63.12,183.086z"
			/>
	</g>
	<g>
		<path style="fill:#2F2B2F;" d="M76.976,183.099c0,0.477-0.284,0.889-0.677,1.075c0.399,0.188,0.677,0.605,0.677,1.076
			c0,1.301-2.087,1.629-2.641,0.553l0.315-0.096c0.387,0.766,1.707,0.405,1.707-0.457c0-0.561-0.464-0.935-0.967-0.953h-0.604
			v-0.238h0.431c0.335-0.007,0.625-0.052,0.856-0.283c0.174-0.174,0.284-0.412,0.284-0.677c0-1.03-1.301-1.179-1.765-0.419
			l-0.283-0.09C74.837,181.508,76.976,181.727,76.976,183.099z"/>
	</g>
	<g>
		<path style="fill:#2F2B2F;" d="M88.094,185.262l2.041-3.342h0.387v3.11h0.283v0.231h-0.283v1.166h-0.618v-1.166H88.094z
			 M89.904,183.215l-1.024,1.816h1.024V183.215z"/>
	</g>
	<g>
		<path style="fill:#2F2B2F;" d="M104.213,181.92v0.232h-1.7v1.403h0.683c0.785,0,1.423,0.65,1.423,1.437
			c0,0.785-0.631,1.436-1.423,1.436h-1.301v-0.238h0.914c0.657,0,1.191-0.534,1.191-1.197c0-0.67-0.548-1.198-1.191-1.198h-0.914
			v-1.874H104.213z"/>
	</g>
	<g>
		<path style="fill:#2F2B2F;" d="M118.589,185.088c0,1.829-3.052,1.811-3.052,0.059c0-0.451,0.187-0.792,0.36-1.191l0.889-2.035
			h0.644l-0.798,1.842C117.527,183.613,118.589,183.994,118.589,185.088z M116.156,185.088c0,1.365,1.835,1.365,1.815,0
			C117.971,183.736,116.156,183.697,116.156,185.088z"/>
	</g>
	<g>
		<path style="fill:#2F2B2F;" d="M131.373,182.152h-1.713v-0.232h2.421l-1.385,4.508h-0.631L131.373,182.152z"/>
	</g>
	<g>
		<path style="fill:#2F2B2F;" d="M143.254,185.076c0-0.594,0.36-1.089,0.85-1.289c-0.296-0.16-0.502-0.508-0.502-0.882
			c0-1.333,2.356-1.364,2.356,0c0,0.38-0.206,0.722-0.502,0.882c0.496,0.207,0.85,0.695,0.85,1.289
			C146.306,186.872,143.254,186.898,143.254,185.076z M143.872,185.076c0,1.396,1.815,1.396,1.815,0
			C145.688,183.711,143.872,183.666,143.872,185.076z M144.22,182.905c0,0.921,1.12,0.921,1.12,0
			C145.34,182.01,144.22,181.972,144.22,182.905z"/>
	</g>
	<g>
		<path style="fill:#2F2B2F;" d="M159.121,184.586c-0.894,0.148-1.957-0.231-1.957-1.326c0-1.829,3.052-1.81,3.052-0.059
			c0,0.451-0.187,0.793-0.36,1.191l-0.889,2.035h-0.643L159.121,184.586z M159.598,183.26c0-1.365-1.835-1.365-1.815,0
			C157.783,184.611,159.598,184.65,159.598,183.26z"/>
	</g>
	<g>
		<path style="fill:#2F2B2F;" d="M170.937,181.276h0.387v4.507h-0.618l-0.007-3.959l-0.335,0.244l-0.167-0.29L170.937,181.276z"/>
		<path style="fill:#2F2B2F;" d="M173.429,181.25c1.153,0,1.526,1.191,1.526,2.254c0,1.333-0.515,2.293-1.577,2.293
			c-1.037,0-1.539-0.934-1.539-2.26C171.839,182.686,172.148,181.25,173.429,181.25z M173.436,181.617
			c-0.708,0-0.979,0.998-0.979,1.92c0,2.498,1.874,2.427,1.874-0.033C174.331,182.854,174.196,181.617,173.436,181.617z"/>
	</g>
	<polyline style="fill:none;stroke:#98BF13;stroke-width:1.2882;stroke-miterlimit:10;" points="62.778,161.564 89.14,138.641 
		103.051,150.379 116.96,125.476 144.78,162.832 158.692,137.928 172.578,125.476 186.51,100.572 	"/>
	<path style="fill:#EDEEF0;stroke:#98BF13;stroke-width:1.2882;stroke-miterlimit:10;" d="M63.252,162.832
		c0,1.068-0.864,1.932-1.933,1.932c-1.067,0-1.933-0.863-1.933-1.932c0-1.067,0.865-1.933,1.933-1.933
		C62.388,160.899,63.252,161.765,63.252,162.832z"/>
	<path style="fill:#EDEEF0;stroke:#98BF13;stroke-width:1.2882;stroke-miterlimit:10;" d="M91.074,138.641
		c0,1.068-0.866,1.934-1.934,1.934s-1.933-0.865-1.933-1.934c0-1.067,0.865-1.931,1.933-1.931S91.074,137.573,91.074,138.641z"/>
	<path style="fill:#EDEEF0;stroke:#98BF13;stroke-width:1.2882;stroke-miterlimit:10;" d="M104.983,150.379
		c0,1.068-0.865,1.934-1.932,1.934c-1.066,0-1.932-0.865-1.932-1.934c0-1.066,0.865-1.932,1.932-1.932
		C104.118,148.447,104.983,149.313,104.983,150.379z"/>
	<path style="fill:#EDEEF0;stroke:#98BF13;stroke-width:1.2882;stroke-miterlimit:10;" d="M118.892,125.476
		c0,1.067-0.864,1.933-1.932,1.933c-1.068,0-1.933-0.865-1.933-1.933c0-1.067,0.864-1.933,1.933-1.933
		C118.028,123.543,118.892,124.408,118.892,125.476z"/>
	<path style="fill:#EDEEF0;stroke:#98BF13;stroke-width:1.2882;stroke-miterlimit:10;" d="M146.713,162.832
		c0,1.068-0.865,1.932-1.934,1.932c-1.066,0-1.932-0.863-1.932-1.932c0-1.067,0.865-1.933,1.932-1.933
		C145.848,160.899,146.713,161.765,146.713,162.832z"/>
	<path style="fill:#EDEEF0;stroke:#98BF13;stroke-width:1.2882;stroke-miterlimit:10;" d="M160.623,137.928
		c0,1.066-0.864,1.933-1.932,1.933c-1.068,0-1.934-0.866-1.934-1.933c0-1.068,0.865-1.934,1.934-1.934
		C159.759,135.994,160.623,136.859,160.623,137.928z"/>
	<path style="fill:#EDEEF0;stroke:#98BF13;stroke-width:1.2882;stroke-miterlimit:10;" d="M174.508,125.476
		c0,1.067-0.863,1.933-1.931,1.933c-1.067,0-1.933-0.865-1.933-1.933c0-1.067,0.865-1.933,1.933-1.933
		C173.645,123.543,174.508,124.408,174.508,125.476z"/>
	<path style="fill:#EDEEF0;stroke:#98BF13;stroke-width:1.2882;stroke-miterlimit:10;" d="M188.445,100.572
		c0,1.067-0.866,1.932-1.935,1.932c-1.066,0-1.931-0.865-1.931-1.932c0-1.068,0.864-1.933,1.931-1.933
		C187.579,98.639,188.445,99.504,188.445,100.572z"/>
	<polyline style="fill:none;stroke:#E96B00;stroke-width:1.2882;stroke-miterlimit:10;" points="60.846,174.55 75.643,137.928 
		89.14,162.832 103.258,125.476 117.064,113.023 144.78,137.928 158.692,162.832 	"/>
	<path style="fill:#EDEEF0;stroke:#E96B00;stroke-width:1.2882;stroke-miterlimit:10;" d="M62.778,175.283
		c0,1.068-0.865,1.932-1.932,1.932c-1.068,0-1.933-0.863-1.933-1.932c0-1.066,0.865-1.932,1.933-1.932
		C61.913,173.352,62.778,174.217,62.778,175.283z"/>
	<path style="fill:#EDEEF0;stroke:#E96B00;stroke-width:1.2882;stroke-miterlimit:10;" d="M77.575,137.928
		c0,1.066-0.865,1.933-1.932,1.933s-1.933-0.866-1.933-1.933c0-1.068,0.866-1.934,1.933-1.934S77.575,136.859,77.575,137.928z"/>
	<path style="fill:#EDEEF0;stroke:#E96B00;stroke-width:1.2882;stroke-miterlimit:10;" d="M91.074,162.832
		c0,1.068-0.866,1.932-1.934,1.932s-1.933-0.863-1.933-1.932c0-1.067,0.865-1.933,1.933-1.933S91.074,161.765,91.074,162.832z"/>
	<path style="fill:#EDEEF0;stroke:#E96B00;stroke-width:1.2882;stroke-miterlimit:10;" d="M105.188,125.476
		c0,1.067-0.863,1.933-1.93,1.933c-1.067,0-1.934-0.865-1.934-1.933c0-1.067,0.866-1.933,1.934-1.933
		C104.325,123.543,105.188,124.408,105.188,125.476z"/>
	<path style="fill:#EDEEF0;stroke:#E96B00;stroke-width:1.2882;stroke-miterlimit:10;" d="M118.996,113.023
		c0,1.066-0.865,1.932-1.933,1.932s-1.933-0.865-1.933-1.932s0.865-1.933,1.933-1.933S118.996,111.957,118.996,113.023z"/>
	<path style="fill:#EDEEF0;stroke:#E96B00;stroke-width:1.2882;stroke-miterlimit:10;" d="M146.713,137.928
		c0,1.066-0.865,1.933-1.934,1.933c-1.066,0-1.932-0.866-1.932-1.933c0-1.068,0.865-1.934,1.932-1.934
		C145.848,135.994,146.713,136.859,146.713,137.928z"/>
	<path style="fill:#EDEEF0;stroke:#E96B00;stroke-width:1.2882;stroke-miterlimit:10;" d="M160.623,162.832
		c0,1.068-0.864,1.932-1.932,1.932c-1.068,0-1.934-0.863-1.934-1.932c0-1.067,0.865-1.933,1.934-1.933
		C159.759,160.899,160.623,161.765,160.623,162.832z"/>
	<polyline style="fill:none;stroke:#B04A65;stroke-width:1.2882;stroke-miterlimit:10;" points="47.871,150.379 60.846,138.641 
		61.32,113.023 89.14,125.476 103.051,100.572 130.871,100.572 158.692,125.476 172.578,87.463 	"/>
	<path style="fill:#EDEEF0;stroke:#B04A65;stroke-width:1.2882;stroke-miterlimit:10;" d="M49.802,150.379
		c0,1.068-0.864,1.934-1.931,1.934c-1.068,0-1.934-0.865-1.934-1.934c0-1.066,0.865-1.932,1.934-1.932
		C48.938,148.447,49.802,149.313,49.802,150.379z"/>
	<path style="fill:#EDEEF0;stroke:#B04A65;stroke-width:1.2882;stroke-miterlimit:10;" d="M62.778,138.641
		c0,1.068-0.865,1.934-1.932,1.934c-1.068,0-1.933-0.865-1.933-1.934c0-1.067,0.865-1.931,1.933-1.931
		C61.913,136.71,62.778,137.573,62.778,138.641z"/>
	<path style="fill:#EDEEF0;stroke:#B04A65;stroke-width:1.2882;stroke-miterlimit:10;" d="M63.252,113.023
		c0,1.066-0.864,1.932-1.933,1.932c-1.067,0-1.933-0.865-1.933-1.932s0.865-1.933,1.933-1.933
		C62.388,111.091,63.252,111.957,63.252,113.023z"/>
	<path style="fill:#EDEEF0;stroke:#B04A65;stroke-width:1.2882;stroke-miterlimit:10;" d="M91.074,125.476
		c0,1.067-0.866,1.933-1.934,1.933s-1.933-0.865-1.933-1.933c0-1.067,0.865-1.933,1.933-1.933S91.074,124.408,91.074,125.476z"/>
	<path style="fill:#EDEEF0;stroke:#B04A65;stroke-width:1.2882;stroke-miterlimit:10;" d="M104.983,100.572
		c0,1.067-0.865,1.932-1.932,1.932c-1.066,0-1.932-0.865-1.932-1.932c0-1.068,0.865-1.933,1.932-1.933
		C104.118,98.639,104.983,99.504,104.983,100.572z"/>
	<path style="fill:#EDEEF0;stroke:#B04A65;stroke-width:1.2882;stroke-miterlimit:10;" d="M132.803,100.572
		c0,1.067-0.865,1.932-1.932,1.932c-1.068,0-1.933-0.865-1.933-1.932c0-1.068,0.864-1.933,1.933-1.933
		C131.938,98.639,132.803,99.504,132.803,100.572z"/>
	<path style="fill:#EDEEF0;stroke:#B04A65;stroke-width:1.2882;stroke-miterlimit:10;" d="M160.623,125.476
		c0,1.067-0.864,1.933-1.932,1.933c-1.068,0-1.934-0.865-1.934-1.933c0-1.067,0.865-1.933,1.934-1.933
		C159.759,123.543,160.623,124.408,160.623,125.476z"/>
	<path style="fill:#EDEEF0;stroke:#B04A65;stroke-width:1.2882;stroke-miterlimit:10;" d="M174.508,87.463
		c0,1.068-0.863,1.934-1.931,1.934c-1.067,0-1.933-0.865-1.933-1.934c0-1.067,0.865-1.933,1.933-1.933
		C173.645,85.53,174.508,86.396,174.508,87.463z"/>
</g>
<g>
	<rect x="37.233" y="240.326" style="fill:#003751;" width="90.76" height="13.738"/>
	<rect x="37.233" y="219.643" style="fill:#F6B63E;" width="54.887" height="13.736"/>
	<rect x="37.233" y="259.107" style="fill:#E76C33;" width="112.291" height="13.738"/>
	<rect x="37.233" y="277.535" style="fill:#ABC600;" width="141.4" height="13.734"/>
	<g>
		<path style="fill:#434041;" d="M132.128,251.567l2.639-6.979h-2.519v-1.38h4.569l-3.034,8.358H132.128z"/>
		<path style="fill:#434041;" d="M141.626,247.393c0,1.386-0.196,2.445-0.587,3.178c-0.391,0.732-0.953,1.1-1.686,1.1
			c-0.737,0-1.301-0.367-1.692-1.1c-0.391-0.732-0.587-1.792-0.587-3.178c0-1.396,0.195-2.462,0.584-3.194
			c0.39-0.732,0.954-1.1,1.695-1.1c0.736,0,1.3,0.367,1.689,1.1C141.431,244.932,141.626,245.997,141.626,247.393z M138.66,247.405
			c0,1.061,0.052,1.785,0.155,2.173c0.103,0.388,0.282,0.581,0.538,0.581c0.248,0,0.423-0.191,0.524-0.572
			c0.101-0.382,0.152-1.109,0.152-2.182c0-1.092-0.051-1.829-0.152-2.213c-0.101-0.384-0.276-0.575-0.524-0.575
			c-0.256,0-0.435,0.195-0.538,0.587C138.712,245.595,138.66,246.329,138.66,247.405z"/>
		<path style="fill:#434041;" d="M145.679,245.625c0,0.816-0.142,1.439-0.427,1.866c-0.284,0.428-0.695,0.641-1.233,0.641
			c-0.539,0-0.951-0.214-1.237-0.644c-0.286-0.43-0.429-1.051-0.429-1.863c0-0.817,0.142-1.442,0.426-1.875
			c0.284-0.434,0.698-0.65,1.24-0.65c0.538,0,0.949,0.217,1.233,0.65C145.537,244.183,145.679,244.808,145.679,245.625z
			 M143.509,245.602c0,0.566,0.038,0.949,0.115,1.151c0.076,0.202,0.208,0.303,0.395,0.303c0.179,0,0.306-0.102,0.38-0.306
			c0.075-0.204,0.112-0.587,0.112-1.148c0-0.584-0.036-0.974-0.109-1.171c-0.072-0.196-0.2-0.295-0.383-0.295
			c-0.187,0-0.319,0.105-0.395,0.313C143.547,244.656,143.509,245.041,143.509,245.602z M144.133,251.671l4.151-8.571h0.927
			l-4.128,8.571H144.133z M151.026,249.163c0,0.816-0.142,1.438-0.426,1.866c-0.285,0.428-0.698,0.642-1.24,0.642
			c-0.534,0-0.945-0.215-1.231-0.645c-0.286-0.43-0.429-1.051-0.429-1.863c0-0.817,0.142-1.441,0.426-1.872
			c0.285-0.432,0.696-0.648,1.234-0.648c0.542,0,0.955,0.215,1.24,0.645C150.884,247.717,151.026,248.342,151.026,249.163z
			 M148.868,249.174c0,0.577,0.036,0.963,0.108,1.16c0.073,0.196,0.201,0.295,0.384,0.295c0.187,0,0.318-0.105,0.392-0.313
			c0.075-0.208,0.112-0.589,0.112-1.143c0-0.572-0.037-0.961-0.112-1.167c-0.074-0.207-0.205-0.31-0.392-0.31
			c-0.179,0-0.306,0.103-0.381,0.31C148.905,248.213,148.868,248.602,148.868,249.174z"/>
	</g>
	<g>
		<path style="fill:#434041;" d="M99.357,230.636v-2.072h-2.404v-1.26l2.192-5.026h1.609v5.026h0.681v1.26h-0.681v2.072H99.357z
			 M98.023,227.304h1.392v-2.364c0-0.072,0.003-0.181,0.011-0.323c0.008-0.144,0.025-0.408,0.052-0.793
			c-0.096,0.324-0.191,0.623-0.287,0.896c-0.095,0.273-0.189,0.507-0.28,0.701L98.023,227.304z"/>
		<path style="fill:#434041;" d="M102.099,230.412l0.212-1.511c0.206,0.122,0.412,0.215,0.618,0.277
			c0.206,0.063,0.403,0.095,0.59,0.095c0.416,0,0.737-0.116,0.962-0.35c0.225-0.232,0.338-0.564,0.338-0.996
			c0-0.5-0.174-0.883-0.521-1.147c-0.348-0.266-0.85-0.398-1.506-0.398c-0.073,0-0.185,0.006-0.338,0.018
			c-0.034,0-0.063,0.002-0.086,0.006l0.579-4.128h3.257v1.42h-2.095l-0.212,1.522h0.057c0.786,0,1.401,0.227,1.844,0.679
			c0.442,0.452,0.664,1.077,0.664,1.875c0,0.912-0.246,1.634-0.736,2.167c-0.49,0.532-1.159,0.799-2.006,0.799
			c-0.317,0-0.607-0.027-0.871-0.081C102.586,230.605,102.336,230.523,102.099,230.412z"/>
		<path style="fill:#434041;" d="M110.681,224.693c0,0.816-0.142,1.439-0.427,1.866c-0.284,0.428-0.695,0.641-1.233,0.641
			c-0.538,0-0.951-0.214-1.237-0.644c-0.286-0.43-0.429-1.051-0.429-1.863c0-0.817,0.142-1.442,0.426-1.875
			c0.284-0.434,0.698-0.65,1.24-0.65c0.538,0,0.949,0.217,1.233,0.65C110.539,223.251,110.681,223.876,110.681,224.693z
			 M108.511,224.67c0,0.565,0.038,0.949,0.115,1.151c0.076,0.202,0.208,0.303,0.395,0.303c0.179,0,0.306-0.102,0.38-0.306
			c0.075-0.204,0.112-0.587,0.112-1.148c0-0.584-0.036-0.974-0.109-1.171c-0.072-0.196-0.2-0.295-0.383-0.295
			c-0.187,0-0.319,0.104-0.395,0.313C108.549,223.725,108.511,224.109,108.511,224.67z M109.135,230.739l4.151-8.571h0.927
			l-4.128,8.571H109.135z M116.028,228.231c0,0.816-0.142,1.439-0.426,1.866c-0.285,0.428-0.698,0.642-1.24,0.642
			c-0.534,0-0.945-0.215-1.231-0.645c-0.286-0.43-0.429-1.051-0.429-1.863c0-0.817,0.142-1.441,0.426-1.872
			c0.285-0.432,0.696-0.648,1.234-0.648c0.542,0,0.955,0.215,1.24,0.645C115.886,226.785,116.028,227.41,116.028,228.231z
			 M113.87,228.242c0,0.577,0.036,0.963,0.108,1.16c0.073,0.196,0.201,0.295,0.384,0.295c0.187,0,0.318-0.104,0.392-0.313
			c0.075-0.208,0.112-0.589,0.112-1.143c0-0.572-0.037-0.961-0.112-1.167c-0.074-0.207-0.205-0.31-0.392-0.31
			c-0.179,0-0.306,0.103-0.381,0.31C113.907,227.281,113.87,227.67,113.87,228.242z"/>
	</g>
	<g>
		<path style="fill:#434041;" d="M155.322,266.327v-0.068c-0.344-0.084-0.606-0.278-0.788-0.581c-0.181-0.304-0.271-0.7-0.271-1.189
			c0-0.668,0.173-1.183,0.521-1.546c0.348-0.362,0.844-0.544,1.489-0.544c0.641,0,1.135,0.182,1.483,0.544
			c0.347,0.363,0.521,0.878,0.521,1.546c0,0.485-0.092,0.88-0.275,1.186c-0.183,0.305-0.445,0.5-0.784,0.584v0.068
			c0.416,0.114,0.735,0.36,0.959,0.738c0.223,0.378,0.335,0.863,0.335,1.454c0,0.768-0.198,1.368-0.595,1.801
			c-0.397,0.434-0.945,0.65-1.643,0.65c-0.702,0-1.252-0.217-1.649-0.65c-0.397-0.433-0.595-1.033-0.595-1.801
			c0-0.591,0.11-1.076,0.332-1.454C154.581,266.688,154.902,266.441,155.322,266.327z M156.272,267.141
			c-0.229,0-0.4,0.095-0.512,0.286c-0.113,0.19-0.169,0.477-0.169,0.858c0,0.416,0.055,0.724,0.166,0.922
			c0.11,0.198,0.282,0.298,0.515,0.298c0.229,0,0.399-0.097,0.51-0.289c0.11-0.193,0.166-0.49,0.166-0.891s-0.056-0.698-0.166-0.894
			C156.671,267.237,156.501,267.141,156.272,267.141z M156.261,263.705c-0.191,0-0.332,0.068-0.421,0.206
			c-0.09,0.138-0.135,0.353-0.135,0.647c0,0.351,0.044,0.601,0.132,0.75c0.088,0.148,0.233,0.223,0.435,0.223
			c0.195,0,0.337-0.071,0.426-0.215c0.09-0.143,0.135-0.377,0.135-0.701c0-0.313-0.047-0.543-0.14-0.689
			C156.6,263.778,156.455,263.705,156.261,263.705z"/>
		<path style="fill:#434041;" d="M159.175,270.643l0.212-1.511c0.206,0.122,0.412,0.215,0.618,0.277
			c0.207,0.063,0.403,0.095,0.59,0.095c0.416,0,0.737-0.116,0.962-0.35c0.225-0.233,0.338-0.565,0.338-0.996
			c0-0.5-0.174-0.883-0.521-1.148c-0.348-0.266-0.85-0.398-1.506-0.398c-0.073,0-0.185,0.006-0.338,0.017
			c-0.034,0-0.063,0.002-0.086,0.006l0.579-4.128h3.257v1.42h-2.095l-0.212,1.522h0.057c0.786,0,1.401,0.227,1.844,0.679
			c0.442,0.452,0.664,1.077,0.664,1.875c0,0.912-0.246,1.634-0.736,2.167c-0.49,0.532-1.159,0.799-2.006,0.799
			c-0.317,0-0.607-0.027-0.871-0.081C159.662,270.837,159.412,270.755,159.175,270.643z"/>
		<path style="fill:#434041;" d="M167.757,264.925c0,0.816-0.142,1.439-0.427,1.866c-0.284,0.428-0.695,0.641-1.233,0.641
			c-0.539,0-0.951-0.214-1.237-0.644c-0.286-0.43-0.429-1.051-0.429-1.863c0-0.817,0.142-1.442,0.426-1.875
			c0.284-0.434,0.698-0.65,1.24-0.65c0.538,0,0.949,0.217,1.233,0.65C167.615,263.482,167.757,264.107,167.757,264.925z
			 M165.587,264.901c0,0.565,0.038,0.949,0.115,1.151c0.076,0.202,0.208,0.303,0.395,0.303c0.179,0,0.306-0.102,0.38-0.306
			c0.075-0.204,0.112-0.587,0.112-1.148c0-0.584-0.036-0.974-0.109-1.171c-0.072-0.196-0.2-0.295-0.383-0.295
			c-0.187,0-0.319,0.105-0.395,0.313C165.625,263.956,165.587,264.341,165.587,264.901z M166.211,270.971l4.151-8.571h0.927
			l-4.128,8.571H166.211z M173.104,268.463c0,0.816-0.142,1.438-0.426,1.866c-0.285,0.428-0.698,0.642-1.24,0.642
			c-0.534,0-0.945-0.215-1.231-0.645c-0.286-0.43-0.429-1.051-0.429-1.863c0-0.817,0.142-1.441,0.426-1.872
			c0.285-0.432,0.696-0.647,1.234-0.647c0.542,0,0.955,0.215,1.24,0.645C172.962,267.017,173.104,267.642,173.104,268.463z
			 M170.946,268.474c0,0.577,0.036,0.963,0.108,1.16c0.073,0.196,0.201,0.295,0.384,0.295c0.187,0,0.318-0.105,0.392-0.313
			c0.075-0.208,0.112-0.589,0.112-1.143c0-0.572-0.037-0.961-0.112-1.167c-0.074-0.207-0.205-0.31-0.392-0.31
			c-0.179,0-0.306,0.103-0.381,0.31C170.983,267.513,170.946,267.901,170.946,268.474z"/>
	</g>
	<g>
		<path style="fill:#434041;" d="M184.619,289.185v-6.979h-0.796v-1.38h2.399v8.358H184.619z"/>
		<path style="fill:#434041;" d="M192.708,285.011c0,1.386-0.196,2.445-0.587,3.178c-0.391,0.732-0.953,1.1-1.686,1.1
			c-0.737,0-1.301-0.367-1.692-1.1c-0.391-0.733-0.587-1.792-0.587-3.178c0-1.397,0.195-2.462,0.584-3.194
			c0.39-0.732,0.954-1.1,1.695-1.1c0.736,0,1.3,0.367,1.689,1.1C192.514,282.549,192.708,283.614,192.708,285.011z M189.743,285.022
			c0,1.062,0.052,1.785,0.155,2.173c0.103,0.388,0.282,0.581,0.538,0.581c0.248,0,0.423-0.191,0.524-0.572
			c0.101-0.382,0.152-1.109,0.152-2.182c0-1.092-0.051-1.829-0.152-2.213c-0.101-0.384-0.276-0.575-0.524-0.575
			c-0.256,0-0.435,0.195-0.538,0.587C189.794,283.212,189.743,283.946,189.743,285.022z"/>
		<path style="fill:#434041;" d="M197.867,285.011c0,1.386-0.196,2.445-0.587,3.178c-0.391,0.732-0.953,1.1-1.686,1.1
			c-0.737,0-1.301-0.367-1.692-1.1c-0.391-0.733-0.587-1.792-0.587-3.178c0-1.397,0.195-2.462,0.584-3.194
			c0.39-0.732,0.954-1.1,1.695-1.1c0.736,0,1.3,0.367,1.689,1.1C197.672,282.549,197.867,283.614,197.867,285.011z M194.901,285.022
			c0,1.062,0.052,1.785,0.155,2.173c0.103,0.388,0.282,0.581,0.538,0.581c0.248,0,0.423-0.191,0.524-0.572
			c0.101-0.382,0.152-1.109,0.152-2.182c0-1.092-0.051-1.829-0.152-2.213c-0.101-0.384-0.276-0.575-0.524-0.575
			c-0.256,0-0.435,0.195-0.538,0.587C194.953,283.212,194.901,283.946,194.901,285.022z"/>
		<path style="fill:#434041;" d="M201.92,283.242c0,0.816-0.142,1.438-0.427,1.866c-0.284,0.428-0.695,0.641-1.233,0.641
			c-0.539,0-0.951-0.214-1.237-0.644c-0.286-0.43-0.429-1.051-0.429-1.863c0-0.817,0.142-1.442,0.426-1.875
			c0.284-0.434,0.698-0.65,1.24-0.65c0.538,0,0.949,0.217,1.233,0.65C201.778,281.8,201.92,282.425,201.92,283.242z M199.75,283.219
			c0,0.566,0.038,0.949,0.115,1.151c0.076,0.202,0.208,0.303,0.395,0.303c0.179,0,0.306-0.102,0.38-0.306
			c0.075-0.204,0.112-0.587,0.112-1.148c0-0.584-0.036-0.974-0.109-1.171c-0.072-0.196-0.2-0.295-0.383-0.295
			c-0.187,0-0.319,0.104-0.395,0.313C199.788,282.273,199.75,282.658,199.75,283.219z M200.374,289.288l4.151-8.571h0.927
			l-4.128,8.571H200.374z M207.268,286.78c0,0.816-0.142,1.438-0.426,1.866c-0.285,0.428-0.698,0.642-1.24,0.642
			c-0.534,0-0.945-0.215-1.231-0.645c-0.286-0.43-0.429-1.051-0.429-1.863c0-0.817,0.142-1.441,0.426-1.872
			c0.285-0.432,0.696-0.647,1.234-0.647c0.542,0,0.955,0.215,1.24,0.645C207.125,285.334,207.268,285.959,207.268,286.78z
			 M205.109,286.791c0,0.577,0.036,0.963,0.108,1.16c0.073,0.196,0.201,0.295,0.384,0.295c0.187,0,0.318-0.104,0.392-0.313
			c0.075-0.208,0.112-0.589,0.112-1.143c0-0.572-0.037-0.961-0.112-1.167c-0.074-0.207-0.205-0.31-0.392-0.31
			c-0.179,0-0.306,0.103-0.381,0.31C205.146,285.83,205.109,286.219,205.109,286.791z"/>
	</g>
</g>
</svg>
