<?xml version="1.0" encoding="utf-8"?>
<!-- Generator: Adobe Illustrator 27.5.0, SVG Export Plug-In . SVG Version: 6.00 Build 0)  -->
<svg version="1.1" xmlns="http://www.w3.org/2000/svg" xmlns:xlink="http://www.w3.org/1999/xlink" x="0px" y="0px"
	 viewBox="0 0 500 500" style="enable-background:new 0 0 500 500;" xml:space="preserve">
<g id="Floor">
	<g id="XMLID_19212_">
		<path id="XMLID_19213_" style="fill:#F0F0F0;" d="M91.744,400.912c88.491,46.227,231.963,46.228,320.454,0.001
			c88.49-46.229,88.49-121.181,0-167.408c-88.491-46.229-231.964-46.229-320.455-0.001C3.252,279.731,3.252,354.684,91.744,400.912z
			"/>
	</g>
</g>
<g id="Shadow">
	<path id="XMLID_18686_" style="fill:#E0E0E0;" d="M211.348,402.488L89.344,331.514c-2.185-1.271-2.185-3.332,0-4.603
		l218.512-127.117c2.186-1.271,5.729-1.271,7.913,0l122.002,70.974c2.186,1.271,2.186,3.333,0,4.604L219.261,402.488
		C217.076,403.759,213.533,403.759,211.348,402.488z"/>
	<path id="XMLID_19053_" style="fill:#E0E0E0;" d="M77.196,372.004c14.201,6.77,37.223,6.77,51.423,0
		c14.201-6.767,14.201-17.74,0-24.509c-14.2-6.768-37.223-6.768-51.423,0C62.996,354.264,62.996,365.237,77.196,372.004z"/>
</g>
<g id="Plants">
	<g id="XMLID_18676_">
		<g id="XMLID_831_">
			<g>
				<path id="XMLID_830_" style="fill:#27DEBF;" d="M388.268,235.417c1.881-6.253,5.49-25.121,1.982-38.649
					c-2.698-10.408-9.363-19.026-17.041-21.4c-7.678-2.373-11.903,7.259-7.033,13.759c12.435,16.595,17.712,30.49,14.923,42.213
					L388.268,235.417z"/>
				<path id="XMLID_4_" style="opacity:0.1;" d="M388.268,235.417c1.881-6.253,5.49-25.121,1.982-38.649
					c-2.698-10.408-9.363-19.026-17.041-21.4c-7.678-2.373-11.903,7.259-7.033,13.759c12.435,16.595,17.712,30.49,14.923,42.213
					L388.268,235.417z"/>
			</g>
			<path id="XMLID_832_" style="fill:none;stroke:#FAFAFA;stroke-linecap:round;stroke-miterlimit:10;" d="M373.212,180.644
				c4.135,3.639,19.122,23.83,12.543,53.344"/>
		</g>
		<g id="XMLID_826_">
			<path id="XMLID_18987_" style="fill:#27DEBF;" d="M415.47,248.342c3.963-0.475,8.982-1.729,11.391-6.576
				c2.409-4.848-4.71-8.958-4.575-13.037c0.136-4.079,4.223-5.876,8.566-7.526c4.342-1.65,8.612-7.499,5.012-11.656
				c-3.6-4.157-7.366-9.396-3.6-14.55c3.767-5.154,10.379-10.142,4.277-13.231c-7.654-3.874-15.47,5.143-21.07,8.376
				c-5.6,3.233-12.571-1.706-17.689,3.653c-5.119,5.359,4.553,12.245-1.519,17.83c-6.073,5.585-14.399,6.737-10.799,18.957
				L415.47,248.342z"/>
			<path id="XMLID_827_" style="fill:none;stroke:#FAFAFA;stroke-linecap:round;stroke-miterlimit:10;" d="M432.697,184.354
				c-5.366,2.565-29.017,28.637-32.834,54.543"/>
			<path id="XMLID_828_" style="fill:none;stroke:#FAFAFA;stroke-linecap:round;stroke-miterlimit:10;" d="M404.759,196.825
				c0,0,5.93,6.385,7.312,11.535"/>
			<path id="XMLID_829_" style="fill:none;stroke:#FAFAFA;stroke-linecap:round;stroke-miterlimit:10;" d="M429.355,213.453
				c-4.969-0.688-16.939-1.017-21.851,2.958"/>
		</g>
	</g>
</g>
<g id="Map">
	<g id="XMLID_18932_">
		<g id="XMLID_18954_">
			<polygon id="XMLID_17204_" style="fill:#455A64;" points="259.426,363.134 212.803,375.694 102.626,312.086 149.25,299.525 			
				"/>
			<polygon id="XMLID_17205_" style="fill:#455A64;" points="267.021,367.52 210.035,382.877 84.66,310.496 141.647,295.139 
				149.25,299.525 102.626,312.086 212.803,375.694 259.426,363.134 			"/>
		</g>
		<g id="XMLID_18936_">
			<polygon id="XMLID_17233_" style="fill:#37474F;" points="312.616,314.882 259.426,363.134 149.25,299.525 202.44,251.273 			"/>
			<polygon id="XMLID_17252_" style="fill:#37474F;" points="320.211,319.269 267.021,367.52 259.426,363.134 312.616,314.882 			
				"/>
			<polygon id="XMLID_17258_" style="fill:#37474F;" points="202.44,251.273 149.25,299.525 141.647,295.139 194.836,246.887 			"/>
		</g>
		<g id="XMLID_18934_">
			<polygon id="XMLID_18183_" style="fill:#37474F;" points="420.585,254.388 369.602,299.525 259.426,235.916 310.408,190.78 			
				"/>
			<polygon id="XMLID_18189_" style="fill:#37474F;" points="434.184,253.462 377.197,303.911 369.602,299.525 420.585,254.388 
				310.408,190.78 259.426,235.916 251.823,231.53 308.809,181.081 			"/>
		</g>
		<g id="XMLID_18935_">
			<polygon id="XMLID_18182_" style="fill:#455A64;" points="369.602,299.525 312.616,314.882 202.44,251.273 259.426,235.916 			
				"/>
			<polygon id="XMLID_17256_" style="fill:#455A64;" points="259.426,235.916 202.44,251.273 194.836,246.887 251.823,231.53 			"/>
			<polygon id="XMLID_17253_" style="fill:#455A64;" points="377.197,303.911 320.211,319.269 312.616,314.882 369.602,299.525 			
				"/>
		</g>
		<g id="XMLID_18194_">
			<polygon id="XMLID_18908_" style="fill:#263238;" points="310.413,190.778 301.215,198.921 305.014,222.756 350.716,214.047 			
				"/>
			<path id="XMLID_18922_" style="fill:#263238;" d="M386.532,234.728c-4.546,7.707-11.43,13.394-18.547,17.396l-20.099-31.743
				l10.316-2.011L386.532,234.728z"/>
			<path id="XMLID_18921_" style="fill:#263238;" d="M361.456,255.342c-7.37,3.152-14.319,4.592-18.453,4.705
				c-2.46,0.065-4.78-0.028-6.968-0.271l-7.323-35.653l11.7-2.282L361.456,255.342z"/>
			<path id="XMLID_18923_" style="fill:#263238;" d="M328.534,258.401c-9.568-2.525-15.777-7.342-19.341-9.68l-3.254-20.155
				l16.171-3.152L328.534,258.401z"/>
			<path id="XMLID_18810_" style="fill:#263238;" d="M391.508,237.598c-11.195,18.694-36.52,28.01-48.502,27.417
				c0,0-2.199,0.34,0.001,1.609c2.199,1.271,22.795,13.162,22.795,13.162l33.793-6.812l20.995-18.586L391.508,237.598z"/>
			<polygon id="XMLID_18809_" style="fill:#263238;" points="392.395,279.347 372.06,283.399 381.598,288.906 			"/>
			<polygon id="XMLID_18916_" style="fill:#263238;" points="301.215,246.887 289.814,253.462 259.426,235.916 295.417,204.051 			
				"/>
			<path id="XMLID_18924_" style="fill:#263238;" d="M375.598,294.212l-5.995,5.312l-53.19-30.705
				c-0.673-4.779,1.123-8.127,3.798-6.584C322.885,263.787,375.598,294.212,375.598,294.212z"/>
			<path id="XMLID_18912_" style="fill:#263238;" d="M308.809,264.433l-12.616-7.286l7.8-4.275c2.619,1.515,8.37,4.976,8.37,4.976
				S308.248,260.944,308.809,264.433z"/>
		</g>
		<g id="XMLID_18195_">
			<polygon id="XMLID_18928_" style="fill:#37474F;" points="254.732,262.918 232.827,268.819 202.44,251.273 226.551,244.773 			
				"/>
			<polygon id="XMLID_18925_" style="fill:#37474F;" points="246.697,239.349 242.143,247.542 234.52,242.632 			"/>
			<polygon id="XMLID_18926_" style="fill:#37474F;" points="289.814,253.462 262.691,260.767 248.007,251.32 248.007,251.311 
				256.022,236.833 259.426,235.916 			"/>
			<path id="XMLID_18900_" style="fill:#37474F;" d="M369.602,299.525l-14.244,3.844c0,0,0,0-0.009,0
				c-0.505-0.066-14.366-1.815-18.238-2.638c-3.938-0.832-6.445-1.749-8.502-5.592c-2.067-3.844-12.196-26.319-12.196-26.319
				L369.602,299.525z"/>
			<polygon id="XMLID_18811_" style="fill:#37474F;" points="324.007,300.245 268.377,264.433 296.193,257.147 308.809,264.433 			
				"/>
			<polygon id="XMLID_18906_" style="fill:#37474F;" points="308.192,297.336 289.814,301.723 238.701,272.215 238.72,272.196 
				260.353,266.529 			"/>
			<polygon id="XMLID_18911_" style="fill:#37474F;" points="328.712,310.543 312.616,314.882 297.418,306.109 315.226,301.854 			
				"/>
			<polygon id="XMLID_17164_" style="fill:#37474F;" points="343.004,306.694 329.866,304.919 335.82,308.629 			"/>
		</g>
		<g id="XMLID_18196_">
			<polygon id="XMLID_18808_" style="fill:#263238;" points="312.616,314.882 290.852,334.617 268.377,332.428 273.046,314.453 
				297.418,306.109 			"/>
			<polygon id="XMLID_18956_" style="fill:#263238;" points="210.39,288.067 177.805,316.013 149.25,299.525 152.72,296.383 
				166.282,296.738 189.365,283.737 			"/>
			<polygon id="XMLID_18905_" style="fill:#263238;" points="289.814,301.723 270.818,308.297 226.655,282.793 238.701,272.215 			
				"/>
			<polygon id="XMLID_18927_" style="fill:#263238;" points="232.827,268.819 216.049,283.214 201.121,279.781 202.44,251.273 			
				"/>
			<polygon id="XMLID_18907_" style="fill:#263238;" points="195.182,257.858 194.247,278.575 187.251,277.593 184.333,279.267 
				181.312,270.438 			"/>
			<polygon id="XMLID_18955_" style="fill:#263238;" points="177.459,283.242 165.702,290.023 159.492,290.237 175.018,276.152 			
				"/>
			<polygon id="XMLID_18966_" style="fill:#263238;" points="262.759,312.418 225.232,325.848 196.51,309.261 220.622,288.086 			
				"/>
			<polygon id="XMLID_18704_" style="fill:#263238;" points="264.599,317.875 252.665,359.234 228.31,345.176 228.31,345.167 
				225.233,331.988 			"/>
			<polygon id="XMLID_18929_" style="fill:#263238;" points="284.277,340.584 269.125,354.333 260.67,362.002 266.657,339.013 			
				"/>
			<polygon id="XMLID_18959_" style="fill:#263238;" points="222.062,341.201 221.941,341.491 208.585,333.784 219.499,332.428 			
				"/>
			<polygon id="XMLID_18961_" style="fill:#263238;" points="216.684,327.556 201.785,329.856 201.776,329.856 184.454,319.858 
				191.46,313.704 			"/>
		</g>
		<g id="XMLID_18975_" style="opacity:0.2;">
			<polygon id="XMLID_18984_" style="fill:#263238;" points="310.413,190.778 301.215,198.921 305.014,222.756 350.716,214.047 			
				"/>
			<path id="XMLID_18983_" style="fill:#263238;" d="M386.532,234.728c-4.546,7.707-11.43,13.394-18.547,17.396l-20.099-31.743
				l10.316-2.011L386.532,234.728z"/>
			<path id="XMLID_18982_" style="fill:#263238;" d="M361.456,255.342c-7.37,3.152-14.319,4.592-18.453,4.705
				c-2.46,0.065-4.78-0.028-6.968-0.271l-7.323-35.653l11.7-2.282L361.456,255.342z"/>
			<path id="XMLID_18981_" style="fill:#263238;" d="M328.534,258.401c-9.568-2.525-15.777-7.342-19.341-9.68l-3.254-20.155
				l16.171-3.152L328.534,258.401z"/>
			<path id="XMLID_18980_" style="fill:#263238;" d="M391.508,237.598c-11.195,18.694-36.52,28.01-48.502,27.417
				c0,0-2.199,0.34,0.001,1.609c2.199,1.271,22.795,13.162,22.795,13.162l33.793-6.812l20.995-18.586L391.508,237.598z"/>
			<polygon id="XMLID_18979_" style="fill:#263238;" points="392.395,279.347 372.06,283.399 381.598,288.906 			"/>
			<polygon id="XMLID_18978_" style="fill:#263238;" points="301.215,246.887 289.814,253.462 259.426,235.916 295.417,204.051 			
				"/>
			<path id="XMLID_18977_" style="fill:#263238;" d="M375.598,294.212l-5.995,5.312l-53.19-30.705
				c-0.673-4.779,1.123-8.127,3.798-6.584C322.885,263.787,375.598,294.212,375.598,294.212z"/>
			<path id="XMLID_18976_" style="fill:#263238;" d="M308.809,264.433l-12.616-7.286l7.8-4.275c2.619,1.515,8.37,4.976,8.37,4.976
				S308.248,260.944,308.809,264.433z"/>
		</g>
		<g id="XMLID_18957_" style="opacity:0.2;">
			<polygon id="XMLID_18974_" style="fill:#263238;" points="312.616,314.882 290.852,334.617 268.377,332.428 273.046,314.453 
				297.418,306.109 			"/>
			<polygon id="XMLID_18973_" style="fill:#263238;" points="210.39,288.067 177.805,316.013 149.25,299.525 152.72,296.383 
				166.282,296.738 189.365,283.737 			"/>
			<polygon id="XMLID_18972_" style="fill:#263238;" points="289.814,301.723 270.818,308.297 226.655,282.793 238.701,272.215 			
				"/>
			<polygon id="XMLID_18971_" style="fill:#263238;" points="232.827,268.819 216.049,283.214 201.121,279.781 202.44,251.273 			
				"/>
			<polygon id="XMLID_18970_" style="fill:#263238;" points="195.182,257.858 194.247,278.575 187.251,277.593 184.333,279.267 
				181.312,270.438 			"/>
			<polygon id="XMLID_18969_" style="fill:#263238;" points="177.459,283.242 165.702,290.023 159.492,290.237 175.018,276.152 			
				"/>
			<polygon id="XMLID_18965_" style="fill:#263238;" points="262.759,312.418 225.232,325.848 196.51,309.261 220.622,288.086 			
				"/>
			<polygon id="XMLID_18963_" style="fill:#263238;" points="264.599,317.875 252.665,359.234 228.31,345.176 228.31,345.167 
				225.233,331.988 			"/>
			<polygon id="XMLID_18962_" style="fill:#263238;" points="284.277,340.584 269.125,354.333 260.67,362.002 266.657,339.013 			
				"/>
			<polygon id="XMLID_18960_" style="fill:#263238;" points="222.062,341.201 221.941,341.491 208.585,333.784 219.499,332.428 			
				"/>
			<polygon id="XMLID_18958_" style="fill:#263238;" points="216.684,327.556 201.785,329.856 201.776,329.856 184.454,319.858 
				191.46,313.704 			"/>
		</g>
		<g id="XMLID_18341_">
			<polygon id="XMLID_18968_" style="fill:#37474F;" points="147.688,319.568 121.024,322.71 121.014,322.71 102.626,312.086 
				140.609,301.854 			"/>
			<polygon id="XMLID_18805_" style="fill:#37474F;" points="177.805,316.013 152.917,318.951 145.453,300.545 149.25,299.525 			
				"/>
			<polygon id="XMLID_18967_" style="fill:#37474F;" points="201.776,329.856 167.376,349.469 167.367,349.469 128.366,326.947 
				184.454,319.858 			"/>
			<polygon id="XMLID_18964_" style="fill:#37474F;" points="252.665,359.234 245.023,367.015 216.684,374.647 228.31,345.176 			
				"/>
			<polygon id="XMLID_18933_" style="fill:#37474F;" points="221.941,341.491 208.912,373.449 174.064,353.332 208.585,333.784 			
				"/>
		</g>
	</g>
</g>
<g id="Location">
	<g id="XMLID_18512_">
		<g id="XMLID_18515_">
			<g>
				<path id="XMLID_18642_" style="fill:#27DEBF;" d="M294.209,162.537l-8.15-4.681l-0.001,0.002
					c-3.891-2.603-9.292-2.492-15.265,0.957c-11.849,6.841-21.454,24.209-21.454,38.794v3.319c0,14.585,19.608,30.433,19.608,30.433
					l8.017,4.535c0,0-4.815-5.491-4.267-6.618c5.251-10.778,19.548-41.216,19.548-53.122v-3.319c0-2.661-0.323-5.042-0.918-7.121
					l0.919,0.531L294.209,162.537z M270.793,195.973c-5.924,3.421-10.727,0.648-10.728-6.193
					c3.189-0.502,11.208-14.189,10.728-18.58c5.924-3.42,10.727-0.647,10.727,6.193C281.52,184.235,276.717,192.553,270.793,195.973
					z"/>
				<path id="XMLID_5_" style="opacity:0.3;" d="M294.209,162.537l-8.15-4.681l-0.001,0.002c-3.891-2.603-9.292-2.492-15.265,0.957
					c-11.849,6.841-21.454,24.209-21.454,38.794v3.319c0,14.585,19.608,30.433,19.608,30.433l8.017,4.535
					c0,0-4.815-5.491-4.267-6.618c5.251-10.778,19.548-41.216,19.548-53.122v-3.319c0-2.661-0.323-5.042-0.918-7.121l0.919,0.531
					L294.209,162.537z M270.793,195.973c-5.924,3.421-10.727,0.648-10.728-6.193c3.189-0.502,11.208-14.189,10.728-18.58
					c5.924-3.42,10.727-0.647,10.727,6.193C281.52,184.235,276.717,192.553,270.793,195.973z"/>
			</g>
			<g>
				<path id="XMLID_18520_" style="fill:#27DEBF;" d="M300.827,177.79c0-14.584-9.604-20.862-21.453-14.021
					c-11.849,6.841-21.454,24.21-21.454,38.794v3.319c0,11.231,12.722,24.262,18.572,29.661c1.427,1.316,3.71,0.895,4.561-0.85
					c5.055-10.343,19.774-41.503,19.773-53.584V177.79z M279.374,200.928c-5.924,3.42-10.727,0.647-10.727-6.193
					c0-6.84,4.802-15.159,10.727-18.579c5.924-3.42,10.727-0.648,10.727,6.193C290.101,189.189,285.298,197.507,279.374,200.928z"/>
				<path id="XMLID_9_" style="opacity:0.2;fill:#FFFFFF;" d="M300.827,177.79c0-14.584-9.604-20.862-21.453-14.021
					c-11.849,6.841-21.454,24.21-21.454,38.794v3.319c0,11.231,12.722,24.262,18.572,29.661c1.427,1.316,3.71,0.895,4.561-0.85
					c5.055-10.343,19.774-41.503,19.773-53.584V177.79z M279.374,200.928c-5.924,3.42-10.727,0.647-10.727-6.193
					c0-6.84,4.802-15.159,10.727-18.579c5.924-3.42,10.727-0.648,10.727,6.193C290.101,189.189,285.298,197.507,279.374,200.928z"/>
			</g>
		</g>
	</g>
</g>
<g id="Arrow">
	<g id="XMLID_16580_">
		<g>
			<path id="XMLID_18999_" style="fill:#27DEBF;" d="M433.998,355.209h0.001v-8.983l-67.057-15.419v8.97l0.008,0.01
				c0.009,0.198,0.102,0.444,0.31,0.734l26.112,36.612c0.642,0.899,1.33,0.749,1.539-0.336l3.306-17.179
				c0.209-1.084,1.271-2.021,2.374-2.092l32.566-2.089C433.712,355.401,433.992,355.317,433.998,355.209z"/>
			<path id="XMLID_12_" style="opacity:0.1;" d="M433.998,355.209h0.001v-8.983l-67.057-15.419v8.97l0.008,0.01
				c0.009,0.198,0.102,0.444,0.31,0.734l26.112,36.612c0.642,0.899,1.33,0.749,1.539-0.336l3.306-17.179
				c0.209-1.084,1.271-2.021,2.374-2.092l32.566-2.089C433.712,355.401,433.992,355.317,433.998,355.209z"/>
		</g>
		<g>
			<path id="XMLID_18998_" style="fill:#27DEBF;" d="M394.911,367.815l3.306-17.179c0.209-1.085,1.271-2.021,2.374-2.093
				l32.567-2.089c1.102-0.071,1.124-0.335,0.05-0.591l-65.163-15.491c-1.075-0.256-1.426,0.267-0.785,1.165l26.112,36.612
				C394.014,369.049,394.702,368.898,394.911,367.815z"/>
			<path id="XMLID_13_" style="opacity:0.3;fill:#FFFFFF;" d="M394.911,367.815l3.306-17.179c0.209-1.085,1.271-2.021,2.374-2.093
				l32.567-2.089c1.102-0.071,1.124-0.335,0.05-0.591l-65.163-15.491c-1.075-0.256-1.426,0.267-0.785,1.165l26.112,36.612
				C394.014,369.049,394.702,368.898,394.911,367.815z"/>
		</g>
	</g>
</g>
<g id="Compass">
	<g id="XMLID_825_">
		<path id="XMLID_19019_" style="fill:#37474F;" d="M224.757,71.998l-17.032-9.833c-0.021-0.013-0.042-0.025-0.063-0.037
			l-0.126-0.073l-0.002,0.006c-8.402-4.759-19.958-4.026-32.718,3.341c-25.68,14.826-46.498,50.883-46.498,80.536
			c0,14.734,5.144,25.109,13.466,30.005l-0.004,0.005l0.127,0.073c0.021,0.012,0.041,0.023,0.062,0.035l17.033,9.834l2.956-7.78
			c4.085-1.003,8.395-2.751,12.858-5.327c25.68-14.826,46.497-50.883,46.497-80.536c0-5.11-0.631-9.682-1.786-13.698L224.757,71.998
			z"/>
		<g id="XMLID_19044_">
			<path id="XMLID_18679_" style="fill:#455A64;" d="M183.758,71.475c-2.477,0-4.891-0.455-7.176-1.352
				c-0.397-0.157-0.592-0.604-0.437-1.001c0.157-0.397,0.604-0.592,1.002-0.436c2.104,0.827,4.329,1.246,6.611,1.246
				c9.983,0,18.105-8.122,18.105-18.105s-8.123-18.104-18.105-18.104c-0.426,0-0.771-0.345-0.771-0.771
				c0-0.427,0.345-0.772,0.771-0.772c10.835,0,19.649,8.814,19.649,19.648C203.407,62.661,194.593,71.475,183.758,71.475z"/>
		</g>
		<path id="XMLID_19013_" style="fill:#455A64;" d="M192.038,182.725c25.68-14.826,46.498-50.883,46.498-80.536
			c0-29.652-20.818-41.671-46.498-26.845c-25.68,14.826-46.497,50.883-46.497,80.536
			C145.54,185.532,166.358,197.552,192.038,182.725z"/>
		<path id="XMLID_19025_" style="fill:#263238;" d="M225.816,102.186c0,25.124-18.383,56.962-40.14,69.528
			c-5.265,3.036-10.243,4.646-14.406,4.646c-4.485,0-7.436-2.085-9.377-5.002c-3.146-4.74-3.629-11.667-3.629-15.475
			c-0.009-25.124,18.374-56.962,40.131-69.528c5.266-3.036,10.252-4.646,14.406-4.646c0.263,0,0.518,0.008,0.764,0.025
			C224.603,82.336,225.816,96.165,225.816,102.186z"/>
		<path id="XMLID_19023_" style="fill:#EBEBEB;" d="M217.209,97.217c0,25.123-18.383,56.962-40.14,69.52
			c-5.266,3.044-10.251,4.646-14.406,4.646c-0.263,0-0.517-0.008-0.771-0.025c-3.146-4.74-3.629-11.667-3.629-15.475
			c-0.009-25.124,18.374-56.962,40.131-69.528c5.266-3.036,10.252-4.646,14.406-4.646c0.263,0,0.518,0.008,0.764,0.025
			C216.726,86.474,217.209,93.41,217.209,97.217z"/>
		<g id="XMLID_19021_">
			<g>
				<g>
					<path id="XMLID_19036_" style="fill:#27DEBF;" d="M186.02,120.931l-8.397-4.494c-0.661-0.353-1.572,1.325-1.156,2.131
						l5.285,10.229L186.02,120.931z"/>
					<path id="XMLID_19035_" style="fill:#27DEBF;" d="M184.644,132.162l8.397,4.494c0.661,0.354,1.572-1.325,1.156-2.13
						l-5.285-10.229L184.644,132.162z"/>
				</g>
				<g>
					<path id="XMLID_19037_" style="fill:#27DEBF;" d="M189.503,121.109l-1.644-21.024c-0.129-1.655-1.829-0.797-2.156,1.089
						l-4.159,23.955L189.503,121.109z"/>
					<path id="XMLID_19033_" style="fill:#27DEBF;" d="M181.161,131.983l1.644,21.024c0.129,1.655,1.829,0.797,2.156-1.089
						l4.159-23.955L181.161,131.983z"/>
				</g>
				<g>
					<path id="XMLID_19034_" style="fill:#27DEBF;" d="M183.366,121.771l-15.321,11.945c-1.206,0.94-1.348,3.474-0.18,3.215
						l14.837-3.289L183.366,121.771z"/>
					<path id="XMLID_19032_" style="fill:#27DEBF;" d="M187.298,131.321l15.321-11.945c1.206-0.941,1.348-3.474,0.18-3.215
						l-14.837,3.289L187.298,131.321z"/>
				</g>
			</g>
			<path style="opacity:0.3;" d="M202.799,116.161l-13.449,2.981l-1.49-19.057c-0.129-1.655-1.829-0.797-2.156,1.089l-3.112,17.922
				l-4.969-2.659c-0.661-0.353-1.572,1.325-1.156,2.131l3.161,6.118l-11.583,9.03c-1.206,0.94-1.348,3.474-0.18,3.215l13.449-2.982
				l1.49,19.057c0.129,1.655,1.829,0.797,2.156-1.089l3.112-17.922l4.969,2.659c0.661,0.354,1.572-1.325,1.156-2.13l-3.161-6.118
				l11.583-9.03C203.825,118.436,203.967,115.902,202.799,116.161z M182.843,131.134l0.271-4.846l1.459-2.688l3.249-1.641
				l-0.271,4.846l-1.458,2.687L182.843,131.134z"/>
			<g>
				<path id="XMLID_19031_" style="fill:#27DEBF;" d="M189.122,125.486l7.446-17.95c0.586-1.413-0.262-2.326-1.076-1.158
					l-10.343,14.833L189.122,125.486z"/>
				<path id="XMLID_19029_" style="fill:#27DEBF;" d="M181.536,127.599l-7.446,17.951c-0.586,1.413,0.262,2.325,1.076,1.158
					l10.343-14.834L181.536,127.599z"/>
			</g>
			<path id="XMLID_19027_" style="fill:#EBEBEB;" d="M179.612,129.436c0.264-4.712,3.038-9.826,6.197-11.421
				c3.16-1.596,5.507,0.93,5.244,5.642c-0.264,4.712-3.038,9.826-6.198,11.421C181.696,136.674,179.348,134.148,179.612,129.436z"/>
			<path id="XMLID_29_" style="fill:#27DEBF;" d="M179.612,129.436c0.264-4.712,3.038-9.826,6.197-11.421
				c3.16-1.596,5.507,0.93,5.244,5.642c-0.264,4.712-3.038,9.826-6.198,11.421C181.696,136.674,179.348,134.148,179.612,129.436z"/>
			<path id="XMLID_1_" style="opacity:0.5;" d="M179.612,129.436c0.264-4.712,3.038-9.826,6.197-11.421
				c3.16-1.596,5.507,0.93,5.244,5.642c-0.264,4.712-3.038,9.826-6.198,11.421C181.696,136.674,179.348,134.148,179.612,129.436z"/>
			<path id="XMLID_19024_" style="fill:#27DEBF;" d="M181.642,128.411c0.17-3.04,1.961-6.339,3.999-7.369
				c2.038-1.03,3.553,0.6,3.383,3.64c-0.17,3.04-1.96,6.339-3.998,7.369C182.986,133.08,181.472,131.45,181.642,128.411z"/>
		</g>
		<path id="XMLID_19042_" style="fill:#E0E0E0;" d="M193.168,62.292h-5.035c-2.922-0.933-6.492-0.933-9.414,0h-5.035v6.701h0.028
			c-0.162,1.551,0.772,3.133,2.825,4.318c3.805,2.197,9.973,2.197,13.777,0.001c2.053-1.185,2.988-2.768,2.825-4.319h0.028V62.292z"
			/>
		<path id="XMLID_19038_" style="fill:#263238;" d="M193.168,62.292h-5.035c-2.922-0.933-6.492-0.933-9.414,0h-5.035v6.701h0.028
			c-0.162,1.551,0.772,3.133,2.825,4.318c3.805,2.197,9.973,2.197,13.777,0.001c2.053-1.185,2.988-2.768,2.825-4.319h0.028V62.292z"
			/>
		<path id="XMLID_19040_" style="fill:#EBEBEB;" d="M176.538,58.315c-3.804,2.197-3.804,5.758,0,7.954
			c3.805,2.197,9.973,2.197,13.777,0.001c3.804-2.196,3.804-5.758,0-7.954C186.51,56.119,180.342,56.119,176.538,58.315z"/>
		<g id="XMLID_19043_">
			<path id="XMLID_19041_" style="fill:#37474F;" d="M197.399,55.346h-7.05c-4.091-1.306-9.09-1.306-13.181,0h-7.049v4.218h0.039
				c-0.227,2.171,1.082,4.387,3.956,6.046c5.328,3.076,13.964,3.076,19.291,0c2.874-1.66,4.183-3.875,3.956-6.047h0.039V55.346z"/>
			<path id="XMLID_19039_" style="fill:#455A64;" d="M174.113,49.776c-5.327,3.075-5.327,8.062,0,11.137
				c5.327,3.076,13.964,3.076,19.29,0c5.327-3.075,5.327-8.062,0-11.138C188.077,46.701,179.439,46.701,174.113,49.776z"/>
		</g>
		<g id="XMLID_19046_">
			<path id="XMLID_18678_" style="fill:#455A64;" d="M176.864,70.176c-0.094,0-0.189-0.017-0.282-0.053
				c-7.576-2.975-12.471-10.156-12.471-18.296c0-10.834,8.813-19.648,19.647-19.648c0.427,0,0.772,0.345,0.772,0.772
				c0,0.426-0.345,0.771-0.772,0.771c-9.982,0-18.104,8.122-18.104,18.104c0,7.501,4.511,14.118,11.493,16.859
				c0.396,0.155,0.592,0.604,0.436,1.001C177.463,69.99,177.172,70.176,176.864,70.176z"/>
		</g>
	</g>
</g>
<g id="Character">
	<g id="XMLID_18986_">
		<g>
			<path id="XMLID_18675_" style="fill:#27DEBF;" d="M83.163,221.213c-2.385,0-4.528,2.146-4.528,8.331
				c0,6.184-0.487,11.146,3.306,11.146L83.163,221.213z"/>
			<path id="XMLID_14_" style="opacity:0.6;fill:#FFFFFF;" d="M83.163,221.213c-2.385,0-4.528,2.146-4.528,8.331
				c0,6.184-0.487,11.146,3.306,11.146L83.163,221.213z"/>
		</g>
		<g>
			<path id="XMLID_18673_" style="fill:#27DEBF;" d="M89.476,266.792h15.713c4.161,0,7.535-3.374,7.535-7.535v-36.128
				c0-4.161-3.374-7.535-7.535-7.535H89.476c-4.161,0-7.534,3.374-7.534,7.535v36.128C81.941,263.418,85.314,266.792,89.476,266.792
				z"/>
			<path id="XMLID_15_" style="opacity:0.1;" d="M89.476,266.792h15.713c4.161,0,7.535-3.374,7.535-7.535v-36.128
				c0-4.161-3.374-7.535-7.535-7.535H89.476c-4.161,0-7.534,3.374-7.534,7.535v36.128C81.941,263.418,85.314,266.792,89.476,266.792
				z"/>
		</g>
		<path id="XMLID_18910_" style="fill:#F28F8F;" d="M115.687,218.435h2.921c2.998,0,5.626,2.007,6.414,4.9l3.859,14.164h-13.194
			V218.435z"/>
		<g id="XMLID_17165_">
			<path id="XMLID_18915_" style="fill:#FFA8A7;" d="M86.699,247.681c2.282-5.322,5.795-13.437,5.795-13.437L94,237.653
				c0,0,4.223-3.691,4.492-8.333c0.507-8.733-5.699-9.775-5.699-9.775c-2.833,0.314-5.647,0.666-8.003,6.989
				c-1.799,4.826-5.223,16.361-6.743,21.551c-0.469,1.602,0.124,3.314,1.481,4.288"/>
			<g id="XMLID_19055_">
				<path id="XMLID_19056_" style="fill:#263238;" d="M110.151,212.109h-3.723c-7.489,0-13.56-6.071-13.56-13.561l0,0
					c0-8.517,6.904-15.422,15.422-15.422l0,0c8.517,0,15.422,6.905,15.422,15.422l0,0
					C123.712,206.038,117.641,212.109,110.151,212.109z"/>
			</g>
			<path id="XMLID_19052_" style="fill:#263238;" d="M74.096,333.487c-1.181-0.607-1.932,0.893-3.003,2.096
				c-0.751,0.845-1.922,2.181-2.096,3.142c-0.256,1.424,1.027,3.665,2.448,4.9c1.421,1.235,3.07,2.12,3.586,4.828
				c0.516,2.709,1.568,4.318,4.376,5.529c3.076,1.327,7.197,0.902,8.594,0c1.656-1.068,0.144-2.243-2.176-5.563
				c-3.028-4.332-5.385-7.427-5.386-11.469L74.096,333.487z"/>
			<path id="XMLID_19051_" style="fill:#FFA8A7;" d="M76.517,329.94l-2.486,3.643c-1.078,1.579-0.742,3.78,0.839,4.854
				c0.025,0.017,0.051,0.034,0.077,0.051c1.513,0.981,3.541,0.59,4.759-0.739l3.88-4.234L76.517,329.94z"/>
			<g>
				<path id="XMLID_19050_" style="fill:#27DEBF;" d="M124.009,263.895c0.157,4.644-1.819,18.453-5.207,27.34
					c-3.172,8.32-6.042,12.771-7.052,14.498c-1.01,1.728-30.1,30.049-30.1,30.049s-4.936-0.361-5.721-5.15
					c0,0,11.919-20.262,14.5-24.418c2.581-4.155,11.723-10.527,11.723-10.527l-0.832-36.349L124.009,263.895z"/>
				<path id="XMLID_18_" style="opacity:0.3;" d="M124.009,263.895c0.157,4.644-1.819,18.453-5.207,27.34
					c-3.172,8.32-6.042,12.771-7.052,14.498c-1.01,1.728-30.1,30.049-30.1,30.049s-4.936-0.361-5.721-5.15
					c0,0,11.919-20.262,14.5-24.418c2.581-4.155,11.723-10.527,11.723-10.527l-0.832-36.349L124.009,263.895z"/>
			</g>
			
				<rect id="XMLID_19049_" x="114.674" y="348.007" transform="matrix(-0.9751 0.2217 -0.2217 -0.9751 310.8962 670.3012)" style="fill:#FFA8A7;" width="6.307" height="9.185"/>
			<g>
				<path id="XMLID_19048_" style="fill:#27DEBF;" d="M118.638,258.816l-26.176,1.027c-0.895,2.174-2.621,6.138-2.192,12.403
					c0.873,12.765,12.976,35.595,12.976,35.595c-0.147,1.733-0.88,9.018,0.773,15.476c2.608,10.188,9.715,27.43,9.715,27.43
					s4.453,0.636,6.664-1.94c0,0-3.936-35.005-4.996-43.974c-1.147-9.705-4.093-27.428-4.093-27.428s2.045-1.861,5.276-6.325
					c4.702-6.495,3.977-12.264,3.977-12.264"/>
				<path id="XMLID_19_" style="opacity:0.3;" d="M118.638,258.816l-26.176,1.027c-0.895,2.174-2.621,6.138-2.192,12.403
					c0.873,12.765,12.976,35.595,12.976,35.595c-0.147,1.733-0.88,9.018,0.773,15.476c2.608,10.188,9.715,27.43,9.715,27.43
					s4.453,0.636,6.664-1.94c0,0-3.936-35.005-4.996-43.974c-1.147-9.705-4.093-27.428-4.093-27.428s2.045-1.861,5.276-6.325
					c4.702-6.495,3.977-12.264,3.977-12.264"/>
			</g>
			<path id="XMLID_19045_" style="fill:#263238;" d="M121.23,353.343l-0.2-0.879c0.646,0.122,3.407,4.707,6.146,6.699
				c3,2.181,5.604,3.471,6.943,4.454c1.792,1.315-0.803,4.009-5.215,4.249c-2.19,0.119-6.178-0.547-7.407-1.714
				c-1.229-1.166-2.119-3.096-3.092-3.935c-0.973-0.838-2.945-1.572-3.613-2.647c-0.367-0.591-0.423-2.053-0.382-3.309
				c0.038-1.152,0.075-2.419,0.47-2.401c0.031,0.133,0.152,0.671,0.152,0.671c0.559,0.394,2.313,0.892,3.741,0.825
				C119.811,355.309,121.744,355.067,121.23,353.343z"/>
			<g>
				<path id="XMLID_19030_" style="fill:#27DEBF;" d="M114.625,298.893c0,0-2.618-18.605-3.316-21.487c0,0,4.218-2.344,5.824-4.169
					c0,0-1.899,2.772-3.983,4.979L114.625,298.893z"/>
				<path id="XMLID_20_" style="opacity:0.5;" d="M114.625,298.893c0,0-2.618-18.605-3.316-21.487c0,0,4.218-2.344,5.824-4.169
					c0,0-1.899,2.772-3.983,4.979L114.625,298.893z"/>
			</g>
			<g>
				<path id="XMLID_19028_" style="fill:#27DEBF;" d="M98.83,298.273c0,0,3.146,7.835,4.415,9.568c0,0-0.317,5.97-0.272,7.176
					l-1.653,1.441c0,0-0.078-5.014,0.74-8.053C102.06,308.406,99.691,303.22,98.83,298.273z"/>
				<path id="XMLID_21_" style="opacity:0.5;" d="M98.83,298.273c0,0,3.146,7.835,4.415,9.568c0,0-0.317,5.97-0.272,7.176
					l-1.653,1.441c0,0-0.078-5.014,0.74-8.053C102.06,308.406,99.691,303.22,98.83,298.273z"/>
			</g>
			<g>
				<path id="XMLID_19022_" style="fill:#27DEBF;" d="M102.018,218.041c0,0-8.138,1.017-9.225,1.504
					C98.201,225.033,94,237.653,94,237.653l4.544,12.573c-3.184,5.07-5.954,8.274-7.352,13.078
					c2.377,2.754,16.581,11.039,32.817,0.59c0,0-0.954-9.126-2.312-16.03c2.342-11.201,2.989-15.146,2.312-17.767
					c-1.907-7.378-6.275-12.094-11.286-12.37L102.018,218.041z"/>
			</g>
			<g id="XMLID_19017_">
				<path id="XMLID_19018_" style="fill:#FFA8A7;" d="M118.645,190.249c1.629,0.962,3.642,5.06,3.444,13.649
					c-0.169,7.279-2.528,9.078-3.713,9.596c-1.185,0.519-3.47,0.203-5.691-0.167v4.369c0,0,3.07,3.566,2.877,5.569
					c-0.193,2.003-4.433,2.477-7.306,0.52c-2.873-1.957-5.293-5.771-5.293-5.771l0.05-10.045c0,0-1.307,1.269-3.524-0.669
					c-1.83-1.6-2.447-4.298-1.021-5.746c1.426-1.448,4.062-1.053,5.073,1.011c0,0,3.543,0.13,8.26-2.462
					C116.519,197.511,118.332,193.072,118.645,190.249z"/>
			</g>
			<g id="XMLID_19015_">
				<path id="XMLID_19016_" style="fill:#263238;" d="M113.961,202.069c0.027,0.525-0.361,0.97-0.866,0.994
					c-0.505,0.024-0.936-0.382-0.962-0.907c-0.026-0.525,0.361-0.969,0.867-0.993C113.505,201.139,113.935,201.545,113.961,202.069z
					"/>
			</g>
			<g id="XMLID_18511_">
				<path id="XMLID_19014_" style="fill:#F28F8F;" d="M114.206,208.24l2.126,0.678c-0.177,0.608-0.796,0.95-1.383,0.763
					C114.362,209.494,114.03,208.849,114.206,208.24z"/>
			</g>
			<g id="XMLID_18342_">
				<path id="XMLID_18510_" style="fill:#263238;" d="M121.467,199.259l-1.852-1.284c0.338-0.529,1.026-0.67,1.538-0.315
					C121.665,198.014,121.805,198.73,121.467,199.259z"/>
			</g>
			<g id="XMLID_18191_">
				<path id="XMLID_18193_" style="fill:#263238;" d="M121.04,201.408c0.027,0.524-0.361,0.969-0.866,0.993
					c-0.505,0.024-0.935-0.382-0.962-0.906c-0.027-0.525,0.361-0.969,0.866-0.993C120.583,200.477,121.014,200.883,121.04,201.408z"
					/>
			</g>
			<g id="XMLID_18188_">
				<polygon id="XMLID_18190_" style="fill:#F28F8F;" points="116.722,200.884 116.867,206.394 119.768,205.496 				"/>
			</g>
			<g id="XMLID_17203_">
				<path id="XMLID_17254_" style="fill:#F28F8F;" d="M112.685,213.327c-2.341-0.307-7.157-1.691-7.908-3.595
					c0,0,0.251,1.196,1.689,2.43c1.438,1.233,6.219,2.623,6.219,2.623V213.327z"/>
			</g>
			<g id="XMLID_17166_">
				<polygon id="XMLID_17202_" style="fill:#27DEBF;" points="96.105,243.523 102.514,252.207 98.544,250.227 				"/>
				<polygon id="XMLID_23_" style="opacity:0.2;" points="96.105,243.523 102.514,252.207 98.544,250.227 				"/>
			</g>
			<path id="XMLID_18985_" style="fill:#FFA8A7;" d="M104.852,257.353c0.008-0.105,0.057-0.21,0.148-0.316
				c0.732-0.853,3.21-2.649,3.377-3.086c0.166-0.438-1.178-0.849-3.413-0.499c-2.235,0.35-6.608,1.586-9.442,1.407
				c-1.847-0.116-6.088-4.285-8.824-7.178l-7.171,4.692c4.637,3.325,11.123,7.208,14.302,8.269c3.039,1.013,5.518,2.761,9.077,3.396
				"/>
			<g id="XMLID_18930_">
				<polygon id="XMLID_18914_" style="fill:#455A64;" points="107.973,233.235 120.413,236.137 128.401,229.16 138.687,231.734 
					146.347,224.444 132.881,258.691 128.401,262.592 120.223,262.237 112.49,268.535 103.702,266.595 				"/>
				<polygon id="XMLID_18904_" style="fill:#37474F;" points="128.401,229.16 120.223,262.237 112.49,268.535 120.413,236.137 				
					"/>
				<polygon id="XMLID_18920_" style="fill:#37474F;" points="138.687,231.734 146.347,224.444 132.881,258.691 128.401,262.592 
									"/>
			</g>
		</g>
		<path id="XMLID_19070_" style="fill:#263238;" d="M87.48,216.044h2.463c3.408,0,6.171-2.763,6.171-6.171v-18.818h-2.463
			c-3.408,0-6.171,2.763-6.171,6.171V216.044z"/>
		<g>
			<path id="XMLID_18672_" style="fill:#27DEBF;" d="M94.664,219.11c0,0,2.868,2.122,3.018,11.322
				c0.15,9.2-4.814,16.406-4.814,16.406v5.369c0,0,7.787-6.798,9.646-16.903c2.104-11.435-0.988-17.2-0.988-17.2
				C101.41,217.321,94.549,218.328,94.664,219.11z"/>
			<path id="XMLID_16_" style="opacity:0.6;fill:#FFFFFF;" d="M94.664,219.11c0,0,2.868,2.122,3.018,11.322
				c0.15,9.2-4.814,16.406-4.814,16.406v5.369c0,0,7.787-6.798,9.646-16.903c2.104-11.435-0.988-17.2-0.988-17.2
				C101.41,217.321,94.549,218.328,94.664,219.11z"/>
		</g>
		<g>
			<path id="XMLID_18674_" style="fill:#27DEBF;" d="M122.102,225.008c0,0-4.308-6.094-9.417-7.312c0,0,2.835-0.915,5.559,0.576
				C118.245,218.272,121.101,220.557,122.102,225.008z"/>
			<path id="XMLID_17_" style="opacity:0.6;fill:#FFFFFF;" d="M122.102,225.008c0,0-4.308-6.094-9.417-7.312
				c0,0,2.835-0.915,5.559,0.576C118.245,218.272,121.101,220.557,122.102,225.008z"/>
		</g>
		<path id="XMLID_18931_" style="fill:#FFA8A7;" d="M114.165,259.509c-0.351-1.181-2.021-0.029-4.938-0.433
			c-2.552-0.353-4.435-0.997-4.374-1.724l-1.945,6.686c0.816,0.147,1.689,0.233,2.638,0.24
			C110.634,264.315,114.516,260.69,114.165,259.509z"/>
	</g>
</g>
<g id="Cloud">
	<path id="XMLID_18677_" style="fill:#EBEBEB;" d="M344.298,89.782l-8.57,4.948c0.043-0.383,0.072-0.763,0.072-1.134v-2.483
		c0-4.419-3.102-6.21-6.929-4c-1.549,0.895-2.975,2.312-4.129,3.971c-0.627-5.556-4.985-7.626-10.28-4.569
		c-5.725,3.305-10.365,11.343-10.365,17.954v3.714c0,1.712,0.316,3.154,0.878,4.303l-7.119,4.11
		c-2.122,1.226-3.843,4.206-3.843,6.656c0,2.451,1.721,3.444,3.843,2.219l46.442-26.814c2.123-1.225,3.844-4.206,3.844-6.656
		S346.421,88.557,344.298,89.782z"/>
</g>
</svg>
