<?xml version="1.0" encoding="utf-8"?>
<!-- Generator: Adobe Illustrator 27.5.0, SVG Export Plug-In . SVG Version: 6.00 Build 0)  -->
<svg version="1.1" xmlns="http://www.w3.org/2000/svg" xmlns:xlink="http://www.w3.org/1999/xlink" x="0px" y="0px"
	 viewBox="0 0 800 800" style="enable-background:new 0 0 800 800;" xml:space="preserve">
<g id="Background">
	<rect style="fill:#C5E4EA;" width="800" height="800"/>
</g>
<g id="Objects">
	<g>
		<defs>
			<rect id="SVGID_1_" width="800" height="800"/>
		</defs>
		<clipPath id="SVGID_00000093160350982459851770000001394736772785898925_">
			<use xlink:href="#SVGID_1_"  style="overflow:visible;"/>
		</clipPath>
		<g style="clip-path:url(#SVGID_00000093160350982459851770000001394736772785898925_);">
			<g>
				<path style="fill:#495359;" d="M419.532,588.442h-13.224h-12.617h-13.224c0,0,3.154,55.429-16.257,55.429h29.48h12.617h29.48
					C416.378,643.871,419.532,588.442,419.532,588.442z"/>
				<g>
					<path style="fill:#56636D;" d="M524.116,446.569H275.884c-3.943,0-7.139,3.197-7.139,7.139v146.267v1.465v11.35
						c0,3.438,2.787,6.224,6.224,6.224h250.063c3.438,0,6.224-2.787,6.224-6.224v-11.35v-1.465V453.708
						C531.256,449.766,528.059,446.569,524.116,446.569z"/>
					<rect x="277.257" y="454.807" style="fill:#4BE8A0;" width="245.487" height="131.805"/>
				</g>
				<rect x="277.165" y="585.513" style="fill:#4B575E;" width="245.67" height="7.689"/>
				<path style="fill:#5E6F77;" d="M406.453,605.788c0,3.564-2.889,6.453-6.453,6.453s-6.453-2.889-6.453-6.453
					s2.889-6.453,6.453-6.453S406.453,602.224,406.453,605.788z"/>
			</g>
			<g>
				
					<rect x="614.98" y="587.465" transform="matrix(0.9043 0.427 -0.427 0.9043 319.8641 -205.8733)" style="fill:#4B575E;" width="8.094" height="45.784"/>
				
					<rect x="620.054" y="544.158" transform="matrix(0.9413 -0.3375 0.3375 0.9413 -154.759 243.9022)" style="fill:#4B575E;" width="8.094" height="45.783"/>
				<rect x="586.339" y="627.515" style="fill:#546168;" width="47.554" height="4.553"/>
				<path style="fill:#4B575E;" d="M634.428,637.606h-48.623c-1.878,0-3.415-1.537-3.415-3.415l0,0c0-1.878,1.537-3.415,3.415-3.415
					h48.623c1.878,0,3.415,1.537,3.415,3.415l0,0C637.842,636.069,636.306,637.606,634.428,637.606z"/>
				<circle style="fill:#4B575E;" cx="630.946" cy="585.273" r="7.841"/>
				<circle style="fill:#A1AAAF;" cx="630.946" cy="585.273" r="4.691"/>
				<g>
					<path style="fill:#F2DD64;" d="M597.742,550.857c1.225,5.584-2.31,11.104-7.894,12.328c-5.584,1.225-11.104-2.31-12.329-7.894
						c-1.225-5.584,2.31-11.104,7.894-12.329C590.998,541.739,596.518,545.273,597.742,550.857z"/>
					<path style="fill:#4B575E;" d="M621.003,536.499l-10.795,2.367l-31.521-5.842l9.211,42.003l26.184-18.497l10.795-2.367
						c0,0,9.529-2.296,7.635-10.932C630.618,534.596,621.003,536.499,621.003,536.499z"/>
				</g>
				<g>
					<defs>
						<path id="SVGID_00000025438989979430506420000014704716228245113004_" d="M621.003,536.499l-10.795,2.367l-31.521-5.842
							l9.211,42.003l26.184-18.497l10.795-2.367c0,0,9.529-2.296,7.635-10.932C630.618,534.596,621.003,536.499,621.003,536.499z"/>
					</defs>
					<clipPath id="SVGID_00000148643652161150590390000010469225660511031216_">
						<use xlink:href="#SVGID_00000025438989979430506420000014704716228245113004_"  style="overflow:visible;"/>
					</clipPath>
					<polygon style="clip-path:url(#SVGID_00000148643652161150590390000010469225660511031216_);fill:#606E75;" points="
						574.333,555.833 644,538.333 624.052,518.385 563.333,529.5 					"/>
				</g>
			</g>
			<g>
				<polygon style="fill:#F2F2F2;" points="447.257,635.798 352.742,635.798 137.909,635.798 137.909,660.517 150.257,660.517 
					150.257,800 277.258,800 277.258,660.517 352.742,660.517 447.257,660.517 522.742,660.517 522.742,800 649.742,800 
					649.742,660.517 662.091,660.517 662.091,635.798 				"/>
				
					<rect x="524.076" y="660.833" transform="matrix(-1 -1.224647e-16 1.224647e-16 -1 1172.8182 1322.6666)" style="fill:#CECECE;" width="124.667" height="1"/>
				
					<rect x="524.076" y="710.833" transform="matrix(-1 -1.224647e-16 1.224647e-16 -1 1172.8182 1422.6666)" style="fill:#CECECE;" width="124.667" height="1"/>
				
					<rect x="524.076" y="760.833" transform="matrix(-1 -1.224647e-16 1.224647e-16 -1 1172.8182 1522.6666)" style="fill:#CECECE;" width="124.667" height="1"/>
				<rect x="151.257" y="660.833" style="fill:#CECECE;" width="124.667" height="1"/>
				<rect x="151.257" y="710.833" style="fill:#CECECE;" width="124.667" height="1"/>
				<rect x="151.257" y="760.833" style="fill:#CECECE;" width="124.667" height="1"/>
				<path style="fill:#7A7A7A;" d="M217.757,669.5c0,2.301-1.865,4.167-4.167,4.167c-2.301,0-4.167-1.865-4.167-4.167
					s1.865-4.167,4.167-4.167C215.892,665.333,217.757,667.199,217.757,669.5z"/>
				<path style="fill:#7A7A7A;" d="M217.757,719.5c0,2.301-1.865,4.167-4.167,4.167c-2.301,0-4.167-1.865-4.167-4.167
					s1.865-4.167,4.167-4.167C215.892,715.333,217.757,717.199,217.757,719.5z"/>
				<path style="fill:#7A7A7A;" d="M217.757,769.5c0,2.301-1.865,4.167-4.167,4.167c-2.301,0-4.167-1.865-4.167-4.167
					s1.865-4.167,4.167-4.167C215.892,765.333,217.757,767.199,217.757,769.5z"/>
				<path style="fill:#7A7A7A;" d="M582.242,669.5c0,2.301,1.865,4.167,4.167,4.167s4.167-1.865,4.167-4.167
					s-1.865-4.167-4.167-4.167S582.242,667.199,582.242,669.5z"/>
				<path style="fill:#7A7A7A;" d="M582.242,719.5c0,2.301,1.865,4.167,4.167,4.167s4.167-1.865,4.167-4.167
					s-1.865-4.167-4.167-4.167S582.242,717.199,582.242,719.5z"/>
				<path style="fill:#7A7A7A;" d="M582.242,769.5c0,2.301,1.865,4.167,4.167,4.167s4.167-1.865,4.167-4.167
					s-1.865-4.167-4.167-4.167S582.242,767.199,582.242,769.5z"/>
				<g>
					<polygon style="opacity:0.5;fill:#B8BDBF;" points="150.257,660.517 277.258,681.333 277.258,660.517 					"/>
					<polygon style="opacity:0.5;fill:#B8BDBF;" points="522.909,660.517 649.909,681.333 649.909,660.517 					"/>
					<rect x="137.756" y="649" style="opacity:0.5;fill:#B8BDBF;" width="524.369" height="12.517"/>
				</g>
			</g>
			<g>
				<g>
					<path style="fill:#5D7D93;" d="M546.656,624.822c-5.116-16.485-56.275-89.813-56.275-89.813v-3.469
						c0-3.588-2.564-6.664-6.094-7.309l-50.419-9.22c-8.893,5.085-20.789,8.197-33.869,8.197s-24.976-3.112-33.869-8.197
						l-50.419,9.22c-3.529,0.645-6.094,3.721-6.094,7.309v3.469c0,0-51.159,73.328-56.275,89.813c0,0-5.684,11.369,3.979,18.758
						c9.663,7.39,61.028,8.657,61.028,8.657s-0.774-9.794,8.89-9.226l8.117-16.963l-24.033-6.343l15.916-20.464v-10.8H400h72.76
						v10.8l15.916,20.464l-24.033,6.343l8.117,16.963c9.663-0.569,8.889,9.226,8.889,9.226s51.365-1.268,61.028-8.657
						C552.341,636.191,546.656,624.822,546.656,624.822z"/>
				</g>
				<path style="fill:#FDD9A6;" d="M429.333,487H400h-29.333l-1.917,17.25c5.083,10.583,31.25,7.083,31.25,7.083
					s26.167,3.5,31.25-7.083L429.333,487z"/>
				<path style="fill:#F2F2F2;" d="M431.25,504.25c0,0-9.5,3-31.25,3s-31.25-3-31.25-3l-10.992,12.293
					C369.533,528.319,400,527.75,400,527.75s30.467,0.569,42.242-11.207L431.25,504.25z"/>
				<path style="fill:#564841;" d="M440.427,398.521h3.289c-9.827-20.482-45.089-21.021-45.089-21.021s-35.262,0.539-45.089,21.021
					h3.289c0,0-9.673,21.629-9.094,26.479c0.578,4.851-0.073,21.81,9.514,34.317c0.002,0.002,0.003,0.005,0.005,0.007
					c2.171,6.62,4.045,10.882,4.045,10.882L370.667,487c0,0,27.383,6.355,27.961,10.667c0.578-4.312,30.706-10.667,30.706-10.667
					l6.624-16.794c0,0,1.874-4.262,4.045-10.882c0.002-0.002,0.004-0.005,0.005-0.007c9.587-12.506,8.936-29.466,9.514-34.317
					C450.1,420.149,440.427,398.521,440.427,398.521z"/>
			</g>
			<g>
				<path style="fill:#4B575E;" d="M492.333,803.049H307.667c-5.523,0-10-4.477-10-10v-178.5c0-26.234,21.266-47.5,47.5-47.5
					h109.667c26.234,0,47.5,21.266,47.5,47.5v178.5C502.333,798.572,497.856,803.049,492.333,803.049z"/>
				<path style="fill:#363E42;" d="M456.048,801.079H343.952V638.52c0-26.234,21.266-47.5,47.5-47.5h17.097
					c26.233,0,47.5,21.266,47.5,47.5V801.079z"/>
				<circle style="fill:#363E42;" cx="400" cy="622.549" r="3.5"/>
				<g>
					<path style="opacity:0.5;fill:#7C8D93;" d="M417.165,638.161c-0.454-2.314-1.36-4.465-2.629-6.354
						c-1.346,0.816-3.121,0.653-4.284-0.51c-1.163-1.163-1.327-2.937-0.51-4.284c-1.889-1.269-4.04-2.175-6.354-2.629
						c-0.376,1.528-1.745,2.666-3.389,2.666c-1.644,0-3.013-1.138-3.389-2.666c-2.314,0.454-4.465,1.36-6.354,2.629
						c0.816,1.346,0.653,3.12-0.51,4.284c-1.163,1.163-2.937,1.326-4.284,0.51c-1.269,1.889-2.175,4.04-2.629,6.354
						c1.528,0.376,2.665,1.745,2.665,3.389c0,1.644-1.138,3.013-2.665,3.389c0.454,2.314,1.36,4.465,2.629,6.354
						c1.346-0.816,3.121-0.653,4.284,0.51c1.163,1.163,1.327,2.937,0.51,4.283c1.889,1.269,4.04,2.175,6.354,2.629
						c0.376-1.528,1.745-2.666,3.389-2.666c1.644,0,3.013,1.138,3.389,2.666c2.314-0.454,4.465-1.36,6.354-2.629
						c-0.816-1.346-0.653-3.12,0.51-4.283c1.163-1.163,2.937-1.327,4.284-0.51c1.269-1.889,2.175-4.04,2.629-6.354
						c-1.528-0.376-2.665-1.745-2.665-3.389C414.5,639.906,415.638,638.536,417.165,638.161z"/>
					<path style="fill:#7C8D93;" d="M417.165,637.161c-0.454-2.314-1.36-4.465-2.629-6.354c-1.346,0.816-3.121,0.653-4.284-0.51
						c-1.163-1.163-1.327-2.937-0.51-4.284c-1.889-1.269-4.04-2.175-6.354-2.629c-0.376,1.528-1.745,2.666-3.389,2.666
						c-1.644,0-3.013-1.138-3.389-2.666c-2.314,0.454-4.465,1.36-6.354,2.629c0.816,1.346,0.653,3.12-0.51,4.284
						c-1.163,1.163-2.937,1.326-4.284,0.51c-1.269,1.889-2.175,4.04-2.629,6.354c1.528,0.376,2.665,1.745,2.665,3.389
						c0,1.644-1.138,3.013-2.665,3.389c0.454,2.314,1.36,4.465,2.629,6.354c1.346-0.816,3.121-0.653,4.284,0.51
						c1.163,1.163,1.327,2.937,0.51,4.283c1.889,1.269,4.04,2.175,6.354,2.629c0.376-1.528,1.745-2.666,3.389-2.666
						c1.644,0,3.013,1.138,3.389,2.666c2.314-0.454,4.465-1.36,6.354-2.629c-0.816-1.346-0.653-3.12,0.51-4.283
						c1.163-1.163,2.937-1.327,4.284-0.51c1.269-1.889,2.175-4.04,2.629-6.354c-1.528-0.376-2.665-1.745-2.665-3.389
						C414.5,638.906,415.638,637.536,417.165,637.161z"/>
				</g>
			</g>
			<g>
				<g>
					<g>
						<g>
							<g>
								<path style="fill:#FFFFFF;" d="M258.76,384h-230V177.206c0-6.189,5.017-11.206,11.205-11.206h207.589
									c6.189,0,11.206,5.017,11.206,11.206V384z"/>
								<g>
									<defs>
										<path id="SVGID_00000067220221245193430210000001823718814218232726_" d="M258.76,384h-230V177.206
											c0-6.189,5.017-11.206,11.205-11.206h207.589c6.189,0,11.206,5.017,11.206,11.206V384z"/>
									</defs>
									<clipPath id="SVGID_00000108993882734920689630000008299368109064061110_">
										<use xlink:href="#SVGID_00000067220221245193430210000001823718814218232726_"  style="overflow:visible;"/>
									</clipPath>
									
										<rect x="15.683" y="154.667" style="clip-path:url(#SVGID_00000108993882734920689630000008299368109064061110_);fill:#FFFFFF;" width="263.333" height="30.667"/>
								</g>
								<g>
									<circle style="fill:#F9C32D;" cx="46.376" cy="173.529" r="2.667"/>
									<g>
										<path style="fill:#EA4747;" d="M40.424,173.529c0,1.473-1.194,2.667-2.667,2.667c-1.473,0-2.667-1.194-2.667-2.667
											c0-1.473,1.194-2.667,2.667-2.667C39.23,170.863,40.424,172.057,40.424,173.529z"/>
										<path style="fill:#49E872;" d="M57.661,173.529c0,1.473-1.194,2.667-2.667,2.667c-1.473,0-2.667-1.194-2.667-2.667
											c0-1.473,1.194-2.667,2.667-2.667C56.467,170.863,57.661,172.057,57.661,173.529z"/>
									</g>
								</g>
								<path style="fill:#F4F4F4;" d="M212.447,181.333H75.585c-3.063,0-5.569-2.506-5.569-5.568v0
									c0-3.063,2.506-5.568,5.569-5.568h136.863c3.063,0,5.569,2.506,5.569,5.568v0
									C218.016,178.827,215.51,181.333,212.447,181.333z"/>
							</g>
							<rect x="37.757" y="261" style="fill:#DBDBDB;" width="44.259" height="44.259"/>
							<rect x="37.757" y="197.75" style="fill:#DBDBDB;" width="44.259" height="44.259"/>
							<rect x="37.757" y="324.25" style="fill:#DBDBDB;" width="44.259" height="44.259"/>
							<g>
								<path style="fill:#DBDBDB;" d="M229.266,231.009h-135c-1.512,0-2.75-1.238-2.75-2.75l0,0c0-1.512,1.238-2.75,2.75-2.75h135
									c1.512,0,2.75,1.238,2.75,2.75l0,0C232.016,229.772,230.779,231.009,229.266,231.009z"/>
								<g>
									<path style="fill:#DBDBDB;" d="M229.266,220.009h-135c-1.512,0-2.75-1.238-2.75-2.75l0,0c0-1.512,1.238-2.75,2.75-2.75h135
										c1.512,0,2.75,1.238,2.75,2.75l0,0C232.016,218.772,230.779,220.009,229.266,220.009z"/>
									<path style="fill:#DBDBDB;" d="M229.266,242.009h-135c-1.512,0-2.75-1.238-2.75-2.75l0,0c0-1.512,1.238-2.75,2.75-2.75h135
										c1.512,0,2.75,1.238,2.75,2.75l0,0C232.016,240.772,230.779,242.009,229.266,242.009z"/>
								</g>
							</g>
							<g>
								<path style="fill:#DBDBDB;" d="M229.266,294.259h-135c-1.512,0-2.75-1.237-2.75-2.75l0,0c0-1.512,1.238-2.75,2.75-2.75h135
									c1.512,0,2.75,1.238,2.75,2.75l0,0C232.016,293.022,230.779,294.259,229.266,294.259z"/>
								<g>
									<path style="fill:#DBDBDB;" d="M229.266,283.259h-135c-1.512,0-2.75-1.237-2.75-2.75l0,0c0-1.512,1.238-2.75,2.75-2.75h135
										c1.512,0,2.75,1.238,2.75,2.75l0,0C232.016,282.022,230.779,283.259,229.266,283.259z"/>
									<path style="fill:#DBDBDB;" d="M229.266,305.259h-135c-1.512,0-2.75-1.237-2.75-2.75l0,0c0-1.512,1.238-2.75,2.75-2.75h135
										c1.512,0,2.75,1.238,2.75,2.75l0,0C232.016,304.022,230.779,305.259,229.266,305.259z"/>
								</g>
							</g>
							<g>
								<path style="fill:#DBDBDB;" d="M229.266,357.509h-135c-1.512,0-2.75-1.237-2.75-2.75l0,0c0-1.512,1.238-2.75,2.75-2.75h135
									c1.512,0,2.75,1.238,2.75,2.75l0,0C232.016,356.272,230.779,357.509,229.266,357.509z"/>
								<g>
									<path style="fill:#DBDBDB;" d="M229.266,346.509h-135c-1.512,0-2.75-1.237-2.75-2.75l0,0c0-1.512,1.238-2.75,2.75-2.75h135
										c1.512,0,2.75,1.238,2.75,2.75l0,0C232.016,345.272,230.779,346.509,229.266,346.509z"/>
									<path style="fill:#DBDBDB;" d="M229.266,368.509h-135c-1.512,0-2.75-1.237-2.75-2.75l0,0c0-1.512,1.238-2.75,2.75-2.75h135
										c1.512,0,2.75,1.238,2.75,2.75l0,0C232.016,367.272,230.779,368.509,229.266,368.509z"/>
								</g>
							</g>
						</g>
						<g>
							<path style="fill:#F4F4F4;" d="M419.702,241.807l-124.844,0.397c-3.981,0.013-7.228,3.28-7.216,7.262l0.254,80.106
								l-19.589,28.14l31.811-14.234l119.904-0.381c3.981-0.013,7.228-3.281,7.216-7.262l-0.276-86.811
								C426.951,245.042,423.683,241.795,419.702,241.807z"/>
							<path style="fill:#56636D;" d="M407.499,295.767c-6.214-2.03-8.797-4.554-8.797-4.554l-0.208,0.198
								c-1.845,1.737-3.886,2.758-5.745,2.758h-0.176c-1.859,0-3.9-1.022-5.746-2.758l-0.208-0.198c0,0-2.583,2.524-8.796,4.554
								c-9.173,3.426-6.419,17.371-6.421,17.479c0.289,1.553,0.457,2.087,0.604,2.147c9.211,4.101,32.099,4.101,41.31,0
								c0.146-0.06,0.315-0.594,0.604-2.147C413.917,313.138,416.708,299.248,407.499,295.767L407.499,295.767z M407.499,295.767"/>
							<path style="fill:#56636D;" d="M402.294,277.977l-0.077-0.084c-0.516-0.472-0.476-0.445-0.476-0.445s0.9-4.542,0.178-6.69
								c-1.133-3.431-7.902-5.729-9.26-5.997c0-0.002-0.826-0.167-0.878-0.168c0,0-1.068-0.216-2.306,0.324
								c-0.806,0.31-5.021,2.221-6.217,5.841c-0.721,2.148,0.179,6.69,0.179,6.69s0.041-0.027-0.476,0.445l-0.077,0.084
								c-0.349,0.396-0.263,1.637,0.119,2.928c0.346,1.293,0.797,1.641,0.905,1.943c1.095,5.14,4.902,9.53,8.782,9.53
								c3.88,0,7.486-4.39,8.58-9.53c0.108-0.303,0.559-0.65,0.905-1.943C402.557,279.613,402.653,278.288,402.294,277.977
								L402.294,277.977z M402.294,277.977"/>
							<path style="fill:#56636D;" d="M353.516,314.5h-52c-1.925,0-3.5-1.575-3.5-3.5l0,0c0-1.925,1.575-3.5,3.5-3.5h52
								c1.925,0,3.5,1.575,3.5,3.5l0,0C357.016,312.925,355.441,314.5,353.516,314.5z"/>
							<path style="fill:#56636D;" d="M353.516,303.259h-52c-1.925,0-3.5-1.575-3.5-3.5l0,0c0-1.925,1.575-3.5,3.5-3.5h52
								c1.925,0,3.5,1.575,3.5,3.5l0,0C357.016,301.684,355.441,303.259,353.516,303.259z"/>
							<path style="fill:#56636D;" d="M335.291,275h-29.55c-2.874,0-5.225-2.351-5.225-5.225l0,0c0-2.874,2.351-5.225,5.225-5.225
								h29.55c2.874,0,5.225,2.351,5.225,5.225l0,0C340.516,272.649,338.165,275,335.291,275z"/>
						</g>
					</g>
					<path style="fill:#4BE8A0;" d="M170.042,206.333H95.808c-2.36,0-4.292-1.931-4.292-4.292l0,0c0-2.361,1.931-4.292,4.292-4.292
						h74.234c2.36,0,4.292,1.931,4.292,4.292l0,0C174.333,204.402,172.402,206.333,170.042,206.333z"/>
					<path style="fill:#4BE8A0;" d="M136.375,268.841H95.808c-2.36,0-4.292-1.931-4.292-4.292l0,0c0-2.36,1.931-4.292,4.292-4.292
						h40.567c2.36,0,4.292,1.931,4.292,4.292l0,0C140.667,266.91,138.735,268.841,136.375,268.841z"/>
					<path style="fill:#4BE8A0;" d="M147.708,332.833h-51.9c-2.36,0-4.292-1.931-4.292-4.292l0,0c0-2.36,1.931-4.292,4.292-4.292
						h51.9c2.361,0,4.292,1.931,4.292,4.292l0,0C152,330.902,150.069,332.833,147.708,332.833z"/>
				</g>
				<g>
					<g>
						<g>
							<g>
								<path style="fill:#FFFFFF;" d="M539.496,253h230V46.206c0-6.189-5.017-11.206-11.206-11.206H550.701
									c-6.189,0-11.205,5.017-11.205,11.206V253z"/>
								<g>
									<defs>
										<path id="SVGID_00000078741275770365785290000011550623058244217750_" d="M539.496,253h230V46.206
											c0-6.189-5.017-11.206-11.206-11.206H550.701c-6.189,0-11.205,5.017-11.205,11.206V253z"/>
									</defs>
									<clipPath id="SVGID_00000168833057785383333560000006847287861436307073_">
										<use xlink:href="#SVGID_00000078741275770365785290000011550623058244217750_"  style="overflow:visible;"/>
									</clipPath>
									
										<rect x="519.24" y="23.667" transform="matrix(-1 -1.224647e-16 1.224647e-16 -1 1301.8134 78)" style="clip-path:url(#SVGID_00000168833057785383333560000006847287861436307073_);fill:#FFFFFF;" width="263.333" height="30.667"/>
								</g>
								<g>
									<circle style="fill:#F9C32D;" cx="560" cy="42.529" r="2.667"/>
									<g>
										<path style="fill:#EA4747;" d="M565.952,42.529c0,1.473,1.194,2.667,2.667,2.667c1.473,0,2.667-1.194,2.667-2.667
											c0-1.473-1.194-2.667-2.667-2.667C567.146,39.863,565.952,41.057,565.952,42.529z"/>
										<path style="fill:#49E872;" d="M548.714,42.529c0,1.473,1.194,2.667,2.667,2.667c1.473,0,2.667-1.194,2.667-2.667
											c0-1.473-1.194-2.667-2.667-2.667C549.908,39.863,548.714,41.057,548.714,42.529z"/>
									</g>
								</g>
								<path style="fill:#F4F4F4;" d="M585.809,50.333h136.863c3.063,0,5.568-2.506,5.568-5.569v0c0-3.063-2.506-5.569-5.568-5.569
									H585.809c-3.063,0-5.569,2.506-5.569,5.569v0C580.24,47.827,582.746,50.333,585.809,50.333z"/>
							</g>
						</g>
						<g>
							<path style="fill:#F4F4F4;" d="M378.554,110.807l124.844,0.397c3.981,0.013,7.228,3.28,7.216,7.262l-0.254,80.105
								l19.589,28.14l-31.811-14.235l-119.904-0.381c-3.981-0.013-7.228-3.281-7.216-7.262l0.276-86.811
								C371.305,114.042,374.573,110.795,378.554,110.807z"/>
							<path style="fill:#56636D;" d="M390.757,164.767c-9.209,3.481-6.418,17.371-6.421,17.479
								c0.289,1.553,0.457,2.087,0.604,2.146c9.211,4.101,32.099,4.101,41.31,0c0.146-0.06,0.315-0.594,0.604-2.146
								c-0.002-0.108,2.752-14.053-6.421-17.479c-6.214-2.03-8.796-4.554-8.796-4.554l-0.208,0.198
								c-1.846,1.737-3.886,2.758-5.746,2.758h-0.176c-1.859,0-3.9-1.021-5.745-2.758l-0.208-0.198
								C399.554,160.213,396.971,162.737,390.757,164.767L390.757,164.767z M390.757,164.767"/>
							<path style="fill:#56636D;" d="M395.962,146.977c-0.36,0.311-0.263,1.637,0.119,2.928c0.345,1.293,0.796,1.641,0.905,1.943
								c1.095,5.14,4.701,9.53,8.58,9.53c3.88,0,7.687-4.39,8.782-9.53c0.108-0.303,0.559-0.65,0.905-1.943
								c0.382-1.291,0.468-2.532,0.119-2.928l-0.077-0.084c-0.516-0.472-0.475-0.445-0.475-0.445s0.9-4.542,0.179-6.69
								c-1.196-3.62-5.411-5.531-6.217-5.841c-1.237-0.54-2.306-0.324-2.306-0.324c-0.052,0.001-0.878,0.166-0.878,0.168
								c-1.358,0.268-8.127,2.566-9.26,5.997c-0.722,2.148,0.178,6.69,0.178,6.69s0.04-0.027-0.476,0.445L395.962,146.977
								L395.962,146.977z M395.962,146.977"/>
							<path style="fill:#56636D;" d="M444.74,183.5h52c1.925,0,3.5-1.575,3.5-3.5l0,0c0-1.925-1.575-3.5-3.5-3.5h-52
								c-1.925,0-3.5,1.575-3.5,3.5l0,0C441.24,181.925,442.815,183.5,444.74,183.5z"/>
							<path style="fill:#56636D;" d="M468.907,172.259h27.833c1.925,0,3.5-1.575,3.5-3.5l0,0c0-1.925-1.575-3.5-3.5-3.5h-27.833
								c-1.925,0-3.5,1.575-3.5,3.5l0,0C465.407,170.684,466.982,172.259,468.907,172.259z"/>
							<path style="fill:#56636D;" d="M468.907,161.259h27.833c1.925,0,3.5-1.575,3.5-3.5l0,0c0-1.925-1.575-3.5-3.5-3.5h-27.833
								c-1.925,0-3.5,1.575-3.5,3.5l0,0C465.407,159.684,466.982,161.259,468.907,161.259z"/>
							<path style="fill:#56636D;" d="M468.907,150.259h27.833c1.925,0,3.5-1.575,3.5-3.5l0,0c0-1.925-1.575-3.5-3.5-3.5h-27.833
								c-1.925,0-3.5,1.575-3.5,3.5l0,0C465.407,148.684,466.982,150.259,468.907,150.259z"/>
						</g>
					</g>
					<path style="fill:#56636D;" d="M457.833,172.185h-13.427c-1.925,0-3.5-1.575-3.5-3.5v-20.592c0-1.925,1.575-3.5,3.5-3.5h13.427
						c1.925,0,3.5,1.575,3.5,3.5v20.592C461.333,170.61,459.758,172.185,457.833,172.185z"/>
					<circle style="fill:#4BE8A0;" cx="571.76" cy="154.259" r="15"/>
					<circle style="fill:#4BE8A0;" cx="571.76" cy="90.605" r="15"/>
					<circle style="fill:#4BE8A0;" cx="571.76" cy="217.913" r="15"/>
					<g>
						<g>
							<path style="fill:#DBDBDB;" d="M749.13,101.783h-99c-1.513,0-2.75-1.238-2.75-2.75l0,0c0-1.513,1.237-2.75,2.75-2.75h99
								c1.512,0,2.75,1.237,2.75,2.75l0,0C751.88,100.546,750.643,101.783,749.13,101.783z"/>
							<path style="fill:#DBDBDB;" d="M749.13,84.928h-99c-1.513,0-2.75-1.238-2.75-2.75l0,0c0-1.513,1.237-2.75,2.75-2.75h99
								c1.512,0,2.75,1.237,2.75,2.75l0,0C751.88,83.69,750.643,84.928,749.13,84.928z"/>
						</g>
						<path style="fill:#DBDBDB;" d="M749.13,93.355h-99c-1.513,0-2.75-1.238-2.75-2.75l0,0c0-1.512,1.237-2.75,2.75-2.75h99
							c1.512,0,2.75,1.238,2.75,2.75l0,0C751.88,92.118,750.643,93.355,749.13,93.355z"/>
					</g>
					<g>
						<g>
							<path style="fill:#DBDBDB;" d="M749.13,165.437h-99c-1.513,0-2.75-1.238-2.75-2.75l0,0c0-1.513,1.237-2.75,2.75-2.75h99
								c1.512,0,2.75,1.237,2.75,2.75l0,0C751.88,164.199,750.643,165.437,749.13,165.437z"/>
							<path style="fill:#DBDBDB;" d="M749.13,148.581h-99c-1.513,0-2.75-1.238-2.75-2.75l0,0c0-1.513,1.237-2.75,2.75-2.75h99
								c1.512,0,2.75,1.237,2.75,2.75l0,0C751.88,147.344,750.643,148.581,749.13,148.581z"/>
						</g>
						<path style="fill:#DBDBDB;" d="M749.13,157.009h-99c-1.513,0-2.75-1.238-2.75-2.75l0,0c0-1.512,1.237-2.75,2.75-2.75h99
							c1.512,0,2.75,1.238,2.75,2.75l0,0C751.88,155.772,750.643,157.009,749.13,157.009z"/>
					</g>
					<g>
						<g>
							<path style="fill:#DBDBDB;" d="M749.13,229.09h-99c-1.513,0-2.75-1.237-2.75-2.75v0c0-1.512,1.237-2.75,2.75-2.75h99
								c1.512,0,2.75,1.238,2.75,2.75v0C751.88,227.853,750.643,229.09,749.13,229.09z"/>
							<path style="fill:#DBDBDB;" d="M749.13,212.235h-99c-1.513,0-2.75-1.238-2.75-2.75l0,0c0-1.512,1.237-2.75,2.75-2.75h99
								c1.512,0,2.75,1.238,2.75,2.75l0,0C751.88,210.997,750.643,212.235,749.13,212.235z"/>
						</g>
						<path style="fill:#DBDBDB;" d="M749.13,220.663h-99c-1.513,0-2.75-1.238-2.75-2.75l0,0c0-1.512,1.237-2.75,2.75-2.75h99
							c1.512,0,2.75,1.238,2.75,2.75l0,0C751.88,219.425,750.643,220.663,749.13,220.663z"/>
					</g>
					<g>
						<path style="fill:#4BE8A0;" d="M622.239,95.939h-6.478c-1.152,0-2.094-0.943-2.094-2.095v-6.478
							c0-1.152,0.943-2.094,2.094-2.094h6.478c1.152,0,2.094,0.942,2.094,2.094v6.478C624.333,94.996,623.391,95.939,622.239,95.939
							z"/>
						<g>
							<path style="fill:#4BE8A0;" d="M607.739,95.939h-6.478c-1.152,0-2.094-0.943-2.094-2.095v-6.478
								c0-1.152,0.943-2.094,2.094-2.094h6.478c1.152,0,2.094,0.942,2.094,2.094v6.478
								C609.833,94.996,608.891,95.939,607.739,95.939z"/>
							<path style="fill:#4BE8A0;" d="M636.739,95.939h-6.478c-1.152,0-2.094-0.943-2.094-2.095v-6.478
								c0-1.152,0.943-2.094,2.094-2.094h6.478c1.152,0,2.094,0.942,2.094,2.094v6.478
								C638.833,94.996,637.891,95.939,636.739,95.939z"/>
						</g>
					</g>
					<g>
						<g>
							<path style="fill:#4BE8A0;" d="M607.739,159.592h-6.478c-1.152,0-2.094-0.943-2.094-2.094v-6.478
								c0-1.152,0.943-2.094,2.094-2.094h6.478c1.152,0,2.094,0.943,2.094,2.094v6.478
								C609.833,158.65,608.891,159.592,607.739,159.592z"/>
						</g>
					</g>
					<g>
						<path style="fill:#4BE8A0;" d="M622.239,223.246h-6.478c-1.152,0-2.094-0.942-2.094-2.094v-6.478
							c0-1.152,0.943-2.094,2.094-2.094h6.478c1.152,0,2.094,0.942,2.094,2.094v6.478
							C624.333,222.304,623.391,223.246,622.239,223.246z"/>
						<g>
							<path style="fill:#4BE8A0;" d="M607.739,223.246h-6.478c-1.152,0-2.094-0.942-2.094-2.094v-6.478
								c0-1.152,0.943-2.094,2.094-2.094h6.478c1.152,0,2.094,0.942,2.094,2.094v6.478
								C609.833,222.304,608.891,223.246,607.739,223.246z"/>
						</g>
					</g>
				</g>
			</g>
		</g>
	</g>
	<g>
		<g>
			<g>
				<path style="fill:#606060;" d="M302.235,26.414v-0.202c-0.272,0.314-0.541,0.567-0.807,0.764
					c-0.265,0.196-0.552,0.344-0.862,0.445c-0.31,0.101-0.648,0.153-1.015,0.153c-0.486,0-0.936-0.103-1.35-0.309
					c-0.413-0.206-0.772-0.5-1.074-0.881c-0.303-0.38-0.532-0.831-0.688-1.347c-0.157-0.514-0.235-1.072-0.235-1.673
					c0-1.269,0.31-2.257,0.93-2.968c0.619-0.707,1.435-1.063,2.447-1.063c0.585,0,1.078,0.101,1.48,0.303
					c0.402,0.198,0.792,0.509,1.174,0.924v-2.998c0-0.415,0.083-0.73,0.249-0.945c0.165-0.212,0.403-0.32,0.71-0.32
					c0.308,0,0.546,0.099,0.711,0.296c0.165,0.195,0.249,0.485,0.249,0.865v8.956c0,0.386-0.089,0.675-0.268,0.868
					c-0.179,0.195-0.41,0.292-0.693,0.292c-0.278,0-0.506-0.099-0.687-0.301C302.326,27.071,302.235,26.784,302.235,26.414z
					 M298.242,23.431c0,0.552,0.085,1.018,0.256,1.405c0.171,0.385,0.406,0.677,0.703,0.872c0.297,0.198,0.622,0.296,0.975,0.296
					c0.356,0,0.682-0.092,0.977-0.279c0.296-0.185,0.53-0.47,0.707-0.855c0.175-0.384,0.263-0.864,0.263-1.439
					c0-0.543-0.088-1.005-0.263-1.396c-0.177-0.387-0.414-0.685-0.715-0.891c-0.299-0.206-0.628-0.309-0.985-0.309
					c-0.371,0-0.704,0.103-0.995,0.316c-0.292,0.211-0.52,0.513-0.68,0.907C298.322,22.454,298.242,22.911,298.242,23.431z"/>
				<path style="fill:#606060;" d="M311.858,23.944h-3.971c0.005,0.462,0.096,0.868,0.279,1.22c0.181,0.352,0.421,0.616,0.721,0.795
					c0.299,0.18,0.631,0.267,0.993,0.267c0.243,0,0.465-0.028,0.665-0.084c0.2-0.056,0.395-0.148,0.584-0.268
					c0.188-0.123,0.362-0.253,0.521-0.391c0.158-0.138,0.364-0.327,0.617-0.565c0.104-0.09,0.252-0.135,0.446-0.135
					c0.208,0,0.376,0.058,0.505,0.17c0.129,0.114,0.194,0.275,0.194,0.485c0,0.183-0.072,0.397-0.215,0.644
					c-0.145,0.245-0.361,0.481-0.651,0.706c-0.289,0.225-0.654,0.413-1.094,0.563c-0.439,0.148-0.942,0.223-1.513,0.223
					c-1.304,0-2.317-0.372-3.042-1.117c-0.723-0.743-1.085-1.752-1.085-3.026c0-0.599,0.09-1.157,0.268-1.669
					c0.178-0.513,0.439-0.954,0.781-1.321c0.342-0.363,0.763-0.647,1.264-0.844c0.5-0.195,1.056-0.294,1.666-0.294
					c0.793,0,1.474,0.168,2.04,0.501c0.569,0.337,0.992,0.767,1.277,1.299c0.282,0.53,0.423,1.07,0.423,1.62
					c0,0.511-0.147,0.842-0.439,0.995C312.799,23.869,312.389,23.944,311.858,23.944z M307.887,22.791h3.681
					c-0.049-0.692-0.237-1.212-0.562-1.557c-0.324-0.344-0.752-0.517-1.282-0.517c-0.505,0-0.921,0.172-1.246,0.524
					C308.154,21.59,307.956,22.106,307.887,22.791z"/>
				<path style="fill:#606060;" d="M321.778,24.919c0,0.559-0.138,1.04-0.41,1.439c-0.272,0.399-0.675,0.702-1.208,0.908
					c-0.531,0.206-1.182,0.309-1.944,0.309c-0.729,0-1.354-0.114-1.874-0.335c-0.522-0.223-0.905-0.503-1.154-0.837
					c-0.247-0.335-0.371-0.67-0.371-1.008c0-0.223,0.079-0.414,0.238-0.573c0.159-0.157,0.359-0.238,0.603-0.238
					c0.212,0,0.376,0.053,0.49,0.155c0.114,0.105,0.224,0.251,0.327,0.44c0.208,0.361,0.457,0.632,0.746,0.81
					c0.29,0.178,0.687,0.268,1.186,0.268c0.406,0,0.74-0.09,1-0.271c0.26-0.18,0.391-0.387,0.391-0.619
					c0-0.359-0.136-0.619-0.405-0.782c-0.271-0.163-0.716-0.32-1.335-0.468c-0.7-0.174-1.268-0.356-1.706-0.546
					c-0.439-0.191-0.79-0.442-1.053-0.756c-0.262-0.313-0.394-0.696-0.394-1.153c0-0.406,0.121-0.79,0.364-1.153
					c0.242-0.363,0.602-0.649,1.074-0.866c0.474-0.215,1.046-0.324,1.715-0.324c0.525,0,0.996,0.056,1.416,0.163
					c0.419,0.11,0.769,0.258,1.05,0.442c0.28,0.183,0.492,0.384,0.639,0.608c0.146,0.224,0.22,0.441,0.22,0.655
					c0,0.232-0.079,0.423-0.235,0.573c-0.155,0.148-0.378,0.223-0.665,0.223c-0.209,0-0.386-0.06-0.532-0.178
					c-0.147-0.12-0.314-0.299-0.503-0.535c-0.154-0.198-0.333-0.359-0.542-0.477c-0.209-0.118-0.491-0.178-0.848-0.178
					c-0.368,0-0.672,0.079-0.915,0.236c-0.242,0.153-0.365,0.348-0.365,0.58c0,0.215,0.09,0.389,0.268,0.526
					c0.179,0.137,0.418,0.249,0.721,0.339c0.301,0.09,0.719,0.198,1.249,0.327c0.631,0.155,1.143,0.337,1.544,0.55
					c0.398,0.213,0.7,0.464,0.906,0.754C321.674,24.215,321.778,24.546,321.778,24.919z"/>
				<path style="fill:#606060;" d="M324.522,18.375c-0.284,0-0.525-0.09-0.725-0.262c-0.201-0.172-0.301-0.417-0.301-0.734
					c0-0.288,0.103-0.528,0.309-0.711c0.205-0.187,0.444-0.279,0.718-0.279c0.261,0,0.494,0.084,0.699,0.251
					c0.203,0.17,0.305,0.415,0.305,0.739c0,0.311-0.099,0.554-0.297,0.73C325.029,18.285,324.795,18.375,324.522,18.375z
					 M325.526,20.471v5.868c0,0.406-0.097,0.713-0.291,0.923c-0.194,0.208-0.439,0.313-0.736,0.313c-0.298,0-0.54-0.109-0.726-0.322
					c-0.185-0.213-0.278-0.516-0.278-0.913v-5.808c0-0.402,0.093-0.704,0.278-0.908c0.186-0.204,0.428-0.305,0.726-0.305
					c0.297,0,0.542,0.101,0.736,0.305C325.429,19.827,325.526,20.11,325.526,20.471z"/>
				<path style="fill:#606060;" d="M335.089,20.806v5.896c0,0.675-0.072,1.254-0.216,1.74c-0.143,0.486-0.374,0.889-0.691,1.205
					c-0.317,0.318-0.733,0.554-1.245,0.707c-0.514,0.153-1.152,0.23-1.914,0.23c-0.7,0-1.324-0.099-1.875-0.294
					c-0.55-0.196-0.974-0.449-1.271-0.758c-0.298-0.311-0.446-0.629-0.446-0.956c0-0.249,0.084-0.449,0.254-0.606
					c0.168-0.155,0.371-0.234,0.61-0.234c0.296,0,0.557,0.131,0.779,0.393c0.11,0.135,0.223,0.269,0.339,0.406
					c0.117,0.137,0.246,0.253,0.386,0.35c0.141,0.097,0.313,0.168,0.51,0.215c0.198,0.047,0.427,0.071,0.684,0.071
					c0.525,0,0.934-0.073,1.224-0.219c0.29-0.148,0.493-0.352,0.61-0.614c0.117-0.264,0.183-0.545,0.204-0.846
					c0.019-0.298,0.035-0.781,0.046-1.445c-0.314,0.436-0.675,0.767-1.085,0.995c-0.408,0.228-0.894,0.343-1.46,0.343
					c-0.679,0-1.272-0.172-1.781-0.52c-0.509-0.346-0.898-0.833-1.171-1.458c-0.272-0.625-0.409-1.347-0.409-2.165
					c0-0.608,0.083-1.158,0.249-1.65c0.167-0.49,0.402-0.904,0.71-1.243c0.307-0.337,0.662-0.591,1.064-0.76
					c0.401-0.172,0.843-0.258,1.325-0.258c0.573,0,1.072,0.11,1.493,0.333c0.421,0.219,0.813,0.565,1.176,1.035v-0.273
					c0-0.35,0.086-0.625,0.26-0.818c0.173-0.195,0.396-0.292,0.668-0.292c0.392,0,0.652,0.129,0.781,0.385
					C335.024,19.958,335.089,20.325,335.089,20.806z M329.206,23.379c0,0.823,0.181,1.447,0.54,1.868
					c0.36,0.421,0.824,0.631,1.394,0.631c0.338,0,0.657-0.09,0.955-0.269c0.301-0.181,0.546-0.455,0.734-0.819
					c0.189-0.365,0.283-0.805,0.283-1.327c0-0.827-0.182-1.473-0.546-1.935c-0.364-0.46-0.845-0.69-1.44-0.69
					c-0.58,0-1.045,0.219-1.394,0.661C329.381,21.94,329.206,22.565,329.206,23.379z"/>
				<path style="fill:#606060;" d="M338.987,20.441v0.247c0.357-0.472,0.746-0.818,1.171-1.037c0.423-0.221,0.91-0.333,1.461-0.333
					c0.535,0,1.013,0.116,1.436,0.348c0.42,0.236,0.735,0.565,0.943,0.992c0.135,0.247,0.221,0.516,0.26,0.803
					c0.04,0.286,0.06,0.655,0.06,1.1v3.778c0,0.406-0.093,0.713-0.278,0.923c-0.186,0.208-0.428,0.313-0.725,0.313
					c-0.303,0-0.548-0.109-0.736-0.322c-0.189-0.213-0.283-0.516-0.283-0.913v-3.383c0-0.67-0.093-1.183-0.279-1.538
					c-0.186-0.352-0.557-0.53-1.111-0.53c-0.363,0-0.692,0.107-0.991,0.324c-0.296,0.214-0.515,0.511-0.654,0.887
					c-0.098,0.303-0.148,0.87-0.148,1.697v2.543c0,0.412-0.096,0.72-0.286,0.926c-0.192,0.206-0.439,0.309-0.74,0.309
					c-0.293,0-0.532-0.109-0.721-0.322c-0.188-0.213-0.283-0.516-0.283-0.913v-5.868c0-0.385,0.084-0.674,0.253-0.864
					c0.167-0.191,0.4-0.288,0.692-0.288c0.177,0,0.34,0.041,0.482,0.127c0.143,0.084,0.26,0.209,0.346,0.378
					C338.942,19.992,338.987,20.198,338.987,20.441z"/>
				<path style="fill:#606060;" d="M352.006,23.944h-3.97c0.004,0.462,0.096,0.868,0.279,1.22c0.18,0.352,0.421,0.616,0.72,0.795
					c0.299,0.18,0.631,0.267,0.993,0.267c0.242,0,0.464-0.028,0.665-0.084c0.199-0.056,0.395-0.148,0.584-0.268
					c0.188-0.123,0.361-0.253,0.52-0.391c0.159-0.138,0.365-0.327,0.616-0.565c0.105-0.09,0.254-0.135,0.446-0.135
					c0.21,0,0.376,0.058,0.506,0.17c0.128,0.114,0.194,0.275,0.194,0.485c0,0.183-0.071,0.397-0.216,0.644
					c-0.143,0.245-0.36,0.481-0.651,0.706c-0.289,0.225-0.653,0.413-1.093,0.563c-0.438,0.148-0.943,0.223-1.513,0.223
					c-1.304,0-2.318-0.372-3.043-1.117c-0.723-0.743-1.085-1.752-1.085-3.026c0-0.599,0.091-1.157,0.268-1.669
					c0.179-0.513,0.44-0.954,0.782-1.321c0.342-0.363,0.763-0.647,1.263-0.844c0.501-0.195,1.055-0.294,1.666-0.294
					c0.793,0,1.473,0.168,2.041,0.501c0.568,0.337,0.992,0.767,1.276,1.299c0.283,0.53,0.423,1.07,0.423,1.62
					c0,0.511-0.146,0.842-0.437,0.995C352.948,23.869,352.537,23.944,352.006,23.944z M348.036,22.791h3.681
					c-0.051-0.692-0.237-1.212-0.562-1.557c-0.325-0.344-0.752-0.517-1.283-0.517c-0.505,0-0.921,0.172-1.245,0.524
					C348.303,21.59,348.104,22.106,348.036,22.791z"/>
				<path style="fill:#606060;" d="M360.952,26.414v-0.202c-0.273,0.314-0.541,0.567-0.807,0.764
					c-0.266,0.196-0.554,0.344-0.863,0.445c-0.311,0.101-0.648,0.153-1.015,0.153c-0.486,0-0.936-0.103-1.35-0.309
					c-0.413-0.206-0.772-0.5-1.075-0.881c-0.301-0.38-0.532-0.831-0.687-1.347c-0.156-0.514-0.235-1.072-0.235-1.673
					c0-1.269,0.31-2.257,0.93-2.968c0.619-0.707,1.435-1.063,2.447-1.063c0.586,0,1.079,0.101,1.479,0.303
					c0.401,0.198,0.793,0.509,1.175,0.924v-2.998c0-0.415,0.083-0.73,0.25-0.945c0.167-0.212,0.401-0.32,0.71-0.32
					c0.307,0,0.543,0.099,0.71,0.296c0.166,0.195,0.249,0.485,0.249,0.865v8.956c0,0.386-0.089,0.675-0.268,0.868
					c-0.179,0.195-0.41,0.292-0.691,0.292c-0.278,0-0.507-0.099-0.689-0.301C361.043,27.071,360.952,26.784,360.952,26.414z
					 M356.959,23.431c0,0.552,0.086,1.018,0.256,1.405c0.171,0.385,0.405,0.677,0.704,0.872c0.298,0.198,0.622,0.296,0.973,0.296
					c0.358,0,0.684-0.092,0.979-0.279c0.293-0.185,0.53-0.47,0.706-0.855c0.177-0.384,0.265-0.864,0.265-1.439
					c0-0.543-0.088-1.005-0.265-1.396c-0.176-0.387-0.413-0.685-0.714-0.891c-0.299-0.206-0.629-0.309-0.985-0.309
					c-0.372,0-0.704,0.103-0.997,0.316c-0.292,0.211-0.519,0.513-0.68,0.907C357.04,22.454,356.959,22.911,356.959,23.431z"/>
				<path style="fill:#606060;" d="M370.59,17.458v3.102c0.382-0.398,0.771-0.7,1.167-0.909c0.398-0.213,0.888-0.318,1.473-0.318
					c0.674,0,1.264,0.161,1.773,0.481c0.508,0.318,0.902,0.782,1.182,1.39c0.282,0.606,0.42,1.329,0.42,2.159
					c0,0.616-0.077,1.179-0.234,1.692c-0.155,0.513-0.383,0.96-0.68,1.334c-0.297,0.376-0.658,0.67-1.082,0.876
					c-0.424,0.206-0.892,0.309-1.402,0.309c-0.313,0-0.606-0.039-0.881-0.114c-0.275-0.073-0.509-0.17-0.703-0.292
					c-0.193-0.121-0.358-0.247-0.496-0.376c-0.136-0.127-0.314-0.322-0.538-0.58v0.202c0,0.382-0.091,0.67-0.275,0.866
					c-0.183,0.195-0.416,0.294-0.7,0.294c-0.286,0-0.516-0.099-0.688-0.294c-0.17-0.196-0.256-0.485-0.256-0.866v-8.866
					c0-0.41,0.083-0.722,0.25-0.932c0.167-0.211,0.397-0.318,0.694-0.318c0.313,0,0.554,0.101,0.722,0.303
					C370.506,16.803,370.59,17.088,370.59,17.458z M370.686,23.491c0,0.808,0.185,1.428,0.554,1.862
					c0.371,0.434,0.854,0.651,1.454,0.651c0.51,0,0.95-0.221,1.321-0.666c0.369-0.443,0.553-1.08,0.553-1.907
					c0-0.535-0.077-0.996-0.23-1.383c-0.153-0.387-0.372-0.685-0.655-0.896c-0.282-0.213-0.612-0.316-0.989-0.316
					c-0.386,0-0.73,0.103-1.033,0.316c-0.303,0.211-0.541,0.516-0.715,0.915C370.773,22.465,370.686,22.941,370.686,23.491z"/>
				<path style="fill:#606060;" d="M379.908,27.826l0.186-0.455l-2.499-6.291c-0.154-0.363-0.231-0.625-0.231-0.788
					c0-0.174,0.046-0.335,0.135-0.485c0.089-0.148,0.211-0.266,0.367-0.355c0.156-0.09,0.32-0.135,0.488-0.135
					c0.293,0,0.513,0.094,0.662,0.279c0.149,0.185,0.28,0.451,0.395,0.799l1.717,4.998l1.629-4.646
					c0.128-0.378,0.246-0.67,0.349-0.887c0.105-0.212,0.214-0.356,0.332-0.43c0.116-0.075,0.281-0.112,0.494-0.112
					c0.154,0,0.301,0.041,0.442,0.123c0.142,0.082,0.251,0.191,0.327,0.329c0.077,0.142,0.115,0.286,0.115,0.44
					c-0.02,0.094-0.051,0.228-0.095,0.402c-0.045,0.174-0.1,0.35-0.165,0.528l-2.647,6.931c-0.228,0.61-0.451,1.087-0.671,1.433
					c-0.216,0.348-0.505,0.614-0.865,0.801c-0.359,0.185-0.844,0.279-1.453,0.279c-0.595,0-1.041-0.065-1.339-0.193
					c-0.297-0.129-0.445-0.365-0.445-0.707c0-0.234,0.07-0.412,0.212-0.539c0.141-0.127,0.35-0.191,0.629-0.191
					c0.108,0,0.214,0.017,0.32,0.047c0.128,0.03,0.24,0.043,0.334,0.043c0.233,0,0.415-0.035,0.55-0.103
					c0.134-0.069,0.254-0.191,0.36-0.363C379.646,28.41,379.769,28.158,379.908,27.826z"/>
			</g>
			<g>
				<path style="fill:#606060;" d="M417.474,19.498h0.485v-0.61c0-0.636,0.081-1.142,0.241-1.514
					c0.159-0.372,0.434-0.647,0.818-0.818c0.385-0.172,0.911-0.258,1.581-0.258c1.184,0,1.778,0.292,1.778,0.872
					c0,0.189-0.062,0.348-0.187,0.483c-0.122,0.135-0.269,0.202-0.44,0.202c-0.081,0-0.215-0.017-0.408-0.045
					c-0.193-0.03-0.357-0.045-0.49-0.045c-0.367,0-0.602,0.109-0.705,0.322c-0.105,0.217-0.157,0.526-0.157,0.926v0.485h0.498
					c0.773,0,1.16,0.232,1.16,0.698c0,0.333-0.103,0.545-0.309,0.632c-0.206,0.088-0.488,0.135-0.851,0.135h-0.498v5.376
					c0,0.402-0.097,0.708-0.288,0.919c-0.189,0.212-0.438,0.316-0.739,0.316c-0.286,0-0.526-0.105-0.717-0.316
					c-0.193-0.211-0.286-0.516-0.286-0.919v-5.376H417.4c-0.303,0-0.533-0.069-0.698-0.208c-0.165-0.133-0.245-0.311-0.245-0.53
					C416.456,19.741,416.797,19.498,417.474,19.498z"/>
				<path style="fill:#606060;" d="M424.727,24.644v1.695c0,0.412-0.097,0.72-0.292,0.926c-0.195,0.206-0.438,0.309-0.737,0.309
					c-0.29,0-0.53-0.105-0.719-0.313c-0.189-0.21-0.283-0.517-0.283-0.923v-5.651c0-0.913,0.327-1.37,0.986-1.37
					c0.34,0,0.582,0.108,0.73,0.322c0.15,0.21,0.23,0.526,0.245,0.943c0.245-0.417,0.494-0.733,0.749-0.943
					c0.256-0.213,0.597-0.322,1.024-0.322c0.425,0,0.838,0.108,1.241,0.322c0.402,0.21,0.603,0.494,0.603,0.846
					c0,0.249-0.086,0.453-0.258,0.614c-0.17,0.161-0.354,0.241-0.554,0.241c-0.071,0-0.253-0.045-0.539-0.137
					c-0.284-0.094-0.535-0.138-0.754-0.138c-0.298,0-0.541,0.079-0.728,0.236c-0.187,0.155-0.335,0.385-0.438,0.696
					c-0.105,0.307-0.178,0.67-0.217,1.095C424.744,23.517,424.727,24.034,424.727,24.644z"/>
				<path style="fill:#606060;" d="M434.667,23.944h-3.971c0.006,0.462,0.099,0.868,0.279,1.22c0.182,0.352,0.421,0.616,0.722,0.795
					c0.301,0.18,0.631,0.267,0.992,0.267c0.241,0,0.466-0.028,0.666-0.084c0.2-0.056,0.395-0.148,0.584-0.268
					c0.189-0.123,0.363-0.253,0.522-0.391c0.157-0.138,0.365-0.327,0.616-0.565c0.105-0.09,0.254-0.135,0.447-0.135
					c0.208,0,0.376,0.058,0.503,0.17c0.131,0.114,0.194,0.275,0.194,0.485c0,0.183-0.071,0.397-0.215,0.644
					c-0.146,0.245-0.361,0.481-0.649,0.706c-0.292,0.225-0.655,0.413-1.096,0.563c-0.438,0.148-0.941,0.223-1.512,0.223
					c-1.304,0-2.318-0.372-3.041-1.117c-0.722-0.743-1.087-1.752-1.087-3.026c0-0.599,0.092-1.157,0.268-1.669
					c0.18-0.513,0.441-0.954,0.78-1.321c0.344-0.363,0.765-0.647,1.267-0.844c0.502-0.195,1.055-0.294,1.665-0.294
					c0.792,0,1.473,0.168,2.04,0.501c0.569,0.337,0.996,0.767,1.276,1.299c0.281,0.53,0.425,1.07,0.425,1.62
					c0,0.511-0.148,0.842-0.438,0.995C435.608,23.869,435.199,23.944,434.667,23.944z M430.696,22.791h3.681
					c-0.049-0.692-0.236-1.212-0.561-1.557c-0.324-0.344-0.752-0.517-1.282-0.517c-0.505,0-0.921,0.172-1.246,0.524
					C430.964,21.59,430.767,22.106,430.696,22.791z"/>
				<path style="fill:#606060;" d="M443.718,23.944h-3.971c0.004,0.462,0.097,0.868,0.279,1.22c0.18,0.352,0.421,0.616,0.72,0.795
					c0.301,0.18,0.631,0.267,0.994,0.267c0.241,0,0.464-0.028,0.664-0.084c0.2-0.056,0.395-0.148,0.584-0.268
					c0.189-0.123,0.363-0.253,0.522-0.391c0.159-0.138,0.365-0.327,0.616-0.565c0.105-0.09,0.253-0.135,0.447-0.135
					c0.208,0,0.376,0.058,0.505,0.17c0.129,0.114,0.193,0.275,0.193,0.485c0,0.183-0.071,0.397-0.215,0.644
					c-0.144,0.245-0.359,0.481-0.651,0.706c-0.29,0.225-0.653,0.413-1.091,0.563c-0.44,0.148-0.945,0.223-1.516,0.223
					c-1.302,0-2.317-0.372-3.041-1.117c-0.722-0.743-1.084-1.752-1.084-3.026c0-0.599,0.088-1.157,0.264-1.669
					c0.182-0.513,0.442-0.954,0.782-1.321c0.342-0.363,0.764-0.647,1.265-0.844c0.5-0.195,1.057-0.294,1.664-0.294
					c0.795,0,1.476,0.168,2.043,0.501c0.567,0.337,0.992,0.767,1.276,1.299c0.283,0.53,0.423,1.07,0.423,1.62
					c0,0.511-0.146,0.842-0.44,0.995C444.661,23.869,444.25,23.944,443.718,23.944z M439.748,22.791h3.681
					c-0.051-0.692-0.238-1.212-0.561-1.557c-0.326-0.344-0.752-0.517-1.284-0.517c-0.505,0-0.921,0.172-1.246,0.524
					C440.013,21.59,439.815,22.106,439.748,22.791z"/>
				<path style="fill:#606060;" d="M448.774,20.456v0.245c0.384-0.47,0.779-0.816,1.19-1.035c0.412-0.223,0.878-0.333,1.398-0.333
					c0.625,0,1.2,0.161,1.725,0.483c0.526,0.326,0.941,0.793,1.248,1.415c0.303,0.618,0.455,1.351,0.455,2.201
					c0,0.623-0.088,1.198-0.264,1.721c-0.176,0.524-0.417,0.962-0.726,1.316c-0.307,0.356-0.668,0.629-1.087,0.819
					c-0.419,0.191-0.87,0.286-1.351,0.286c-0.58,0-1.067-0.118-1.461-0.352c-0.393-0.23-0.769-0.573-1.126-1.026v3.05
					c0,0.893-0.326,1.338-0.973,1.338c-0.382,0-0.634-0.116-0.76-0.346c-0.123-0.23-0.183-0.567-0.183-1.007v-8.761
					c0-0.385,0.084-0.674,0.251-0.864c0.168-0.191,0.399-0.288,0.692-0.288c0.286,0,0.522,0.097,0.702,0.294
					C448.684,19.808,448.774,20.089,448.774,20.456z M452.753,23.409c0-0.535-0.081-0.995-0.245-1.379
					c-0.163-0.385-0.389-0.679-0.679-0.885c-0.292-0.206-0.61-0.309-0.964-0.309c-0.56,0-1.033,0.219-1.417,0.661
					c-0.385,0.443-0.576,1.093-0.576,1.95c0,0.808,0.191,1.435,0.573,1.884c0.382,0.449,0.855,0.674,1.42,0.674
					c0.339,0,0.651-0.097,0.938-0.296c0.286-0.194,0.516-0.486,0.69-0.88C452.667,24.438,452.753,23.964,452.753,23.409z"/>
				<path style="fill:#606060;" d="M457.446,18.375c-0.283,0-0.526-0.09-0.724-0.262c-0.2-0.172-0.301-0.417-0.301-0.734
					c0-0.288,0.103-0.528,0.307-0.711c0.206-0.187,0.445-0.279,0.719-0.279c0.262,0,0.496,0.084,0.698,0.251
					c0.204,0.17,0.305,0.415,0.305,0.739c0,0.311-0.099,0.554-0.294,0.73C457.954,18.285,457.719,18.375,457.446,18.375z
					 M458.448,20.471v5.868c0,0.406-0.095,0.713-0.29,0.923c-0.193,0.208-0.438,0.313-0.735,0.313c-0.298,0-0.537-0.109-0.724-0.322
					c-0.187-0.213-0.279-0.516-0.279-0.913v-5.808c0-0.402,0.092-0.704,0.279-0.908c0.187-0.204,0.427-0.305,0.724-0.305
					c0.297,0,0.543,0.101,0.735,0.305C458.353,19.827,458.448,20.11,458.448,20.471z"/>
				<path style="fill:#606060;" d="M465.604,26.642l-1.793-2.945l-1.1,1.042v1.615c0,0.391-0.103,0.693-0.309,0.904
					c-0.208,0.212-0.443,0.316-0.709,0.316c-0.315,0-0.558-0.105-0.737-0.313c-0.18-0.21-0.267-0.517-0.267-0.923v-8.656
					c0-0.451,0.084-0.795,0.26-1.029c0.172-0.236,0.423-0.356,0.745-0.356c0.311,0,0.559,0.109,0.743,0.32
					c0.183,0.215,0.275,0.53,0.275,0.945v4.923l2.281-2.393c0.286-0.299,0.498-0.502,0.647-0.612
					c0.15-0.107,0.329-0.163,0.543-0.163c0.254,0,0.464,0.082,0.632,0.243c0.168,0.161,0.255,0.363,0.255,0.604
					c0,0.298-0.277,0.694-0.827,1.19l-1.076,0.99l2.081,3.271c0.155,0.243,0.264,0.428,0.329,0.554
					c0.069,0.125,0.101,0.249,0.101,0.361c0,0.324-0.088,0.576-0.264,0.764c-0.176,0.185-0.408,0.279-0.694,0.279
					c-0.247,0-0.44-0.066-0.573-0.202C466.012,27.239,465.832,26.996,465.604,26.642z"/>
				<path style="fill:#606060;" d="M470.623,27.574c-0.307,0-0.573-0.099-0.795-0.299c-0.223-0.196-0.337-0.475-0.337-0.833
					c0-0.303,0.109-0.561,0.32-0.78c0.215-0.219,0.479-0.326,0.79-0.326c0.313,0,0.576,0.107,0.801,0.322
					c0.219,0.217,0.329,0.477,0.329,0.784c0,0.354-0.11,0.629-0.329,0.831C471.177,27.475,470.92,27.574,470.623,27.574z"/>
				<path style="fill:#606060;" d="M481.326,25.059c0,0.253-0.078,0.522-0.232,0.812c-0.148,0.286-0.38,0.561-0.687,0.821
					c-0.313,0.26-0.704,0.47-1.171,0.627c-0.474,0.159-1.003,0.238-1.594,0.238c-1.252,0-2.232-0.365-2.936-1.095
					c-0.704-0.732-1.055-1.712-1.055-2.942c0-0.834,0.159-1.57,0.481-2.21c0.322-0.638,0.79-1.134,1.401-1.482
					c0.607-0.35,1.338-0.526,2.186-0.526c0.524,0,1.005,0.079,1.445,0.232c0.44,0.153,0.812,0.352,1.115,0.593
					c0.305,0.245,0.539,0.503,0.7,0.777c0.161,0.277,0.24,0.533,0.24,0.771c0,0.243-0.09,0.449-0.269,0.618
					c-0.181,0.168-0.401,0.251-0.659,0.251c-0.168,0-0.309-0.041-0.419-0.129c-0.112-0.084-0.238-0.225-0.376-0.417
					c-0.247-0.378-0.505-0.662-0.776-0.85c-0.27-0.187-0.614-0.282-1.031-0.282c-0.599,0-1.084,0.234-1.45,0.704
					c-0.365,0.466-0.55,1.11-0.55,1.922c0,0.382,0.047,0.732,0.141,1.052c0.097,0.32,0.234,0.593,0.41,0.818
					c0.178,0.226,0.395,0.397,0.647,0.514c0.253,0.114,0.531,0.174,0.835,0.174c0.404,0,0.752-0.094,1.044-0.283
					c0.29-0.189,0.545-0.475,0.769-0.863c0.125-0.228,0.258-0.408,0.402-0.535c0.144-0.129,0.32-0.193,0.528-0.193
					c0.247,0,0.453,0.094,0.616,0.281C481.242,24.647,481.326,24.847,481.326,25.059z"/>
				<path style="fill:#606060;" d="M490.693,23.446c0,0.604-0.094,1.162-0.283,1.673c-0.187,0.513-0.462,0.949-0.819,1.315
					c-0.356,0.367-0.782,0.649-1.278,0.846c-0.496,0.195-1.053,0.294-1.673,0.294c-0.614,0-1.168-0.099-1.66-0.299
					c-0.487-0.196-0.915-0.479-1.274-0.849c-0.359-0.371-0.633-0.806-0.816-1.308c-0.187-0.505-0.281-1.063-0.281-1.671
					c0-0.614,0.093-1.177,0.283-1.688c0.187-0.513,0.458-0.947,0.81-1.31c0.352-0.361,0.779-0.64,1.278-0.836
					c0.503-0.197,1.055-0.294,1.66-0.294c0.616,0,1.171,0.101,1.673,0.297c0.501,0.2,0.93,0.481,1.285,0.848
					c0.359,0.367,0.631,0.805,0.816,1.31C490.6,22.278,490.693,22.836,490.693,23.446z M488.656,23.446
					c0-0.827-0.183-1.473-0.547-1.933c-0.365-0.462-0.853-0.692-1.469-0.692c-0.397,0-0.746,0.103-1.05,0.309
					c-0.299,0.206-0.535,0.509-0.698,0.909c-0.165,0.402-0.245,0.872-0.245,1.407c0,0.531,0.08,0.994,0.241,1.39
					c0.161,0.397,0.391,0.7,0.692,0.911c0.299,0.212,0.651,0.316,1.059,0.316c0.616,0,1.104-0.232,1.469-0.696
					C488.472,24.906,488.656,24.264,488.656,23.446z"/>
				<path style="fill:#606060;" d="M499.045,23.596v2.698c0,0.427-0.097,0.745-0.29,0.958c-0.193,0.213-0.449,0.322-0.765,0.322
					c-0.309,0-0.558-0.109-0.749-0.322c-0.189-0.213-0.286-0.532-0.286-0.958v-3.235c0-0.511-0.017-0.906-0.052-1.188
					c-0.034-0.284-0.129-0.516-0.283-0.696c-0.151-0.18-0.395-0.271-0.728-0.271c-0.666,0-1.102,0.226-1.312,0.683
					c-0.211,0.456-0.318,1.111-0.318,1.965v2.743c0,0.423-0.095,0.741-0.286,0.954c-0.191,0.217-0.441,0.326-0.754,0.326
					c-0.305,0-0.56-0.109-0.754-0.326c-0.196-0.213-0.294-0.531-0.294-0.954v-5.808c0-0.38,0.086-0.67,0.264-0.87
					c0.174-0.196,0.408-0.297,0.694-0.297c0.279,0,0.511,0.094,0.696,0.279c0.185,0.185,0.281,0.443,0.281,0.771v0.193
					c0.35-0.419,0.726-0.731,1.128-0.928c0.404-0.198,0.848-0.299,1.338-0.299c0.511,0,0.951,0.101,1.317,0.307
					c0.367,0.202,0.67,0.509,0.906,0.921c0.343-0.415,0.709-0.726,1.102-0.924c0.391-0.202,0.825-0.303,1.302-0.303
					c0.554,0,1.033,0.108,1.433,0.327c0.402,0.219,0.702,0.53,0.898,0.937c0.176,0.367,0.262,0.943,0.262,1.733v3.963
					c0,0.427-0.097,0.745-0.292,0.958c-0.191,0.213-0.445,0.322-0.763,0.322c-0.307,0-0.56-0.109-0.754-0.326
					c-0.196-0.213-0.296-0.531-0.296-0.954v-3.413c0-0.436-0.019-0.786-0.054-1.05c-0.039-0.262-0.139-0.481-0.303-0.66
					c-0.161-0.18-0.41-0.268-0.743-0.268c-0.268,0-0.52,0.08-0.762,0.238c-0.24,0.161-0.426,0.372-0.563,0.64
					C499.119,22.121,499.045,22.726,499.045,23.596z"/>
			</g>
			<g>
				<path style="fill:#606060;" d="M401.481,14.084c-0.043-0.129-0.087-0.26-0.13-0.389c0.682-0.062,1.138-0.877,0.805-1.486
					c-0.303-0.683-1.354-0.767-1.76-0.14c-0.435,0.554-0.096,1.43,0.57,1.606c0.04,0.138,0.081,0.281,0.121,0.423
					c-1.022,0.064-2.064,0.292-2.921,0.876c0.087,0.247,0.175,0.498,0.263,0.745c1.73-0.756,3.671-0.591,5.497-0.41
					c0.06-0.241,0.12-0.483,0.18-0.724C403.283,14.213,402.377,14.079,401.481,14.084z"/>
				<path style="fill:#606060;" d="M411.769,16.878c-0.275,0.139-0.326,0.466-0.309,0.745c-0.305,0.296-0.163,0.741-0.197,1.114
					c-0.067,0.208-0.318,0.23-0.488,0.309c-0.24-0.363-0.496-0.713-0.814-1.011v-0.019c-0.348-0.325-0.724-0.621-1.123-0.881
					c-0.322,0.342-0.657,0.679-0.965,1.037c0.61,0.672,1.173,1.387,1.673,2.146c0.341,0.576,0.62,1.19,0.857,1.815
					c0.515-0.262,1.022-0.539,1.536-0.808c-0.271-0.629-0.58-1.239-0.911-1.841c0.228-0.123,0.533-0.243,0.569-0.539
					c0.026-0.329-0.047-0.685,0.152-0.973c0.397,0.262,1.001-0.033,1.007-0.516C412.808,16.955,412.179,16.594,411.769,16.878z"/>
				<path style="fill:#606060;" d="M408.985,20.609c-0.668-1.11-1.394-2.216-2.378-3.073c-1.141-1.003-2.62-1.68-4.154-1.673
					c-1.941-0.024-3.904,0.292-5.689,1.07c-1.684,0.741-3.148,2.055-3.89,3.761c-0.714,1.533-0.706,3.297-0.383,4.927
					c1.785,0.445,3.598,0.844,5.44,0.932c1.816,0.054,3.643,0.099,5.446-0.155c2.481-0.326,4.906-1.111,7.07-2.377
					C410.446,24.022,410.149,22.391,408.985,20.609z M400.215,22.804c-0.335,0.489-0.819,0.87-1.372,1.082
					c-1.043,0.389-2.313,0.123-3.063-0.709c-0.525-0.576-0.835-1.351-0.778-2.135c0.039-0.979,0.645-1.89,1.503-2.348
					c0.654-0.356,1.445-0.417,2.157-0.217c0.299,0.075,0.577,0.215,0.833,0.385c0.526,0.374,0.924,0.928,1.099,1.551
					C400.838,21.212,400.682,22.112,400.215,22.804z M407.733,21.042c-0.122,0.834-0.921,1.544-1.778,1.491
					c-0.494,0.041-0.969-0.195-1.306-0.543c-0.24-0.299-0.442-0.648-0.472-1.039c-0.116-0.85,0.483-1.725,1.314-1.929
					c0.367-0.101,0.749-0.045,1.108,0.037C407.381,19.34,407.896,20.224,407.733,21.042z"/>
				<path style="fill:#606060;" d="M392.896,18.126c-0.725,0.436-1.321,1.053-1.818,1.735c-0.147-0.268-0.191-0.589-0.379-0.831
					c-0.109-0.144-0.302-0.086-0.454-0.088c-0.191,0.021-0.379-0.032-0.56-0.088c0.211-0.299,0.157-0.758-0.17-0.951
					c-0.346-0.249-0.884-0.034-0.975,0.382c-0.146,0.451,0.335,0.906,0.78,0.786c0.236,0.348,0.661,0.292,1.023,0.307
					c0.164,0.283,0.288,0.591,0.498,0.85c-0.388,0.767-0.607,1.624-0.626,2.485c0.499,0.208,0.997,0.419,1.498,0.629
					c0.026-0.543,0.088-1.082,0.171-1.617c0.167-1.164,0.841-2.178,1.638-3.009C393.325,18.506,393.104,18.323,392.896,18.126z"/>
				<path style="fill:#606060;" d="M404.563,26.91c-1.841,0.401-3.738,0.516-5.618,0.436c-1.271-0.066-2.541-0.183-3.784-0.458
					c-0.881-0.18-1.743-0.434-2.608-0.681c0.139,1.108,0.586,2.165,1.224,3.076c0.754,1.059,1.762,2.034,3.016,2.425
					c0.977,0.262,2.146,0.599,4.155,0.565c1.664-0.032,3.297-0.243,4.757-0.861c0.943-0.406,1.822-0.956,2.578-1.647
					c0.659-0.618,1.169-1.387,1.523-2.215c0.342-0.78,0.653-2.18,0.618-2.902C408.627,25.673,406.614,26.563,404.563,26.91z"/>
			</g>
		</g>
	</g>
</g>
</svg>
