<?xml version="1.0" encoding="utf-8"?>
<!-- Generator: Adobe Illustrator 27.5.0, SVG Export Plug-In . SVG Version: 6.00 Build 0)  -->
<svg version="1.1" xmlns="http://www.w3.org/2000/svg" xmlns:xlink="http://www.w3.org/1999/xlink" x="0px" y="0px"
	 viewBox="0 0 750 500" style="enable-background:new 0 0 750 500;" xml:space="preserve">
<g id="Background_Simple">
	<g>
		<path style="fill:#92E3A9;" d="M594.824,433.869c51.804-2.842,96.905-36.224,116.024-84.454C719.626,327.271,727,300.717,727,274
			c0-66-24-172-96-210S474,31,425,52s-62,51-111,57s-85-53-172-55S12,175,25,238s80.382,107.733,81.445,133.765
			C107.507,397.797,136,440,207,452s172-40,220-42s112,26,165,24C592.946,433.964,593.888,433.921,594.824,433.869z"/>
		<path style="opacity:0.7;fill:#FFFFFF;" d="M594.824,433.869c51.804-2.842,96.905-36.224,116.024-84.454
			C719.626,327.271,727,300.717,727,274c0-66-24-172-96-210S474,31,425,52s-62,51-111,57s-85-53-172-55S12,175,25,238
			s80.382,107.733,81.445,133.765C107.507,397.797,136,440,207,452s172-40,220-42s112,26,165,24
			C592.946,433.964,593.888,433.921,594.824,433.869z"/>
	</g>
</g>
<g id="Window">
	<g>
		<g>
			
				<line style="opacity:0.2;fill:none;stroke:#000000;stroke-linecap:round;stroke-linejoin:round;stroke-miterlimit:10;" x1="464.198" y1="32" x2="471.594" y2="32"/>
			
				<polyline style="opacity:0.2;fill:none;stroke:#000000;stroke-linecap:round;stroke-linejoin:round;stroke-miterlimit:10;" points="
				477.044,32 491,32 491,112 426,112 426,32 457.191,32 			"/>
			
				<rect x="495" y="32" style="opacity:0.2;fill:none;stroke:#000000;stroke-linecap:round;stroke-linejoin:round;stroke-miterlimit:10;" width="65" height="80"/>
			
				<polyline style="opacity:0.2;fill:none;stroke:#000000;stroke-linecap:round;stroke-linejoin:round;stroke-miterlimit:10;" points="
				612.899,32 629,32 629,112 564,112 564,32 605.503,32 			"/>
			
				<polyline style="opacity:0.2;fill:none;stroke:#000000;stroke-linecap:round;stroke-linejoin:round;stroke-miterlimit:10;" points="
				698,92.282 698,112 633,112 633,32 698,32 698,88.026 			"/>
		</g>
		<g>
			
				<rect x="426" y="117" style="opacity:0.2;fill:none;stroke:#000000;stroke-linecap:round;stroke-linejoin:round;stroke-miterlimit:10;" width="65" height="80"/>
			
				<polyline style="opacity:0.2;fill:none;stroke:#000000;stroke-linecap:round;stroke-linejoin:round;stroke-miterlimit:10;" points="
				495,142.078 495,117 560,117 560,197 495,197 495,149.313 			"/>
			
				<rect x="564" y="117" style="opacity:0.2;fill:none;stroke:#000000;stroke-linecap:round;stroke-linejoin:round;stroke-miterlimit:10;" width="65" height="80"/>
			
				<polyline style="opacity:0.2;fill:none;stroke:#000000;stroke-linecap:round;stroke-linejoin:round;stroke-miterlimit:10;" points="
				649.271,117 698,117 698,197 633,197 633,117 644.163,117 			"/>
		</g>
		<g>
			
				<rect x="426" y="202" style="opacity:0.2;fill:none;stroke:#000000;stroke-linecap:round;stroke-linejoin:round;stroke-miterlimit:10;" width="65" height="80"/>
			
				<rect x="495" y="202" style="opacity:0.2;fill:none;stroke:#000000;stroke-linecap:round;stroke-linejoin:round;stroke-miterlimit:10;" width="65" height="80"/>
			
				<rect x="564" y="202" style="opacity:0.2;fill:none;stroke:#000000;stroke-linecap:round;stroke-linejoin:round;stroke-miterlimit:10;" width="65" height="80"/>
			
				<polyline style="opacity:0.2;fill:none;stroke:#000000;stroke-linecap:round;stroke-linejoin:round;stroke-miterlimit:10;" points="
				698,269.334 698,282 633,282 633,230.178 			"/>
			
				<line style="opacity:0.2;fill:none;stroke:#000000;stroke-linecap:round;stroke-linejoin:round;stroke-miterlimit:10;" x1="698" y1="257.417" x2="698" y2="264.652"/>
			
				<polyline style="opacity:0.2;fill:none;stroke:#000000;stroke-linecap:round;stroke-linejoin:round;stroke-miterlimit:10;" points="
				633,223.368 633,202 698,202 698,252.735 			"/>
		</g>
		<g>
			
				<rect x="426" y="287" style="opacity:0.2;fill:none;stroke:#000000;stroke-linecap:round;stroke-linejoin:round;stroke-miterlimit:10;" width="65" height="80"/>
			
				<rect x="495" y="287" style="opacity:0.2;fill:none;stroke:#000000;stroke-linecap:round;stroke-linejoin:round;stroke-miterlimit:10;" width="65" height="80"/>
			
				<rect x="564" y="287" style="opacity:0.2;fill:none;stroke:#000000;stroke-linecap:round;stroke-linejoin:round;stroke-miterlimit:10;" width="65" height="80"/>
			
				<polyline style="opacity:0.2;fill:none;stroke:#000000;stroke-linecap:round;stroke-linejoin:round;stroke-miterlimit:10;" points="
				648.419,367 633,367 633,287 698,287 698,367 654.803,367 			"/>
		</g>
	</g>
</g>
<g id="Picture">
	<g style="opacity:0.2;">
		<polyline style="fill:none;stroke:#000000;stroke-linecap:round;stroke-linejoin:round;stroke-miterlimit:10;" points="
			87.604,170 164,170 164,34 57,34 57,170 80.369,170 		"/>
		
			<line style="fill:none;stroke:#000000;stroke-linecap:round;stroke-linejoin:round;stroke-miterlimit:10;" x1="141.23" y1="40" x2="98.244" y2="40"/>
		<polyline style="fill:none;stroke:#000000;stroke-linecap:round;stroke-linejoin:round;stroke-miterlimit:10;" points="
			61.721,95.261 61.721,164 159.279,164 159.279,40 146.763,40 		"/>
		<polyline style="fill:none;stroke:#000000;stroke-linecap:round;stroke-linejoin:round;stroke-miterlimit:10;" points="91.435,40 
			61.721,40 61.721,88.452 		"/>
		<polyline style="fill:none;stroke:#000000;stroke-linecap:round;stroke-linejoin:round;stroke-miterlimit:10;" points="
			125.483,73.402 88,73.402 88,130.598 116.545,130.598 		"/>
		<polyline style="fill:none;stroke:#000000;stroke-linecap:round;stroke-linejoin:round;stroke-miterlimit:10;" points="
			121.227,130.598 133,130.598 133,73.402 130.165,73.402 		"/>
	</g>
</g>
<g id="Clock">
	<g style="opacity:0.2;">
		
			<circle style="fill:none;stroke:#000000;stroke-linecap:round;stroke-linejoin:round;stroke-miterlimit:10;" cx="217" cy="77" r="39.833"/>
		
			<circle style="fill:none;stroke:#000000;stroke-linecap:round;stroke-linejoin:round;stroke-miterlimit:10;" cx="217" cy="77" r="34.243"/>
		<polyline style="fill:none;stroke:#000000;stroke-linecap:round;stroke-linejoin:round;stroke-miterlimit:10;" points="
			207.529,87.378 217,77 244.827,77 		"/>
	</g>
</g>
<g id="Plant">
	<g>
		<path style="fill:none;stroke:#263238;stroke-width:2;stroke-linecap:round;stroke-linejoin:round;stroke-miterlimit:10;" d="
			M111.429,237.398c0,0-13.236-7.353-14.216,9.314c-0.98,16.668-3.431,154.928-3.431,154.928"/>
		<path style="fill:none;stroke:#263238;stroke-width:2;stroke-linecap:round;stroke-linejoin:round;stroke-miterlimit:10;" d="
			M90.339,248.181c0,0,10.796,53.945,5.894,151.989"/>
		<g>
			<path style="fill:#92E3A9;" d="M100.945,240.753c0,0-5.063,3.244-7.944-0.469c-2.881-3.713,1.949-10.514-2.308-13.422
				c-4.257-2.908-11.605,1.53-11.605,1.53s5.659,1.662,5.477,4.752c-0.182,3.089-2.908,4.257-3.272,2.907
				c-0.363-1.35-3.062-8.152-7.658-5.323c-4.596,2.829-5.297,7.216-5.297,7.216s10.696-1.14,11.344,2.884
				c0.648,4.024-4.387-0.702-8.801-0.962c-4.413-0.26-8.437,0.388-8.152,3.062c0.285,2.674-0.417,7.061-0.417,7.061
				s3.739-3.322,8.594-3.036c4.855,0.286,4.672,3.376,0.259,3.115c-4.413-0.26-8.204,3.945-8.204,3.945s4.023,6.88,9.136,10.282
				c5.114,3.402,6.957,2.182,7.555-0.44c0.598-2.622-0.777-9.346,2.312-9.164c3.089,0.182-5.116,11.656-1.17,12.331
				s7.113-0.466,8.152-3.062c1.039-2.596,1.039-2.596,1.039-2.596s-1.375-6.724-0.777-9.346c0.598-2.622,1.324,0.078,2.024,3.219
				c0.7,3.141,1.141,10.696,2.491,10.333c1.35-0.363,5.66-5.866,6.673-8.021c1.013-2.155-5.684-8.75-5.606-10.074
				c0.078-1.324,5.244,1.195,6.049,2.571c0.805,1.376,1.583,3.194,1.583,3.194s3.219-2.025,3.143-8.229
				C105.488,238.807,100.945,240.753,100.945,240.753z"/>
			<path style="opacity:0.3;fill:#263238;" d="M100.945,240.753c0,0-5.063,3.244-7.944-0.469
				c-2.881-3.713,1.949-10.514-2.308-13.422c-4.257-2.908-11.605,1.53-11.605,1.53s5.659,1.662,5.477,4.752
				c-0.182,3.089-2.908,4.257-3.272,2.907c-0.363-1.35-3.062-8.152-7.658-5.323c-4.596,2.829-5.297,7.216-5.297,7.216
				s10.696-1.14,11.344,2.884c0.648,4.024-4.387-0.702-8.801-0.962c-4.413-0.26-8.437,0.388-8.152,3.062
				c0.285,2.674-0.417,7.061-0.417,7.061s3.739-3.322,8.594-3.036c4.855,0.286,4.672,3.376,0.259,3.115
				c-4.413-0.26-8.204,3.945-8.204,3.945s4.023,6.88,9.136,10.282c5.114,3.402,6.957,2.182,7.555-0.44
				c0.598-2.622-0.777-9.346,2.312-9.164c3.089,0.182-5.116,11.656-1.17,12.331s7.113-0.466,8.152-3.062
				c1.039-2.596,1.039-2.596,1.039-2.596s-1.375-6.724-0.777-9.346c0.598-2.622,1.324,0.078,2.024,3.219
				c0.7,3.141,1.141,10.696,2.491,10.333c1.35-0.363,5.66-5.866,6.673-8.021c1.013-2.155-5.684-8.75-5.606-10.074
				c0.078-1.324,5.244,1.195,6.049,2.571c0.805,1.376,1.583,3.194,1.583,3.194s3.219-2.025,3.143-8.229
				C105.488,238.807,100.945,240.753,100.945,240.753z"/>
			<path style="fill:none;stroke:#263238;stroke-linecap:round;stroke-linejoin:round;stroke-miterlimit:10;" d="M75.278,255.301
				c3.301-4.082,8.167-9.604,12.245-12.24"/>
			<path style="fill:none;stroke:#263238;stroke-linecap:round;stroke-linejoin:round;stroke-miterlimit:10;" d="M71.45,260.27
				c0,0,0.848-1.179,2.222-2.945"/>
			<path style="fill:none;stroke:#263238;stroke-linecap:round;stroke-linejoin:round;stroke-miterlimit:10;" d="M89.677,244.074
				c0,0,4.906,6.932,5.813,14.072"/>
			<path style="fill:none;stroke:#263238;stroke-linecap:round;stroke-linejoin:round;stroke-miterlimit:10;" d="M84.121,248.175
				c0,0,1.376-0.805,0.855,8.022"/>
			<path style="fill:none;stroke:#263238;stroke-linecap:round;stroke-linejoin:round;stroke-miterlimit:10;" d="M87.705,239.972
				c0,0,2.804-2.492,1.325-7.451"/>
			
				<line style="fill:none;stroke:#263238;stroke-linecap:round;stroke-linejoin:round;stroke-miterlimit:10;" x1="83.914" y1="244.177" x2="81.916" y2="240.516"/>
			<path style="fill:none;stroke:#263238;stroke-linecap:round;stroke-linejoin:round;stroke-miterlimit:10;" d="M79.708,247.914
				c0,0-6.36-4.804-10.331-5.038"/>
		</g>
		<g>
			<path style="fill:#92E3A9;" d="M118.991,227.673c0,0-0.203,7.28-5.884,7.634c-5.681,0.354-9.198-9.118-15.012-6.838
				c-5.814,2.28-6.379,12.661-6.379,12.661s5.522-4.533,8.491-2.245c2.969,2.288,2.28,5.813,0.681,5.257
				c-1.599-0.557-10.249-2.491-10.549,4.038c-0.3,6.529,3.614,10.222,3.614,10.222s6.149-11.486,10.62-9.393
				c4.471,2.094-3.693,3.914-6.962,8.155c-3.269,4.241-5.363,8.712-2.491,10.249c2.872,1.537,6.786,5.23,6.786,5.23
				s-0.778-6.008,2.818-10.673c3.596-4.665,6.565-2.377,3.296,1.864c-3.269,4.241-1.643,10.903-1.643,10.903
				s9.631,0.662,16.522-2.139c6.891-2.801,6.927-5.478,4.709-7.864c-2.218-2.385-9.887-5.592-7.599-8.561
				c2.288-2.969,8.182,13.067,11.548,9.577c3.366-3.49,4.382-7.44,2.491-10.249c-1.891-2.809-1.891-2.809-1.891-2.809
				s-7.669-3.207-9.887-5.592c-2.218-2.385,0.981-1.272,4.603,0.168c3.623,1.44,11.486,6.149,12.043,4.55
				c0.556-1.599-2.015-9.666-3.482-12.148c-1.467-2.483-12.635-0.273-13.907-1.254c-1.272-0.981,4.771-4.436,6.697-4.303
				c1.926,0.132,4.276,0.592,4.276,0.592s0.168-4.603-6.097-8.755C120.139,221.797,118.991,227.673,118.991,227.673z"/>
			<path style="opacity:0.2;fill:#263238;" d="M118.991,227.673c0,0-0.203,7.28-5.884,7.634c-5.681,0.354-9.198-9.118-15.012-6.838
				c-5.814,2.28-6.379,12.661-6.379,12.661s5.522-4.533,8.491-2.245c2.969,2.288,2.28,5.813,0.681,5.257
				c-1.599-0.557-10.249-2.491-10.549,4.038c-0.3,6.529,3.614,10.222,3.614,10.222s6.149-11.486,10.62-9.393
				c4.471,2.094-3.693,3.914-6.962,8.155c-3.269,4.241-5.363,8.712-2.491,10.249c2.872,1.537,6.786,5.23,6.786,5.23
				s-0.778-6.008,2.818-10.673c3.596-4.665,6.565-2.377,3.296,1.864c-3.269,4.241-1.643,10.903-1.643,10.903
				s9.631,0.662,16.522-2.139c6.891-2.801,6.927-5.478,4.709-7.864c-2.218-2.385-9.887-5.592-7.599-8.561
				c2.288-2.969,8.182,13.067,11.548,9.577c3.366-3.49,4.382-7.44,2.491-10.249c-1.891-2.809-1.891-2.809-1.891-2.809
				s-7.669-3.207-9.887-5.592c-2.218-2.385,0.981-1.272,4.603,0.168c3.623,1.44,11.486,6.149,12.043,4.55
				c0.556-1.599-2.015-9.666-3.482-12.148c-1.467-2.483-12.635-0.273-13.907-1.254c-1.272-0.981,4.771-4.436,6.697-4.303
				c1.926,0.132,4.276,0.592,4.276,0.592s0.168-4.603-6.097-8.755C120.139,221.797,118.991,227.673,118.991,227.673z"/>
			<path style="fill:none;stroke:#263238;stroke-linecap:round;stroke-linejoin:round;stroke-miterlimit:10;" d="M116.062,263.288
				c-1.836-6.088-4.049-14.724-3.909-20.603"/>
			<path style="fill:none;stroke:#263238;stroke-linecap:round;stroke-linejoin:round;stroke-miterlimit:10;" d="M118.427,270.507
				c0,0-0.602-1.652-1.434-4.232"/>
			<path style="fill:none;stroke:#263238;stroke-linecap:round;stroke-linejoin:round;stroke-miterlimit:10;" d="M114.635,241.217
				c0,0,10.284-0.186,18.051,3.772"/>
			<path style="fill:none;stroke:#263238;stroke-linecap:round;stroke-linejoin:round;stroke-miterlimit:10;" d="M114.954,249.576
				c0,0,0.132-1.926,8.615,4.611"/>
			<path style="fill:none;stroke:#263238;stroke-linecap:round;stroke-linejoin:round;stroke-miterlimit:10;" d="M109.184,240.396
				c0,0-0.583-4.506-6.556-6.405"/>
			
				<line style="fill:none;stroke:#263238;stroke-linecap:round;stroke-linejoin:round;stroke-miterlimit:10;" x1="110.81" y1="247.058" x2="105.783" y2="246.563"/>
			<path style="fill:none;stroke:#263238;stroke-linecap:round;stroke-linejoin:round;stroke-miterlimit:10;" d="M111.685,253.817
				c0,0-9.144,3.093-12.086,6.91"/>
		</g>
		<path style="fill:none;stroke:#263238;stroke-width:2;stroke-linecap:round;stroke-linejoin:round;stroke-miterlimit:10;" d="
			M57.995,276.125c0,0,28.923,49.041,28.433,123.064"/>
		<g>
			<path style="fill:#92E3A9;" d="M93.656,271.075c0,0-0.921,8.382-7.51,8.254c-6.589-0.128-9.753-11.389-16.677-9.307
				s-8.555,14.008-8.555,14.008s6.8-4.709,10.01-1.789c3.21,2.921,2.082,6.924,0.289,6.13c-1.793-0.793-11.592-3.842-12.554,3.664
				c-0.963,7.506,3.206,12.137,3.206,12.137s8.179-12.674,13.141-9.836c4.961,2.838-4.631,4.168-8.803,8.754
				c-4.172,4.585-7.01,9.547-3.842,11.592c3.168,2.045,7.337,6.676,7.337,6.676s-0.331-7.006,4.259-12.05
				c4.59-5.044,7.799-2.123,3.627,2.462c-4.172,4.585-2.925,12.426-2.925,12.426s11.05,1.673,19.267-0.909
				c8.216-2.582,8.51-5.668,6.176-8.63c-2.334-2.962-10.881-7.386-7.961-10.596c2.921-3.21,8.208,15.851,12.422,12.141
				c4.214-3.71,5.759-8.171,3.842-11.592s-1.917-3.421-1.917-3.421s-8.547-4.424-10.881-7.386c-2.334-2.962,1.252-1.376,5.296,0.628
				c4.044,2.003,12.674,8.179,13.467,6.387c0.793-1.793-1.413-11.344-2.871-14.347s-14.554-1.508-15.929-2.76
				c-1.376-1.252,5.924-4.668,8.134-4.333c2.21,0.335,4.879,1.086,4.879,1.086s0.628-5.296-6.209-10.679
				C95.536,264.403,93.656,271.075,93.656,271.075z"/>
			<path style="opacity:0.3;fill:#263238;" d="M93.656,271.075c0,0-0.921,8.382-7.51,8.254c-6.589-0.128-9.753-11.389-16.677-9.307
				s-8.555,14.008-8.555,14.008s6.8-4.709,10.01-1.789c3.21,2.921,2.082,6.924,0.289,6.13c-1.793-0.793-11.592-3.842-12.554,3.664
				c-0.963,7.506,3.206,12.137,3.206,12.137s8.179-12.674,13.141-9.836c4.961,2.838-4.631,4.168-8.803,8.754
				c-4.172,4.585-7.01,9.547-3.842,11.592c3.168,2.045,7.337,6.676,7.337,6.676s-0.331-7.006,4.259-12.05
				c4.59-5.044,7.799-2.123,3.627,2.462c-4.172,4.585-2.925,12.426-2.925,12.426s11.05,1.673,19.267-0.909
				c8.216-2.582,8.51-5.668,6.176-8.63c-2.334-2.962-10.881-7.386-7.961-10.596c2.921-3.21,8.208,15.851,12.422,12.141
				c4.214-3.71,5.759-8.171,3.842-11.592s-1.917-3.421-1.917-3.421s-8.547-4.424-10.881-7.386c-2.334-2.962,1.252-1.376,5.296,0.628
				c4.044,2.003,12.674,8.179,13.467,6.387c0.793-1.793-1.413-11.344-2.871-14.347s-14.554-1.508-15.929-2.76
				c-1.376-1.252,5.924-4.668,8.134-4.333c2.21,0.335,4.879,1.086,4.879,1.086s0.628-5.296-6.209-10.679
				C95.536,264.403,93.656,271.075,93.656,271.075z"/>
			<path style="fill:none;stroke:#263238;stroke-linecap:round;stroke-linejoin:round;stroke-miterlimit:10;" d="M86.915,311.895
				c-1.544-7.198-3.283-17.372-2.566-24.143"/>
			<path style="fill:none;stroke:#263238;stroke-linecap:round;stroke-linejoin:round;stroke-miterlimit:10;" d="M88.963,320.448
				c0,0-0.539-1.963-1.255-5.018"/>
			<path style="fill:none;stroke:#263238;stroke-linecap:round;stroke-linejoin:round;stroke-miterlimit:10;" d="M87.352,286.293
				c0,0,11.885,0.756,20.473,6.056"/>
			<path style="fill:none;stroke:#263238;stroke-linecap:round;stroke-linejoin:round;stroke-miterlimit:10;" d="M86.931,295.968
				c0,0,0.335-2.21,9.505,6.135"/>
			<path style="fill:none;stroke:#263238;stroke-linecap:round;stroke-linejoin:round;stroke-miterlimit:10;" d="M81.139,284.831
				c0,0-0.248-5.255-6.961-8.01"/>
			
				<line style="fill:none;stroke:#263238;stroke-linecap:round;stroke-linejoin:round;stroke-miterlimit:10;" x1="82.387" y1="292.672" x2="76.632" y2="291.626"/>
			<path style="fill:none;stroke:#263238;stroke-linecap:round;stroke-linejoin:round;stroke-miterlimit:10;" d="M82.759,300.554
				c0,0-10.844,2.706-14.599,6.833"/>
		</g>
		<g>
			<path style="fill:#92E3A9;" d="M93.656,341.155c0,0-0.921,8.382-7.51,8.254c-6.589-0.128-9.753-11.389-16.677-9.307
				s-8.555,14.008-8.555,14.008s6.8-4.709,10.01-1.789c3.21,2.921,2.082,6.924,0.289,6.13c-1.793-0.793-11.592-3.842-12.554,3.664
				c-0.963,7.506,3.206,12.137,3.206,12.137s8.179-12.674,13.141-9.836c4.961,2.838-4.631,4.168-8.803,8.754
				c-4.172,4.585-7.01,9.547-3.842,11.591c3.168,2.045,7.337,6.676,7.337,6.676s-0.331-7.006,4.259-12.05
				c4.59-5.044,7.799-2.123,3.627,2.462c-4.172,4.585-2.925,12.426-2.925,12.426s11.05,1.673,19.267-0.909
				c8.216-2.582,8.51-5.668,6.176-8.63c-2.334-2.962-10.881-7.386-7.961-10.596c2.921-3.21,8.208,15.851,12.422,12.141
				c4.214-3.71,5.759-8.171,3.842-11.592s-1.917-3.421-1.917-3.421s-8.547-4.424-10.881-7.386c-2.334-2.962,1.252-1.376,5.296,0.628
				c4.044,2.003,12.674,8.179,13.467,6.386c0.793-1.793-1.413-11.344-2.871-14.347s-14.554-1.508-15.929-2.759
				c-1.376-1.252,5.924-4.668,8.134-4.333c2.21,0.335,4.879,1.086,4.879,1.086s0.628-5.296-6.209-10.679
				C95.536,334.483,93.656,341.155,93.656,341.155z"/>
			<path style="opacity:0.3;fill:#263238;" d="M93.656,341.155c0,0-0.921,8.382-7.51,8.254c-6.589-0.128-9.753-11.389-16.677-9.307
				s-8.555,14.008-8.555,14.008s6.8-4.709,10.01-1.789c3.21,2.921,2.082,6.924,0.289,6.13c-1.793-0.793-11.592-3.842-12.554,3.664
				c-0.963,7.506,3.206,12.137,3.206,12.137s8.179-12.674,13.141-9.836c4.961,2.838-4.631,4.168-8.803,8.754
				c-4.172,4.585-7.01,9.547-3.842,11.591c3.168,2.045,7.337,6.676,7.337,6.676s-0.331-7.006,4.259-12.05
				c4.59-5.044,7.799-2.123,3.627,2.462c-4.172,4.585-2.925,12.426-2.925,12.426s11.05,1.673,19.267-0.909
				c8.216-2.582,8.51-5.668,6.176-8.63c-2.334-2.962-10.881-7.386-7.961-10.596c2.921-3.21,8.208,15.851,12.422,12.141
				c4.214-3.71,5.759-8.171,3.842-11.592s-1.917-3.421-1.917-3.421s-8.547-4.424-10.881-7.386c-2.334-2.962,1.252-1.376,5.296,0.628
				c4.044,2.003,12.674,8.179,13.467,6.386c0.793-1.793-1.413-11.344-2.871-14.347s-14.554-1.508-15.929-2.759
				c-1.376-1.252,5.924-4.668,8.134-4.333c2.21,0.335,4.879,1.086,4.879,1.086s0.628-5.296-6.209-10.679
				C95.536,334.483,93.656,341.155,93.656,341.155z"/>
			<path style="fill:none;stroke:#263238;stroke-linecap:round;stroke-linejoin:round;stroke-miterlimit:10;" d="M86.915,381.975
				c-1.544-7.198-3.283-17.372-2.566-24.143"/>
			<path style="fill:none;stroke:#263238;stroke-linecap:round;stroke-linejoin:round;stroke-miterlimit:10;" d="M88.963,390.528
				c0,0-0.539-1.963-1.255-5.019"/>
			<path style="fill:none;stroke:#263238;stroke-linecap:round;stroke-linejoin:round;stroke-miterlimit:10;" d="M87.352,356.373
				c0,0,11.885,0.756,20.473,6.056"/>
			<path style="fill:none;stroke:#263238;stroke-linecap:round;stroke-linejoin:round;stroke-miterlimit:10;" d="M86.931,366.048
				c0,0,0.335-2.21,9.505,6.135"/>
			<path style="fill:none;stroke:#263238;stroke-linecap:round;stroke-linejoin:round;stroke-miterlimit:10;" d="M81.139,354.911
				c0,0-0.248-5.255-6.961-8.01"/>
			
				<line style="fill:none;stroke:#263238;stroke-linecap:round;stroke-linejoin:round;stroke-miterlimit:10;" x1="82.387" y1="362.752" x2="76.632" y2="361.706"/>
			<path style="fill:none;stroke:#263238;stroke-linecap:round;stroke-linejoin:round;stroke-miterlimit:10;" d="M82.759,370.634
				c0,0-10.844,2.706-14.599,6.833"/>
		</g>
		<path style="fill:none;stroke:#263238;stroke-width:2;stroke-linecap:round;stroke-linejoin:round;stroke-miterlimit:10;" d="
			M69.27,334.462c0,0,18.628,44.139,20.589,65.218l-3.922-100.514"/>
		<path style="fill:none;stroke:#263238;stroke-width:2;stroke-linecap:round;stroke-linejoin:round;stroke-miterlimit:10;" d="
			M114.37,324.167c-24.511-4.412-24.511,75.513-24.511,75.513"/>
		<path style="fill:none;stroke:#263238;stroke-width:2;stroke-linecap:round;stroke-linejoin:round;stroke-miterlimit:10;" d="
			M92.801,399.19c0,0-14.216-133.359,26.962-133.359"/>
		<g>
			<path style="fill:#92E3A9;" d="M105.031,321.194c-3.348-3.767-10.463-3.767-14.648,5.859c-4.185,9.626-0.418,7.952-0.418,7.952
				s7.952-2.511,12.974-4.185c5.022-1.674,11.718-5.859,12.137-3.348c0.418,2.511-3.348,5.022-7.952,5.859
				c-4.604,0.837-16.741,4.185-15.485,6.696c1.256,2.511,4.185,10.044,4.185,10.044s5.859-5.022,11.3-8.37
				c5.441-3.348,8.789-2.093,5.859,1.674c-2.929,3.767-11.3,7.952-9.626,12.974c1.674,5.022,11.718,11.3,11.718,11.3
				s1.256-10.463,4.185-13.811c2.93-3.348,2.93,0.418,2.093,6.278c-0.837,5.859-0.837,7.533-0.837,7.533l11.718,4.185
				c0,0,4.185-6.278,6.278-8.37c2.093-2.092,2.093-2.092,2.093-2.092s-9.207-7.952-9.626-12.974c-0.418-5.022,6.278,0,8.37,0.837
				c2.093,0.837,5.441,6.696,5.441,6.696s2.092-9.626,2.511-12.974s0.419-3.348,0.419-3.348s-8.789-3.348-12.137-3.348
				s-5.022,2.511-5.022-0.837c0-3.348,3.348-5.441,7.115-5.022c3.767,0.418,10.044,2.511,10.044,2.511s2.511-2.093,1.674-8.37
				c-0.837-6.278-2.93-6.278-7.952-4.604c-5.022,1.674-8.37,5.441-12.137,5.441c-3.767,0-1.674-4.604,0.837-5.859
				c2.511-1.256,8.789-3.767,10.044-4.185c1.256-0.419-6.696-6.278-10.881-7.115c-4.185-0.837-9.604,2.111-9.207,6.278
				C120.934,323.286,108.379,324.96,105.031,321.194z"/>
			<path style="fill:none;stroke:#263238;stroke-linecap:round;stroke-linejoin:round;stroke-miterlimit:10;" d="M131.972,364.285
				c0.125,1.26,0.214,2.523,0.262,3.782"/>
			<path style="fill:none;stroke:#263238;stroke-linecap:round;stroke-linejoin:round;stroke-miterlimit:10;" d="M123.564,334.241
				c2.939,6.793,6.338,16.159,7.878,25.934"/>
			<path style="fill:none;stroke:#263238;stroke-linecap:round;stroke-linejoin:round;stroke-miterlimit:10;" d="M122.057,330.881
				c-2.073-4.458-3.634-7.176-3.634-7.176s3.767-1.674,5.441-5.022c1.674-3.348,4.185-5.022,4.185-5.022"/>
			<path style="fill:none;stroke:#263238;stroke-linecap:round;stroke-linejoin:round;stroke-miterlimit:10;" d="M103.775,337.934
				c0,0,15.067-6.278,15.067-5.022"/>
			<path style="fill:none;stroke:#263238;stroke-linecap:round;stroke-linejoin:round;stroke-miterlimit:10;" d="M127.212,329.982
				c0,0,6.696-3.348,12.555-3.348"/>
			<path style="fill:none;stroke:#263238;stroke-linecap:round;stroke-linejoin:round;stroke-miterlimit:10;" d="M124.701,340.027
				c0,0-3.767,2.93-7.952,7.952c-4.185,5.022-5.859,9.626-5.859,9.626"/>
			<path style="fill:none;stroke:#263238;stroke-linecap:round;stroke-linejoin:round;stroke-miterlimit:10;" d="M129.305,341.701
				c0,0,8.789-2.511,13.392,1.674"/>
		</g>
		<g>
			<path style="fill:#92E3A9;" d="M145.224,285.151c-4.557-2.695-9.596-2.754-12.065-5.598c-2.469-2.844,2.379-4.282,4.973-3.209
				c2.594,1.073,8.606,4.167,9.745,4.841c1.139,0.674,0.351-9.172-1.761-12.881c-2.112-3.709-7.891-5.868-10.777-2.837
				c-6.088,6.394-15.583-1.99-14.934-6.987c0.649-4.998-4.015-10.37-14.027-7.22c-10.013,3.15-6.279,4.897-6.279,4.897
				s7.109,4.358,11.666,7.053c4.557,2.695,12.107,5.008,10.485,6.97c-1.622,1.962-5.987,0.764-9.637-2.164
				c-3.65-2.928-14.135-9.898-15.208-7.303c-1.073,2.594-4.841,9.745-4.841,9.745s7.633,1.132,13.728,3.046
				c6.095,1.913,7.342,5.265,2.577,5.522s-13.413-3.32-16.107,1.237c-2.695,4.556-0.851,16.257-0.851,16.257
				s8.724-5.911,13.173-5.894c4.449,0.017,1.604,2.487-3.369,5.696c-4.973,3.209-6.237,4.306-6.237,4.306L100,312.219
				c0,0,7.484-0.955,10.436-0.747c2.952,0.208,2.952,0.208,2.952,0.208s-0.031-12.166,3.487-15.774
				c3.518-3.608,4.116,4.741,4.855,6.869c0.74,2.129-1.49,8.498-1.49,8.498s8.641-4.73,11.443-6.609
				c2.803-1.879,2.803-1.879,2.803-1.879s-3.233-8.832-5.428-11.36c-2.195-2.528-5.189-2.146-2.66-4.341
				c2.528-2.195,6.303-1.038,8.457,2.08c2.153,3.119,4.689,9.231,4.689,9.231s3.226,0.525,7.418-4.223
				C151.153,289.426,149.781,287.846,145.224,285.151z M105.617,298.547c-3.348-1.674,4.604-5.022,4.604-5.022
				C113.151,293.106,108.965,300.221,105.617,298.547z M111.255,282.922c-1.427-0.714,2.854-2.141,2.854-2.141
				C120.295,281.971,112.683,283.636,111.255,282.922z"/>
			<path style="fill:none;stroke:#263238;stroke-linecap:round;stroke-linejoin:round;stroke-miterlimit:10;" d="M105.528,307.073
				c-0.87,0.921-1.765,1.815-2.684,2.677"/>
			<path style="fill:none;stroke:#263238;stroke-linecap:round;stroke-linejoin:round;stroke-miterlimit:10;" d="M122.704,281.027
				c-3.203,6.673-8.047,15.38-14.419,22.95"/>
			<path style="fill:none;stroke:#263238;stroke-linecap:round;stroke-linejoin:round;stroke-miterlimit:10;" d="M124.253,277.687
				c2.007-4.489,3.037-7.449,3.037-7.449s3.734,1.747,7.359,0.816c3.626-0.931,6.536-0.132,6.536-0.132"/>
			<path style="fill:none;stroke:#263238;stroke-linecap:round;stroke-linejoin:round;stroke-miterlimit:10;" d="M106.942,268.505
				c0,0,14.618,7.262,13.67,8.085"/>
			<path style="fill:none;stroke:#263238;stroke-linecap:round;stroke-linejoin:round;stroke-miterlimit:10;" d="M128.311,280.99
				c0,0,6.918,2.862,10.759,7.286"/>
			<path style="fill:none;stroke:#263238;stroke-linecap:round;stroke-linejoin:round;stroke-miterlimit:10;" d="M119.08,285.679
				c0,0-4.682-0.924-11.218-0.792c-6.536,0.132-11.11,1.886-11.11,1.886"/>
			<path style="fill:none;stroke:#263238;stroke-linecap:round;stroke-linejoin:round;stroke-miterlimit:10;" d="M120.834,290.253
				c0,0,7.658,4.991,7.516,11.211"/>
		</g>
		<g>
			<path style="fill:#92E3A9;" d="M80.192,343.142c-3.667-2.169-7.722-2.216-9.709-4.505c-1.987-2.289,1.914-3.446,4.002-2.582
				c2.088,0.864,6.926,3.354,7.842,3.896c0.917,0.542,0.282-7.381-1.417-10.366c-1.699-2.985-6.35-4.723-8.672-2.283
				c-4.899,5.145-12.54-1.601-12.018-5.623c0.523-4.022-3.231-8.345-11.288-5.81c-8.057,2.535-5.053,3.941-5.053,3.941
				s5.721,3.507,9.388,5.676c3.667,2.169,9.743,4.03,8.438,5.609c-1.305,1.579-4.818,0.615-7.756-1.741
				c-2.937-2.356-11.375-7.965-12.239-5.878c-0.864,2.088-3.896,7.842-3.896,7.842s6.143,0.911,11.048,2.451
				c4.905,1.54,5.908,4.237,2.074,4.444c-3.834,0.207-10.794-2.672-12.962,0.995c-2.169,3.667-0.685,13.083-0.685,13.083
				s7.021-4.757,10.601-4.743c3.58,0.014,1.291,2.001-2.711,4.584c-4.002,2.582-5.019,3.466-5.019,3.466l3.639,9.329
				c0,0,6.023-0.769,8.398-0.601c2.376,0.168,2.376,0.168,2.376,0.168s-0.025-9.79,2.806-12.694s3.312,3.815,3.907,5.528
				c0.595,1.713-1.199,6.839-1.199,6.839s6.954-3.807,9.209-5.319c2.256-1.512,2.256-1.512,2.256-1.512s-2.602-7.107-4.368-9.142
				c-1.766-2.035-4.175-1.727-2.141-3.493c2.035-1.766,5.073-0.836,6.805,1.674c1.733,2.51,3.773,7.429,3.773,7.429
				s2.596,0.422,5.97-3.398C84.963,346.582,83.859,345.31,80.192,343.142z M48.318,353.922c-2.694-1.347,3.705-4.042,3.705-4.042
				C54.381,349.544,51.012,355.269,48.318,353.922z M52.855,341.348c-1.149-0.574,2.297-1.723,2.297-1.723
				C60.13,340.582,54.004,341.922,52.855,341.348z"/>
			<path style="fill:none;stroke:#263238;stroke-linecap:round;stroke-linejoin:round;stroke-miterlimit:10;" d="M48.246,360.783
				c-0.7,0.741-1.42,1.461-2.16,2.155"/>
			<path style="fill:none;stroke:#263238;stroke-linecap:round;stroke-linejoin:round;stroke-miterlimit:10;" d="M62.069,339.823
				c-2.577,5.37-6.476,12.377-11.604,18.469"/>
			<path style="fill:none;stroke:#263238;stroke-linecap:round;stroke-linejoin:round;stroke-miterlimit:10;" d="M63.315,337.135
				c1.616-3.612,2.444-5.994,2.444-5.994s3.004,1.406,5.922,0.657c2.918-0.749,5.26-0.106,5.26-0.106"/>
			<path style="fill:none;stroke:#263238;stroke-linecap:round;stroke-linejoin:round;stroke-miterlimit:10;" d="M49.384,329.746
				c0,0,11.763,5.844,11.001,6.506"/>
			<path style="fill:none;stroke:#263238;stroke-linecap:round;stroke-linejoin:round;stroke-miterlimit:10;" d="M66.581,339.794
				c0,0,5.567,2.303,8.659,5.863"/>
			<path style="fill:none;stroke:#263238;stroke-linecap:round;stroke-linejoin:round;stroke-miterlimit:10;" d="M59.152,343.567
				c0,0-3.767-0.743-9.027-0.637c-5.26,0.106-8.941,1.518-8.941,1.518"/>
			<path style="fill:none;stroke:#263238;stroke-linecap:round;stroke-linejoin:round;stroke-miterlimit:10;" d="M60.564,347.247
				c0,0,6.163,4.016,6.048,9.022"/>
		</g>
		<g>
			<path style="fill:#92E3A9;" d="M65.24,274.032c0,0-4.604,3.348-7.533,0c-2.93-3.348,1.256-10.044-2.93-12.555
				c-4.185-2.511-10.881,2.092-10.881,2.092s5.441,1.255,5.441,4.185c0,2.93-2.511,4.185-2.93,2.93
				c-0.419-1.255-3.348-7.533-7.533-4.604c-4.185,2.93-4.604,7.115-4.604,7.115s10.044-1.674,10.881,2.092
				c0.837,3.767-4.185-0.418-8.37-0.418c-4.185,0-7.952,0.837-7.533,3.348c0.419,2.511,0,6.696,0,6.696s3.348-3.348,7.952-3.348
				c4.604,0,4.604,2.93,0.418,2.93c-4.185,0-7.533,4.185-7.533,4.185s4.185,6.278,9.207,9.207s6.696,1.674,7.115-0.837
				c0.418-2.511-1.256-8.789,1.674-8.789c2.93,0-4.185,11.3-0.418,11.718c3.767,0.418,6.696-0.837,7.533-3.348
				c0.837-2.511,0.837-2.511,0.837-2.511s-1.674-6.278-1.255-8.789c0.418-2.511,1.255,0,2.093,2.93
				c0.837,2.93,1.674,10.044,2.93,9.626c1.255-0.418,5.022-5.859,5.859-7.952c0.837-2.093-5.859-7.952-5.859-9.207
				s5.022,0.837,5.859,2.093c0.837,1.256,1.674,2.93,1.674,2.93s2.93-2.093,2.511-7.952C69.425,271.939,65.24,274.032,65.24,274.032
				z"/>
			<path style="fill:none;stroke:#263238;stroke-linecap:round;stroke-linejoin:round;stroke-miterlimit:10;" d="M41.795,289.211
				c2.893-4.041,7.183-9.532,10.89-12.25"/>
			<path style="fill:none;stroke:#263238;stroke-linecap:round;stroke-linejoin:round;stroke-miterlimit:10;" d="M38.455,294.12
				c0,0,0.735-1.161,1.936-2.907"/>
			<path style="fill:none;stroke:#263238;stroke-linecap:round;stroke-linejoin:round;stroke-miterlimit:10;" d="M54.777,277.798
				c0,0,5.022,6.278,6.278,12.974"/>
			<path style="fill:none;stroke:#263238;stroke-linecap:round;stroke-linejoin:round;stroke-miterlimit:10;" d="M49.755,281.983
				c0,0,1.256-0.837,1.256,7.533"/>
			<path style="fill:none;stroke:#263238;stroke-linecap:round;stroke-linejoin:round;stroke-miterlimit:10;" d="M52.685,274.032
				c0,0,2.511-2.511,0.837-7.115"/>
			
				<line style="fill:none;stroke:#263238;stroke-linecap:round;stroke-linejoin:round;stroke-miterlimit:10;" x1="49.336" y1="278.217" x2="47.244" y2="274.869"/>
			<path style="fill:none;stroke:#263238;stroke-linecap:round;stroke-linejoin:round;stroke-miterlimit:10;" d="M45.57,281.983
				c0,0-6.278-4.185-10.044-4.185"/>
		</g>
		<g>
			<path style="fill:#92E3A9;" d="M106.026,362.976c0,0-4.604,3.348-7.533,0c-2.929-3.348,1.256-10.044-2.929-12.555
				c-4.185-2.511-10.881,2.093-10.881,2.093s5.441,1.255,5.441,4.185c0,2.93-2.511,4.185-2.929,2.93
				c-0.419-1.255-3.348-7.533-7.533-4.604c-4.185,2.93-4.604,7.115-4.604,7.115s10.044-1.674,10.881,2.092
				c0.837,3.767-4.185-0.418-8.37-0.418c-4.185,0-7.952,0.837-7.533,3.348c0.419,2.511,0,6.696,0,6.696s3.348-3.348,7.952-3.348
				c4.604,0,4.604,2.93,0.419,2.93c-4.185,0-7.533,4.185-7.533,4.185s4.185,6.278,9.207,9.207s6.696,1.674,7.115-0.837
				c0.418-2.511-1.256-8.789,1.674-8.789c2.93,0-4.185,11.3-0.418,11.718c3.767,0.419,6.696-0.837,7.533-3.348
				c0.837-2.511,0.837-2.511,0.837-2.511s-1.674-6.278-1.255-8.789c0.418-2.511,1.255,0,2.092,2.93
				c0.837,2.93,1.674,10.044,2.93,9.626c1.255-0.418,5.022-5.859,5.859-7.952c0.837-2.093-5.859-7.952-5.859-9.207
				c0-1.256,5.022,0.837,5.859,2.093c0.837,1.256,1.674,2.93,1.674,2.93s2.93-2.093,2.511-7.952
				C110.211,360.884,106.026,362.976,106.026,362.976z"/>
			<path style="fill:none;stroke:#263238;stroke-linecap:round;stroke-linejoin:round;stroke-miterlimit:10;" d="M82.581,378.156
				c2.893-4.041,7.183-9.532,10.89-12.25"/>
			<path style="fill:none;stroke:#263238;stroke-linecap:round;stroke-linejoin:round;stroke-miterlimit:10;" d="M79.241,383.065
				c0,0,0.735-1.161,1.936-2.907"/>
			<path style="fill:none;stroke:#263238;stroke-linecap:round;stroke-linejoin:round;stroke-miterlimit:10;" d="M95.563,366.743
				c0,0,5.022,6.278,6.278,12.974"/>
			<path style="fill:none;stroke:#263238;stroke-linecap:round;stroke-linejoin:round;stroke-miterlimit:10;" d="M90.541,370.928
				c0,0,1.256-0.837,1.256,7.533"/>
			<path style="fill:none;stroke:#263238;stroke-linecap:round;stroke-linejoin:round;stroke-miterlimit:10;" d="M93.471,362.976
				c0,0,2.511-2.511,0.837-7.115"/>
			
				<line style="fill:none;stroke:#263238;stroke-linecap:round;stroke-linejoin:round;stroke-miterlimit:10;" x1="90.122" y1="367.161" x2="88.03" y2="363.813"/>
			<path style="fill:none;stroke:#263238;stroke-linecap:round;stroke-linejoin:round;stroke-miterlimit:10;" d="M86.356,370.928
				c0,0-6.278-4.185-10.044-4.185"/>
		</g>
		
			<rect x="75.153" y="397.797" style="fill:#263238;stroke:#263238;stroke-width:2;stroke-linecap:round;stroke-linejoin:round;stroke-miterlimit:10;" width="32.354" height="46.571"/>
	</g>
</g>
<g id="Floor_1_">
	
		<line style="fill:#FFFFFF;stroke:#263238;stroke-linecap:round;stroke-linejoin:round;stroke-miterlimit:10;" x1="42.104" y1="444.368" x2="725" y2="444.368"/>
</g>
<g id="Character_3">
	<g>
		
			<line style="fill:none;stroke:#263238;stroke-width:6;stroke-linecap:round;stroke-linejoin:round;stroke-miterlimit:10;" x1="609.875" y1="345" x2="614.375" y2="441"/>
		
			<line style="fill:none;stroke:#263238;stroke-width:6;stroke-linecap:round;stroke-linejoin:round;stroke-miterlimit:10;" x1="589.692" y1="345" x2="594.692" y2="441"/>
		
			<line style="fill:none;stroke:#263238;stroke-width:6;stroke-linecap:round;stroke-linejoin:round;stroke-miterlimit:10;" x1="525.33" y1="345" x2="518.83" y2="441"/>
		
			<line style="fill:none;stroke:#263238;stroke-width:6;stroke-linecap:round;stroke-linejoin:round;stroke-miterlimit:10;" x1="510.624" y1="345" x2="495.124" y2="441"/>
		<polygon style="fill:#808080;stroke:#263238;stroke-linecap:round;stroke-linejoin:round;stroke-miterlimit:10;" points="
			612.86,240.292 613.189,341.634 521.277,341.634 524.556,240.292 		"/>
		
			<rect x="503.624" y="341.337" transform="matrix(-1 -1.224647e-16 1.224647e-16 -1 1116.8125 688.446)" style="fill:#808080;stroke:#263238;stroke-linecap:round;stroke-linejoin:round;stroke-miterlimit:10;" width="109.565" height="5.772"/>
		
			<rect x="503.624" y="341.337" transform="matrix(-1 -1.224647e-16 1.224647e-16 -1 1100.0458 688.446)" style="fill:#808080;stroke:#263238;stroke-linecap:round;stroke-linejoin:round;stroke-miterlimit:10;" width="92.798" height="5.772"/>
	</g>
	<g>
		<path style="fill:#263238;stroke:#263238;stroke-linecap:round;stroke-linejoin:round;stroke-miterlimit:10;" d="M526.858,288.946
			c0,0-8.503,12.978-9.846,22.824c-1.343,9.846,0.895,21.034,7.161,25.061c6.265,4.028,13.426,4.475,13.426,4.475h53.256
			c0,0,9.398-2.238,13.426-11.188c4.028-8.951,1.343-20.586-1.343-26.404c-2.685-5.818-4.923-10.741-4.923-10.741L526.858,288.946z"
			/>
		<path style="fill:#92E3A9;stroke:#263238;stroke-linecap:round;stroke-linejoin:round;stroke-miterlimit:10;" d="M551.92,186.042
			c0,0-31.327,11.636-33.117,14.768c-1.79,3.133,13.873,64.892,13.873,64.892l-8.056,25.509c0,0,18.349,4.028,37.145,5.818
			c18.796,1.79,37.145-3.58,37.145-3.58l-7.16-29.984l11.636-62.654c0,0-22.994-10.91-28.055-12.839
			C570.268,186.042,555.5,185.595,551.92,186.042z"/>
		<path style="fill:#92E3A9;stroke:#263238;stroke-linecap:round;stroke-linejoin:round;stroke-miterlimit:10;" d="M585.051,192.249
			c-4.236-1.94-8.007-3.624-9.721-4.277c-5.062-1.929-19.83-2.377-23.41-1.929c0,0-7.676,2.852-15.646,6.111l17.883,74.444
			l15.664,2.238L585.051,192.249z"/>
		<path style="fill:#FFFFFF;stroke:#263238;stroke-linecap:round;stroke-linejoin:round;stroke-miterlimit:10;" d="M568.639,297.387
			l5.49-109.797c-5.875-1.605-18.88-1.963-22.209-1.547c0,0-0.972,0.361-2.561,0.965l5.863,109.312
			c2.156,0.26,4.346,0.501,6.544,0.71C564.074,297.249,566.377,297.36,568.639,297.387z"/>
		<path style="fill:#92E3A9;stroke:#263238;stroke-linecap:round;stroke-linejoin:round;stroke-miterlimit:10;" d="M518.803,200.811
			c0,0-28.642,78.765-23.719,81.45c4.923,2.685,62.206,3.58,62.206,3.58v-6.265l-38.04-13.873l7.608-24.614L518.803,200.811z"/>
		<path style="fill:#FFFFFF;stroke:#263238;stroke-linecap:round;stroke-linejoin:round;stroke-miterlimit:10;" d="M557.29,279.576
			c0,0,15.216-1.79,16.558-1.79s13.426,8.503,13.426,8.503l-29.984-0.447V279.576z"/>
		<g>
			<g>
				<path style="fill:#92E3A9;stroke:#263238;stroke-linecap:round;stroke-linejoin:round;stroke-miterlimit:10;" d="
					M603.264,200.811c0,0,28.642,78.765,23.719,81.45c-4.923,2.685-62.206,3.58-62.206,3.58v-6.265l38.04-13.873l-7.216-23.294
					L603.264,200.811z"/>
				<path style="fill:none;stroke:#263238;stroke-linecap:round;stroke-linejoin:round;stroke-miterlimit:10;" d="M615.64,263.98
					c0.997,0.014,1.943,0.087,2.787,0.24"/>
				<path style="fill:none;stroke:#263238;stroke-linecap:round;stroke-linejoin:round;stroke-miterlimit:10;" d="M602.816,265.702
					c0,0,5.811-1.446,11.047-1.69"/>
			</g>
			<path style="fill:#FFFFFF;stroke:#263238;stroke-linecap:round;stroke-linejoin:round;stroke-miterlimit:10;" d="
				M564.776,279.576c0,0-15.216-1.79-16.559-1.79c-1.343,0-13.426,8.503-13.426,8.503l29.984-0.447V279.576z"/>
		</g>
		<g>
			<path style="fill:#263238;stroke:#263238;stroke-linecap:round;stroke-linejoin:round;stroke-miterlimit:10;" d="M604.83,308.516
				c-3.583-14.675-17.468-17.415-29.753-18.428c-12.285-1.012-20.463,2.634-20.463,2.634s19.963,1.012,22.522,14.675l-8.19,19.736
				c0,0-1.536,4.554,6.143,11.639"/>
			<path style="fill:#FFFFFF;stroke:#263238;stroke-linecap:round;stroke-linejoin:round;stroke-miterlimit:10;" d="M572.23,314.571
				c0,0,0.916,12.682,4.123,28.535c3.207,15.853,17.41,73.376,18.326,75.641c0.916,2.265,11.454,17.212,9.621,22.647
				c-1.833,5.435-4.123,4.982-8.247,0.906c-4.123-4.077-8.247-21.288-8.705-23.1c-0.458-1.812-24.282-42.576-31.612-61.147
				c-7.33-18.57-11.912-28.988-9.621-42.576c2.291-13.588,10.537-14.041,16.952-12.229
				C569.481,305.06,572.23,314.571,572.23,314.571z"/>
			<polygon style="fill:#263238;stroke:#263238;stroke-miterlimit:10;" points="571.866,319.396 555.737,358.053 551.419,346.553 
							"/>
			<path style="fill:#263238;stroke:#263238;stroke-linecap:round;stroke-linejoin:round;stroke-miterlimit:10;" d="
				M604.301,441.394c0.989-2.935-1.627-8.64-4.388-13.627c-3.328,5.047-6.841,4.495-9.305,3.002c1.56,4.77,3.503,9.609,5.447,11.531
				C600.177,446.377,602.468,446.829,604.301,441.394z"/>
		</g>
		<g>
			<path style="fill:#FFFFFF;stroke:#263238;stroke-linecap:round;stroke-linejoin:round;stroke-miterlimit:10;" d="
				M575.638,301.952c0,0-7.608-13.426-19.691-9.398c-12.083,4.028-37.592,91.743-45.648,104.274
				c-3.598,5.596-6.713,9.398-6.713,9.398s-5.818,1.79-12.978,1.79c-7.16,0-13.426,0-8.055,4.475
				c5.37,4.475,16.559,7.608,22.376,8.503c5.818,0.895,8.951-10.293,8.951-10.293s34.46-58.626,40.725-64.892
				c6.265-6.265,17.901-26.404,20.139-30.432C576.981,311.35,576.534,305.98,575.638,301.952z"/>
			<path style="fill:#263238;stroke:#263238;stroke-linecap:round;stroke-linejoin:round;stroke-miterlimit:10;" d="
				M513.375,412.229c-6.39,0.686-16.501,1.605-16.501,1.605l-3.542-5.902c-0.879,0.053-1.789,0.085-2.724,0.085
				c-7.16,0-13.426,0-8.055,4.475c5.37,4.475,16.559,7.608,22.376,8.503C509.394,421.681,512.275,415.257,513.375,412.229z"/>
		</g>
		<g>
			<path style="fill:#FFFFFF;stroke:#263238;stroke-linecap:round;stroke-linejoin:round;stroke-miterlimit:10;" d="
				M542.788,151.363c0,0-4.52,3.616-3.616,7.683c0.904,4.068-1.356,10.395-4.52,11.299c-3.164,0.904,0,4.972,2.26,5.424
				c2.26,0.452,2.26,0.452,2.26,0.452s2.26,11.299,4.068,12.655c1.808,1.356,8.587,0,8.587,0s2.26,14.915,5.423,19.434
				c3.164,4.52,4.972,5.424,9.039-0.452c4.068-5.876,9.039-19.886,9.039-19.886s1.356-14.915-2.26-25.31
				C569.454,152.266,555.895,138.708,542.788,151.363z"/>
			<path style="fill:#263238;" d="M543.493,166.603c0,1.161-0.412,2.101-0.919,2.101c-0.508,0-0.919-0.941-0.919-2.101
				c0-1.161,0.412-2.101,0.919-2.101C543.081,164.502,543.493,165.443,543.493,166.603z"/>
			<path style="fill:none;stroke:#263238;stroke-linecap:round;stroke-linejoin:round;stroke-miterlimit:10;" d="M541.129,161.613
				c0,0,2.101-2.364,3.94,0.788"/>
			<path style="fill:none;stroke:#263238;stroke-linecap:round;stroke-linejoin:round;stroke-miterlimit:10;" d="M542.18,178.949
				c0,0,1.313,0.525,4.465-1.839"/>
		</g>
		<path style="fill:#263238;stroke:#263238;stroke-linecap:round;stroke-linejoin:round;stroke-miterlimit:10;" d="M546.631,136.266
			c0,0-9.491,3.926-7.231,12.27c2.26,8.344,15.367,15.215,19.435,22.086c4.068,6.871,3.164,14.233,0,17.178
			c-3.164,2.945-5.424,3.436-5.424,3.436s9.491,5.89,22.598,5.89c13.107,0,18.458-13.522,17.554-22.357
			c-0.904-8.834-3.273-29.577-12.765-35.958C571.307,132.43,555.67,131.849,546.631,136.266z"/>
	</g>
</g>
<g id="Character_2">
	<g>
		
			<line style="fill:none;stroke:#263238;stroke-width:6;stroke-linecap:round;stroke-linejoin:round;stroke-miterlimit:10;" x1="346.275" y1="345" x2="341.775" y2="441"/>
		
			<line style="fill:none;stroke:#263238;stroke-width:6;stroke-linecap:round;stroke-linejoin:round;stroke-miterlimit:10;" x1="395.275" y1="345" x2="390.275" y2="441"/>
		
			<line style="fill:none;stroke:#263238;stroke-width:6;stroke-linecap:round;stroke-linejoin:round;stroke-miterlimit:10;" x1="419.775" y1="345" x2="426.275" y2="441"/>
		
			<line style="fill:none;stroke:#263238;stroke-width:6;stroke-linecap:round;stroke-linejoin:round;stroke-miterlimit:10;" x1="445.775" y1="345" x2="461.275" y2="441"/>
		<polygon style="fill:#808080;stroke:#263238;stroke-linecap:round;stroke-linejoin:round;stroke-miterlimit:10;" points="
			338.64,240.292 342.962,341.634 423.828,341.634 415.899,240.292 		"/>
		
			<rect x="342.962" y="341.337" style="fill:#808080;stroke:#263238;stroke-linecap:round;stroke-linejoin:round;stroke-miterlimit:10;" width="109.813" height="5.772"/>
		
			<rect x="387.632" y="341.337" style="fill:#808080;stroke:#263238;stroke-linecap:round;stroke-linejoin:round;stroke-miterlimit:10;" width="65.143" height="5.772"/>
	</g>
	<g>
		<path style="fill:#263238;stroke:#263238;stroke-linecap:round;stroke-linejoin:round;stroke-miterlimit:10;" d="M352.957,290.544
			c0,0-4.056,36.644-2.704,41.439c1.352,4.795,5.07,7.877,8.788,8.904c3.718,1.027,55.348-0.029,56.782,0
			c8.22,0.164,9.856-4.057,10.14-12.329c0.308-8.984-1.02-40.558-1.02-40.558L352.957,290.544z"/>
		<path style="fill:#FFFFFF;stroke:#263238;stroke-linecap:round;stroke-linejoin:round;stroke-miterlimit:10;" d="M370.569,190.65
			c0,0-30.333,12-29.333,14s10.039,60.35,10.372,62.016c0.333,1.667,1,21,1,22.667c0,1.667,2,4.667,4,5
			c10.439,1.736,21.789,0.832,32.355,0.966c7.133,0.091,14.266,0.113,21.399,0.066c4.201-0.027,14.019,1.97,15.571-2.687
			c0.667-3.667,0.635-86.029,0.969-90.029c0.333-4-3.667-5-8-7.333c-4.333-2.333-24.333-7.667-26.333-7.667
			S370.569,190.65,370.569,190.65z"/>
		<polygon style="fill:#263238;stroke:#263238;stroke-linecap:round;stroke-linejoin:round;stroke-miterlimit:10;" points="
			379.271,209.684 386.031,219.148 378.306,277.025 390.473,289.868 400.275,274.997 390.425,218.134 394.819,208.67 
			382.313,201.572 		"/>
		<path style="fill:#FFFFFF;stroke:#263238;stroke-linecap:round;stroke-linejoin:round;stroke-miterlimit:10;" d="M372.903,187.65
			c0,0-4,1.333-4.333,4c-0.333,2.667,0.667,23.667,0.667,23.667l13-5l5.667-1.333l14.69,2.728c0,0-0.356-12.061-2.69-18.061
			c-2.333-6-5-8-7-8.333C390.903,184.984,372.903,187.65,372.903,187.65z"/>
		<g>
			<path style="fill:#FFFFFF;stroke:#263238;stroke-linecap:round;stroke-linejoin:round;stroke-miterlimit:10;" d="M370.903,186.65
				c0,0,3.667,13.667,5,16c1.333,2.333,10,9.333,12,6.333s4-11,4.333-12c0.333-1,0.667-11.667,0.667-11.667
				S376.903,190.984,370.903,186.65z"/>
			<path style="fill:#263238;stroke:#263238;stroke-miterlimit:10;" d="M377.435,195.347c0,0,0.377,0.566,5.28,2.64
				c4.903,2.074,8.486,1.886,8.486,1.886l0.943-3.583l0.566-9.618L377.435,195.347z"/>
		</g>
		<path style="fill:#263238;stroke:#263238;stroke-linecap:round;stroke-linejoin:round;stroke-miterlimit:10;" d="M402.478,161.319
			c0,0,1.17-10.916,0-17.154c-1.17-6.238-7.797-8.187-12.865-8.967c-5.068-0.78-26.511,1.17-29.24,7.018
			c-2.729,5.848,3.119,10.526,3.119,10.526s-3.509,2.339-1.949,5.458c1.56,3.119,3.509,7.407,3.509,7.407l2.339-8.967l16.374,0.39
			l6.238,1.559l6.628,8.187c0,0,3.509,0.78,4.678-0.78C402.478,164.438,402.478,161.319,402.478,161.319z"/>
		<path style="fill:none;stroke:#263238;stroke-linecap:round;stroke-linejoin:round;stroke-miterlimit:10;" d="M365.569,163.984
			c0,0-3.333-3.667-3.333,0.333s4,8,4,8L365.569,163.984z"/>
		<g>
			<path style="fill:#FFFFFF;stroke:#263238;stroke-linecap:round;stroke-linejoin:round;stroke-miterlimit:10;" d="
				M365.051,153.912c0,0,0.39,21.832,1.17,26.121c0.78,4.288,10.136,15.594,12.086,15.594c1.949,0,4.678,0.78,7.018-1.17
				s12.086-10.916,12.866-13.645c0.78-2.729,1.17-8.187,1.17-8.187s6.238-3.119,5.458-7.797c-0.78-4.678-3.119-5.068-4.288-3.899
				c-1.17,1.169-3.119,3.899-3.119,3.899s-0.78-3.899-2.339-5.458c-1.56-1.56-6.238-2.339-5.458-3.899
				c0.78-1.559,4.288-8.577,4.288-8.577s-7.407,6.238-14.425,7.407C372.458,155.471,365.051,153.912,365.051,153.912z"/>
			<path style="fill:#263238;" d="M372.321,164.633c0,1.083-0.554,1.961-1.238,1.961s-1.238-0.878-1.238-1.961
				c0-1.083,0.555-1.961,1.238-1.961S372.321,163.55,372.321,164.633z"/>
			<path style="fill:#263238;" d="M384.911,164.633c0,1.083-0.555,1.961-1.238,1.961s-1.238-0.878-1.238-1.961
				c0-1.083,0.555-1.961,1.238-1.961S384.911,163.55,384.911,164.633z"/>
			<path style="fill:none;stroke:#263238;stroke-linecap:round;stroke-linejoin:round;stroke-miterlimit:10;" d="M375.623,164.117
				c0,0-2.89,11.146-1.651,11.765c1.238,0.619,8.256-2.064,8.256-2.064"/>
			<path style="fill:#263238;stroke:#263238;stroke-linecap:round;stroke-linejoin:round;stroke-miterlimit:10;" d="
				M373.972,175.882c0,0-2.89,1.032-4.747,2.477c-1.858,1.445,1.445,2.683,5.779,2.683c4.334,0,9.907-0.206,12.384-1.445
				c2.477-1.238,0.413-2.27-1.651-3.096c-2.064-0.826-5.779-1.445-5.779-1.445S376.036,175.675,373.972,175.882z"/>
			<path style="fill:none;stroke:#263238;stroke-linecap:round;stroke-linejoin:round;stroke-miterlimit:10;" d="M368.399,160.195
				c0,0,1.858-2.064,5.366-0.413"/>
			<path style="fill:none;stroke:#263238;stroke-linecap:round;stroke-linejoin:round;stroke-miterlimit:10;" d="M379.751,159.989
				c0,0,4.128-2.27,7.43,1.238"/>
		</g>
		<g>
			<path style="fill:#FFFFFF;stroke:#263238;stroke-linecap:round;stroke-linejoin:round;stroke-miterlimit:10;" d="M341.236,204.65
				c0,0-20.961,60.016-20.961,61.016s-3,6.667,0,10.333s8.333,5,11.333,3.667c3-1.333,18.667-29,18.667-29
				S342.236,207.984,341.236,204.65z"/>
			
				<line style="fill:none;stroke:#263238;stroke-linecap:round;stroke-linejoin:round;stroke-miterlimit:10;" x1="343.078" y1="226.991" x2="342.026" y2="223.588"/>
			
				<line style="fill:none;stroke:#263238;stroke-linecap:round;stroke-linejoin:round;stroke-miterlimit:10;" x1="348.834" y1="245.614" x2="344.122" y2="230.367"/>
		</g>
		<g>
			<path style="fill:#FFFFFF;stroke:#263238;stroke-linecap:round;stroke-linejoin:round;stroke-miterlimit:10;" d="
				M324.942,257.667L385.275,232l1.333,6.333c0,0-45.667,35.333-49,38c-3.333,2.667-4.667,4.667-9,4.667c-4.333,0-10-4-10-9.333
				c0-5.333,2.333-10,2.333-10"/>
			
				<line style="fill:none;stroke:#263238;stroke-linecap:round;stroke-linejoin:round;stroke-miterlimit:10;" x1="378.516" y1="235.483" x2="380.785" y2="241.157"/>
		</g>
		<g>
			<path style="fill:#FFFFFF;stroke:#263238;stroke-linecap:round;stroke-linejoin:round;stroke-miterlimit:10;" d="M385.275,232
				c0,0,2-7.333,2.667-8.333s4.667-3.667,6.333-5c1.667-1.333,4.333-3.667,4.667-2c0.333,1.667-4,6.667-4,6.667s6.667-3.333,9-3.667
				c2.333-0.333,5.253-0.69,6.92-0.357c1.667,0.333-0.061,1.271-0.253,3.69c-0.314,3.971-7.333,7.667-9.333,9.667
				s-14.667,5.667-14.667,5.667L385.275,232z"/>
			
				<line style="fill:none;stroke:#263238;stroke-linecap:round;stroke-linejoin:round;stroke-miterlimit:10;" x1="410.294" y1="221.579" x2="398.377" y2="225.552"/>
			
				<line style="fill:none;stroke:#263238;stroke-linecap:round;stroke-linejoin:round;stroke-miterlimit:10;" x1="409.727" y1="225.268" x2="399.512" y2="228.957"/>
			
				<line style="fill:none;stroke:#263238;stroke-linecap:round;stroke-linejoin:round;stroke-miterlimit:10;" x1="402.917" y1="231.51" x2="400.363" y2="232.361"/>
			
				<line style="fill:none;stroke:#263238;stroke-linecap:round;stroke-linejoin:round;stroke-miterlimit:10;" x1="394.942" y1="223.333" x2="391" y2="223.566"/>
		</g>
		<g>
			<path style="fill:#FFFFFF;stroke:#263238;stroke-linecap:round;stroke-linejoin:round;stroke-miterlimit:10;" d="
				M426.236,200.317c0,0,6.433,16.204,8,19.667c1.878,4.149,10.372,21.35,10.372,21.35l16-34.667l8.667,3.667
				c0,0-13.667,43-16.667,49.333c-3,6.333-2.333,11.333-7,11c-4.667-0.333-19.012-15.021-19.012-15.021L426.236,200.317z"/>
			
				<line style="fill:none;stroke:#263238;stroke-linecap:round;stroke-linejoin:round;stroke-miterlimit:10;" x1="444.609" y1="241.333" x2="438.1" y2="253.074"/>
			
				<line style="fill:none;stroke:#263238;stroke-linecap:round;stroke-linejoin:round;stroke-miterlimit:10;" x1="442.072" y1="245.697" x2="436.681" y2="249.953"/>
			
				<line style="fill:none;stroke:#263238;stroke-linecap:round;stroke-linejoin:round;stroke-miterlimit:10;" x1="458.529" y1="212.216" x2="467.041" y2="216.472"/>
		</g>
		<g>
			<path style="fill:#FFFFFF;stroke:#263238;stroke-linecap:round;stroke-linejoin:round;stroke-miterlimit:10;" d="
				M460.609,206.667c0,0-0.333-9.333,0.667-11.333s4.667-7.333,5-8.667c0.333-1.333,2-3.667,2.333-1.333
				c0.333,2.333-0.333,5.333-0.333,5.333s4.333-4,4.667-5.333c0.333-1.333,0-6,1.333-6c1.333,0,2.667,1,4,5
				c1.333,4,0,10.333-0.667,12.667c-0.667,2.333-7.333,11.333-7.333,11.333l-1,2L460.609,206.667z"/>
			<path style="fill:none;stroke:#263238;stroke-linecap:round;stroke-linejoin:round;stroke-miterlimit:10;" d="M478.391,186.964
				c0,0-0.567-2.27-1.135-0.568c-0.568,1.702-2.27,8.228-2.27,8.228s-8.796,5.958-8.796,7.661c0,1.702,0,1.702,0,1.702"/>
		</g>
		<g>
			<path style="fill:#FFFFFF;stroke:#263238;stroke-linecap:round;stroke-linejoin:round;stroke-miterlimit:10;" d="
				M428.328,428.077l7.596,10.099c0,0,10.124,2.658,10.199,3.709c0.075,1.051-3.62,2.584-3.62,2.584l-9.823,1.548
				c0,0-11.633-4.558-14.427-5.204c-2.794-0.646-5.385,0.068-4.559-3.161c0.826-3.229,2.129-9.912,2.129-9.912L428.328,428.077z"/>
			<path style="fill:#263238;stroke:#263238;stroke-linecap:round;stroke-linejoin:round;stroke-miterlimit:10;" d="
				M401.627,324.653c0,0,7.774-13.857,18.589-19.265c10.816-5.408,20.279-3.38,29.067-3.38c8.788,0,23.659,1.352,25.349,3.38
				c1.69,2.028-46.304,122.689-46.304,122.689l-12.505-0.338c0,0,9.126-40.558,10.478-50.022s4.732-36.841,4.732-36.841
				s-23.441-0.038-34.256-0.376"/>
		</g>
		<g>
			<path style="fill:#263238;stroke:#263238;stroke-linecap:round;stroke-linejoin:round;stroke-miterlimit:10;" d="
				M355.999,306.091c0,0,0.338-5.07,11.154-5.408c10.816-0.338,22.307-1.352,23.659,5.07c1.352,6.422,1.69,104.776,1.69,108.156
				c0,3.38,1.014,11.492,1.014,11.492l-12.505,1.014c0,0-16.223-54.416-18.927-66.583c-2.704-12.168-2.366-41.572-2.366-43.938"/>
			<path style="fill:#FFFFFF;stroke:#263238;stroke-linecap:round;stroke-linejoin:round;stroke-miterlimit:10;" d="
				M393.515,425.401c0,0,4.394,14.871,5.408,16.561c1.014,1.69,1.69,2.704-1.352,4.732c-3.042,2.028-9.126,3.38-12.844,2.366
				c-3.718-1.014-4.394-7.436-3.718-12.844c0.676-5.408,0-9.802,0-9.802L393.515,425.401z"/>
		</g>
	</g>
</g>
<g id="Character_1">
	<g>
		
			<line style="fill:none;stroke:#263238;stroke-width:6;stroke-linecap:round;stroke-linejoin:round;stroke-miterlimit:10;" x1="192.275" y1="345" x2="176.775" y2="441"/>
		
			<line style="fill:none;stroke:#263238;stroke-width:6;stroke-linecap:round;stroke-linejoin:round;stroke-miterlimit:10;" x1="244.275" y1="345" x2="228.775" y2="441"/>
		
			<line style="fill:none;stroke:#263238;stroke-width:6;stroke-linecap:round;stroke-linejoin:round;stroke-miterlimit:10;" x1="265.775" y1="345" x2="281.275" y2="441"/>
		
			<line style="fill:none;stroke:#263238;stroke-width:6;stroke-linecap:round;stroke-linejoin:round;stroke-miterlimit:10;" x1="319.775" y1="345" x2="335.275" y2="441"/>
		<polygon style="fill:#808080;stroke:#263238;stroke-linecap:round;stroke-linejoin:round;stroke-miterlimit:10;" points="
			166.64,240.292 188.962,341.634 261.828,341.634 235.899,240.292 		"/>
		
			<rect x="188.962" y="341.337" style="fill:#808080;stroke:#263238;stroke-linecap:round;stroke-linejoin:round;stroke-miterlimit:10;" width="137.813" height="5.772"/>
		
			<rect x="280.132" y="341.337" style="fill:#808080;stroke:#263238;stroke-linecap:round;stroke-linejoin:round;stroke-miterlimit:10;" width="46.643" height="5.772"/>
	</g>
	<g>
		<path style="fill:#FFFFFF;stroke:#263238;stroke-linecap:round;stroke-linejoin:round;stroke-miterlimit:10;" d="M208.609,195
			l-27.667,15l14.667,90c0,0-0.667,2.333,1,3.333c1.667,1,6.333,1.333,6.333,1.333h54.333c0,0,3.333-1,5-3.333
			c1.667-2.333,1.667-3.667,1.667-6c0-2.333,5.667-86.667,4.667-88.333s-2.667-3.333-2.667-3.333l-28.667-11.333L208.609,195z"/>
		<polygon style="fill:#263238;stroke:#263238;stroke-linecap:round;stroke-linejoin:round;stroke-miterlimit:10;" points="
			228.343,215.316 234.86,219.796 233.044,282.924 245.212,295.768 255.013,280.897 239.254,218.783 243.648,209.319 
			231.142,202.221 		"/>
		<g>
			<path style="fill:#FFFFFF;stroke:#263238;stroke-linecap:round;stroke-linejoin:round;stroke-miterlimit:10;" d="
				M248.942,142.333l4,12L251.275,159l5.333,9l-3.667,2.333c0,0,2,12.333,1.333,13.333c-0.667,1-14.667,2-14.667,2l-2,20l-22.333-13
				V173c0,0-7.333-27.667-5.667-30c1.667-2.333,13-7,26.667-8.667c13.667-1.667,15.667-3,16.333,1
				C253.275,139.333,248.942,142.333,248.942,142.333z"/>
			<path style="fill:#263238;stroke:#263238;stroke-linecap:round;stroke-linejoin:round;stroke-miterlimit:10;" d="
				M252.608,135.333c-0.667-4-2.667-2.667-16.333-1c-13.667,1.667-25,6.333-26.667,8.667c-1.667,2.333,5.667,30,5.667,30v5.335
				c0.947,0.138,1.857,0.145,2.667-0.002c3.667-0.667,8.667-5.667,8.667-5.667s-5,3-7,0s-2.667-6.667-2-10
				c0.667-3.333,5.667-2.333,5.667-0.667c0,1.667,2,5,3.667,4.333c1.667-0.667,2-8.333,2-8.333s7-4.667,7.333-7c0.333-2.333-2-6-2-6
				l14.667-2.667C248.942,142.333,253.275,139.333,252.608,135.333z"/>
			<path style="fill:none;stroke:#263238;stroke-linecap:round;stroke-linejoin:round;stroke-miterlimit:10;" d="M249.275,155.667
				c0,0-4-1.333-6.333,1.667"/>
			<path style="fill:#263238;" d="M249.609,160.167c0,1.197-0.448,2.167-1,2.167c-0.552,0-1-0.97-1-2.167
				c0-1.197,0.448-2.167,1-2.167C249.161,158,249.609,158.97,249.609,160.167z"/>
			<path style="fill:none;stroke:#263238;stroke-linecap:round;stroke-linejoin:round;stroke-miterlimit:10;" d="M251.609,173.667
				c0,0-4.333,1-6-0.667"/>
			<polygon style="fill:#263238;stroke:#263238;stroke-linecap:round;stroke-linejoin:round;stroke-miterlimit:10;" points="
				239.609,185.667 231.942,185.667 238.275,196 			"/>
		</g>
		<polygon style="fill:#FFFFFF;stroke:#263238;stroke-linecap:round;stroke-linejoin:round;stroke-miterlimit:10;" points="
			215.275,189 206.942,195.667 227.275,219 237.609,205.667 		"/>
		<polygon style="fill:#FFFFFF;stroke:#263238;stroke-linecap:round;stroke-linejoin:round;stroke-miterlimit:10;" points="
			237.609,205.667 245.275,215.667 242.942,194.667 239.275,190.333 		"/>
		<g>
			<polygon style="fill:#FFFFFF;stroke:#263238;stroke-linecap:round;stroke-linejoin:round;stroke-miterlimit:10;" points="
				268.609,207 295.942,272.667 277.609,280 265.942,259.333 			"/>
			<path style="fill:#FFFFFF;stroke:#263238;stroke-linecap:round;stroke-linejoin:round;stroke-miterlimit:10;" d="
				M248.275,272.333c0,0,24-3.667,31-5c7-1.333,12.667-0.333,16,3.333c3.333,3.667,2.667,10.667,1.667,12.333s-10,2.333-16,2.333
				s-24.333-4.667-28-5.667c-3.667-1-3.667-1-3.667-1L248.275,272.333z"/>
		</g>
		<g>
			<path style="fill:#FFFFFF;stroke:#263238;stroke-linecap:round;stroke-linejoin:round;stroke-miterlimit:10;" d="M270.609,282
				c0,0,9,1.333,9.667,2.333c0.667,1,8,9.333,9,10.333S290.942,305,290.942,305s-2.333,1.667-3,0.667S279.609,295,279.609,295
				s-9.667-3.333-10.333-5.333c-0.667-2-0.667-2-0.667-2L270.609,282z"/>
			<path style="fill:#FFFFFF;stroke:#263238;stroke-linecap:round;stroke-linejoin:round;stroke-miterlimit:10;" d="M180.942,210
				c0,0,16.667,76,18,76.333c1.333,0.333,69.667,1.333,69.667,1.333l2-5.667l-56.667-14.333L210.275,217"/>
		</g>
		<g>
			<g>
				<path style="fill:#263238;stroke:#263238;stroke-linecap:round;stroke-linejoin:round;stroke-miterlimit:10;" d="
					M297.275,310.531c0,0,36,8.507,38.667,10.143c2.667,1.636,1.333,7.525-0.333,12.433c-1.667,4.908-52.667,92.267-52.667,92.267
					l-7.667-1.963l23.333-82.779h-29.333L297.275,310.531z"/>
				<path style="fill:#FFFFFF;stroke:#263238;stroke-linecap:round;stroke-linejoin:round;stroke-miterlimit:10;" d="
					M282.942,425.375l6,13.742c0,0,8.333,6.217,8,7.198c-0.333,0.982-4.333,0.982-4.333,0.982l-9.667-2.29
					c0,0-9-8.507-11.333-10.143c-2.333-1.636-5-1.963-3-4.581c2-2.617,6.667-6.871,6.667-6.871L282.942,425.375z"/>
			</g>
			<g>
				<path style="fill:#263238;stroke:#263238;stroke-linecap:round;stroke-linejoin:round;stroke-miterlimit:10;" d="
					M196.609,303.333c0,0-1.667,17.995-1.667,22.576c0,4.581,3.667,11.779,10.333,14.396c6.667,2.618,84.333,0,84.333,0
					l30.667,94.231l9-3.272c0,0-11.333-102.738-11.333-105.028c0-2.29-1-10.47-4.333-12.106c-3.333-1.636-56.333-9.489-56.333-9.489
					L196.609,303.333z"/>
				<path style="fill:#FFFFFF;stroke:#263238;stroke-linecap:round;stroke-linejoin:round;stroke-miterlimit:10;" d="
					M329.275,431.264c0,0,17.333,2.29,19.333,1.963c2-0.327,8.333-1.636,6.333,1.636c-2,3.272-15,6.871-20.333,9.161
					c-5.333,2.29-10.667,5.889-12.333,3.272c-1.667-2.618-2-12.76-2-12.76L329.275,431.264z"/>
			</g>
		</g>
		<g>
			<g>
				<path style="fill:#FFFFFF;stroke:#263238;stroke-linecap:round;stroke-linejoin:round;stroke-miterlimit:10;" d="
					M235.609,267.333h-6.333L222.609,275c0,0-2,4.667,0,4.667s6.667,1,9.667,0s11.333-4.333,11.333-4.333
					S242.609,269,235.609,267.333z"/>
				<polygon style="fill:#FFFFFF;stroke:#263238;stroke-linecap:round;stroke-linejoin:round;stroke-miterlimit:10;" points="
					238.942,268.667 248.275,272.333 249.609,276.333 243.609,275.333 				"/>
			</g>
			<path style="fill:none;stroke:#263238;stroke-linecap:round;stroke-linejoin:round;stroke-miterlimit:10;" d="M222.242,276.966
				c0,0,8.807-7.703,11.087-8.668"/>
			<path style="fill:none;stroke:#263238;stroke-linecap:round;stroke-linejoin:round;stroke-miterlimit:10;" d="M223.855,279.184
				c0,0,11.692-9.877,14.111-9.877"/>
			<path style="fill:none;stroke:#263238;stroke-linecap:round;stroke-linejoin:round;stroke-miterlimit:10;" d="M228.289,280.191
				c0,0,8.466-7.862,12.296-8.265"/>
		</g>
	</g>
</g>
<g id="Table">
	<g>
		
			<rect x="164.719" y="288.584" style="fill:#FFFFFF;stroke:#263238;stroke-linecap:round;stroke-linejoin:round;stroke-miterlimit:10;" width="507.546" height="23.374"/>
		<polygon style="fill:#FFFFFF;stroke:#263238;stroke-linecap:round;stroke-linejoin:round;stroke-miterlimit:10;" points="
			169.14,444.187 162.302,444.187 157.373,288.584 174.069,288.584 		"/>
		<polygon style="fill:#FFFFFF;stroke:#263238;stroke-linecap:round;stroke-linejoin:round;stroke-miterlimit:10;" points="
			673.347,444.187 666.509,444.187 661.58,288.584 678.276,288.584 		"/>
		<polygon style="fill:#263238;stroke:#263238;stroke-miterlimit:10;" points="677.92,296.175 157.625,296.175 157.625,290.675 
			678.284,290.675 		"/>
		
			<rect x="149.775" y="286" style="fill:#FFFFFF;stroke:#263238;stroke-linecap:round;stroke-linejoin:round;stroke-miterlimit:10;" width="533.5" height="5.5"/>
	</g>
</g>
<g id="Mugs">
	<g>
		<path style="fill:#92E3A9;stroke:#263238;stroke-linecap:round;stroke-linejoin:round;stroke-miterlimit:10;" d="M461.775,266.852
			c0,0,2.402-1.03,3.775-0.172c1.373,0.858,1.716,10.468,0,13.385c-1.716,2.917-4.119,3.089-4.119,3.089l-0.343-4.633
			c0,0,1.545,0.858,2.403-2.402c0.858-3.26,0.686-6.006,0.172-6.178c-0.515-0.172-1.716,0.343-1.716,0.343L461.775,266.852z"/>
		
			<rect x="442.767" y="262.174" style="fill:#92E3A9;stroke:#263238;stroke-linecap:round;stroke-linejoin:round;stroke-miterlimit:10;" width="19.376" height="24.451"/>
	</g>
	<g>
		<path style="fill:#92E3A9;stroke:#263238;stroke-linecap:round;stroke-linejoin:round;stroke-miterlimit:10;" d="M179.704,266.852
			c0,0-2.403-1.03-3.775-0.172c-1.373,0.858-1.716,10.468,0,13.385c1.716,2.917,4.119,3.089,4.119,3.089l0.343-4.633
			c0,0-1.544,0.858-2.402-2.402c-0.858-3.26-0.686-6.006-0.172-6.178c0.515-0.172,1.716,0.343,1.716,0.343L179.704,266.852z"/>
		
			<rect x="179.336" y="262.174" transform="matrix(-1 -1.224647e-16 1.224647e-16 -1 378.0479 548.7996)" style="fill:#92E3A9;stroke:#263238;stroke-linecap:round;stroke-linejoin:round;stroke-miterlimit:10;" width="19.376" height="24.451"/>
	</g>
	<g>
		<path style="fill:#92E3A9;stroke:#263238;stroke-linecap:round;stroke-linejoin:round;stroke-miterlimit:10;" d="M639.704,266.852
			c0,0-2.403-1.03-3.775-0.172c-1.373,0.858-1.716,10.468,0,13.385c1.716,2.917,4.119,3.089,4.119,3.089l0.343-4.633
			c0,0-1.544,0.858-2.403-2.402c-0.858-3.26-0.686-6.006-0.172-6.178c0.515-0.172,1.716,0.343,1.716,0.343L639.704,266.852z"/>
		
			<rect x="639.336" y="262.174" transform="matrix(-1 -1.224647e-16 1.224647e-16 -1 1298.0479 548.7996)" style="fill:#92E3A9;stroke:#263238;stroke-linecap:round;stroke-linejoin:round;stroke-miterlimit:10;" width="19.376" height="24.451"/>
	</g>
</g>
<g id="Device">
	<rect x="479.737" y="241.299" style="fill:#263238;stroke:#263238;stroke-miterlimit:10;" width="79.104" height="45.029"/>
</g>
<g id="Text_Baloons">
	<g>
		<path style="fill:#263238;" d="M328.331,60.657h-77.646c-5.34,0-9.669,4.329-9.669,9.669v37.005c0,5.34,4.329,9.669,9.669,9.669
			h9.471l-4.507,18.527L272.022,117h56.309c5.34,0,9.669-4.329,9.669-9.669V70.326C338,64.986,333.671,60.657,328.331,60.657z"/>
		<g>
			<path style="fill:none;stroke:#FFFFFF;stroke-linecap:round;stroke-linejoin:round;stroke-miterlimit:10;" d="M305.016,76.619
				c10.176,0,18.004,0,18.548,0"/>
			<path style="fill:none;stroke:#FFFFFF;stroke-linecap:round;stroke-linejoin:round;stroke-miterlimit:10;" d="M274.798,76.619
				c8.043,0,17.422,0,25.795,0"/>
			<path style="fill:none;stroke:#FFFFFF;stroke-linecap:round;stroke-linejoin:round;stroke-miterlimit:10;" d="M255.275,76.619
				c0,0,6.137,0,14.733,0"/>
			<path style="fill:none;stroke:#FFFFFF;stroke-linecap:round;stroke-linejoin:round;stroke-miterlimit:10;" d="M311.649,84.749
				c6.779,0,11.497,0,11.915,0"/>
			<path style="fill:none;stroke:#FFFFFF;stroke-linecap:round;stroke-linejoin:round;stroke-miterlimit:10;" d="M288.802,84.749
				c7.134,0,14.305,0,20.267,0"/>
			<path style="fill:none;stroke:#FFFFFF;stroke-linecap:round;stroke-linejoin:round;stroke-miterlimit:10;" d="M255.275,84.749
				c0,0,15.468,0,31.684,0"/>
			<path style="fill:none;stroke:#FFFFFF;stroke-linecap:round;stroke-linejoin:round;stroke-miterlimit:10;" d="M301.331,92.879
				c11.916,0,21.625,0,22.233,0"/>
			<path style="fill:none;stroke:#FFFFFF;stroke-linecap:round;stroke-linejoin:round;stroke-miterlimit:10;" d="M272.219,92.879
				c7.671,0,16.911,0,25.427,0"/>
			<path style="fill:none;stroke:#FFFFFF;stroke-linecap:round;stroke-linejoin:round;stroke-miterlimit:10;" d="M255.275,92.879
				c0,0,5.789,0,13.996,0"/>
			<path style="fill:none;stroke:#FFFFFF;stroke-linecap:round;stroke-linejoin:round;stroke-miterlimit:10;" d="M317.176,101.008
				c3.714,0,6.096,0,6.388,0"/>
			<path style="fill:none;stroke:#FFFFFF;stroke-linecap:round;stroke-linejoin:round;stroke-miterlimit:10;" d="M296.54,101.008
				c6.288,0,12.239,0,16.951,0"/>
			<path style="fill:none;stroke:#FFFFFF;stroke-linecap:round;stroke-linejoin:round;stroke-miterlimit:10;" d="M287.328,101.008
				c2.212,0,4.435,0,6.633,0"/>
			<path style="fill:none;stroke:#FFFFFF;stroke-linecap:round;stroke-linejoin:round;stroke-miterlimit:10;" d="M259.322,101.008
				c4.898,0,13.683,0,23.216,0"/>
			<path style="fill:none;stroke:#FFFFFF;stroke-linecap:round;stroke-linejoin:round;stroke-miterlimit:10;" d="M255.275,101.008
				c0,0,0.791,0,2.204,0"/>
		</g>
	</g>
	<g>
		<path style="fill:#FFFFFF;stroke:#263238;stroke-linecap:round;stroke-linejoin:round;stroke-miterlimit:10;" d="M435.672,68.959
			h-72.684c-5.34,0-9.669,4.329-9.669,9.669v34.122c0,5.34,4.329,9.669,9.669,9.669h51.46v15.275l9.165-15.275h12.059
			c5.34,0,9.669-4.329,9.669-9.669V78.628C445.341,73.288,441.012,68.959,435.672,68.959z"/>
		<g>
			<path style="fill:none;stroke:#263238;stroke-linecap:round;stroke-linejoin:round;stroke-miterlimit:10;" d="M415.566,83.99
				c10.176,0,18.004,0,18.548,0"/>
			<path style="fill:none;stroke:#263238;stroke-linecap:round;stroke-linejoin:round;stroke-miterlimit:10;" d="M385.349,83.99
				c8.043,0,17.422,0,25.795,0"/>
			<path style="fill:none;stroke:#263238;stroke-linecap:round;stroke-linejoin:round;stroke-miterlimit:10;" d="M365.825,83.99
				c0,0,6.137,0,14.733,0"/>
			<path style="fill:none;stroke:#263238;stroke-linecap:round;stroke-linejoin:round;stroke-miterlimit:10;" d="M422.199,92.119
				c6.779,0,11.497,0,11.915,0"/>
			<path style="fill:none;stroke:#263238;stroke-linecap:round;stroke-linejoin:round;stroke-miterlimit:10;" d="M399.352,92.119
				c7.134,0,14.305,0,20.268,0"/>
			<path style="fill:none;stroke:#263238;stroke-linecap:round;stroke-linejoin:round;stroke-miterlimit:10;" d="M365.825,92.119
				c0,0,15.468,0,31.684,0"/>
			<path style="fill:none;stroke:#263238;stroke-linecap:round;stroke-linejoin:round;stroke-miterlimit:10;" d="M411.881,100.249
				c11.916,0,21.625,0,22.234,0"/>
			<path style="fill:none;stroke:#263238;stroke-linecap:round;stroke-linejoin:round;stroke-miterlimit:10;" d="M382.769,100.249
				c7.671,0,16.911,0,25.427,0"/>
			<path style="fill:none;stroke:#263238;stroke-linecap:round;stroke-linejoin:round;stroke-miterlimit:10;" d="M365.825,100.249
				c0,0,5.789,0,13.996,0"/>
			<path style="fill:none;stroke:#263238;stroke-linecap:round;stroke-linejoin:round;stroke-miterlimit:10;" d="M427.726,108.378
				c3.714,0,6.096,0,6.388,0"/>
			<path style="fill:none;stroke:#263238;stroke-linecap:round;stroke-linejoin:round;stroke-miterlimit:10;" d="M407.09,108.378
				c6.288,0,12.239,0,16.951,0"/>
			<path style="fill:none;stroke:#263238;stroke-linecap:round;stroke-linejoin:round;stroke-miterlimit:10;" d="M397.878,108.378
				c2.212,0,4.435,0,6.633,0"/>
			<path style="fill:none;stroke:#263238;stroke-linecap:round;stroke-linejoin:round;stroke-miterlimit:10;" d="M369.872,108.378
				c4.898,0,13.683,0,23.215,0"/>
			<path style="fill:none;stroke:#263238;stroke-linecap:round;stroke-linejoin:round;stroke-miterlimit:10;" d="M365.825,108.378
				c0,0,0.791,0,2.204,0"/>
		</g>
	</g>
	<g>
		<path style="fill:#92E3A9;stroke:#263238;stroke-linecap:round;stroke-linejoin:round;stroke-miterlimit:10;" d="M535.937,49.448
			h-72.684c-5.34,0-9.669,4.329-9.669,9.669V93.24c0,5.34,4.329,9.669,9.669,9.669h53.234l12.318,20.695l-1.971-20.695h9.103
			c5.34,0,9.669-4.329,9.669-9.669V59.117C545.606,53.777,541.277,49.448,535.937,49.448z"/>
		<g>
			<path style="fill:none;stroke:#263238;stroke-linecap:round;stroke-linejoin:round;stroke-miterlimit:10;" d="M515.061,63.354
				c10.176,0,18.004,0,18.549,0"/>
			<path style="fill:none;stroke:#263238;stroke-linecap:round;stroke-linejoin:round;stroke-miterlimit:10;" d="M484.844,63.354
				c8.043,0,17.422,0,25.795,0"/>
			<path style="fill:none;stroke:#263238;stroke-linecap:round;stroke-linejoin:round;stroke-miterlimit:10;" d="M465.32,63.354
				c0,0,6.137,0,14.733,0"/>
			<path style="fill:none;stroke:#263238;stroke-linecap:round;stroke-linejoin:round;stroke-miterlimit:10;" d="M521.694,71.483
				c6.779,0,11.497,0,11.916,0"/>
			<path style="fill:none;stroke:#263238;stroke-linecap:round;stroke-linejoin:round;stroke-miterlimit:10;" d="M498.847,71.483
				c7.134,0,14.305,0,20.267,0"/>
			<path style="fill:none;stroke:#263238;stroke-linecap:round;stroke-linejoin:round;stroke-miterlimit:10;" d="M465.32,71.483
				c0,0,15.468,0,31.684,0"/>
			<path style="fill:none;stroke:#263238;stroke-linecap:round;stroke-linejoin:round;stroke-miterlimit:10;" d="M511.376,79.613
				c11.916,0,21.625,0,22.234,0"/>
			<path style="fill:none;stroke:#263238;stroke-linecap:round;stroke-linejoin:round;stroke-miterlimit:10;" d="M482.264,79.613
				c7.671,0,16.911,0,25.426,0"/>
			<path style="fill:none;stroke:#263238;stroke-linecap:round;stroke-linejoin:round;stroke-miterlimit:10;" d="M465.32,79.613
				c0,0,5.789,0,13.996,0"/>
			<path style="fill:none;stroke:#263238;stroke-linecap:round;stroke-linejoin:round;stroke-miterlimit:10;" d="M527.221,87.742
				c3.714,0,6.096,0,6.388,0"/>
			<path style="fill:none;stroke:#263238;stroke-linecap:round;stroke-linejoin:round;stroke-miterlimit:10;" d="M506.585,87.742
				c6.288,0,12.239,0,16.951,0"/>
			<path style="fill:none;stroke:#263238;stroke-linecap:round;stroke-linejoin:round;stroke-miterlimit:10;" d="M497.373,87.742
				c2.212,0,4.435,0,6.633,0"/>
			<path style="fill:none;stroke:#263238;stroke-linecap:round;stroke-linejoin:round;stroke-miterlimit:10;" d="M469.367,87.742
				c4.898,0,13.683,0,23.216,0"/>
			<path style="fill:none;stroke:#263238;stroke-linecap:round;stroke-linejoin:round;stroke-miterlimit:10;" d="M465.32,87.742
				c0,0,0.791,0,2.204,0"/>
		</g>
	</g>
</g>
</svg>
