<?xml version="1.0" encoding="utf-8"?>
<!-- Generator: Adobe Illustrator 27.5.0, SVG Export Plug-In . SVG Version: 6.00 Build 0)  -->
<svg version="1.1" id="Capa_1" xmlns="http://www.w3.org/2000/svg" xmlns:xlink="http://www.w3.org/1999/xlink" x="0px" y="0px"
	 viewBox="0 0 425.2 425.2" style="enable-background:new 0 0 425.2 425.2;" xml:space="preserve">
<rect x="0.002" y="0.001" style="fill:#FFFFFF;" width="425.196" height="425.197"/>
<path style="fill:#C6C6C6;" d="M394.56,354.784c0,15.087-81.468,27.321-181.961,27.321c-100.49,0-181.958-12.233-181.958-27.321
	c0-15.088,81.468-27.322,181.958-27.322C313.092,327.462,394.56,339.695,394.56,354.784z"/>
<g>
	<g>
		<g>
			<path style="fill:#E74645;" d="M301.282,132.83c0.595-1.61,0.924-3.346,0.924-5.162c0-8.244-6.684-14.927-14.927-14.927
				c-8.245,0-14.927,6.683-14.927,14.927c0,1.816,0.331,3.552,0.925,5.162h-34.252v37.816h96.505V132.83H301.282z M287.279,133.124
				c-3.776,0-6.837-3.062-6.837-6.837c0-3.776,3.061-6.838,6.837-6.838c3.777,0,6.838,3.061,6.838,6.838
				C294.117,130.062,291.056,133.124,287.279,133.124z"/>
			<path style="fill:#0D3953;" d="M361.704,344.658c0,3.98-3.228,7.207-7.207,7.207H220.061c-3.98,0-7.208-3.227-7.208-7.207
				V151.865c0-3.98,3.227-7.206,7.208-7.206h134.437c3.979,0,7.207,3.226,7.207,7.206V344.658z"/>
			<g>
				<path style="fill:#FFFFFF;" d="M350.54,333.239c0,3.383-2.742,6.126-6.125,6.126H230.145c-3.385,0-6.128-2.743-6.128-6.126
					V169.368c0-3.384,2.743-6.128,6.128-6.128h114.271c3.383,0,6.125,2.745,6.125,6.128V333.239z"/>
				<g>
					<rect x="232.716" y="183.023" style="fill:#DADADA;" width="109.126" height="2.955"/>
					<rect x="232.716" y="188.936" style="fill:#DADADA;" width="109.126" height="2.956"/>
					<rect x="232.716" y="194.85" style="fill:#DADADA;" width="109.126" height="2.957"/>
					<rect x="232.716" y="200.764" style="fill:#DADADA;" width="109.126" height="2.957"/>
					<rect x="232.716" y="206.676" style="fill:#DADADA;" width="109.126" height="2.958"/>
					<rect x="232.716" y="212.592" style="fill:#DADADA;" width="109.126" height="2.957"/>
					<rect x="232.716" y="218.506" style="fill:#DADADA;" width="109.126" height="2.957"/>
					<rect x="232.716" y="224.419" style="fill:#DADADA;" width="109.126" height="2.958"/>
					<rect x="232.716" y="230.333" style="fill:#DADADA;" width="109.126" height="2.957"/>
				</g>
				<rect x="232.716" y="247.228" style="fill:#DADADA;" width="109.126" height="81.789"/>
				<rect x="232.716" y="310.536" style="fill:#B2B2B2;" width="109.126" height="18.48"/>
				<g>
					<g>
						<rect x="297.646" y="280.593" style="fill:#7B930F;" width="9.021" height="36.667"/>
						<polygon style="fill:#677C0C;" points="297.646,280.593 302.917,278.603 311.703,278.603 306.667,280.593 						"/>
						<polygon style="fill:#566A09;" points="311.703,278.603 311.703,313.512 306.667,317.26 306.667,280.593 						"/>
					</g>
					<g>
						<rect x="314.28" y="299.923" style="fill:#8A2A2D;" width="9.021" height="17.337"/>
						<polygon style="fill:#772425;" points="314.28,299.923 319.552,297.931 328.338,297.931 323.301,299.923 						"/>
						<polygon style="fill:#5C1A19;" points="328.338,297.931 328.338,313.512 323.301,317.26 323.301,299.923 						"/>
					</g>
					<g>
						<rect x="281.598" y="265.481" style="fill:#E74645;" width="9.02" height="51.778"/>
						<polygon style="fill:#D4393E;" points="281.598,265.481 286.869,263.492 295.655,263.492 290.617,265.481 						"/>
						<polygon style="fill:#A62E2F;" points="295.655,263.492 295.655,313.512 290.617,317.26 290.617,265.481 						"/>
					</g>
					<g>
						<rect x="263.922" y="293.362" style="fill:#F39200;" width="9.02" height="23.897"/>
						<polygon style="fill:#C97500;" points="263.922,293.362 269.192,291.371 277.979,291.371 272.942,293.362 						"/>
						<polygon style="fill:#C06000;" points="277.979,291.371 277.979,313.512 272.942,317.26 272.942,293.362 						"/>
					</g>
					<g>
						<rect x="246.219" y="275.44" style="fill:#00B1C3;" width="9.021" height="41.82"/>
						<polygon style="fill:#009BAB;" points="246.219,275.44 251.491,273.447 260.276,273.447 255.24,275.44 						"/>
						<polygon style="fill:#008A97;" points="260.276,273.447 260.276,313.512 255.24,317.26 255.24,275.44 						"/>
					</g>
				</g>
				<g>
					<g>
						<polygon style="fill:#BE1622;" points="278.757,266.783 264.347,251.648 251.83,256.079 251.222,254.366 264.848,249.543 
							279.182,264.594 302.69,253.879 310.398,274.284 325.377,263.772 326.418,265.259 309.526,277.116 301.677,256.338 						"/>
					</g>
					<g>
						<path style="fill:#DADADA;" d="M328.297,265.556c-0.515,1.349-2.025,2.025-3.373,1.511c-1.349-0.514-2.025-2.025-1.511-3.372
							c0.515-1.35,2.024-2.025,3.373-1.509C328.133,262.7,328.81,264.21,328.297,265.556z"/>
						<path style="fill:#BE1622;" d="M324.764,267.49c-1.581-0.601-2.376-2.376-1.772-3.956c0.602-1.581,2.375-2.376,3.956-1.773
							c1.579,0.603,2.375,2.378,1.775,3.958C328.117,267.3,326.344,268.093,324.764,267.49z M326.624,262.61
							c-1.11-0.424-2.361,0.134-2.786,1.246c-0.424,1.112,0.135,2.361,1.247,2.786c1.114,0.425,2.362-0.135,2.786-1.247
							C328.297,264.284,327.738,263.034,326.624,262.61z"/>
					</g>
					<g>
						<path style="fill:#DADADA;" d="M304.753,255.696c-0.514,1.349-2.022,2.023-3.371,1.509c-1.348-0.513-2.024-2.022-1.51-3.37
							c0.515-1.348,2.023-2.024,3.371-1.509C304.591,252.839,305.268,254.348,304.753,255.696z"/>
						<path style="fill:#BE1622;" d="M301.221,257.631c-1.581-0.602-2.376-2.378-1.772-3.958c0.602-1.58,2.378-2.375,3.958-1.771
							c1.581,0.601,2.375,2.376,1.772,3.956C304.577,257.439,302.801,258.234,301.221,257.631z M303.082,252.749
							c-1.112-0.424-2.361,0.136-2.786,1.247c-0.424,1.112,0.135,2.362,1.248,2.786c1.112,0.423,2.36-0.137,2.786-1.248
							C304.752,254.422,304.193,253.174,303.082,252.749z"/>
					</g>
					<g>
						<path style="fill:#DADADA;" d="M312.835,276.064c-0.516,1.35-2.024,2.026-3.374,1.51c-1.348-0.514-2.023-2.022-1.51-3.372
							c0.514-1.347,2.025-2.022,3.373-1.51C312.673,273.207,313.348,274.717,312.835,276.064z"/>
						<path style="fill:#BE1622;" d="M309.3,277.999c-1.58-0.601-2.376-2.377-1.772-3.957c0.603-1.581,2.378-2.376,3.958-1.773
							c1.581,0.602,2.375,2.378,1.771,3.958C312.656,277.808,310.88,278.603,309.3,277.999z M311.163,273.118
							c-1.113-0.425-2.362,0.135-2.786,1.248c-0.424,1.112,0.134,2.361,1.247,2.786c1.11,0.423,2.361-0.137,2.786-1.248
							C312.832,274.79,312.274,273.541,311.163,273.118z"/>
					</g>
					<g>
						<path style="fill:#DADADA;" d="M280.845,266.403c-0.515,1.348-2.023,2.024-3.371,1.51c-1.348-0.513-2.026-2.023-1.51-3.372
							c0.513-1.348,2.023-2.023,3.37-1.509C280.683,263.546,281.359,265.056,280.845,266.403z"/>
						<path style="fill:#BE1622;" d="M277.31,268.338c-1.58-0.602-2.375-2.376-1.772-3.957c0.604-1.58,2.377-2.375,3.958-1.773
							c1.58,0.602,2.375,2.378,1.773,3.957C280.667,268.146,278.891,268.941,277.31,268.338z M279.173,263.457
							c-1.112-0.425-2.362,0.135-2.785,1.246c-0.424,1.113,0.134,2.363,1.247,2.786c1.111,0.424,2.36-0.136,2.785-1.247
							C280.844,265.131,280.284,263.88,279.173,263.457z"/>
					</g>
					<g>
						<path style="fill:#DADADA;" d="M266.908,251.868c-0.514,1.348-2.023,2.025-3.373,1.51c-1.347-0.514-2.024-2.023-1.51-3.372
							c0.515-1.347,2.023-2.025,3.372-1.511C266.747,249.011,267.422,250.52,266.908,251.868z"/>
						<path style="fill:#BE1622;" d="M263.375,253.801c-1.581-0.602-2.375-2.376-1.775-3.956c0.604-1.58,2.378-2.376,3.961-1.773
							c1.579,0.603,2.373,2.378,1.772,3.959C266.729,253.609,264.954,254.405,263.375,253.801z M265.235,248.921
							c-1.11-0.425-2.361,0.134-2.784,1.247c-0.425,1.111,0.135,2.361,1.248,2.785c1.111,0.425,2.359-0.135,2.784-1.247
							C266.908,250.594,266.349,249.344,265.235,248.921z"/>
					</g>
					<g>
						<path style="fill:#DADADA;" d="M253.836,256.496c-0.513,1.349-2.023,2.025-3.37,1.511c-1.348-0.515-2.025-2.024-1.511-3.372
							c0.514-1.347,2.025-2.025,3.372-1.511C253.674,253.638,254.35,255.148,253.836,256.496z"/>
						<path style="fill:#BE1622;" d="M250.305,258.43c-1.581-0.602-2.376-2.378-1.775-3.959c0.604-1.578,2.379-2.373,3.959-1.771
							c1.578,0.603,2.376,2.377,1.771,3.958C253.657,258.238,251.884,259.032,250.305,258.43z M252.166,253.549
							c-1.113-0.426-2.362,0.134-2.786,1.247c-0.425,1.111,0.135,2.361,1.246,2.785c1.111,0.423,2.362-0.136,2.785-1.25
							C253.836,255.222,253.276,253.972,252.166,253.549z"/>
					</g>
				</g>
			</g>
			<path style="fill:#E74645;" d="M301.282,132.83c0.595-1.61,0.924-3.346,0.924-5.162c0-8.244-6.684-14.927-14.927-14.927
				c-8.245,0-14.927,6.683-14.927,14.927c0,1.816,0.331,3.552,0.925,5.162h-34.252v37.816h96.505V132.83H301.282z M287.279,133.124
				c-3.776,0-6.837-3.062-6.837-6.837c0-3.776,3.061-6.838,6.837-6.838c3.777,0,6.838,3.061,6.838,6.838
				C294.117,130.062,291.056,133.124,287.279,133.124z"/>
		</g>
		<path style="fill:#B2B2B2;" d="M354.497,144.659h-18.966V132.83h-34.249c0.595-1.61,0.924-3.346,0.924-5.162
			c0-8.104-6.46-14.696-14.511-14.916v6.719c3.583,0.215,6.422,3.18,6.422,6.816c0,3.636-2.84,6.601-6.422,6.815v218.762h66.802
			c3.979,0,7.207-3.227,7.207-7.207V151.865C361.704,147.885,358.477,144.659,354.497,144.659z"/>
	</g>
	<g>
		<g>
			<rect x="139.303" y="281.286" style="fill:#A47349;" width="29.399" height="26.658"/>
			<polygon style="fill:#A47349;" points="244.438,351.865 237.295,318.79 165.684,304.125 154.002,304.26 142.322,304.125 
				70.711,318.79 63.568,351.865 			"/>
			<polygon style="fill:#FFFFFF;" points="244.438,351.865 237.295,318.79 182.574,307.584 154.002,307.944 125.678,307.533 
				70.711,318.79 63.568,351.865 			"/>
			<g>
				<path style="fill:#F08046;" d="M147.348,326.031c0,0,0.106-0.165,0.385-0.393C147.605,325.767,147.477,325.889,147.348,326.031
					l-3.165,25.834h17.29l-3.165-25.834l2.545-10.571c0.936-1.581,1.217-3.41,0.248-5.006c-0.878-1.449-2.082-2.2-3.446-2.576
					c-2.162-0.591-4.726-0.246-7.029-0.246c-2.286,0-3.922,0.211-5.435,2.007c-1.513,1.807-1.615,3.75-0.389,5.82L147.348,326.031z"
					/>
				<path style="fill:#C6C6C6;" d="M146.921,324.392c0,0,7.666-3.583,11.356,1.639c0,0-5.17-2.943-10.961,0L146.921,324.392z"/>
			</g>
			<polygon style="fill:#521714;" points="244.438,351.865 237.295,318.79 182.574,307.584 171.436,351.865 			"/>
			<polygon style="fill:#521714;" points="136.727,351.865 125.678,307.533 70.711,318.79 63.568,351.865 			"/>
			<polygon style="fill:#2C0400;" points="136.727,351.865 125.678,307.533 99.443,312.905 122.705,351.865 			"/>
			<polygon style="fill:#2C0400;" points="185.3,351.865 208.561,312.905 182.327,307.533 171.278,351.865 			"/>
			<path style="fill:#DADADA;" d="M64.88,351.865c0.093-0.85,0.162-1.702,0.272-2.547c1.352-10.403,3.907-20.568,6.504-30.721
				l-0.946,0.193l-6.881,31.862c-0.115,0.391-0.226,0.8-0.333,1.213H64.88z"/>
			<path style="fill:#DADADA;" d="M244.438,351.865l-3.335-15.443c0.779,5.095,1.389,10.267,1.757,15.443H244.438z"/>
			<g>
				<polygon style="fill:#C6C6C6;" points="140.388,307.53 113.559,310.015 144.307,330.875 154.002,307.944 				"/>
				<polygon style="fill:#FFFFFF;" points="139.303,304.125 113.559,310.015 143.223,327.465 154.002,307.944 				"/>
			</g>
			<g>
				<polygon style="fill:#C6C6C6;" points="167.616,307.53 194.445,310.015 163.697,330.875 154.002,307.944 				"/>
				<polygon style="fill:#FFFFFF;" points="168.7,304.125 194.445,310.015 164.781,327.465 154.002,307.944 				"/>
			</g>
			<g>
				<g>
					<path style="fill:#A47349;" d="M234.119,216.205c0,7.595-6.154,13.748-13.748,13.748c-7.592,0-13.747-6.153-13.747-13.748
						c0-7.592,6.155-13.745,13.747-13.745C227.964,202.46,234.119,208.613,234.119,216.205z"/>
					<g>
						<g>
							<path style="fill:#DADADA;" d="M229.412,216.195l-0.002-0.008l-0.001-0.02l-0.004-0.044l-0.009-0.081l-0.018-0.167
								l-0.039-0.328l-0.078-0.657c-0.026-0.444-0.176-0.858-0.316-1.271c-0.205-0.855-0.725-1.556-1.149-2.246
								c-0.235-0.33-0.526-0.614-0.801-0.888c-0.268-0.284-0.543-0.54-0.864-0.729c-0.307-0.207-0.595-0.411-0.887-0.586
								c-0.301-0.157-0.625-0.253-0.914-0.37c-0.299-0.099-0.554-0.236-0.845-0.282c-0.288-0.038-0.564-0.073-0.82-0.106
								c-0.251-0.028-0.482-0.061-0.691-0.068c-0.201,0.023-0.385,0.046-0.552,0.068c-0.667,0.094-1.051,0.175-1.051,0.175
								s0.36,0.155,0.993,0.383c0.159,0.056,0.333,0.12,0.523,0.186c0.163,0.097,0.34,0.2,0.528,0.31
								c0.369,0.201,0.753,0.421,1.148,0.769c0.194,0.165,0.415,0.302,0.602,0.492c0.176,0.211,0.368,0.404,0.557,0.606
								c0.208,0.186,0.364,0.427,0.508,0.678c0.139,0.256,0.344,0.465,0.475,0.729c0.237,0.543,0.498,1.076,0.616,1.672
								c0.081,0.292,0.189,0.574,0.178,0.886l0.031,0.456l0.02,0.229l0.011,0.112l0.004,0.059l0.003,0.025v0.002
								c-0.066,0.686-0.064,1.515-0.269,1.893c-0.102,0.5-0.356,1.06-0.597,1.599c-0.13,0.266-0.337,0.472-0.475,0.727
								c-0.143,0.254-0.3,0.495-0.506,0.678c-0.189,0.206-0.38,0.399-0.557,0.604c-0.189,0.193-0.407,0.333-0.603,0.495
								c-0.385,0.343-0.794,0.576-1.175,0.777c-0.188,0.109-0.371,0.203-0.538,0.307c-0.179,0.068-0.343,0.13-0.491,0.183
								c-0.605,0.223-0.985,0.383-0.985,0.383s0.364,0.084,1.061,0.178c0.176,0.018,0.371,0.041,0.583,0.064
								c0.208-0.008,0.435-0.044,0.681-0.071c0.249-0.031,0.516-0.064,0.795-0.099c0.281-0.046,0.544-0.183,0.843-0.282
								c0.289-0.117,0.612-0.21,0.915-0.368c0.289-0.177,0.579-0.38,0.886-0.586c0.321-0.19,0.597-0.446,0.865-0.729
								c0.275-0.277,0.562-0.563,0.8-0.893c0.422-0.692,0.944-1.365,1.169-2.319c0.354-0.977,0.314-1.599,0.437-2.37
								C229.419,216.061,229.409,216.264,229.412,216.195z"/>
							<path style="fill:#DADADA;" d="M223.216,216.68c0-2.614-2.129-4.74-4.741-4.74c-2.613,0-4.74,2.126-4.74,4.74
								c0,2.616,2.127,4.743,4.74,4.743C221.087,221.422,223.216,219.296,223.216,216.68z"/>
						</g>
					</g>
				</g>
				<g>
					<path style="fill:#A47349;" d="M73.885,216.205c0,7.595,6.156,13.748,13.748,13.748c7.593,0,13.748-6.153,13.748-13.748
						c0-7.592-6.155-13.745-13.748-13.745C80.04,202.46,73.885,208.613,73.885,216.205z"/>
					<g>
						<path style="fill:#DADADA;" d="M78.594,216.195v-0.008l0.003-0.02l0.004-0.044l0.009-0.081l0.019-0.167l0.035-0.328
							l0.08-0.657c0.026-0.444,0.177-0.858,0.313-1.271c0.209-0.855,0.725-1.556,1.152-2.246c0.235-0.33,0.525-0.614,0.799-0.888
							c0.268-0.284,0.545-0.54,0.866-0.729c0.306-0.207,0.595-0.411,0.886-0.586c0.301-0.157,0.625-0.253,0.914-0.37
							c0.3-0.099,0.555-0.236,0.846-0.282c0.289-0.038,0.562-0.073,0.819-0.106c0.254-0.028,0.481-0.061,0.692-0.068
							c0.201,0.023,0.385,0.046,0.551,0.068c0.668,0.094,1.051,0.175,1.051,0.175s-0.358,0.155-0.995,0.383
							c-0.157,0.056-0.332,0.12-0.521,0.186c-0.162,0.097-0.34,0.2-0.526,0.31c-0.369,0.201-0.754,0.421-1.149,0.769
							c-0.195,0.165-0.415,0.302-0.603,0.492c-0.175,0.211-0.367,0.404-0.556,0.606c-0.208,0.186-0.364,0.427-0.509,0.678
							c-0.138,0.256-0.345,0.465-0.473,0.729c-0.241,0.543-0.499,1.076-0.616,1.672c-0.082,0.292-0.189,0.574-0.179,0.886
							l-0.033,0.456l-0.018,0.229l-0.011,0.112l-0.006,0.059l-0.002,0.025v0.002c0.065,0.686,0.065,1.515,0.269,1.893
							c0.102,0.5,0.356,1.06,0.599,1.599c0.127,0.266,0.336,0.472,0.473,0.727c0.144,0.254,0.3,0.495,0.508,0.678
							c0.188,0.206,0.38,0.399,0.556,0.604c0.188,0.193,0.406,0.333,0.601,0.495c0.387,0.343,0.795,0.576,1.177,0.777
							c0.189,0.109,0.371,0.203,0.538,0.307c0.178,0.068,0.343,0.13,0.492,0.183c0.605,0.223,0.983,0.383,0.983,0.383
							s-0.365,0.084-1.06,0.178c-0.175,0.018-0.37,0.041-0.584,0.064c-0.21-0.008-0.433-0.044-0.68-0.071
							c-0.25-0.031-0.515-0.064-0.794-0.099c-0.283-0.046-0.545-0.183-0.843-0.282c-0.289-0.117-0.612-0.21-0.915-0.368
							c-0.289-0.177-0.579-0.38-0.886-0.586c-0.321-0.19-0.597-0.446-0.866-0.729c-0.274-0.277-0.563-0.563-0.799-0.893
							c-0.421-0.692-0.945-1.365-1.168-2.319c-0.354-0.977-0.316-1.599-0.437-2.37C78.585,216.061,78.596,216.264,78.594,216.195z"
							/>
						<path style="fill:#DADADA;" d="M84.79,216.68c0-2.614,2.125-4.74,4.74-4.74c2.613,0,4.74,2.126,4.74,4.74
							c0,2.616-2.127,4.743-4.74,4.743C86.915,221.422,84.79,219.296,84.79,216.68z"/>
					</g>
				</g>
				<path style="fill:#A47349;" d="M212.854,246.287l7.517-68.737c-5.737-59.394-53.5-67.283-66.607-68.897
					c-13.107,1.614-60.392,9.503-66.131,68.897l7.041,68.737c0,0,2.44,44.09,31.062,49.097c11.796,2.063,16.327-0.104,28.029-0.363
					c11.704,0.259,25.051,1.692,35.729-3.725C213.734,279,212.854,246.287,212.854,246.287z"/>
				<path style="fill:#E7E7E7;" d="M196.822,175.246c2.996,20.937,0.726,43.461,7.602,63.69c1.867,5.491,4.398,10.649,7.868,15.009
					c0.645-4.854,0.562-8.122,0.562-8.122l7.517-68.737c-5.737-59.394-53.5-67.286-66.607-68.894
					c-2.651,0.324-6.717,0.919-11.542,2.131C169.838,121.853,192.378,144.205,196.822,175.246z"/>
				<path style="fill:#E7E7E7;" d="M113.966,267.106c-9.164-11.195-12.885-23.994-14.107-38.26
					c-0.595-6.938-1.307-15.024,0.995-21.758c2.182-6.379,5.774-11.647,9.947-16.887c3.829-4.806,11.398-12.962,9.123-19.79
					c-1.885-5.666-6.966-9.412-9.875-14.499c-5.259-9.196-3.836-18.493,3.547-24.166c0.378-0.482,0.901-0.911,1.618-1.238
					c4.833-2.195,7.021-7.126,5.385-11.246c-15.146,9.262-29.917,26.272-32.966,57.823l7.041,68.737c0,0,2.44,44.091,31.062,49.1
					c11.796,2.06,16.327-0.109,28.029-0.366c11.704,0.256,25.051,1.695,35.729-3.723c5.865-2.976,10.251-7.15,13.543-11.766
					c-4.425,2.718-9.335,4.895-14.707,6.435C162.877,292.788,131.581,288.639,113.966,267.106z"/>
				<path d="M133.675,197.078c0,2.877-2.333,5.212-5.214,5.212c-2.879,0-5.214-2.335-5.214-5.212c0-2.88,2.335-5.217,5.214-5.217
					C131.342,191.861,133.675,194.198,133.675,197.078z"/>
				<path d="M184.402,197.078c0,2.877-2.336,5.212-5.214,5.212c-2.881,0-5.216-2.335-5.216-5.212c0-2.88,2.335-5.217,5.216-5.217
					C182.065,191.861,184.402,194.198,184.402,197.078z"/>
				<path style="fill:#76512A;" d="M144.997,271.169c0,0,0.318,0,0.823,0.003c0.475,0.007,1.155,0.018,1.968,0.033
					c0.376,0.008,0.783,0.02,1.213,0.033c0.413,0.033,0.853,0,1.283,0.04c0.438-0.023,0.875,0.025,1.317,0.01
					c0.441-0.01,0.881,0.021,1.319-0.02c0.441,0.025,0.871-0.033,1.307-0.041c0.438,0.008,0.855-0.074,1.286-0.081
					c0.432,0.004,0.832-0.102,1.247-0.114c0.419-0.01,0.806-0.089,1.184-0.13c0.371-0.056,0.761-0.041,1.077-0.104
					c0.314-0.063,0.62-0.083,0.871-0.111c0.507-0.051,0.839-0.051,0.839-0.051s-0.102,0.294-0.361,0.751
					c-0.129,0.228-0.289,0.515-0.505,0.81c-0.2,0.314-0.49,0.591-0.808,0.914c-0.325,0.307-0.683,0.654-1.127,0.913
					c-0.442,0.259-0.9,0.597-1.439,0.779c-0.532,0.191-1.083,0.445-1.679,0.523c-0.591,0.127-1.198,0.208-1.808,0.208
					c-0.611,0.018-1.218-0.033-1.805-0.134c-0.592-0.068-1.146-0.266-1.68-0.426c-0.52-0.213-1.02-0.406-1.457-0.678
					c-0.445-0.249-0.841-0.52-1.185-0.804c-0.688-0.566-1.173-1.14-1.469-1.584C145.108,271.474,144.997,271.169,144.997,271.169z"
					/>
				<g>
					<path style="fill:#FFFFFF;" d="M127.038,194.47c0,1.441-1.167,2.608-2.607,2.608c-1.439,0-2.606-1.167-2.606-2.608
						c0-1.441,1.167-2.609,2.606-2.609C125.871,191.861,127.038,193.028,127.038,194.47z"/>
					<path style="fill:#FFFFFF;" d="M128.344,198.379c0,0.721-0.585,1.304-1.306,1.304c-0.717,0-1.302-0.583-1.302-1.304
						c0-0.718,0.585-1.301,1.302-1.301C127.758,197.078,128.344,197.662,128.344,198.379z"/>
				</g>
				<g>
					<path style="fill:#FFFFFF;" d="M180.49,194.47c0,1.441,1.167,2.608,2.606,2.608c1.44,0,2.607-1.167,2.607-2.608
						c0-1.441-1.167-2.609-2.607-2.609C181.657,191.861,180.49,193.028,180.49,194.47z"/>
					<path style="fill:#FFFFFF;" d="M179.188,198.379c0,0.721,0.582,1.304,1.303,1.304c0.72,0,1.305-0.583,1.305-1.304
						c0-0.718-0.585-1.301-1.305-1.301C179.77,197.078,179.188,197.662,179.188,198.379z"/>
				</g>
				<g>
					<g>
						<path style="fill:#432918;" d="M167.329,184.365c0,0,0.341-0.33,1.003-0.793c0.658-0.472,1.639-1.074,2.888-1.644
							c1.246-0.574,2.763-1.105,4.452-1.469c1.687-0.368,3.552-0.554,5.441-0.466c1.885,0.095,3.796,0.46,5.486,1.151
							c1.694,0.675,3.14,1.655,4.17,2.674c0.52,0.506,0.932,1.026,1.267,1.5c0.334,0.473,0.553,0.938,0.749,1.29
							c0.329,0.763,0.456,1.206,0.456,1.206s-0.433-0.226-1.082-0.633c-0.351-0.178-0.755-0.403-1.218-0.631
							c-0.469-0.223-0.981-0.466-1.553-0.681c-0.567-0.222-1.177-0.437-1.832-0.616c-0.646-0.195-1.341-0.345-2.057-0.489
							c-0.36-0.062-0.727-0.125-1.098-0.189c-0.375-0.048-0.755-0.097-1.138-0.146c-0.773-0.066-1.557-0.159-2.357-0.176
							c-3.188-0.169-6.521,0.009-9.116,0.069c-1.295,0.039-2.406,0.053-3.198,0.053
							C167.802,184.381,167.329,184.365,167.329,184.365z"/>
					</g>
				</g>
				<g>
					<g>
						<path style="fill:#432918;" d="M140.434,184.279c0,0-0.473,0.022-1.262,0.025c-0.792,0.01-1.904,0.009-3.199-0.014
							c-2.596-0.028-5.931-0.165-9.116,0.043c-0.801,0.027-1.583,0.129-2.355,0.205c-0.382,0.054-0.761,0.107-1.135,0.16
							c-0.37,0.068-0.736,0.136-1.095,0.202c-0.714,0.152-1.407,0.311-2.051,0.513c-0.652,0.187-1.26,0.41-1.824,0.638
							c-0.569,0.223-1.079,0.472-1.545,0.701c-0.46,0.233-0.861,0.463-1.21,0.645c-0.645,0.415-1.075,0.646-1.075,0.646
							s0.122-0.444,0.441-1.211c0.192-0.355,0.405-0.822,0.733-1.3c0.329-0.478,0.734-1.003,1.249-1.515
							c1.017-1.032,2.451-2.029,4.137-2.724c1.682-0.711,3.589-1.099,5.472-1.217c1.888-0.111,3.755,0.052,5.446,0.399
							c1.694,0.343,3.217,0.856,4.47,1.415c1.255,0.554,2.243,1.145,2.908,1.608C140.089,183.954,140.434,184.279,140.434,184.279z"
							/>
					</g>
				</g>
				<path style="opacity:0.3;fill:#FFFFFF;" d="M203.665,271.271c-3.516,4.527-10.47,7.948-15.792,8.462
					c-5.802,0.561-8.415-4.078-5.594-8.898c2.389-4.088,6.773-6.471,9.728-10.087c2.136-2.616,5.047-8.739,9.287-7.774
					c2.132,0.482,3.373,5.562,3.884,7.381C206.216,264.069,206.119,268.114,203.665,271.271z"/>
				<path style="opacity:0.3;fill:#FFFFFF;" d="M101.524,221.678c-0.713-5.686,1.784-13.022,5.184-17.148
					c3.706-4.501,8.833-3.068,10.25,2.337c1.2,4.578-0.217,9.36,0.253,14.012c0.339,3.359,2.61,9.744-1.073,12.066
					c-1.845,1.162-6.317-1.551-7.962-2.477C104.813,228.575,102.021,225.647,101.524,221.678z"/>
				<g>
					<path style="fill:#76512A;" d="M142.223,225.876c0,0,0.005,0.148,0.014,0.425c-0.007,0.272,0.029,0.673,0.023,1.157
						c0.038,0.97,0.079,2.349,0.407,3.681c0.165,0.66,0.414,1.289,0.754,1.78c0.334,0.5,0.744,0.86,1.247,1.189
						c0.509,0.324,1.15,0.603,1.901,0.854c0.755,0.233,1.606,0.449,2.512,0.59c0.9,0.176,1.852,0.273,2.809,0.387
						c0.959,0.089,1.925,0.187,2.876,0.26c1.954,0.156,3.777,0.301,5.34,0.425c1.602,0.14,2.977,0.296,3.95,0.411
						c0.241,0.021,0.458,0.041,0.646,0.066c0.091,0.008,0.175,0.016,0.252,0.022c0.036,0.003,0.072,0.003,0.091,0.009
						c0.013,0.004,0.018,0.001-0.003,0.036c-0.014,0.019-0.022,0.042-0.024,0.064c-0.009,0.021-0.005,0.111,0.034,0.147
						c0.036,0.042,0.064,0.042,0.076,0.044c-0.138-0.114-0.358-0.157-0.334-0.158c0.023,0.013,0.072-0.108,0.438-0.178
						c0.026,0.007,0.07,0.015,0.117,0.068c0.041,0.043,0.051,0.142,0.039,0.17c-0.006,0.029-0.02,0.059-0.038,0.085
						c-0.043,0.06-0.067,0.076-0.086,0.097c-0.035,0.033-0.072,0.067-0.11,0.103c-0.069,0.059-0.145,0.123-0.227,0.192
						c-0.161,0.137-0.351,0.27-0.566,0.41c-0.855,0.586-2.125,1.291-3.724,1.917c-1.597,0.629-3.521,1.185-5.664,1.491
						c-1.07,0.151-2.197,0.256-3.361,0.247c-1.165,0.013-2.366-0.093-3.592-0.292c-1.218-0.232-2.469-0.559-3.684-1.124
						c-1.213-0.549-2.413-1.336-3.378-2.405c-0.975-1.055-1.639-2.4-1.886-3.662c-0.259-1.269-0.151-2.418,0.066-3.372
						c0.468-1.913,1.341-3.144,1.978-3.954c0.308-0.407,0.613-0.698,0.798-0.893C142.115,225.977,142.223,225.876,142.223,225.876z"
						/>
				</g>
				<path style="fill:#FFFFFF;" d="M140.746,264.503c-1.893-6.151-3.364-14.809-3.364-14.809s26.998,6.95,41.128-5.656
					C178.51,244.039,175.763,273.057,140.746,264.503z"/>
				<g>
					<g>
						<path style="fill:#5A3D1D;" d="M138.54,249.791c0,0,0.719,0.116,1.977,0.29c1.255,0.189,3.06,0.37,5.218,0.558
							c2.16,0.179,4.681,0.315,7.375,0.315c1.348,0.017,2.736-0.058,4.145-0.117c1.406-0.094,2.834-0.21,4.246-0.424
							c1.419-0.17,2.819-0.445,4.184-0.761c0.685-0.152,1.346-0.361,2.014-0.525c0.653-0.204,1.3-0.409,1.929-0.627
							c1.244-0.472,2.435-0.963,3.518-1.527c1.084-0.562,2.069-1.167,2.952-1.77c0.43-0.318,0.843-0.623,1.236-0.913
							c0.372-0.318,0.725-0.619,1.057-0.902c0.667-0.568,1.163-1.153,1.619-1.593c0.821-0.968,1.29-1.521,1.29-1.521
							s-0.365,0.625-1.061,1.704c-0.404,0.493-0.841,1.148-1.45,1.805c-0.306,0.33-0.631,0.681-0.975,1.051
							c-0.378,0.335-0.775,0.688-1.19,1.056c-0.857,0.704-1.831,1.421-2.931,2.066c-1.094,0.657-2.302,1.254-3.59,1.783
							c-1.295,0.504-2.652,0.982-4.069,1.325c-1.414,0.345-2.863,0.65-4.326,0.84c-1.462,0.203-2.932,0.305-4.378,0.383
							c-1.446,0.055-2.871,0.046-4.244-0.011c-1.375-0.037-2.698-0.167-3.949-0.294c-1.251-0.133-2.427-0.303-3.507-0.489
							c-2.163-0.36-3.934-0.81-5.168-1.127C139.227,250.036,138.54,249.791,138.54,249.791z"/>
					</g>
				</g>
				<g>
					<g>
						<path style="fill:#5A3D1D;" d="M140.746,264.503c0,0,0.773,0.172,2.132,0.407c1.355,0.253,3.311,0.497,5.65,0.685
							c1.17,0.09,2.44,0.141,3.779,0.152c1.339,0.011,2.748-0.06,4.195-0.179c1.445-0.141,2.929-0.357,4.403-0.703
							c1.482-0.313,2.941-0.803,4.346-1.394c1.405-0.593,2.743-1.332,3.96-2.203c0.612-0.429,1.165-0.925,1.736-1.385
							c0.507-0.528,1.073-0.992,1.518-1.553c0.931-1.082,1.75-2.21,2.396-3.362c0.68-1.137,1.16-2.299,1.634-3.365
							c0.35-1.109,0.79-2.098,0.997-3.031c0.237-0.923,0.494-1.724,0.592-2.405c0.258-1.352,0.427-2.129,0.427-2.129
							c0,0-0.036,0.787-0.138,2.173c-0.025,0.697-0.194,1.523-0.334,2.486c-0.107,0.97-0.44,2.021-0.728,3.19
							c-0.396,1.135-0.805,2.384-1.461,3.615c-0.612,1.247-1.405,2.502-2.375,3.686c-0.457,0.615-1.043,1.136-1.573,1.721
							c-0.59,0.52-1.179,1.069-1.835,1.534c-1.3,0.953-2.73,1.765-4.226,2.412c-1.507,0.615-3.062,1.115-4.623,1.428
							c-1.554,0.357-3.116,0.498-4.617,0.603c-1.505,0.087-2.959,0.065-4.33-0.021c-1.372-0.077-2.661-0.23-3.841-0.416
							c-2.363-0.361-4.285-0.876-5.618-1.256C141.48,264.802,140.746,264.503,140.746,264.503z"/>
					</g>
				</g>
				<g>
					<g>
						<path style="fill:#5A3D1D;" d="M137.382,249.694c0,0,0.102,0.231,0.256,0.641c0.15,0.41,0.357,0.997,0.578,1.701
							c0.226,0.704,0.456,1.529,0.669,2.417c0.094,0.446,0.239,0.899,0.339,1.367c0.106,0.467,0.214,0.942,0.322,1.417
							c0.09,0.478,0.181,0.956,0.271,1.427c0.102,0.467,0.139,0.944,0.233,1.389c0.179,0.891,0.315,1.732,0.404,2.463
							c0.194,1.457,0.197,2.481,0.197,2.481s-0.494-0.87-1.045-2.252c-0.283-0.689-0.582-1.504-0.869-2.388
							c-0.271-0.885-0.467-1.849-0.688-2.809c-0.179-0.968-0.388-1.93-0.485-2.85c-0.108-0.918-0.179-1.779-0.21-2.521
							C137.268,250.7,137.382,249.694,137.382,249.694z"/>
					</g>
				</g>
				<path style="fill:#432918;" d="M114.566,102.124c0,0-28.227,14.854-26.933,51.224c0,0-3.434,31.186,4.161,64.822h2.477v-46.126
					c0,0,14.297-10.51,10.218-16.628c0,0-7.895-17.575,10.077-18.985c0,0,23.04,4.567,39.488,3.595
					c16.446,0.972,39.487-3.595,39.487-3.595c17.972,1.411,10.078,18.985,10.078,18.985c-4.079,6.117,10.217,16.628,10.217,16.628
					v46.126h2.478c7.595-33.636,4.161-64.822,4.161-64.822c1.295-36.369-26.933-51.224-26.933-51.224
					S155.751,78.414,114.566,102.124z"/>
				<g>
					<path style="fill:#432918;" d="M100.28,128.206c0,3.492-2.833,6.323-6.324,6.323c-3.492,0-6.324-2.832-6.324-6.323
						c0-3.491,2.832-6.326,6.324-6.326C97.447,121.88,100.28,124.715,100.28,128.206z"/>
					<path style="fill:#432918;" d="M102.175,117.846c0,3.492-2.831,6.321-6.322,6.321c-3.494,0-6.323-2.829-6.323-6.321
						c0-3.493,2.829-6.323,6.323-6.323C99.345,111.523,102.175,114.353,102.175,117.846z"/>
					<path style="fill:#432918;" d="M108.5,108.653c0,3.494-2.831,6.324-6.323,6.324c-3.494,0-6.324-2.83-6.324-6.324
						c0-3.492,2.83-6.323,6.324-6.323C105.669,102.33,108.5,105.161,108.5,108.653z"/>
					<path style="fill:#432918;" d="M118.214,102.33c0,3.494-2.833,6.323-6.324,6.323c-3.493,0-6.325-2.829-6.325-6.323
						c0-3.491,2.831-6.321,6.325-6.321C115.381,96.009,118.214,98.838,118.214,102.33z"/>
					<path style="fill:#432918;" d="M126.206,97.912c0,3.491-2.83,6.323-6.323,6.323c-3.493,0-6.325-2.832-6.325-6.323
						c0-3.494,2.832-6.326,6.325-6.326C123.376,91.586,126.206,94.418,126.206,97.912z"/>
					<path style="fill:#432918;" d="M135.893,94.218c0,3.494-2.831,6.323-6.323,6.323c-3.493,0-6.323-2.829-6.323-6.323
						c0-3.492,2.83-6.324,6.323-6.324C133.061,87.894,135.893,90.726,135.893,94.218z"/>
					<path style="fill:#432918;" d="M146.974,91.586c0,3.491-2.832,6.323-6.324,6.323c-3.493,0-6.322-2.832-6.322-6.323
						c0-3.492,2.829-6.324,6.322-6.324C144.143,85.263,146.974,88.094,146.974,91.586z"/>
					<path style="fill:#432918;" d="M157.643,91.586c0,3.491-2.832,6.323-6.324,6.323c-3.493,0-6.323-2.832-6.323-6.323
						c0-3.492,2.83-6.324,6.323-6.324C154.811,85.263,157.643,88.094,157.643,91.586z"/>
					<path style="fill:#432918;" d="M168.702,91.586c0,3.491-2.831,6.323-6.323,6.323c-3.493,0-6.323-2.832-6.323-6.323
						c0-3.492,2.83-6.324,6.323-6.324C165.871,85.263,168.702,88.094,168.702,91.586z"/>
					<path style="fill:#432918;" d="M180.295,94.218c0,3.494-2.831,6.323-6.323,6.323c-3.492,0-6.323-2.829-6.323-6.323
						c0-3.492,2.831-6.324,6.323-6.324C177.464,87.894,180.295,90.726,180.295,94.218z"/>
					<path style="fill:#432918;" d="M192.028,96.009c0,3.491-2.831,6.321-6.323,6.321c-3.493,0-6.324-2.83-6.324-6.321
						c0-3.494,2.831-6.326,6.324-6.326C189.197,89.683,192.028,92.515,192.028,96.009z"/>
					<path style="fill:#432918;" d="M200.768,102.33c0,3.492-2.831,6.323-6.322,6.323c-3.494,0-6.326-2.832-6.326-6.323
						c0-3.491,2.832-6.324,6.326-6.324C197.936,96.006,200.768,98.838,200.768,102.33z"/>
					<path style="fill:#432918;" d="M207.089,108.191c0,3.491-2.83,6.32-6.321,6.32c-3.494,0-6.325-2.829-6.325-6.32
						c0-3.494,2.831-6.326,6.325-6.326C204.259,101.865,207.089,104.697,207.089,108.191z"/>
					<path style="fill:#432918;" d="M214.884,114.512c0,3.494-2.83,6.324-6.322,6.324c-3.492,0-6.325-2.83-6.325-6.324
						c0-3.491,2.833-6.323,6.325-6.323C212.054,108.188,214.884,111.021,214.884,114.512z"/>
					<path style="fill:#432918;" d="M220.057,124.167c0,3.494-2.831,6.323-6.323,6.323c-3.493,0-6.324-2.829-6.324-6.323
						c0-3.492,2.831-6.321,6.324-6.321C217.226,117.846,220.057,120.675,220.057,124.167z"/>
				</g>
				<g>
					<g style="opacity:0.5;">
						<path style="fill:#392212;" d="M105.555,113.54c-1.567,1.055-1.838,3.973-0.913,5.511c0.901,1.505,4.699,1.746,3.944,3.9
							c-0.105,0.299-0.209,1.292,0.08,1.522c0.91,0.731,1.643,0.82,2.715,0.317c0.126-0.058,0.107-0.657-0.019-0.715
							c-0.917-0.432-1.857-0.525-2.64-1.211c0.027,0.507,0.054,1.015,0.08,1.52c0.62-1.636,0.709-3.887-0.547-5.268
							c-0.589-0.644-1.443-0.992-2.201-1.385c-0.446-0.234-0.858-0.496-1.207-0.858c-0.197-0.203-0.384,0.807,0.139-0.185
							c0.228-0.432,0.508-0.81,0.729-1.249C105.851,115.172,105.837,113.35,105.555,113.54L105.555,113.54z"/>
					</g>
					<g style="opacity:0.5;">
						<path style="fill:#392212;" d="M92.972,137.27c-0.081,0.373-0.351,0.576-0.46,0.919c-0.076,0.238-0.231,1.624,0.142,1.685
							c0.859,0.147,1.641,0.505,2.465,0.771c0.457,0.15,0.914,0.195,1.392,0.188c0.684-0.01-0.08,1.38-0.157,1.674
							c-0.047,0.175-0.188,1.441,0.121,1.444c0.075,0.003,0.149,0.003,0.227,0.005c0.021-0.012,0.041-0.028,0.063-0.04
							c0.88-1.576,1.043-3.605,0.108-5.194c-0.02-0.01-0.042-0.023-0.06-0.035c-1.524,0.312-2.736-0.663-4.205-0.624
							c0.075,0.38,0.147,0.764,0.219,1.142c0.029-0.594,0.246-1.152,0.238-1.767C93.063,137.385,93.014,137.078,92.972,137.27
							L92.972,137.27z"/>
					</g>
					<g style="opacity:0.5;">
						<path style="fill:#392212;" d="M99.902,126.113c0.984,0.106,1.94,0.358,2.74,0.964c0.312,0.235,0.786,0.698,0.638,1.134
							c-0.214,0.622-0.768,1.101-1.113,1.642c-0.046,0.073-0.063,0.672,0.034,0.647c1.261-0.348,1.519-2.068,1.29-3.151
							c-0.32-1.507-2.4-1.622-3.597-1.535C99.848,125.819,99.852,126.108,99.902,126.113L99.902,126.113z"/>
					</g>
					<g style="opacity:0.5;">
						<path style="fill:#392212;" d="M123.061,110.081c-0.055,1.292-0.012,3.114,1.179,3.926c0.838,0.57,2.598,0.249,3.045-0.724
							c0.281-0.609,0.487-1.484,0.222-2.144c-0.078-0.192-0.372-0.414-0.602-0.274c-0.338,0.206-0.641,0.442-1.006,0.604
							c-1.142,0.513-2.398-0.101-2.51-1.396C123.332,109.412,123.09,109.422,123.061,110.081L123.061,110.081z"/>
					</g>
					<g style="opacity:0.5;">
						<path style="fill:#392212;" d="M142.73,105.484c0.94,0.7,1.742,1.489,2.303,2.535c0.689,1.282,0.387,2.454,0.225,3.788
							c-0.017,0.143-0.077,1.155,0.176,1.165c0.052,0.003,0.105,0.005,0.156,0.007c0.071-0.027,0.112-0.083,0.125-0.162
							c1.406-2.999-0.165-6.359-2.982-7.686C142.717,105.123,142.669,105.438,142.73,105.484L142.73,105.484z"/>
					</g>
					<g style="opacity:0.5;">
						<path style="fill:#392212;" d="M136.886,120.63c-1.311,3.997,1.424,8.363,5.847,7.813c1.035-0.126,1.074-1.616,1.006-2.411
							c-0.037-0.444-0.152-0.913-0.443-1.264c-0.251-0.299-1.177-0.002-1.512,0.016c-1.389,0.073-5.039-0.86-4.636-2.799
							C137.201,121.726,137.006,120.262,136.886,120.63L136.886,120.63z"/>
					</g>
					<g style="opacity:0.5;">
						<path style="fill:#392212;" d="M168.765,104.999c1.49,0.259,2.713,0.875,3.556,2.157c1.081,1.642-0.278,3.225-0.66,4.833
							c-0.051,0.213-0.153,1.35,0.164,1.423c0.077,0.018,0.158,0.038,0.237,0.056c0.024-0.018,0.048-0.031,0.072-0.046
							c1.201-1.774,1.357-4.207,1.046-6.267c-0.362-2.385-2.12-3.685-4.456-3.829C168.502,103.314,168.446,104.946,168.765,104.999
							L168.765,104.999z"/>
					</g>
					<g style="opacity:0.5;">
						<path style="fill:#392212;" d="M157.882,118.077c-0.607,1.992-0.429,4.466,0.955,6.098c1.284,1.507,4.188,2.279,6.056,1.654
							c0.89-0.299,1.055-1.604,0.988-2.418c-0.111-1.317-0.876-1.459-2.004-1.348c-1.182,0.122-2.391-0.092-3.494-0.51
							c-0.51-0.19-0.996-0.467-1.423-0.801c-0.215-0.165-0.382-0.379-0.547-0.591c-0.296-0.383-0.095-0.729-0.176-0.262
							C158.294,119.559,158.033,117.582,157.882,118.077L157.882,118.077z"/>
					</g>
					<g style="opacity:0.5;">
						<path style="fill:#392212;" d="M188.668,115.128c1.681,0.193,2.904,1.35,3.81,2.707c0.219,0.33,0.379,0.688,0.536,1.048
							c0.09,0.211,0.161,0.429,0.21,0.652c0.161-1.177,0.127-1.474-0.105-0.89c-0.423,0.766-1.049,1.406-1.505,2.162
							c-0.212,0.351-0.291,1.602,0.047,1.903c2.578,2.296,2.431-4.405,2.148-5.569c-0.584-2.406-2.519-4.877-5.209-4.819
							C188.176,112.33,188.169,115.073,188.668,115.128L188.668,115.128z"/>
					</g>
					<g style="opacity:0.5;">
						<path style="fill:#392212;" d="M203.11,122.213c-1.077,1.327-1.175,3.225-0.745,4.836c0.483,1.81,1.58,2.997,3.407,3.459
							c2.028,0.515,1.9-3.459,0.207-3.938c-0.886-0.253-1.642-0.444-2.422-0.977c-0.311-0.213-0.582-0.521-0.75-0.858
							c-0.09-0.249-0.088-0.231,0.001,0.056c0.074-0.441,0.274-0.865,0.455-1.269C203.366,123.289,203.188,122.119,203.11,122.213
							L203.11,122.213z"/>
					</g>
					<g style="opacity:0.5;">
						<path style="fill:#392212;" d="M215.275,141.561c0.159,0.774,0.763,2.33,0.314,3.073c-0.68,1.124-2.156,0.548-2.94,1.418
							c-0.303,0.335-0.205,1.558,0.047,1.901c0.604,0.827,1.643,0.964,2.509,0.365c0.652-0.449,0.855-1.345,0.982-2.086
							c0.347-2.01-0.067-4.108-0.65-6.031C215.287,139.369,215.221,141.287,215.275,141.561L215.275,141.561z"/>
					</g>
					<g style="opacity:0.5;">
						<path style="fill:#392212;" d="M149.548,89.148c-1.058,1.142-0.934,2.933-0.594,4.352c0.381,1.588,1.943,2.986,3.452,3.494
							c0.034-0.021,0.069-0.041,0.102-0.066c0.674-0.947,0.712-3.093-0.498-3.667c-0.714-0.34-1.365-0.733-1.946-1.271
							c-0.266-0.246-0.491-0.548-0.65-0.873c-0.129-0.437-0.127-0.261,0,0.528c0.079-0.3,0.188-0.586,0.325-0.86
							C149.857,90.515,149.681,89.003,149.548,89.148L149.548,89.148z"/>
					</g>
					<g style="opacity:0.5;">
						<path style="fill:#392212;" d="M124.776,94.494c1.641,0.784,3.293,2.022,2.673,3.945c-0.251,0.779-0.325,1.634-0.202,2.446
							c0.147,0.967,0.626,0.195,0.776-0.365c0.658-2.517,0.673-8.107-3.279-7.343C124.505,93.226,124.565,94.393,124.776,94.494
							L124.776,94.494z"/>
					</g>
					<g style="opacity:0.5;">
						<path style="fill:#392212;" d="M116.315,97.315c-1.211,1.343-1.396,2.721-1.184,4.477c0.265,2.157,1.881,3.494,3.926,3.938
							c0.032-0.021,0.064-0.041,0.095-0.061c0.115-0.137,0.23-0.276,0.346-0.413c0.356-0.426,0.221-1.751-0.054-2.188
							c-0.649-1.03-2.074-1.119-3.062-1.865c-0.328-0.249-0.562-0.594-0.811-0.916c-0.354-0.457,0.552-1.85,0.802-2.281
							C116.452,97.874,116.356,97.272,116.315,97.315L116.315,97.315z"/>
					</g>
					<g style="opacity:0.5;">
						<path style="fill:#392212;" d="M184.023,93.352c-2.562,0.583-3.223,2.824-3.191,5.215c0.037,2.626,0.882,5.43,4.056,4.976
							c0.144-0.061,0.228-0.172,0.255-0.332c0.5-1.447,0.519-2.73-0.102-4.139c-0.034-0.162-0.126-0.269-0.271-0.319
							c-0.704-0.01-1.345-0.038-2.014-0.277c-0.299-0.106-0.526-0.243-0.757-0.456c-0.649-0.596-0.031-1.241-0.213,1.177
							c0.115-1.535,1.263-3.111,2.328-4.144C184.306,94.867,184.251,93.302,184.023,93.352L184.023,93.352z"/>
					</g>
					<g style="opacity:0.5;">
						<path style="fill:#392212;" d="M194.695,103.585c0.425,1.18,1.374,2.178,1.903,3.334c0.372,0.814-0.176,0.5,0.208-0.675
							c-0.066,0.203-0.222,0.374-0.356,0.536c-0.518,0.617-1.243,0.898-1.763,1.578c-0.191,0.249-0.224,1.345,0.037,1.556
							c0.807,0.652,1.587,0.533,2.269-0.251c0.613-0.708,0.513-2.134,0.463-2.981c-0.113-1.901-1.007-3.269-2.5-4.388
							c-0.02-0.01-0.039-0.021-0.057-0.033c-0.053,0.033-0.108,0.066-0.162,0.097C194.467,102.52,194.61,103.347,194.695,103.585
							L194.695,103.585z"/>
					</g>
					<g style="opacity:0.5;">
						<path style="fill:#392212;" d="M173.6,125.481c-0.256,1.581-0.017,3.291,0.758,4.702c0.866,1.571,2.976,3.033,4.824,2.966
							c0.037-0.023,0.071-0.045,0.106-0.068c0.417-0.807,0.533-1.5,0.393-2.418c-0.191-1.249-0.79-1.201-1.837-1.363
							c-1.346-0.208-4.026-1.477-3.977-3.157C173.87,125.999,173.694,124.885,173.6,125.481L173.6,125.481z"/>
					</g>
					<g style="opacity:0.5;">
						<path style="fill:#392212;" d="M92.125,152.234c-0.317,1.565-0.28,3.679,0.552,5.087c0.614,1.035,2.504,2.395,3.74,1.622
							c0.751-0.47,0.739-1.799,0.622-2.576c-0.055-0.345-0.164-0.896-0.479-1.073c-0.459-0.259-0.848-0.155-1.356-0.186
							c-0.717-0.043-1.367-0.357-1.891-0.835c-0.311-0.287-0.917-1.005-0.908-1.348C92.408,152.777,92.253,151.609,92.125,152.234
							L92.125,152.234z"/>
					</g>
					<g style="opacity:0.5;">
						<path style="fill:#392212;" d="M96.815,151.105c0.735,0.441,1.401,1.091,2.046,1.664c0.698,0.622,1.032,1.419,1.174,2.319
							c0.007,0.048,0.15,0.878,0.35,0.617c0.243-0.322,0.188-0.942,0.186-1.314c-0.009-1.296-0.275-2.591-1.049-3.657
							c-0.294-0.403-0.699-0.749-1.146-0.969c-0.539-0.269-0.991-0.096-1.555-0.01C96.595,149.79,96.632,150.998,96.815,151.105
							L96.815,151.105z"/>
					</g>
					<g style="opacity:0.5;">
						<path style="fill:#392212;" d="M210.337,154.007c-0.538,1.252-0.475,2.766-0.135,4.06c0.325,1.233,1.483,1.967,2.682,2.165
							c0.446,0.074,0.647-0.538,0.756-0.804c0.149-0.368,0.112-0.868,0.08-1.251c-0.034-0.403-0.132-0.909-0.396-1.226
							c-0.255-0.307-0.756-0.315-1.112-0.365c-0.544-0.076-1.034-0.246-1.437-0.632c-0.154-0.147-0.242-0.34-0.371-0.505
							c-0.047-0.063,0.025,0.467,0.029,0.417c0.018-0.231,0.077-0.462,0.131-0.691c0.066-0.287,0.047-0.616,0.003-0.903
							C210.552,154.17,210.459,153.723,210.337,154.007L210.337,154.007z"/>
					</g>
					<g style="opacity:0.5;">
						<path style="fill:#392212;" d="M216.145,157.311c0.875,0.837,1.489,1.827,1.91,2.958c0.114,0.569,0.16,0.551,0.136-0.053
							c-0.096,0.296-0.269,0.556-0.449,0.804c-0.426,0.586-0.878,0.99-1.253,1.649c-0.165,0.292-0.245,1.312,0.037,1.556
							c2.087,1.809,2.486-2.833,2.387-3.982c-0.166-1.933-0.936-3.595-2.76-4.458C216.063,155.743,215.932,157.108,216.145,157.311
							L216.145,157.311z"/>
					</g>
				</g>
			</g>
		</g>
	</g>
</g>
</svg>
