<?xml version="1.0" encoding="utf-8"?>
<!-- Generator: Adobe Illustrator 27.5.0, SVG Export Plug-In . SVG Version: 6.00 Build 0)  -->
<svg version="1.1" id="Layer_1" xmlns="http://www.w3.org/2000/svg" xmlns:xlink="http://www.w3.org/1999/xlink" x="0px" y="0px"
	 viewBox="0 0 500 500" style="enable-background:new 0 0 500 500;" xml:space="preserve">
<g>
	<g>
		<g>
			<g>
				<path style="fill:#CBE9F4;" d="M172.625,241.863c-0.353,8.425-7.479,14.946-15.901,14.581
					c-8.428-0.365-14.959-7.479-14.609-15.911c0.378-8.419,7.501-14.94,15.913-14.584
					C166.46,226.312,172.987,233.431,172.625,241.863z"/>
			</g>
		</g>
		<g>
			<path style="fill:#CBE9F4;" d="M210.473,232.719c-4.805-4.28-7.354-11.557-6.398-17.725c0.599-3.856,11.443-10.571,11.443-10.571
				l-16.181-17.584c0,0-7.593,10.289-11.474,10.556c-5.938,0.433-12.653-2.616-16.266-7.575c-2.297-3.156,0.675-15.564,0.675-15.564
				l-23.902-1.028c0,0,1.873,12.631-0.666,15.56c-3.528,4.053-9.81,6.113-14.943,5.085c-3.826-0.758-10.009-11.916-10.009-11.916
				l-18.311,15.379c0,0,9.911,8.032,10.015,11.916c0.157,6.528-3.31,13.73-8.784,17.63c-3.178,2.266-15.576-0.866-15.576-0.866
				l-1.339,23.884c0,0,12.631-1.735,15.524,0.85c4.808,4.302,7.363,11.578,6.408,17.737c-0.592,3.85-11.458,10.562-11.458,10.562
				l16.181,17.584c0,0,7.587-10.28,11.48-10.55c5.923-0.424,12.662,2.631,16.282,7.568c2.29,3.163-0.66,15.56-0.66,15.56
				l23.884,1.032c0,0-1.895-12.625,0.651-15.56c3.537-4.044,9.834-6.113,14.968-5.082c3.81,0.771,10.003,11.919,10.003,11.919
				l18.305-15.382c0,0-9.902-8.035-10.022-11.922c-0.147-6.521,3.313-13.718,8.79-17.627c3.178-2.251,15.585,0.881,15.585,0.881
				l1.32-23.878C225.996,233.594,213.383,235.307,210.473,232.719z M155.686,280.767c-21.848-0.943-38.803-19.423-37.854-41.277
				c0.946-21.848,19.42-38.797,41.274-37.86c21.836,0.949,38.815,19.426,37.854,41.277
				C196.02,264.758,177.553,281.709,155.686,280.767z"/>
		</g>
		<g>
			<g>
				<path style="fill:#CBE9F4;" d="M187.633,243.045c-0.716,16.703-14.839,29.659-31.548,28.929
					c-16.693-0.721-29.644-14.836-28.922-31.529c0.715-16.718,14.836-29.663,31.538-28.95
					C175.406,212.222,188.36,226.345,187.633,243.045z"/>
			</g>
		</g>
	</g>
	<g>
		<g>
			<rect x="347.225" y="149.038" style="fill:#64B4D7;" width="61.815" height="227.6"/>
		</g>
		<g>
			<rect x="238.084" y="149.038" style="fill:#C1E4FA;" width="109.141" height="227.6"/>
		</g>
		<g>
			<rect x="363.62" y="317.181" style="fill:#848FB7;" width="29.018" height="48.944"/>
		</g>
		<g>
			<rect x="367.207" y="322.397" style="fill:#464F72;" width="21.852" height="2.125"/>
		</g>
		<g>
			<rect x="367.207" y="326.112" style="fill:#464F72;" width="21.852" height="2.128"/>
		</g>
		<g>
			<rect x="367.207" y="329.916" style="fill:#464F72;" width="21.852" height="2.128"/>
		</g>
		<g>
			<rect x="367.207" y="333.631" style="fill:#464F72;" width="21.852" height="2.131"/>
		</g>
		<g>
			<rect x="367.207" y="337.417" style="fill:#464F72;" width="21.852" height="2.125"/>
		</g>
		<g>
			<rect x="367.207" y="341.132" style="fill:#464F72;" width="21.852" height="2.128"/>
		</g>
		<g>
			<rect x="367.207" y="344.936" style="fill:#464F72;" width="21.852" height="2.125"/>
		</g>
		<g>
			<rect x="367.207" y="348.652" style="fill:#464F72;" width="21.852" height="2.131"/>
		</g>
		<g>
			<rect x="367.207" y="353.171" style="fill:#464F72;" width="21.852" height="2.128"/>
		</g>
		<g>
			<rect x="367.207" y="356.975" style="fill:#464F72;" width="21.852" height="2.125"/>
		</g>
		<g>
			<rect x="367.207" y="360.69" style="fill:#464F72;" width="21.852" height="2.131"/>
		</g>
		<g>
			<g>
				<polygon style="fill:#6D76A1;" points="363.255,210.423 393.009,210.423 378.131,180.668 				"/>
			</g>
			<g>
				<polygon style="fill:#FFCF03;" points="390.129,208.405 378.131,185.037 366.132,208.405 				"/>
			</g>
			<g>
				<polygon style="fill:#6D76A1;" points="380.571,206.462 380.799,195.912 378.078,199.587 377.342,190.3 377.296,202.403 
					379.494,199.348 				"/>
			</g>
		</g>
		<g>
			<rect x="250.35" y="167.856" style="fill:#6D76A1;" width="83.356" height="34.811"/>
		</g>
		<g>
			<rect x="254.599" y="171.964" style="fill:#464F72;" width="60.393" height="17.409"/>
		</g>
		<g>
			<rect x="250.35" y="211.236" style="fill:#6D76A1;" width="83.356" height="9.453"/>
		</g>
		<g>
			<rect x="327.464" y="231.948" style="fill:#6D76A1;" width="6.242" height="34.643"/>
		</g>
		<g>
			<rect x="316.359" y="231.948" style="fill:#6D76A1;" width="6.248" height="34.643"/>
		</g>
		<g>
			<rect x="305.257" y="231.948" style="fill:#6D76A1;" width="6.242" height="34.643"/>
		</g>
		<g>
			<rect x="294.151" y="231.948" style="fill:#6D76A1;" width="6.248" height="34.643"/>
		</g>
		<g>
			<rect x="284.784" y="231.948" style="fill:#6D76A1;" width="6.248" height="34.643"/>
		</g>
		<g>
			<rect x="273.681" y="231.948" style="fill:#6D76A1;" width="6.248" height="34.643"/>
		</g>
		<g>
			<rect x="262.582" y="231.948" style="fill:#6D76A1;" width="6.242" height="34.643"/>
		</g>
		<g>
			<rect x="251.477" y="231.948" style="fill:#6D76A1;" width="6.248" height="34.643"/>
		</g>
		<g>
			<rect x="254.206" y="262.836" style="fill:#6D76A1;" width="0.786" height="69.208"/>
		</g>
		<g>
			<rect x="265.309" y="262.836" style="fill:#6D76A1;" width="0.786" height="69.208"/>
		</g>
		<g>
			<rect x="276.411" y="262.836" style="fill:#6D76A1;" width="0.786" height="69.208"/>
		</g>
		<g>
			<rect x="287.516" y="262.836" style="fill:#6D76A1;" width="0.786" height="69.208"/>
		</g>
		<g>
			<rect x="296.884" y="262.836" style="fill:#6D76A1;" width="0.786" height="69.208"/>
		</g>
		<g>
			<rect x="307.986" y="262.836" style="fill:#6D76A1;" width="0.786" height="69.208"/>
		</g>
		<g>
			<rect x="319.088" y="262.836" style="fill:#6D76A1;" width="0.786" height="69.208"/>
		</g>
		<g>
			<rect x="330.19" y="262.836" style="fill:#6D76A1;" width="0.786" height="69.208"/>
		</g>
		<g>
			<rect x="250.35" y="331.298" style="fill:#6D76A1;" width="83.356" height="4.194"/>
		</g>
		<g>
			<path style="fill:#6D76A1;" d="M330.86,236.124l-0.046-6.07c-0.006-0.749-0.301-1.468-0.81-1.971
				c-0.448-0.442-1.026-0.685-1.631-0.685c-0.006,0-0.012,0-0.018,0l-10.396,0.077c-0.967,0.015-1.986-0.412-2.711-1.176
				c-0.712-0.752-1.108-1.75-1.115-2.813l-0.055-7.531l1.572-0.012l0.055,7.531c0.003,0.663,0.249,1.283,0.685,1.744
				c0.418,0.442,0.964,0.685,1.541,0.685c0.006,0,0.009,0,0.015,0l10.396-0.077c0.013,0,0.022,0,0.034,0
				c1.016,0,1.986,0.402,2.733,1.136c0.804,0.795,1.271,1.916,1.277,3.08l0.046,6.07L330.86,236.124z"/>
		</g>
		<g>
			<path style="fill:#6D76A1;" d="M308.443,236.115l-0.043-6.073c-0.006-0.725-0.273-1.403-0.749-1.907
				c-0.457-0.485-1.059-0.749-1.692-0.749c-0.009,0-0.015,0-0.021,0l-10.393,0.077c-0.012,0-0.021,0-0.034,0
				c-1.01,0-1.962-0.418-2.681-1.176c-0.709-0.749-1.105-1.747-1.115-2.809l-0.052-7.535l1.572-0.012l0.052,7.535
				c0.006,0.663,0.249,1.28,0.685,1.741c0.421,0.448,1.068,0.734,1.56,0.685l10.393-0.077c0.012,0,0.021,0,0.034,0
				c1.068,0,2.076,0.439,2.834,1.24c0.752,0.792,1.17,1.852,1.179,2.975l0.043,6.073L308.443,236.115z"/>
		</g>
		<g>
			<path style="fill:#6D76A1;" d="M287.391,236.109l-0.043-6.073c-0.012-1.468-0.989-2.656-2.183-2.656c-0.003,0-0.009,0-0.012,0
				l-9.53,0.071c-0.009,0-0.018,0-0.025,0c-0.86,0-1.686-0.35-2.33-0.986c-0.768-0.755-1.213-1.852-1.222-3.006l-0.059-7.529
				l1.572-0.012l0.059,7.528c0.006,0.74,0.279,1.431,0.752,1.898c0.249,0.245,0.66,0.534,1.228,0.534c0.003,0,0.006,0,0.012,0
				l9.53-0.071c0.009,0,0.019,0,0.025,0c2.054,0,3.737,1.885,3.755,4.215l0.043,6.073L287.391,236.109z"/>
		</g>
		<g>
			<path style="fill:#6D76A1;" d="M265.634,236.118l-0.043-6.07c-0.006-0.746-0.227-1.468-0.611-1.974
				c-0.193-0.258-0.602-0.684-1.176-0.684c-0.003,0-0.006,0-0.009,0l-8.253,0.058c-0.009,0-0.015,0-0.025,0
				c-0.709,0-1.403-0.301-1.959-0.847c-0.768-0.756-1.213-1.904-1.219-3.147l-0.061-7.528l1.572-0.012l0.061,7.531
				c0.003,0.816,0.285,1.578,0.752,2.039c0.181,0.178,0.479,0.393,0.856,0.393c0.003,0,0.006,0,0.009,0l8.253-0.058
				c0.009,0,0.015,0,0.025,0c0.915,0,1.802,0.476,2.428,1.311c0.59,0.783,0.918,1.815,0.928,2.908l0.043,6.07L265.634,236.118z"/>
		</g>
		<g>
			<rect x="250.35" y="342.192" style="fill:#6D76A1;" width="83.356" height="13.107"/>
		</g>
		<g>
			<rect x="327.464" y="280.515" style="fill:#6D76A1;" width="6.242" height="9.011"/>
		</g>
		<g>
			<rect x="316.359" y="306.048" style="fill:#6D76A1;" width="6.248" height="9.011"/>
		</g>
		<g>
			<rect x="305.257" y="285.019" style="fill:#6D76A1;" width="6.242" height="9.011"/>
		</g>
		<g>
			<rect x="294.154" y="318.955" style="fill:#6D76A1;" width="6.245" height="9.011"/>
		</g>
		<g>
			<rect x="284.784" y="276.008" style="fill:#6D76A1;" width="6.248" height="9.011"/>
		</g>
		<g>
			<rect x="263.298" y="280.515" style="fill:#6D76A1;" width="6.248" height="9.011"/>
		</g>
		<g>
			<rect x="251.477" y="314.448" style="fill:#6D76A1;" width="6.248" height="9.011"/>
		</g>
		<g>
			<rect x="344.219" y="170.994" style="fill:#C1E4FA;" width="4.001" height="55.017"/>
		</g>
		<g>
			<rect x="344.219" y="297.156" style="fill:#C1E4FA;" width="4.001" height="55.017"/>
		</g>
	</g>
	<g>
		<g>
			<path style="fill:#FBC6B4;" d="M207.54,225.056c1.093-1.41,5.57-4.295,10.025-1.904c5.953,3.199,13.568,14.691,22.886,14.388
				c9.361-0.316,12.293-5.892,14.765-9.358c2.456-3.485,1.799-6.024,3.466-7.885c1.661-1.873,3.786,0.193,1.176,6.718
				c-1.243,3.126-5.56,19.278-16.607,21.701C228.775,251.896,201.142,233.438,207.54,225.056z"/>
		</g>
		<g>
			<path style="fill:#EDA503;" d="M208.99,221.85c0,0-5.566,4.882,1.468,13.371c7.037,8.49,11.274,11.219,11.274,11.219
				s6.659-2.775,12.103-12.693C233.835,233.748,215.839,213.849,208.99,221.85z"/>
		</g>
	</g>
	<g>
		<path style="fill:#FFB502;" d="M186.441,238.829c4.129,15.266,1.851,25.997,0,31.812c4.308,1.385,1.741,3.694,1.624,3.985
			c-6.092,12.644,31.778,5.152,38.431-5.085c2.29-3.519,0.101-7.989,0.51-14.747c0.147-1.52,0.187-3.058,0.203-4.566
			c0.187-6.923-0.28-13.681-1.253-18.281c-2.972-13.952-16.095-14.633-24.081-13.519c-3.626,0.501-8.354,1.115-11.987,3.251
			l-0.018,0.028C185.637,224.273,183.371,227.478,186.441,238.829z"/>
	</g>
	<g>
		<path style="fill:#1C2745;" d="M195.824,231.344c1.636,6.93,7.489,28.078-9.383,38.655c0,0,27.937,20.457,43.921,2.76
			c0,0-3.215-30.194-7.682-42.183c-1.28-3.445-4.688-14.022-10.82-12.493c0,0,10.78,16.979,5.861,21.462
			c-4.919,4.489-9.561,0.715-11.732-2.662c-3.479-5.434-7.194-18.001-7.194-18.001l-6.521,1.658
			C192.275,220.539,194.43,225.437,195.824,231.344z"/>
	</g>
	<g>
		<g>
			<path style="fill:#F7B2A0;" d="M201.203,208.316c0,0,3.58,5.625-0.227,9.374c-3.915,3.838,14.074,10.62,13.202,7.166
				c-1.115-4.461-3.77-6.844-2.232-12.327L201.203,208.316z"/>
		</g>
		<g>
			<path style="fill:#FBC6B4;" d="M209.29,195.706c4.326,3.135,10.51,18.557,6.924,22.594c-1.584,1.759-9.054,0.958-14.538-5.468
				c-2.257-2.622-5.284-7.731-3.074-13.528C199.616,196.67,204.271,192.065,209.29,195.706z"/>
		</g>
		<g>
			<path style="fill:#1D1B3A;" d="M213.463,197.128c1.105,1.894,0.921,2.383-4.989,4.077c-5.898,1.695-6.994,1.425-6.196,2.775
				c2.346,4.001-2.057,3.724,0.798,8.465c2.843,4.759-2.607,2.352-5.358-1.483c-0.54-0.777-3.601-4.495-1.471-11.13
				C198.717,192.084,209.367,190.186,213.463,197.128z"/>
		</g>
	</g>
	<g>
		<path style="fill:#EDA503;" d="M201.483,207.493c0,0,18.293-5.167,17.443-10.869c-0.525-3.516-11.142-2.137-11.142-2.137
			L201.483,207.493z"/>
	</g>
	<g>
		<path style="fill:#FFB502;" d="M213.463,197.128c-1.462,5.502-5.778,8.529-16.991,12.109c0,0-6.067-10.872,1.796-16.632
			C205.213,187.536,214.397,193.606,213.463,197.128z"/>
	</g>
	<g>
		<g>
			<path style="fill:#FBC6B4;" d="M176.656,328.814c-3.792,14.836-8.238,46.518-0.952,46.7c7.277,0.166,11.348-2.042,7.151-3.214
				c-4.2-1.185-4.369-1.643-4.24-2.822c1.805-15.303,25.732-39.162,27.765-57.35c0.684-6.211,1.154-11.891,1.477-16.878
				c2.723,13.322,0.722,27.461,0.958,32.137c0.768,16.629,4.323,48.063,12.293,48.127c8.49,0.059,12.659-2.294,7.234-3.414
				c-4.691-0.992-4.495-1.21-4.409-2.37c1.142-16.792,9.285-47.833,10.844-67.78C236.583,278.928,179.957,315.842,176.656,328.814z"
				/>
		</g>
		<g>
			<path style="fill:#FFB502;" d="M216.638,371.731c0,0,6.331,2.509,10.24,0c0,0,7.138,0.961,2.659,2.699
				C225.032,376.171,216.371,377.608,216.638,371.731z"/>
		</g>
		<g>
			<path style="fill:#FFB502;" d="M172.612,372.299c0,0,6.337,2.499,10.243,0c0,0,7.142,0.973,2.637,2.699
				C181.004,376.739,172.348,378.182,172.612,372.299z"/>
		</g>
		<g>
			<path style="fill:#1C2745;" d="M229.146,262.836c-14.513,9.681-34.805,8.695-42.705,7.163
				c-2.137,17.264-15.109,82.036-16.574,90.924c6.371,2.112,8.49,2.558,10.332,2.558c30.762-39.672,27.231-56.687,27.556-61.673
				c1.157,5.763-2.641,33.988,4,61.673c2.226,1.437,8.971,3.304,13.798,0c0.242-1.772,9.269-33.565,9.073-58.453
				C234.492,288.062,231.655,276.416,229.146,262.836z"/>
		</g>
	</g>
	<g>
		<g>
			<path style="fill:#FFFFFF;" d="M187.454,284.623c9.021-2.862,9.816-11.784,9.825-11.87l-1.197-0.089
				c-0.022,0.323-0.752,8.204-8.996,10.823L187.454,284.623z"/>
		</g>
	</g>
	<g>
		<g>
			<path style="fill:#FFFFFF;" d="M229.686,282.4l0.365-1.145c-8.265-2.616-8.99-10.737-8.996-10.82l-1.2,0.092
				C219.868,270.622,220.663,279.542,229.686,282.4z"/>
		</g>
	</g>
	<g>
		<rect x="72.953" y="342.68" style="fill:#C1E4FA;" width="63.279" height="36.552"/>
	</g>
	<g>
		<rect x="136.232" y="342.68" style="fill:#4CA1BF;" width="24.55" height="36.552"/>
	</g>
	<g>
		<rect x="76.772" y="331.224" style="fill:#C1E4FA;" width="9.088" height="17.82"/>
	</g>
	<g>
		<rect x="81.316" y="333.77" style="fill:#464F72;" width="67.646" height="2.183"/>
	</g>
	<g>
		<rect x="144.417" y="331.224" style="fill:#4CA1BF;" width="9.088" height="17.82"/>
	</g>
	<g>
		<g>
			<rect x="163.033" y="274.344" style="fill:#C1E4FA;" width="51.836" height="29.939"/>
		</g>
		<g>
			<rect x="214.869" y="274.344" style="fill:#4CA1BF;" width="20.108" height="29.939"/>
		</g>
		<g>
			<rect x="166.162" y="264.961" style="fill:#C1E4FA;" width="7.445" height="14.596"/>
		</g>
		<g>
			<rect x="169.886" y="267.045" style="fill:#464F72;" width="55.41" height="1.787"/>
		</g>
		<g>
			<rect x="221.572" y="264.961" style="fill:#4CA1BF;" width="7.445" height="14.596"/>
		</g>
	</g>
	<g>
		<g>
			<path style="fill:#FBC6B4;" d="M192.376,223.048c1.624,0.525,4.621,3.165,3.85,7.924c-1.022,6.371-9.005,16.822-5.815,25.127
				c3.202,8.33,9.146,9.236,13.046,10.381c3.906,1.13,5.984-0.246,8.185,0.66c2.207,0.918,1.007,3.488-5.689,3.169
				c-3.205-0.157-19.113,1.004-24.75-8.201C173.816,250.057,182.83,219.897,192.376,223.048z"/>
		</g>
		<g>
			<path style="fill:#EDA503;" d="M192.275,220.539c0,0-4.415-0.826-9.871,8.183c-5.444,8.984-6.58,13.654-6.58,13.654
				s4.581,5.139,15.216,6.954C191.04,249.33,203.024,225.805,192.275,220.539z"/>
		</g>
	</g>
	<g>
		<g>
			<path style="fill:#64B4D7;" d="M420.409,279.569c-3.66,0-6.638-2.978-6.638-6.632c0-3.66,2.978-6.632,6.638-6.632
				c3.663,0,6.638,2.972,6.638,6.632C427.047,276.591,424.072,279.569,420.409,279.569z M420.409,269.262
				c-2.026,0-3.678,1.649-3.678,3.675c0,2.023,1.652,3.672,3.678,3.672c2.03,0,3.678-1.649,3.678-3.672
				C424.087,270.911,422.439,269.262,420.409,269.262z"/>
		</g>
	</g>
	<g>
		<g>
			<g>
				<g>
					
						<rect x="206.925" y="161.212" transform="matrix(0.7016 -0.7126 0.7126 0.7016 -57.6753 198.6945)" style="fill:#FFB502;" width="2.958" height="14"/>
				</g>
			</g>
		</g>
		<g>
			<g>
				<g>
					
						<rect x="201.482" y="166.735" transform="matrix(0.7061 -0.7081 0.7081 0.7061 -57.863 197.0155)" style="fill:#FFB502;" width="13.849" height="2.957"/>
				</g>
			</g>
		</g>
	</g>
	<g>
		<g>
			<g>
				<g>
					<path style="fill:#FBE366;" d="M324.59,126.246l1.286-1.425c0,0-0.639-0.635-1.277-1.265c-0.593-0.688-1.191-1.369-1.191-1.369
						l-1.489,1.207c0,0,0.635,0.734,1.277,1.474C323.897,125.559,324.59,126.246,324.59,126.246z"/>
				</g>
			</g>
		</g>
		<g>
			<g>
				<g>
					<path style="fill:#FBE366;" d="M329.884,129.157l0.405-1.882c0,0-0.814-0.172-1.575-0.534
						c-0.387-0.187-0.768-0.372-1.032-0.568c-0.273-0.178-0.454-0.295-0.454-0.295l-1.09,1.587c0,0,0.212,0.135,0.531,0.338
						c0.307,0.227,0.765,0.458,1.24,0.676C328.84,128.933,329.884,129.157,329.884,129.157z"/>
				</g>
			</g>
		</g>
		<g>
			<g>
				<g>
					<path style="fill:#FBE366;" d="M335.932,128.365l-0.765-1.759c0,0-0.807,0.372-1.63,0.574
						c-0.823,0.233-1.652,0.249-1.652,0.249l0.061,1.919c0.003,0,1.069-0.025,2.066-0.307
						C335.02,128.786,335.932,128.365,335.932,128.365z"/>
				</g>
			</g>
		</g>
		<g>
			<g>
				<g>
					<path style="fill:#FBE366;" d="M340.909,125.498l-1.032-1.615c0,0-0.792,0.501-1.581,1.004
						c-0.786,0.47-1.569,0.937-1.569,0.937l0.937,1.679c0,0,0.826-0.494,1.661-0.988
						C340.114,126.007,340.909,125.498,340.909,125.498z"/>
				</g>
			</g>
		</g>
		<g>
			<g>
				<g>
					<path style="fill:#FBE366;" d="M345.625,123.038l-0.577-1.833c0,0-0.976,0.323-1.87,0.756
						c-0.887,0.439-1.713,0.933-1.713,0.933l0.976,1.658c0,0,0.786-0.467,1.575-0.863
						C344.818,123.302,345.625,123.038,345.625,123.038z"/>
				</g>
			</g>
		</g>
		<g>
			<g>
				<g>
					<path style="fill:#FBE366;" d="M350.375,123.268l0.792-1.744c0-0.006-0.955-0.457-2.011-0.629
						c-1.047-0.215-2.116-0.092-2.116-0.092l0.178,1.913c0,0,0.813-0.101,1.602,0.068
						C349.616,122.915,350.375,123.268,350.375,123.268z"/>
				</g>
			</g>
		</g>
		<g>
			<g>
				<g>
					<path style="fill:#FBE366;" d="M354.382,126.48l1.443-1.268c0,0-0.669-0.715-1.366-1.421c-0.381-0.319-0.758-0.648-1.044-0.89
						c-0.295-0.233-0.516-0.365-0.516-0.365l-1.102,1.572c0,0,0.181,0.107,0.436,0.313c0.252,0.209,0.583,0.494,0.915,0.78
						C353.771,125.829,354.382,126.48,354.382,126.48z"/>
				</g>
			</g>
		</g>
	</g>
	<g>
		<g>
			<g>
				
					<rect x="419.815" y="184.672" transform="matrix(1 -0.0047 0.0047 1 -0.8733 1.9707)" style="fill:#1C2745;" width="2.63" height="6.251"/>
			</g>
		</g>
		<g>
			<g>
				
					<rect x="419.862" y="193.981" transform="matrix(1 -0.0047 0.0047 1 -0.9179 1.9734)" style="fill:#1C2745;" width="2.628" height="6.251"/>
			</g>
		</g>
		<g>
			<g>
				
					<rect x="419.909" y="203.287" transform="matrix(1 -0.0047 0.0047 1 -0.9603 1.9713)" style="fill:#1C2745;" width="2.63" height="6.251"/>
			</g>
		</g>
		<g>
			<g>
				
					<rect x="419.955" y="212.599" transform="matrix(1 -0.0059 0.0059 1 -1.2554 2.4693)" style="fill:#1C2745;" width="2.631" height="6.25"/>
			</g>
		</g>
		<g>
			<g>
				
					<rect x="420.002" y="221.906" transform="matrix(1 -0.0047 0.0047 1 -1.0472 1.9717)" style="fill:#1C2745;" width="2.63" height="6.251"/>
			</g>
		</g>
		<g>
			<g>
				
					<rect x="420.05" y="231.218" transform="matrix(1 -0.0059 0.0059 1 -1.3643 2.4701)" style="fill:#1C2745;" width="2.63" height="6.25"/>
			</g>
		</g>
		<g>
			<g>
				
					<rect x="420.096" y="240.524" transform="matrix(1 -0.0035 0.0035 1 -0.8493 1.4749)" style="fill:#1C2745;" width="2.63" height="6.25"/>
			</g>
		</g>
	</g>
	<g>
		<g>
			<g>
				<rect x="101.531" y="314.316" style="fill:#27355C;" width="27.218" height="2.103"/>
			</g>
		</g>
	</g>
	<g>
		<g>
			<g>
				<rect x="112.158" y="307.442" style="fill:#27355C;" width="15.005" height="2.103"/>
			</g>
		</g>
	</g>
</g>
</svg>
