<?xml version="1.0" encoding="utf-8"?>
<!-- Generator: Adobe Illustrator 27.5.0, SVG Export Plug-In . SVG Version: 6.00 Build 0)  -->
<svg version="1.1" xmlns="http://www.w3.org/2000/svg" xmlns:xlink="http://www.w3.org/1999/xlink" x="0px" y="0px"
	 viewBox="0 0 500 500" style="enable-background:new 0 0 500 500;" xml:space="preserve">
<g id="BACKGROUND">
	<rect id="XMLID_77_" x="-0.017" style="fill:#FFFFFF;" width="500" height="500"/>
	<rect id="XMLID_280_" y="347.574" style="fill:#DADADA;" width="500" height="152.426"/>
</g>
<g id="OBJECTS">
	<g id="XMLID_2590_">
		<g id="XMLID_2608_">
			<rect id="XMLID_2630_" x="300.882" y="47.408" style="fill:#EDEDED;" width="145.993" height="301.489"/>
			<g id="XMLID_2609_">
				<g id="XMLID_2625_">
					<rect id="XMLID_2629_" x="320.662" y="77.407" style="fill:#DADADA;" width="22.62" height="32.674"/>
					<rect id="XMLID_2628_" x="348.599" y="77.407" style="fill:#DADADA;" width="22.621" height="32.674"/>
					<rect id="XMLID_2627_" x="376.537" y="77.407" style="fill:#DADADA;" width="22.62" height="32.674"/>
					<rect id="XMLID_2626_" x="404.474" y="77.407" style="fill:#DADADA;" width="22.62" height="32.674"/>
				</g>
				<g id="XMLID_2620_">
					<rect id="XMLID_2624_" x="320.662" y="119.997" style="fill:#DADADA;" width="22.62" height="32.674"/>
					<rect id="XMLID_2623_" x="348.599" y="119.997" style="fill:#DADADA;" width="22.621" height="32.674"/>
					<rect id="XMLID_2622_" x="376.537" y="119.997" style="fill:#DADADA;" width="22.62" height="32.674"/>
					<rect id="XMLID_2621_" x="404.474" y="119.997" style="fill:#DADADA;" width="22.62" height="32.674"/>
				</g>
				<g id="XMLID_2615_">
					<rect id="XMLID_2619_" x="320.662" y="162.588" style="fill:#DADADA;" width="22.62" height="32.674"/>
					<rect id="XMLID_2618_" x="348.599" y="162.588" style="fill:#DADADA;" width="22.621" height="32.674"/>
					<rect id="XMLID_2617_" x="376.537" y="162.588" style="fill:#DADADA;" width="22.62" height="32.674"/>
					<rect id="XMLID_2616_" x="404.474" y="162.588" style="fill:#DADADA;" width="22.62" height="32.674"/>
				</g>
				<g id="XMLID_2610_">
					<rect id="XMLID_2614_" x="320.662" y="205.178" style="fill:#DADADA;" width="22.62" height="32.674"/>
					<rect id="XMLID_2613_" x="348.599" y="205.178" style="fill:#DADADA;" width="22.621" height="32.674"/>
					<rect id="XMLID_2612_" x="376.537" y="205.178" style="fill:#DADADA;" width="22.62" height="32.674"/>
					<rect id="XMLID_2611_" x="404.474" y="205.178" style="fill:#DADADA;" width="22.62" height="32.674"/>
				</g>
			</g>
		</g>
		<g id="XMLID_2600_">
			<rect id="XMLID_2607_" x="196.678" y="16.675" style="fill:#EDEDED;" width="94.352" height="332.221"/>
			<g id="XMLID_2601_">
				<g id="XMLID_2602_">
					<rect id="XMLID_2606_" x="204.417" y="35.405" style="fill:#DADADA;" width="16.683" height="202.448"/>
					<rect id="XMLID_2605_" x="225.021" y="35.405" style="fill:#DADADA;" width="16.683" height="202.448"/>
					<rect id="XMLID_2604_" x="245.625" y="35.405" style="fill:#DADADA;" width="16.683" height="202.448"/>
					<rect id="XMLID_2603_" x="266.229" y="35.405" style="fill:#DADADA;" width="16.683" height="202.448"/>
				</g>
			</g>
		</g>
		<g id="XMLID_2591_">
			<polygon id="XMLID_2599_" style="fill:#EDEDED;" points="181.074,348.896 35.081,348.896 35.081,178.922 181.074,128.285 			"/>
			<rect id="XMLID_2598_" x="46.186" y="205.178" style="fill:#DADADA;" width="28.737" height="16.337"/>
			<rect id="XMLID_2597_" x="78.63" y="205.178" style="fill:#DADADA;" width="28.737" height="16.337"/>
			<rect id="XMLID_2596_" x="111.075" y="205.178" style="fill:#DADADA;" width="28.737" height="16.337"/>
			<rect id="XMLID_2595_" x="143.52" y="205.178" style="fill:#DADADA;" width="28.737" height="16.337"/>
			<polygon id="XMLID_2594_" style="fill:#DADADA;" points="159.919,135.212 139.811,142.597 139.811,108.904 159.919,108.904 			
				"/>
			<polygon id="XMLID_2593_" style="fill:#DADADA;" points="135.497,144.093 115.389,150.427 115.389,119.997 135.497,119.997 			
				"/>
			<polygon id="XMLID_2592_" style="fill:#DADADA;" points="188.44,127.735 28.496,184.561 26.606,179.121 186.551,122.295 			"/>
		</g>
	</g>
	<g id="XMLID_105_">
		<g id="XMLID_100_">
			<rect id="XMLID_3_" x="244.419" y="154.667" style="fill:#94998F;" width="14.746" height="238.105"/>
			<rect id="XMLID_98_" x="251.792" y="154.667" style="fill:#706F6F;" width="7.373" height="238.105"/>
			<path id="XMLID_97_" style="fill:#FFED00;" d="M245.659,46.879c-14.398,23.381-49.785,83.577-64.071,107.928
				c-2.718,4.633,0.629,10.456,6.001,10.456h127.503c5.378,0,8.718-5.846,5.987-10.479L257.555,47.01
				C254.897,42.501,248.403,42.422,245.659,46.879z"/>
			<path id="XMLID_99_" style="fill:none;stroke:#000000;stroke-width:4;stroke-miterlimit:10;" d="M249.795,53.67l-58.143,99.544
				c-0.881,1.509,0.207,3.405,1.954,3.405h113.851c1.729,0,2.819-1.86,1.975-3.369l-55.708-99.544
				C252.87,52.178,250.678,52.158,249.795,53.67z"/>
			<g id="XMLID_67_">
				<path id="XMLID_101_" d="M242.235,136.571c0-2.592,0.807-4.726,2.419-6.401c1.612-1.675,3.839-2.511,6.685-2.511
					c2.844,0,5.073,0.836,6.685,2.511c1.612,1.675,2.417,3.809,2.417,6.401c0,2.592-0.805,4.726-2.417,6.401
					c-1.612,1.675-3.841,2.511-6.685,2.511c-2.846,0-5.073-0.836-6.685-2.511C243.042,141.297,242.235,139.163,242.235,136.571z
					 M259.684,88.78c0,1.454-0.034,3.557-0.095,6.306c-0.064,2.749-0.19,5.722-0.379,8.912c-0.19,3.194-0.443,6.387-0.759,9.578
					c-0.318,3.194-0.697,5.959-1.138,8.297c-0.253,0.19-0.632,0.381-1.138,0.571c-0.506,0.187-1.043,0.347-1.612,0.472
					c-0.567,0.129-1.137,0.224-1.706,0.285c-0.569,0.065-1.075,0.095-1.517,0.095c-1.835,0-3.367-0.285-4.599-0.853
					c-1.233-0.571-2.008-1.675-2.324-3.319c-0.318-1.454-0.584-3.666-0.805-6.639c-0.223-2.969-0.428-6.194-0.617-9.67
					c-0.19-3.476-0.333-6.924-0.426-10.335c-0.095-3.415-0.143-6.323-0.143-8.725c1.264-0.696,2.703-1.247,4.315-1.658
					c1.611-0.411,3.207-0.618,4.787-0.618c2.592,0,4.599,0.601,6.022,1.801C258.972,84.482,259.684,86.313,259.684,88.78z"/>
			</g>
			<path id="XMLID_104_" style="opacity:0.44;fill:#FFFFFF;" d="M225.418,91.164l-0.065-0.038c-2.346-1.391-3.128-4.448-1.737-6.794
				l11.758-19.835c1.391-2.346,4.448-3.128,6.794-1.737l0.065,0.038c2.346,1.391,3.128,4.448,1.737,6.794l-11.758,19.835
				C230.822,91.773,227.764,92.555,225.418,91.164z"/>
			<path id="XMLID_106_" style="opacity:0.44;fill:#FFFFFF;" d="M204.632,126.228l-0.065-0.038
				c-2.346-1.391-3.128-4.448-1.737-6.794l11.758-19.835c1.391-2.346,4.448-3.128,6.794-1.737l0.065,0.038
				c2.346,1.391,3.128,4.448,1.737,6.794l-11.758,19.835C210.036,126.837,206.979,127.618,204.632,126.228z"/>
			<path id="XMLID_107_" style="opacity:0.44;fill:#FFFFFF;" d="M247.836,160.327l0-0.075c-0.013-2.727,2.208-4.969,4.935-4.982
				l49.64-0.233c2.727-0.013,4.969,2.208,4.982,4.935l0,0.075c0.013,2.727-2.208,4.969-4.935,4.982l-49.64,0.233
				C250.09,165.276,247.848,163.055,247.836,160.327z"/>
		</g>
		<g id="XMLID_41_">
			<g id="XMLID_260_">
				<g id="XMLID_225_">
					<polygon id="XMLID_224_" style="fill:#B17F4A;" points="114.446,413.417 94.468,413.417 57.717,203.154 77.695,203.154 					
						"/>
					<path id="XMLID_212_" style="fill:#CA9E67;" d="M49.189,413.417H36.953c-2.294,0-4.078-1.995-3.823-4.275l22.696-202.57
						c0.218-1.947,1.864-3.418,3.823-3.418h12.236c2.294,0,4.078,1.995,3.823,4.275l-22.696,202.57
						C52.793,411.945,51.147,413.417,49.189,413.417z"/>
					<path id="XMLID_223_" style="opacity:0.28;fill:#FFFFFF;" d="M54.114,257.993l-0.05-0.005
						c-1.795-0.191-3.107-1.816-2.916-3.611l3.544-33.268c0.191-1.795,1.816-3.107,3.611-2.916l0.05,0.005
						c1.795,0.191,3.107,1.816,2.916,3.611l-3.544,33.268C57.535,256.872,55.909,258.184,54.114,257.993z"/>
					<path id="XMLID_226_" style="opacity:0.28;fill:#FFFFFF;" d="M49.038,306.737l-0.05-0.005
						c-1.795-0.191-3.107-1.816-2.916-3.611l3.544-33.268c0.191-1.795,1.816-3.107,3.611-2.916l0.05,0.005
						c1.795,0.191,3.107,1.816,2.916,3.611l-3.544,33.268C52.458,305.616,50.833,306.928,49.038,306.737z"/>
					<path id="XMLID_228_" style="opacity:0.28;fill:#FFFFFF;" d="M35.633,413.401l-0.05-0.005
						c-1.795-0.191-3.107-1.816-2.916-3.611l3.544-33.268c0.191-1.795,1.816-3.107,3.611-2.916l0.05,0.005
						c1.795,0.191,3.107,1.816,2.916,3.611l-3.544,33.268C39.053,412.28,37.428,413.592,35.633,413.401z"/>
				</g>
				<g id="XMLID_261_">
					<polygon id="XMLID_273_" style="fill:#B17F4A;" points="320.628,413.417 300.651,413.417 263.9,203.154 283.877,203.154 					
						"/>
					<polygon id="XMLID_272_" style="fill:#CA9E67;" points="258.811,413.417 238.834,413.417 262.392,203.154 282.37,203.154 					
						"/>
					<path id="XMLID_271_" style="opacity:0.28;fill:#FFFFFF;" d="M260.297,257.993l-0.05-0.005
						c-1.795-0.191-3.107-1.816-2.916-3.611l3.544-33.268c0.191-1.795,1.816-3.107,3.611-2.916l0.05,0.005
						c1.795,0.191,3.107,1.816,2.916,3.611l-3.544,33.268C263.717,256.872,262.092,258.184,260.297,257.993z"/>
					<path id="XMLID_269_" style="opacity:0.28;fill:#FFFFFF;" d="M255.22,306.737l-0.05-0.005
						c-1.795-0.191-3.107-1.816-2.916-3.611l3.544-33.268c0.191-1.795,1.816-3.107,3.611-2.916l0.05,0.005
						c1.795,0.191,3.107,1.816,2.916,3.611l-3.544,33.268C258.641,305.616,257.015,306.928,255.22,306.737z"/>
					<path id="XMLID_263_" style="opacity:0.28;fill:#FFFFFF;" d="M243.625,413.593l-3.669-0.391
						c-0.8-0.085-1.384-0.809-1.299-1.609l3.93-36.887c0.085-0.8,0.809-1.384,1.609-1.299l3.669,0.391
						c0.8,0.085,1.384,0.809,1.299,1.609l-3.93,36.887C245.149,413.094,244.425,413.679,243.625,413.593z"/>
				</g>
				<g id="XMLID_235_">
					<g id="XMLID_206_">
						<path id="XMLID_2_" style="fill:#FFED00;" d="M280.761,228.293H56.578c-4.067,0-7.363-3.297-7.363-7.363V205.6
							c0-4.067,3.297-7.363,7.363-7.363h224.183c4.067,0,7.363,3.297,7.363,7.363v15.33
							C288.124,224.996,284.828,228.293,280.761,228.293z"/>
						<polygon id="XMLID_197_" points="67.519,228.293 55.959,228.293 61.739,198.237 73.299,198.237 						"/>
						<polygon id="XMLID_208_" points="90.639,228.293 79.079,228.293 84.859,198.237 96.419,198.237 						"/>
						<polygon id="XMLID_209_" points="113.759,228.293 102.199,228.293 107.979,198.237 119.539,198.237 						"/>
						<polygon id="XMLID_210_" points="136.88,228.293 125.319,228.293 131.1,198.237 142.66,198.237 						"/>
						<polygon id="XMLID_222_" points="160,228.293 148.44,228.293 154.22,198.237 165.78,198.237 						"/>
						<polygon id="XMLID_230_" points="183.12,228.293 171.56,228.293 177.34,198.237 188.9,198.237 						"/>
						<polygon id="XMLID_231_" points="206.24,228.293 194.68,228.293 200.46,198.237 212.02,198.237 						"/>
						<polygon id="XMLID_232_" points="229.36,228.293 217.8,228.293 223.58,198.237 235.141,198.237 						"/>
						<polygon id="XMLID_233_" points="252.481,228.293 240.921,228.293 246.701,198.237 258.261,198.237 						"/>
						<polygon id="XMLID_234_" points="275.601,228.293 264.041,228.293 269.821,198.237 281.381,198.237 						"/>
					</g>
					<path id="XMLID_207_" style="opacity:0.28;fill:#FFFFFF;" d="M101.62,207.619h-44.19c-2.505,0-4.555-2.049-4.555-4.555v-0.274
						c0-2.505,2.049-4.555,4.555-4.555h44.19c2.505,0,4.554,2.049,4.554,4.555v0.274C106.175,205.57,104.125,207.619,101.62,207.619
						z"/>
					<path id="XMLID_236_" style="opacity:0.28;fill:#FFFFFF;" d="M216.521,207.619h-81.507c-2.505,0-4.555-2.049-4.555-4.554
						v-0.274c0-2.505,2.05-4.555,4.555-4.555h81.507c2.505,0,4.554,2.05,4.554,4.555v0.274
						C221.076,205.57,219.026,207.619,216.521,207.619z"/>
					<path id="XMLID_237_" style="opacity:0.28;fill:#FFFFFF;" d="M272.588,207.619h-27.113c-2.505,0-4.554-2.049-4.554-4.554
						v-0.274c0-2.505,2.049-4.555,4.554-4.555h27.113c2.505,0,4.555,2.049,4.555,4.555v0.274
						C277.142,205.57,275.093,207.619,272.588,207.619z"/>
				</g>
				<g id="XMLID_239_">
					<g id="XMLID_243_">
						<path id="XMLID_254_" style="fill:#FFED00;" d="M279.974,346.699H58.982c-3.509,0-6.353-2.844-6.353-6.353v-16.694
							c0-3.509,2.844-6.353,6.353-6.353h220.992c3.509,0,6.353,2.844,6.353,6.353v16.694
							C286.327,343.855,283.483,346.699,279.974,346.699z"/>
						<polygon id="XMLID_253_" points="70.533,346.699 59.225,346.699 64.879,317.298 76.187,317.298 						"/>
						<polygon id="XMLID_252_" points="93.149,346.699 81.841,346.699 87.495,317.298 98.803,317.298 						"/>
						<polygon id="XMLID_251_" points="115.765,346.699 104.457,346.699 110.111,317.298 121.419,317.298 						"/>
						<polygon id="XMLID_250_" style="fill:#1D1D1B;" points="138.381,346.699 127.073,346.699 132.727,317.298 144.035,317.298 
													"/>
						<polygon id="XMLID_249_" style="fill:#1D1D1B;" points="160.997,346.699 149.689,346.699 155.343,317.298 166.651,317.298 
													"/>
						<polygon id="XMLID_248_" style="fill:#1D1D1B;" points="183.613,346.699 172.305,346.699 177.959,317.298 189.267,317.298 
													"/>
						<polygon id="XMLID_247_" style="fill:#1D1D1B;" points="206.229,346.699 194.921,346.699 200.575,317.298 211.883,317.298 
													"/>
						<polygon id="XMLID_246_" style="fill:#1D1D1B;" points="228.845,346.699 217.537,346.699 223.191,317.298 234.499,317.298 
													"/>
						<polygon id="XMLID_245_" style="fill:#1D1D1B;" points="251.461,346.699 240.153,346.699 245.807,317.298 257.115,317.298 
													"/>
						<polygon id="XMLID_244_" style="fill:#1D1D1B;" points="274.077,346.699 262.769,346.699 268.423,317.298 279.731,317.298 
													"/>
					</g>
					<path id="XMLID_242_" style="opacity:0.28;fill:#FFFFFF;" d="M103.791,326.477H60.764c-2.505,0-4.555-2.05-4.555-4.555v-0.069
						c0-2.505,2.049-4.555,4.555-4.555h43.027c2.505,0,4.554,2.049,4.554,4.555v0.069
						C108.346,324.427,106.296,326.477,103.791,326.477z"/>
					<path id="XMLID_241_" style="opacity:0.28;fill:#FFFFFF;" d="M218.712,326.477h-84.581c-1.116,0-2.029-0.913-2.029-2.029v-5.12
						c0-1.116,0.913-2.029,2.029-2.029h84.581c1.116,0,2.029,0.913,2.029,2.029v5.12
						C220.741,325.564,219.828,326.477,218.712,326.477z"/>
					<path id="XMLID_240_" style="opacity:0.28;fill:#FFFFFF;" d="M273.556,326.477h-31.374c-1.116,0-2.029-0.913-2.029-2.029v-5.12
						c0-1.116,0.913-2.029,2.029-2.029h31.374c1.116,0,2.029,0.913,2.029,2.029v5.12
						C275.585,325.563,274.672,326.477,273.556,326.477z"/>
				</g>
				<g id="XMLID_255_">
					<g id="XMLID_259_">
						<path id="XMLID_270_" style="fill:#FFED00;" d="M265.784,275.464L48.715,303.547c-4.059,0.525-7.775-2.34-8.3-6.399
							l-1.871-14.459c-0.525-4.059,2.34-7.775,6.399-8.3l217.068-28.084c4.059-0.525,7.775,2.34,8.3,6.399l1.871,14.459
							C272.708,271.222,269.843,274.939,265.784,275.464z"/>
					</g>
					<path id="XMLID_258_" style="opacity:0.28;fill:#FFFFFF;" d="M89.511,277.878l-42.672,5.521
						c-2.484,0.321-4.78-1.448-5.101-3.932l-0.009-0.069c-0.321-2.484,1.448-4.78,3.932-5.101l42.672-5.521
						c2.484-0.321,4.78,1.448,5.101,3.932l0.009,0.069C93.765,275.261,91.996,277.557,89.511,277.878z"/>
					<path id="XMLID_257_" style="opacity:0.28;fill:#FFFFFF;" d="M200.977,263.457l-78.873,10.204
						c-2.484,0.321-4.78-1.448-5.101-3.932l-0.009-0.069c-0.321-2.484,1.448-4.78,3.932-5.101l78.873-10.204
						c2.484-0.321,4.78,1.448,5.101,3.932l0.009,0.069C205.231,260.84,203.462,263.135,200.977,263.457z"/>
					<path id="XMLID_256_" style="opacity:0.28;fill:#FFFFFF;" d="M255.368,256.42l-26.105,3.377
						c-2.484,0.321-4.78-1.448-5.101-3.932l-0.009-0.069c-0.321-2.484,1.448-4.78,3.932-5.101l26.105-3.377
						c2.484-0.321,4.78,1.448,5.101,3.933l0.009,0.069C259.622,253.803,257.852,256.099,255.368,256.42z"/>
				</g>
				
					<text id="XMLID_238_" transform="matrix(0.991 -0.1337 0.1337 0.991 71.5601 295.1419)" style="font-family:'Baloo'; font-size:27.1392px;">CAUTION</text>
			</g>
			<g id="XMLID_28_">
				<path id="XMLID_7457_" d="M451.935,231H329.684h-4.161H203.271c-4.357,0-9.271,2.734-9.271,7.089V389h265V238.089
					C459,233.734,456.29,231,451.935,231z M449,376H204V241h245V376z"/>
				<path id="XMLID_7456_" style="fill:#94998F;" d="M194,403.281c0,4.355,4.915,8.719,9.271,8.719h122.251h4.161h122.252
					c4.355,0,7.065-4.363,7.065-8.719V389H194V403.281z"/>
				<rect id="XMLID_7453_" x="203.402" y="240.846" style="fill:#1D1D1B;" width="245.598" height="135.154"/>
				<g id="XMLID_25_">
					<path id="XMLID_22_" style="fill:#575756;" d="M353.186,442.418h-56.958V412.03h62.268v25.079
						C358.495,440.041,356.118,442.418,353.186,442.418z"/>
				</g>
				<g id="XMLID_84_">
					<g id="XMLID_192_">
						<ellipse id="XMLID_199_" style="fill:#67BDC6;" cx="329.961" cy="310.04" rx="60.095" ry="60.072"/>
						<path id="XMLID_196_" style="fill:#008D36;" d="M310.604,366.838c-1.64-2.715-3.119-7.305-3.119-12.069
							c0-14.935,1.516-24.026-5.197-28.788c-6.713-4.762-3.681-7.09-4.547-14.368c-0.866-7.278-21.504-4.452-19.122-32.808
							c0,0,15.646-31.234,57.753-28.498c0,0-12.588,0-5.717,16.581c6.11,14.746-5.231,27.486-26.372,21.824
							c-14.225-3.81-24.659,15.751,6.667,16.272c21.436,0.356,35.079,12.121,22.52,27.273s-18.517,28.113-16.352,36.555"/>
						<path id="XMLID_193_" style="fill:#008D36;" d="M388.985,298.717c0,0-10.801,2.257-19.622-6.105
							c-6.56-6.218-17.078-4.522-21.489,2.939c-4.411,7.462,0.792,16.845,10.292,18.654c9.5,1.809,12.383,12.276,9.274,22.498
							c-2.499,8.215,3.806,16.987,3.806,16.987S395.092,332.294,388.985,298.717z"/>
					</g>
				</g>
			</g>
			<g id="XMLID_39_">
				<g id="XMLID_6227_">
					<path id="XMLID_6231_" d="M322.248,430.458c0,3.43-2.183,6.212-4.878,6.212H114.456c-2.695,0-4.879-2.782-4.879-6.212V307.046
						c0-3.43,2.184-6.211,4.879-6.211H317.37c2.695,0,4.878,2.781,4.878,6.211V430.458z"/>
					<rect id="XMLID_6230_" x="118.056" y="308.29" style="fill:#FFED00;" width="196.294" height="114.72"/>
					<path id="XMLID_6229_" style="fill:#575756;" d="M73.357,438.544c0,0-1.77,3.124,10.803,5.729h263.183
						c0,0,8.804-0.535,11.123-4.47l0.015-2.155L73.357,438.544z"/>
					<path id="XMLID_6228_" style="fill:#94998F;" d="M73.419,432.237h285.155v6.943c0,0,0.426,0.927-2.93,0.695H76.104
						c0,0-2.626,0.695-2.869-0.926L73.419,432.237z"/>
				</g>
				<g id="XMLID_195_">
					<defs>
						<rect id="XMLID_194_" x="118.056" y="308.29" width="196.294" height="114.72"/>
					</defs>
					<clipPath id="XMLID_00000020394683411803239380000007787238967353786766_">
						<use xlink:href="#XMLID_194_"  style="overflow:visible;"/>
					</clipPath>
				</g>
				<g id="XMLID_48_">
					<path id="XMLID_56_" style="fill:#EDB388;" d="M148.775,367.012l-0.566,2.69c-1.386,6.588,2.87,13.112,9.458,14.498
						l2.457,0.517c6.588,1.386,13.112-2.87,14.498-9.458l0.566-2.69c1.386-6.588-2.87-13.112-9.458-14.498l-2.457-0.517
						C156.686,356.168,150.161,360.424,148.775,367.012z"/>
					<path id="XMLID_57_" style="fill:#EDB388;" d="M161.787,364.705L161.787,364.705c0.936,2.471,3.723,3.727,6.194,2.792
						l17.191-6.509c2.471-0.936,3.727-3.723,2.792-6.194l0,0c-0.936-2.471-3.723-3.728-6.195-2.792l-17.191,6.509
						C162.108,359.446,160.851,362.233,161.787,364.705z"/>
					<g id="XMLID_32_" style="opacity:0.39;">
						<circle id="XMLID_26_" style="fill:#D69569;" cx="160.398" cy="373.38" r="4.136"/>
						<circle id="XMLID_33_" style="fill:#D69569;" cx="165.818" cy="367.29" r="4.339"/>
						<path id="XMLID_31_" style="fill:#D69569;" d="M152.632,381.147l0.021,0.026c0.755,0.948,2.149,1.106,3.097,0.35l30.069-23.96
							c0.948-0.755,1.106-2.149,0.35-3.097l-0.021-0.026c-0.755-0.948-2.149-1.106-3.098-0.35l-30.069,23.959
							C152.034,378.805,151.877,380.198,152.632,381.147z"/>
					</g>
					
						<rect id="XMLID_55_" x="126.281" y="354.734" transform="matrix(6.123234e-17 -1 1 6.123234e-17 -236.6901 507.029)" style="fill:#EDB388;" width="17.778" height="34.252"/>
					<g id="XMLID_4_">
						<path id="XMLID_13_" style="fill:#575859;" d="M219.778,295.126c0,0,25.132,1.746,25.713,12.803c0,0,3.645-3.817-2.199-8.355
							C237.447,295.036,219.778,295.126,219.778,295.126z"/>
						<path id="XMLID_12_" style="fill:#6C6F71;" d="M199.737,348.287l41.636-32.452c0.602-0.469,1.078-1.078,1.389-1.775
							l3.065-6.884c0.971-2.181,0.133-4.735-1.937-5.925c-4.204-2.416-11.996-5.848-22.49-5.966c0,0-1.696,0.146-2.147-0.52
							c-0.451-0.666-0.373-2.22,2.396-2.411c2.693-0.185,29.381-4.642,43.802,16.621c0.789,1.164,1.172,2.56,1.104,3.965
							l-0.043,0.892c-0.075,1.556,0.41,3.088,1.368,4.317l1.077,1.381c0.714,0.916,1.661,1.625,2.742,2.052l2.567,1.014
							l-9.963,7.765l-0.309-3.966c0,0-7.406-12.55-16.018-5.837c-8.612,6.712-43.453,33.868-43.453,33.868L199.737,348.287z"/>
						<path id="XMLID_9_" style="fill:#6C6F71;" d="M264.459,331.258l4.507,5.782c0.382,0.49,1.089,0.578,1.579,0.196l8.779-6.843
							c0.49-0.382,0.578-1.089,0.196-1.579l-3.584-4.599c-0.891-1.143-2.541-1.348-3.684-0.457l-7.596,5.921
							C264.164,330.061,264.077,330.768,264.459,331.258z"/>
						<path id="XMLID_5_" style="fill:#E6332A;" d="M148.264,398.45l-4.448-5.706c-1.57-2.015-1.21-4.921,0.805-6.491l35.257-27.48
							c2.015-1.57,4.921-1.21,6.491,0.805l4.448,5.707c1.57,2.015,1.21,4.921-0.805,6.491l-35.257,27.48
							C152.74,400.825,149.834,400.465,148.264,398.45z"/>
						<path id="XMLID_6_" style="fill:#E6332A;" d="M197.402,360.151l-4.448-5.706c-1.57-2.015-1.21-4.921,0.805-6.491l2.836-2.21
							c2.015-1.57,4.921-1.21,6.491,0.805l4.448,5.707c1.57,2.015,1.21,4.921-0.805,6.491l-2.836,2.21
							C201.879,362.526,198.972,362.165,197.402,360.151z"/>
						<path id="XMLID_7_" style="fill:#E6332A;" d="M191.857,350.428l-0.215,1.211c-0.376,2.118-1.935,3.832-4.007,4.408
							l-5.765,1.602l3.314,3.367l11.23-7.532L191.857,350.428z"/>
						<path id="XMLID_8_" style="fill:#E6332A;" d="M201.009,362.169l-1.227-0.087c-2.146-0.152-4.188,0.94-5.253,2.81l-2.961,5.2
							l-2.456-4.035l10.046-9.051L201.009,362.169z"/>
						
							<rect id="XMLID_10_" x="187.42" y="352.487" transform="matrix(0.6147 0.7887 -0.7887 0.6147 357.4151 -12.2344)" style="fill:#E6332A;" width="7.623" height="14.524"/>
						<path id="XMLID_11_" style="fill:#C41E1A;" d="M147.129,389.332L147.129,389.332c-0.514-0.66-0.396-1.612,0.264-2.126
							l34.584-26.956c0.66-0.514,1.612-0.396,2.126,0.264l0,0c0.514,0.66,0.396,1.612-0.264,2.126l-34.584,26.956
							C148.595,390.11,147.643,389.992,147.129,389.332z"/>
						<path id="XMLID_14_" style="fill:#C41E1A;" d="M149.755,392.701L149.755,392.701c-0.514-0.66-0.396-1.612,0.264-2.126
							l34.584-26.956c0.66-0.514,1.612-0.396,2.126,0.263l0,0c0.514,0.66,0.396,1.612-0.264,2.126l-34.584,26.956
							C151.221,393.479,150.27,393.361,149.755,392.701z"/>
						<path id="XMLID_15_" style="fill:#C41E1A;" d="M152.381,396.07L152.381,396.07c-0.514-0.66-0.396-1.612,0.263-2.126
							l34.584-26.956c0.66-0.514,1.612-0.396,2.126,0.264l0,0c0.514,0.66,0.396,1.612-0.264,2.126l-34.584,26.955
							C153.847,396.848,152.895,396.73,152.381,396.07z"/>
						<path id="XMLID_16_" style="fill:#575859;" d="M263.993,326.395c0,0-4.161-13.707-14.748-6.695
							C249.244,319.7,258.294,317.401,263.993,326.395z"/>
						<path id="XMLID_17_" style="fill:#9D9D9C;" d="M277.593,331.742l-6.515-8.359l0,0c-1.607-0.372-3.037-1.285-4.051-2.586
							l-0.645-0.828c-1.079-1.385-1.579-3.115-1.506-4.869c0.109-2.582-0.518-7.017-4.636-12.301c0,0,6.789,5.389,6.272,11.031
							c-0.517,5.642,5.186,7.75,5.186,7.75l2.121,0.873c0.717,0.295,1.344,0.772,1.82,1.383l3.879,4.977
							c0.382,0.49,0.294,1.196-0.195,1.577L277.593,331.742z"/>
						<path id="XMLID_18_" style="fill:#FF5F5F;" d="M192.45,352.665L192.45,352.665c-0.87-1.117-0.669-2.742,0.448-3.612
							l4.974-3.877c1.117-0.87,2.742-0.669,3.612,0.448l0,0c0.87,1.117,0.669,2.742-0.448,3.612l-4.974,3.877
							C194.946,353.983,193.32,353.782,192.45,352.665z"/>
						<path id="XMLID_20_" style="fill:#9D9D9C;" d="M206.109,346.857L206.109,346.857c-0.87-1.116-0.669-2.742,0.448-3.612
							l20.551-16.018c1.117-0.87,2.742-0.669,3.612,0.448l0,0c0.87,1.117,0.669,2.742-0.448,3.612l-20.551,16.018
							C208.605,348.175,206.98,347.973,206.109,346.857z"/>
						<path id="XMLID_21_" style="fill:#9D9D9C;" d="M234.313,324.875L234.313,324.875c-0.87-1.117-0.669-2.742,0.448-3.612
							l6.705-5.226c1.116-0.87,2.742-0.669,3.612,0.448l0,0c0.87,1.117,0.669,2.742-0.448,3.612l-6.705,5.226
							C236.808,326.193,235.183,325.991,234.313,324.875z"/>
						<path id="XMLID_23_" style="fill:#9D9D9C;" d="M268.074,335.897L268.074,335.897c-0.87-1.116-0.669-2.742,0.448-3.612
							l2.026-1.579c1.116-0.87,2.742-0.669,3.612,0.448l0,0c0.87,1.117,0.669,2.742-0.448,3.612l-2.026,1.579
							C270.57,337.216,268.945,337.014,268.074,335.897z"/>
						<path id="XMLID_19_" style="fill:#FF5F5F;" d="M163.004,373.481L163.004,373.481c-0.415-0.533-0.319-1.308,0.214-1.724
							l13.429-10.467c0.533-0.415,1.308-0.319,1.724,0.214l0,0c0.415,0.533,0.319,1.308-0.214,1.724l-13.429,10.467
							C164.195,374.11,163.419,374.014,163.004,373.481z"/>
						<path id="XMLID_24_" style="fill:#FF5F5F;" d="M152.451,381.707L152.451,381.707c-0.415-0.533-0.319-1.308,0.214-1.724
							l6.421-5.005c0.533-0.415,1.308-0.319,1.723,0.214l0,0c0.415,0.533,0.319,1.308-0.214,1.723l-6.421,5.005
							C153.641,382.336,152.866,382.239,152.451,381.707z"/>
					</g>
					<path id="XMLID_47_" style="fill:#F9D293;" d="M176.281,363.316L176.281,363.316c-1.018,2.035-0.185,4.532,1.85,5.55
						l14.155,7.077c2.035,1.017,4.532,0.185,5.549-1.85v0c1.017-2.035,0.185-4.532-1.85-5.549l-14.155-7.077
						C179.796,360.449,177.298,361.282,176.281,363.316z"/>
					<path id="XMLID_46_" style="fill:#F9D293;" d="M163.047,365.879L163.047,365.879c-1.018,2.035-0.185,4.532,1.85,5.55
						l19.787,9.748c2.035,1.018,4.532,0.185,5.549-1.85l0,0c1.018-2.035,0.185-4.532-1.85-5.549l-19.787-9.748
						C166.561,363.012,164.064,363.845,163.047,365.879z"/>
					<path id="XMLID_45_" style="fill:#F9D293;" d="M158.118,372.615L158.118,372.615c-1.018,2.035-0.146,4.156,1.642,5.05
						l17.153,8.826c1.788,0.894,4.083-0.039,5.101-2.074l0,0c1.017-2.035,0.387-4.431-1.401-5.325l-17.394-8.551
						C161.43,369.647,159.135,370.58,158.118,372.615z"/>
					<path id="XMLID_44_" style="fill:#F9D293;" d="M159.382,381.63L159.382,381.63c-1.018,2.035-0.185,4.532,1.85,5.55l8.47,4.235
						c2.035,1.017,4.532,0.185,5.549-1.85l0,0c1.018-2.035,0.185-4.532-1.85-5.549l-8.47-4.235
						C162.896,378.763,160.399,379.596,159.382,381.63z"/>
					<path id="XMLID_27_" style="opacity:0.5;fill:#FFE8C7;" d="M160.273,384.266l-0.015,0.03c-0.541,1.085-0.096,2.415,0.989,2.956
						l8.561,4.268c1.085,0.541,2.415,0.096,2.956-0.989l0.015-0.03c0.541-1.085,0.096-2.415-0.989-2.956l-8.561-4.268
						C162.144,382.736,160.814,383.181,160.273,384.266z"/>
					<path id="XMLID_29_" style="opacity:0.5;fill:#FFE8C7;" d="M159.742,375.356l-0.015,0.03c-0.541,1.085-0.096,2.415,0.989,2.956
						l15.962,7.958c1.085,0.541,2.415,0.096,2.956-0.989l0.015-0.03c0.541-1.085,0.096-2.415-0.989-2.956l-15.962-7.958
						C161.613,373.826,160.283,374.271,159.742,375.356z"/>
					<path id="XMLID_30_" style="opacity:0.5;fill:#FFE8C7;" d="M166.927,369.743l-0.015,0.03c-0.541,1.085-0.096,2.415,0.989,2.956
						l15.962,7.958c1.085,0.541,2.415,0.096,2.956-0.989l0.015-0.03c0.541-1.085,0.096-2.415-0.989-2.956l-15.962-7.958
						C168.798,368.213,167.468,368.658,166.927,369.743z"/>
					<path id="XMLID_34_" style="opacity:0.5;fill:#FFE8C7;" d="M178.868,366.824l-0.015,0.03c-0.541,1.085-0.096,2.415,0.989,2.956
						l11.615,5.791c1.085,0.541,2.415,0.096,2.956-0.989l0.015-0.03c0.541-1.085,0.096-2.415-0.989-2.956l-11.615-5.791
						C180.739,365.294,179.409,365.74,178.868,366.824z"/>
					<path id="XMLID_37_" style="opacity:0.47;fill:#FFFFFF;" d="M165.091,381.851l-2.052,4.377
						c-0.116,0.248-0.413,0.359-0.661,0.24c-1.103-0.527-3.764-2.077-2.797-4.391c1.107-2.651,3.572-1.706,5.273-0.889
						C165.102,381.309,165.208,381.603,165.091,381.851z"/>
					<path id="XMLID_38_" style="opacity:0.47;fill:#FFFFFF;" d="M164.54,372.775l-2.215,4.726c-0.126,0.268-0.446,0.387-0.713,0.26
						c-1.191-0.569-4.064-2.242-3.02-4.74c1.195-2.862,3.857-1.842,5.693-0.96C164.552,372.189,164.666,372.506,164.54,372.775z"/>
					<path id="XMLID_40_" style="opacity:0.47;fill:#FFFFFF;" d="M169.579,366.107l-2.215,4.726
						c-0.126,0.268-0.446,0.387-0.713,0.26c-1.191-0.569-4.064-2.242-3.02-4.74c1.195-2.862,3.857-1.842,5.693-0.96
						C169.591,365.521,169.705,365.839,169.579,366.107z"/>
					<path id="XMLID_42_" style="opacity:0.47;fill:#FFFFFF;" d="M182.638,363.668l-2.215,4.726
						c-0.126,0.268-0.446,0.387-0.713,0.26c-1.191-0.569-4.064-2.242-3.02-4.74c1.195-2.862,3.857-1.842,5.693-0.96
						C182.65,363.082,182.764,363.4,182.638,363.668z"/>
					<path id="XMLID_35_" style="opacity:0.25;fill:#FFE8C7;" d="M153.04,364.047l0.021,0.035c0.759,1.26,2.412,1.671,3.672,0.911
						l2.574-1.551c1.26-0.759,1.671-2.412,0.911-3.672l-0.021-0.035c-0.759-1.26-2.412-1.671-3.672-0.911l-2.574,1.551
						C152.691,361.134,152.281,362.787,153.04,364.047z"/>
					<path id="XMLID_43_" style="opacity:0.25;fill:#FFE8C7;" d="M137.943,376.341v0.045c0,1.628,1.332,2.961,2.96,2.961h9.145
						c1.628,0,2.961-1.332,2.961-2.961v-0.045c0-1.628-1.332-2.96-2.961-2.96h-9.145
						C139.275,373.38,137.943,374.713,137.943,376.341z"/>
					<path id="XMLID_49_" style="opacity:0.25;fill:#FFE8C7;" d="M124.351,376.341v0.045c0,1.628,1.332,2.961,2.96,2.961h4.27
						c1.628,0,2.96-1.332,2.96-2.961v-0.045c0-1.628-1.332-2.96-2.96-2.96h-4.27C125.684,373.38,124.351,374.713,124.351,376.341z"
						/>
				</g>
				<g id="XMLID_65_">
					
						<text id="XMLID_1_" transform="matrix(1 0 0 1 202.1563 385.7559)" style="fill:#020202; font-family:'Baloo'; font-size:34.0233px;">UNDER</text>
					
						<text id="XMLID_50_" transform="matrix(1 0 0 1 202.1563 400.5293)" style="fill:#020202; font-family:'Baloo'; font-size:18.4516px;">construction</text>
				</g>
				<path id="XMLID_36_" style="fill:#B2B2B2;" d="M121.364,436.671H75.636c-1.219,0-2.217-0.997-2.217-2.217l0,0
					c0-1.219,0.997-2.217,2.217-2.217h45.728c1.219,0,2.217,0.997,2.217,2.217l0,0C123.58,435.673,122.583,436.671,121.364,436.671z
					"/>
				<path id="XMLID_53_" style="fill:#B2B2B2;" d="M356.375,436.671h-52.829c-1.219,0-2.217-0.997-2.217-2.217l0,0
					c0-1.219,0.998-2.217,2.217-2.217h52.829c1.219,0,2.217,0.997,2.217,2.217l0,0C358.592,435.673,357.594,436.671,356.375,436.671
					z"/>
				<path id="XMLID_54_" style="fill:#B2B2B2;" d="M284.174,436.671h-45.728c-1.219,0-2.217-0.997-2.217-2.217l0,0
					c0-1.219,0.997-2.217,2.217-2.217h45.728c1.219,0,2.217,0.997,2.217,2.217l0,0C286.391,435.673,285.393,436.671,284.174,436.671
					z"/>
				<path id="XMLID_52_" style="fill:#B2B2B2;" d="M148.969,436.671h-18.076c-1.219,0-2.217-0.997-2.217-2.217l0,0
					c0-1.219,0.997-2.217,2.217-2.217h18.076c1.219,0,2.217,0.997,2.217,2.217l0,0C151.185,435.673,150.188,436.671,148.969,436.671
					z"/>
				<g id="XMLID_79_">
					<path id="XMLID_83_" style="fill:#575756;" d="M193.765,403.788h-5.889c-0.439,0-0.845,0.234-1.064,0.615l-2.944,5.1
						c-0.22,0.38-0.22,0.849,0,1.229l2.944,5.1c0.219,0.38,0.625,0.615,1.064,0.615h5.889c0.439,0,0.845-0.234,1.064-0.615
						l2.944-5.1c0.22-0.38,0.22-0.849,0-1.229l-2.944-5.1C194.61,404.022,194.204,403.788,193.765,403.788z M191.613,413.494
						c-2.527,0.56-4.729-1.642-4.169-4.169c0.282-1.274,1.31-2.301,2.584-2.584c2.528-0.56,4.73,1.642,4.169,4.17
						C193.915,412.184,192.887,413.211,191.613,413.494z"/>
					<path id="XMLID_78_" style="fill:#878787;" d="M191.304,405.388h-3.154c-0.437,0-0.794-0.357-0.794-0.794v-0.012
						c0-0.437,0.357-0.794,0.794-0.794h3.154c0.437,0,0.794,0.357,0.794,0.794v0.012
						C192.098,405.031,191.741,405.388,191.304,405.388z"/>
					<path id="XMLID_80_" style="fill:#878787;" d="M197.017,412.011l-1.588,2.725c-0.22,0.377-0.709,0.506-1.086,0.286l-0.01-0.006
						c-0.377-0.22-0.506-0.709-0.287-1.086l1.588-2.725c0.22-0.377,0.709-0.506,1.086-0.286l0.011,0.006
						C197.108,411.145,197.237,411.634,197.017,412.011z"/>
				</g>
				<g id="XMLID_85_">
					<path id="XMLID_88_" style="fill:#575756;" d="M141.266,315.559h-5.889c-0.439,0-0.845,0.234-1.064,0.615l-2.945,5.1
						c-0.219,0.38-0.219,0.849,0,1.229l2.945,5.1c0.219,0.38,0.625,0.615,1.064,0.615h5.889c0.439,0,0.845-0.234,1.064-0.615
						l2.944-5.1c0.219-0.38,0.219-0.849,0-1.229l-2.944-5.1C142.111,315.793,141.705,315.559,141.266,315.559z M139.115,325.264
						c-2.527,0.56-4.729-1.642-4.169-4.169c0.282-1.274,1.31-2.301,2.584-2.584c2.528-0.56,4.73,1.642,4.169,4.17
						C141.416,323.954,140.388,324.982,139.115,325.264z"/>
					<path id="XMLID_87_" style="fill:#878787;" d="M138.806,317.159h-3.154c-0.437,0-0.794-0.357-0.794-0.794v-0.012
						c0-0.437,0.357-0.794,0.794-0.794h3.154c0.437,0,0.794,0.357,0.794,0.794v0.012C139.6,316.802,139.242,317.159,138.806,317.159
						z"/>
					<path id="XMLID_86_" style="fill:#878787;" d="M144.518,323.781l-1.588,2.725c-0.22,0.377-0.709,0.506-1.086,0.286l-0.01-0.006
						c-0.377-0.22-0.506-0.708-0.286-1.086l1.588-2.725c0.22-0.378,0.708-0.506,1.086-0.286l0.01,0.006
						C144.609,322.915,144.738,323.404,144.518,323.781z"/>
				</g>
				<g id="XMLID_91_">
					<path id="XMLID_94_" style="fill:#575756;" d="M214.009,311.68l-3.352,4.842c-0.25,0.361-0.288,0.828-0.1,1.225l2.517,5.324
						c0.188,0.397,0.573,0.664,1.011,0.7l5.869,0.482c0.438,0.036,0.861-0.164,1.111-0.525l3.352-4.842
						c0.25-0.361,0.288-0.828,0.101-1.225L222,312.336c-0.188-0.397-0.573-0.664-1.011-0.699l-5.869-0.482
						C214.683,311.118,214.259,311.319,214.009,311.68z M220.765,318.973c-0.978,2.397-4.042,2.954-5.801,1.055
						c-0.887-0.957-1.147-2.387-0.654-3.595c0.978-2.397,4.042-2.954,5.801-1.055C220.997,316.335,221.257,317.765,220.765,318.973z
						"/>
					<path id="XMLID_93_" style="fill:#878787;" d="M213.924,314.614l-1.795,2.593c-0.249,0.359-0.746,0.45-1.105,0.201l-0.01-0.007
						c-0.359-0.249-0.45-0.746-0.201-1.105l1.795-2.593c0.249-0.359,0.746-0.45,1.105-0.201l0.01,0.007
						C214.083,313.758,214.173,314.255,213.924,314.614z"/>
					<path id="XMLID_92_" style="fill:#878787;" d="M222.621,313.686l1.337,2.857c0.185,0.396,0.013,0.871-0.382,1.056l-0.011,0.005
						c-0.396,0.185-0.871,0.013-1.056-0.383l-1.337-2.857c-0.185-0.396-0.013-0.871,0.383-1.056l0.011-0.005
						C221.961,313.118,222.436,313.291,222.621,313.686z"/>
				</g>
				<g id="XMLID_109_">
					<path id="XMLID_112_" style="fill:#575756;" d="M300.81,327.534h-5.889c-0.439,0-0.845,0.234-1.064,0.615l-2.944,5.1
						c-0.22,0.38-0.22,0.849,0,1.229l2.944,5.1c0.22,0.38,0.625,0.615,1.064,0.615h5.889c0.439,0,0.845-0.234,1.064-0.615l2.944-5.1
						c0.22-0.38,0.22-0.849,0-1.229l-2.944-5.1C301.654,327.769,301.249,327.534,300.81,327.534z M298.658,337.24
						c-2.527,0.56-4.729-1.642-4.169-4.169c0.282-1.274,1.31-2.301,2.584-2.584c2.528-0.56,4.73,1.642,4.169,4.17
						C300.959,335.93,299.931,336.958,298.658,337.24z"/>
					<path id="XMLID_111_" style="fill:#878787;" d="M298.349,329.135h-3.154c-0.437,0-0.794-0.357-0.794-0.794v-0.012
						c0-0.437,0.357-0.794,0.794-0.794h3.154c0.437,0,0.794,0.357,0.794,0.794v0.012
						C299.143,328.777,298.786,329.135,298.349,329.135z"/>
					<path id="XMLID_110_" style="fill:#878787;" d="M304.061,335.757l-1.588,2.725c-0.22,0.377-0.709,0.506-1.086,0.286
						l-0.01-0.006c-0.378-0.22-0.506-0.709-0.287-1.086l1.588-2.725c0.22-0.377,0.709-0.506,1.086-0.286l0.01,0.006
						C304.152,334.891,304.281,335.38,304.061,335.757z"/>
				</g>
				<g id="XMLID_126_">
					<path id="XMLID_136_" style="fill:#706F6F;" d="M253.708,349.854c1.348-1.62,1.771-3.916,0.904-5.996
						c-0.859-2.059-2.759-3.368-4.835-3.571L253.708,349.854z"/>
					
						<rect id="XMLID_135_" x="246.267" y="344.84" transform="matrix(0.385 0.9229 -0.9229 0.385 473.2269 -19.7579)" style="fill:#878787;" width="10.343" height="0.714"/>
					<path id="XMLID_134_" style="fill:#706F6F;" d="M251.649,346.63l-0.54-1.295l-0.54-1.295c0,0-7.065,2.622-9.108,5.32
						C244.815,349.806,251.649,346.63,251.649,346.63z"/>
					<path id="XMLID_133_" style="fill:#878787;" d="M249.741,347.304l-0.478-2.668c-0.032-0.182,0.09-0.357,0.271-0.389
						l0.077-0.014c0.182-0.033,0.357,0.09,0.389,0.271l0.477,2.668c0.033,0.182-0.089,0.357-0.271,0.389l-0.077,0.014
						C249.949,347.608,249.774,347.486,249.741,347.304z"/>
					<path id="XMLID_132_" style="fill:#878787;" d="M248.291,347.909l-0.477-2.668c-0.033-0.182,0.089-0.357,0.271-0.389
						l0.077-0.014c0.182-0.033,0.357,0.089,0.389,0.271l0.478,2.668c0.033,0.182-0.09,0.357-0.271,0.389l-0.077,0.014
						C248.498,348.213,248.323,348.091,248.291,347.909z"/>
					<path id="XMLID_131_" style="fill:#878787;" d="M246.84,348.514l-0.478-2.668c-0.032-0.182,0.09-0.357,0.271-0.389l0.077-0.014
						c0.182-0.033,0.357,0.089,0.389,0.271l0.477,2.668c0.033,0.182-0.089,0.357-0.271,0.389l-0.077,0.014
						C247.048,348.818,246.872,348.696,246.84,348.514z"/>
					<path id="XMLID_130_" style="fill:#878787;" d="M245.389,349.12l-0.477-2.668c-0.033-0.182,0.089-0.357,0.271-0.389
						l0.077-0.014c0.182-0.033,0.357,0.089,0.389,0.271l0.478,2.668c0.033,0.182-0.09,0.357-0.271,0.389l-0.077,0.014
						C245.597,349.423,245.422,349.301,245.389,349.12z"/>
					<path id="XMLID_129_" style="fill:#878787;" d="M243.897,349.492l-0.394-2.203c-0.033-0.182,0.089-0.357,0.271-0.389
						l0.077-0.014c0.182-0.033,0.357,0.09,0.389,0.271l0.394,2.203c0.033,0.182-0.09,0.357-0.271,0.389l-0.077,0.014
						C244.105,349.796,243.93,349.674,243.897,349.492z"/>
					<path id="XMLID_128_" style="fill:#878787;" d="M242.239,349.548l-0.222-1.242c-0.033-0.182,0.09-0.357,0.271-0.389
						l0.077-0.014c0.182-0.033,0.357,0.089,0.389,0.271l0.222,1.242c0.033,0.182-0.089,0.357-0.271,0.389l-0.077,0.014
						C242.447,349.852,242.272,349.729,242.239,349.548z"/>
					<path id="XMLID_127_" style="opacity:0.4;fill:#B2B2B2;" d="M252.648,349.023l-1.658-3.975
						c-0.149-0.357,0.021-0.771,0.378-0.92l0.152-0.063c0.357-0.149,0.771,0.021,0.92,0.379l1.658,3.975
						c0.149,0.357-0.021,0.771-0.379,0.92l-0.152,0.063C253.211,349.551,252.797,349.381,252.648,349.023z"/>
				</g>
				<g id="XMLID_115_">
					<path id="XMLID_125_" style="fill:#706F6F;" d="M246.412,409.714c-2.029,0.57-3.68,2.221-4.145,4.426
						c-0.46,2.183,0.362,4.339,1.957,5.683L246.412,409.714z"/>
					
						<rect id="XMLID_124_" x="240.469" y="414.479" transform="matrix(0.2063 -0.9785 0.9785 0.2063 -210.9552 569.5892)" style="fill:#878787;" width="10.343" height="0.714"/>
					<path id="XMLID_123_" style="fill:#706F6F;" d="M246.279,413.536l-0.29,1.373l-0.29,1.373c0,0,7.306,1.847,10.519,0.784
						C253.709,414.797,246.279,413.536,246.279,413.536z"/>
					<path id="XMLID_122_" style="fill:#878787;" d="M248.233,414.063l-1.12,2.468c-0.076,0.168-0.276,0.243-0.444,0.167
						l-0.071-0.032c-0.168-0.076-0.243-0.276-0.167-0.444l1.12-2.468c0.076-0.168,0.276-0.243,0.444-0.167l0.071,0.032
						C248.234,413.695,248.31,413.895,248.233,414.063z"/>
					<path id="XMLID_121_" style="fill:#878787;" d="M249.771,414.388l-1.12,2.468c-0.076,0.168-0.276,0.243-0.444,0.167
						l-0.071-0.032c-0.168-0.076-0.243-0.276-0.167-0.444l1.12-2.468c0.076-0.168,0.276-0.243,0.444-0.167l0.071,0.032
						C249.772,414.02,249.847,414.22,249.771,414.388z"/>
					<path id="XMLID_120_" style="fill:#878787;" d="M251.309,414.712l-1.12,2.468c-0.076,0.168-0.276,0.243-0.444,0.167
						l-0.071-0.032c-0.168-0.076-0.243-0.276-0.167-0.444l1.12-2.468c0.076-0.168,0.276-0.243,0.444-0.167l0.071,0.032
						C251.31,414.344,251.385,414.544,251.309,414.712z"/>
					<path id="XMLID_119_" style="fill:#878787;" d="M252.847,415.036l-1.12,2.468c-0.076,0.168-0.276,0.243-0.444,0.167
						l-0.071-0.032c-0.168-0.076-0.243-0.276-0.167-0.444l1.12-2.468c0.076-0.168,0.276-0.243,0.444-0.167l0.071,0.032
						C252.848,414.668,252.923,414.868,252.847,415.036z"/>
					<path id="XMLID_118_" style="fill:#878787;" d="M254.287,415.576l-0.924,2.038c-0.076,0.168-0.276,0.243-0.444,0.167
						l-0.071-0.032c-0.168-0.076-0.243-0.276-0.167-0.444l0.924-2.038c0.076-0.168,0.276-0.243,0.444-0.167l0.071,0.032
						C254.289,415.208,254.364,415.408,254.287,415.576z"/>
					<path id="XMLID_117_" style="fill:#878787;" d="M255.684,416.47l-0.521,1.149c-0.076,0.168-0.276,0.243-0.444,0.167
						l-0.071-0.032c-0.168-0.076-0.243-0.276-0.167-0.444l0.521-1.149c0.076-0.168,0.276-0.243,0.444-0.167l0.071,0.032
						C255.686,416.102,255.761,416.302,255.684,416.47z"/>
					<path id="XMLID_116_" style="opacity:0.4;fill:#B2B2B2;" d="M246.815,410.999l-0.889,4.214
						c-0.08,0.379-0.455,0.623-0.834,0.543l-0.161-0.034c-0.379-0.08-0.623-0.455-0.543-0.834l0.889-4.214
						c0.08-0.379,0.455-0.623,0.834-0.543l0.161,0.034C246.65,410.245,246.895,410.62,246.815,410.999z"/>
				</g>
				<g id="XMLID_137_">
					<path id="XMLID_147_" style="fill:#706F6F;" d="M133.327,408.588c-1.165,1.757-1.338,4.085-0.25,6.059
						c1.077,1.954,3.107,3.05,5.193,3.027L133.327,408.588z"/>
					
						<rect id="XMLID_146_" x="130.915" y="412.615" transform="matrix(-0.4825 -0.8759 0.8759 -0.4825 -159.9765 731.4249)" style="fill:#878787;" width="10.343" height="0.714"/>
					<path id="XMLID_145_" style="fill:#706F6F;" d="M135.722,411.57l0.677,1.229l0.677,1.229c0,0,6.74-3.37,8.479-6.273
						C142.173,407.675,135.722,411.57,135.722,411.57z"/>
					<path id="XMLID_144_" style="fill:#878787;" d="M137.546,410.694l0.763,2.601c0.052,0.177-0.05,0.364-0.227,0.416l-0.075,0.022
						c-0.177,0.052-0.364-0.05-0.416-0.228l-0.763-2.6c-0.052-0.177,0.05-0.364,0.227-0.416l0.075-0.022
						C137.307,410.415,137.494,410.517,137.546,410.694z"/>
					<path id="XMLID_143_" style="fill:#878787;" d="M138.923,409.936l0.763,2.6c0.052,0.177-0.05,0.364-0.227,0.416l-0.075,0.022
						c-0.177,0.052-0.364-0.05-0.416-0.227l-0.763-2.6c-0.052-0.177,0.05-0.364,0.228-0.416l0.075-0.022
						C138.683,409.656,138.871,409.759,138.923,409.936z"/>
					<path id="XMLID_142_" style="fill:#878787;" d="M140.299,409.177l0.763,2.6c0.052,0.177-0.05,0.364-0.227,0.416l-0.075,0.022
						c-0.177,0.052-0.364-0.05-0.416-0.227l-0.763-2.601c-0.052-0.177,0.05-0.364,0.227-0.416l0.075-0.022
						C140.06,408.898,140.247,409,140.299,409.177z"/>
					<path id="XMLID_141_" style="fill:#878787;" d="M141.676,408.419l0.763,2.6c0.052,0.177-0.05,0.364-0.227,0.416l-0.075,0.022
						c-0.177,0.052-0.364-0.05-0.416-0.227l-0.763-2.6c-0.052-0.177,0.05-0.364,0.228-0.416l0.075-0.022
						C141.437,408.139,141.624,408.242,141.676,408.419z"/>
					<path id="XMLID_140_" style="fill:#878787;" d="M143.119,407.887l0.63,2.147c0.052,0.177-0.05,0.364-0.227,0.416l-0.075,0.022
						c-0.177,0.052-0.364-0.05-0.416-0.227l-0.63-2.147c-0.052-0.177,0.05-0.364,0.227-0.416l0.075-0.022
						C142.88,407.608,143.067,407.71,143.119,407.887z"/>
					<path id="XMLID_139_" style="fill:#878787;" d="M144.761,407.653l0.355,1.211c0.052,0.177-0.05,0.364-0.227,0.416l-0.075,0.022
						c-0.177,0.052-0.364-0.05-0.416-0.227l-0.355-1.211c-0.052-0.177,0.05-0.364,0.228-0.416l0.075-0.022
						C144.522,407.373,144.709,407.476,144.761,407.653z"/>
					<path id="XMLID_138_" style="opacity:0.4;fill:#B2B2B2;" d="M134.471,409.299l2.078,3.772c0.187,0.339,0.062,0.769-0.277,0.956
						l-0.144,0.079c-0.339,0.187-0.769,0.062-0.956-0.277l-2.078-3.772c-0.187-0.339-0.062-0.769,0.277-0.956l0.144-0.079
						C133.854,408.835,134.284,408.96,134.471,409.299z"/>
				</g>
				<g id="XMLID_159_">
					<path id="XMLID_169_" style="fill:#706F6F;" d="M181.772,342.217c1.414-1.563,1.931-3.84,1.15-5.954
						c-0.773-2.093-2.618-3.479-4.684-3.767L181.772,342.217z"/>
					
						<rect id="XMLID_168_" x="174.525" y="337.113" transform="matrix(0.3466 0.938 -0.938 0.3466 433.9636 51.9436)" style="fill:#878787;" width="10.343" height="0.714"/>
					<path id="XMLID_167_" style="fill:#706F6F;" d="M179.848,338.911l-0.486-1.317l-0.486-1.317c0,0-7.167,2.329-9.319,4.94
						C172.889,341.802,179.848,338.911,179.848,338.911z"/>
					<path id="XMLID_166_" style="fill:#878787;" d="M177.914,339.506l-0.367-2.685c-0.025-0.183,0.104-0.353,0.287-0.378
						l0.078-0.011c0.183-0.025,0.353,0.104,0.378,0.287l0.367,2.685c0.025,0.183-0.104,0.353-0.287,0.378l-0.078,0.011
						C178.109,339.818,177.939,339.688,177.914,339.506z"/>
					<path id="XMLID_165_" style="fill:#878787;" d="M176.44,340.05l-0.367-2.685c-0.025-0.183,0.104-0.353,0.287-0.378l0.078-0.011
						c0.183-0.025,0.353,0.104,0.378,0.287l0.367,2.685c0.025,0.183-0.104,0.353-0.287,0.378l-0.078,0.011
						C176.635,340.362,176.465,340.233,176.44,340.05z"/>
					<path id="XMLID_164_" style="fill:#878787;" d="M174.965,340.595l-0.367-2.685c-0.025-0.183,0.104-0.353,0.287-0.378
						l0.078-0.011c0.183-0.025,0.353,0.104,0.378,0.287l0.367,2.685c0.025,0.183-0.104,0.353-0.287,0.378l-0.078,0.011
						C175.16,340.907,174.99,340.778,174.965,340.595z"/>
					<path id="XMLID_163_" style="fill:#878787;" d="M173.491,341.14l-0.367-2.685c-0.025-0.183,0.104-0.353,0.287-0.378
						l0.078-0.011c0.183-0.025,0.353,0.104,0.378,0.287l0.367,2.685c0.025,0.183-0.104,0.353-0.287,0.378l-0.078,0.011
						C173.686,341.452,173.516,341.323,173.491,341.14z"/>
					<path id="XMLID_162_" style="fill:#878787;" d="M171.985,341.451l-0.303-2.217c-0.025-0.183,0.104-0.353,0.287-0.378
						l0.078-0.011c0.183-0.025,0.353,0.104,0.378,0.287l0.303,2.217c0.025,0.183-0.104,0.353-0.287,0.378l-0.078,0.011
						C172.18,341.763,172.01,341.633,171.985,341.451z"/>
					<path id="XMLID_161_" style="fill:#878787;" d="M170.326,341.438l-0.171-1.25c-0.025-0.183,0.104-0.353,0.287-0.378
						l0.078-0.011c0.183-0.025,0.353,0.104,0.378,0.287l0.171,1.25c0.025,0.183-0.104,0.353-0.287,0.378l-0.078,0.011
						C170.521,341.75,170.351,341.621,170.326,341.438z"/>
					<path id="XMLID_160_" style="opacity:0.4;fill:#B2B2B2;" d="M180.747,341.343l-1.493-4.04c-0.134-0.363,0.053-0.77,0.416-0.904
						l0.154-0.057c0.363-0.134,0.77,0.053,0.904,0.416l1.493,4.04c0.134,0.363-0.053,0.77-0.416,0.904l-0.154,0.057
						C181.288,341.893,180.881,341.706,180.747,341.343z"/>
				</g>
			</g>
			<g id="XMLID_74_">
				<g id="XMLID_62_">
					<path id="XMLID_71_" style="fill:#E94E1B;" d="M415.516,307.746l-41.189,132.526h45.139h45.139l-41.189-132.526
						C422.211,303.867,416.722,303.867,415.516,307.746z"/>
					<path id="XMLID_70_" style="fill:#F39200;" d="M472.367,444.673H366.566c-1.21,0-2.201-0.99-2.201-2.201l0,0
						c0-1.21,0.99-2.201,2.201-2.201h105.801c1.21,0,2.201,0.99,2.201,2.201l0,0C474.568,443.683,473.577,444.673,472.367,444.673z"
						/>
				</g>
				<g id="XMLID_58_">
					<defs>
						<path id="XMLID_60_" d="M415.516,307.746l-41.189,132.526h45.139h45.139l-41.189-132.526
							C422.211,303.867,416.722,303.867,415.516,307.746z"/>
					</defs>
					<clipPath id="XMLID_00000144300251163277739780000000365434972366701726_">
						<use xlink:href="#XMLID_60_"  style="overflow:visible;"/>
					</clipPath>
					<g id="XMLID_61_" style="clip-path:url(#XMLID_00000144300251163277739780000000365434972366701726_);">
						<rect id="XMLID_279_" x="399.952" y="316.574" style="fill:#FFFFFF;" width="35.587" height="8.752"/>
					</g>
					<g id="XMLID_63_" style="clip-path:url(#XMLID_00000144300251163277739780000000365434972366701726_);">
						<rect id="XMLID_278_" x="393.972" y="337.113" style="fill:#FFFFFF;" width="51.12" height="8.752"/>
					</g>
					<g id="XMLID_64_" style="clip-path:url(#XMLID_00000144300251163277739780000000365434972366701726_);">
						<rect id="XMLID_277_" x="389.57" y="357.652" style="fill:#FFFFFF;" width="55.643" height="8.752"/>
					</g>
					<g id="XMLID_66_" style="clip-path:url(#XMLID_00000144300251163277739780000000365434972366701726_);">
						<rect id="XMLID_276_" x="384.191" y="378.192" style="fill:#FFFFFF;" width="67.486" height="8.752"/>
					</g>
					<g id="XMLID_68_" style="clip-path:url(#XMLID_00000144300251163277739780000000365434972366701726_);">
						<rect id="XMLID_274_" x="380.569" y="398.731" style="fill:#FFFFFF;" width="84.037" height="8.752"/>
					</g>
					<g id="XMLID_69_" style="clip-path:url(#XMLID_00000144300251163277739780000000365434972366701726_);">
						<rect id="XMLID_268_" x="374.328" y="419.27" style="fill:#FFFFFF;" width="90.278" height="8.752"/>
					</g>
				</g>
				<path id="XMLID_59_" style="opacity:0.37;fill:#FFFFFF;" d="M403.412,363.418L403.412,363.418
					c-2.664-0.836-4.16-3.7-3.325-6.364l8.393-26.754c0.836-2.664,3.699-4.16,6.364-3.325l0,0c2.664,0.836,4.16,3.7,3.325,6.364
					l-8.393,26.754C408.94,362.758,406.076,364.254,403.412,363.418z"/>
				<path id="XMLID_73_" style="opacity:0.37;fill:#FFFFFF;" d="M395.378,389.768L395.378,389.768
					c-2.668-0.824-4.177-3.68-3.354-6.349l3.889-12.598c0.824-2.668,3.68-4.177,6.349-3.354l0,0c2.668,0.824,4.177,3.68,3.354,6.349
					l-3.889,12.598C400.903,389.083,398.046,390.592,395.378,389.768z"/>
				<path id="XMLID_72_" style="opacity:0.37;fill:#FFFFFF;" d="M390.699,442.472h-23.033c-0.605,0-1.1-0.495-1.1-1.1l0,0
					c0-0.605,0.495-1.1,1.1-1.1h23.033c0.605,0,1.1,0.495,1.1,1.1l0,0C391.8,441.977,391.305,442.472,390.699,442.472z"/>
				<path id="XMLID_75_" style="opacity:0.37;fill:#FFFFFF;" d="M411.194,442.472H398.72c-0.605,0-1.1-0.495-1.1-1.1l0,0
					c0-0.605,0.495-1.1,1.1-1.1h12.474c0.605,0,1.1,0.495,1.1,1.1l0,0C412.294,441.977,411.799,442.472,411.194,442.472z"/>
				<polygon id="XMLID_76_" style="opacity:0.52;fill:#E94E1B;" points="423.475,307.933 440.903,440.272 464.605,440.272 				"/>
			</g>
		</g>
	</g>
</g>
<g id="DESIGNED_BY_FREEPIK">
	<g id="XMLID_7126_">
		<g id="XMLID_7163_">
			<path id="XMLID_7188_" d="M186.001,481.897v-0.147c-0.2,0.229-0.397,0.415-0.592,0.558c-0.194,0.144-0.405,0.253-0.633,0.327
				c-0.227,0.076-0.475,0.112-0.744,0.112c-0.357,0-0.686-0.075-0.99-0.226c-0.303-0.151-0.566-0.367-0.787-0.646
				c-0.222-0.28-0.39-0.608-0.504-0.987c-0.114-0.378-0.172-0.787-0.172-1.226c0-0.93,0.227-1.656,0.682-2.176
				c0.454-0.519,1.052-0.779,1.793-0.779c0.429,0,0.79,0.074,1.085,0.22c0.294,0.147,0.581,0.374,0.861,0.679v-2.197
				c0-0.305,0.061-0.536,0.183-0.692c0.121-0.156,0.295-0.234,0.52-0.234c0.225,0,0.398,0.072,0.52,0.215
				c0.122,0.144,0.183,0.355,0.183,0.635v6.563c0,0.284-0.065,0.496-0.196,0.638c-0.131,0.141-0.299,0.212-0.507,0.212
				c-0.203,0-0.372-0.073-0.505-0.22C186.068,482.379,186.001,482.17,186.001,481.897z M183.074,479.711
				c0,0.404,0.063,0.747,0.188,1.03c0.126,0.284,0.297,0.497,0.515,0.64c0.218,0.144,0.456,0.216,0.714,0.216
				c0.262,0,0.501-0.068,0.717-0.205c0.216-0.136,0.389-0.345,0.518-0.626c0.129-0.282,0.193-0.634,0.193-1.055
				c0-0.396-0.064-0.737-0.193-1.023c-0.129-0.285-0.303-0.503-0.523-0.654c-0.22-0.15-0.461-0.225-0.722-0.225
				c-0.272,0-0.516,0.077-0.73,0.232c-0.214,0.154-0.381,0.375-0.499,0.665C183.133,478.994,183.074,479.33,183.074,479.711z"/>
			<path id="XMLID_7185_" d="M192.564,480.088h-2.911c0.004,0.338,0.072,0.636,0.205,0.894c0.132,0.258,0.309,0.453,0.529,0.583
				c0.22,0.131,0.463,0.196,0.728,0.196c0.178,0,0.34-0.02,0.488-0.062c0.147-0.043,0.29-0.107,0.428-0.197
				c0.138-0.089,0.265-0.184,0.381-0.286c0.116-0.102,0.266-0.241,0.452-0.415c0.076-0.065,0.186-0.098,0.328-0.098
				c0.152,0,0.276,0.043,0.37,0.126c0.094,0.084,0.142,0.201,0.142,0.354c0,0.135-0.053,0.291-0.158,0.471
				c-0.106,0.18-0.265,0.353-0.477,0.518c-0.213,0.165-0.479,0.302-0.802,0.411c-0.321,0.109-0.691,0.164-1.109,0.164
				c-0.955,0-1.699-0.273-2.229-0.818c-0.531-0.545-0.796-1.285-0.796-2.218c0-0.44,0.065-0.848,0.196-1.224
				c0.131-0.377,0.322-0.699,0.572-0.968c0.251-0.269,0.56-0.475,0.927-0.619c0.367-0.143,0.774-0.215,1.221-0.215
				c0.581,0,1.08,0.122,1.496,0.368c0.417,0.245,0.729,0.562,0.935,0.951c0.207,0.389,0.311,0.786,0.311,1.188
				c0,0.375-0.107,0.617-0.321,0.729C193.255,480.032,192.953,480.088,192.564,480.088z M189.653,479.243h2.699
				c-0.036-0.509-0.174-0.89-0.412-1.142c-0.238-0.253-0.551-0.379-0.94-0.379c-0.371,0-0.675,0.128-0.913,0.384
				C189.848,478.362,189.704,478.741,189.653,479.243z"/>
			<path id="XMLID_7183_" d="M199.345,480.801c0,0.411-0.1,0.763-0.3,1.055c-0.2,0.293-0.495,0.514-0.886,0.665
				c-0.39,0.151-0.866,0.226-1.425,0.226c-0.534,0-0.992-0.082-1.374-0.245c-0.381-0.163-0.663-0.368-0.845-0.613
				c-0.182-0.246-0.273-0.492-0.273-0.739c0-0.164,0.058-0.303,0.175-0.419c0.116-0.116,0.263-0.174,0.442-0.174
				c0.156,0,0.275,0.038,0.359,0.114c0.084,0.076,0.164,0.184,0.24,0.321c0.153,0.266,0.336,0.463,0.548,0.595
				c0.213,0.131,0.502,0.196,0.87,0.196c0.298,0,0.542-0.067,0.733-0.199c0.19-0.133,0.286-0.285,0.286-0.456
				c0-0.262-0.099-0.452-0.297-0.572c-0.198-0.12-0.524-0.235-0.979-0.344c-0.512-0.127-0.929-0.261-1.251-0.401
				c-0.322-0.139-0.579-0.324-0.771-0.553c-0.193-0.229-0.289-0.511-0.289-0.845c0-0.298,0.089-0.579,0.267-0.845
				c0.178-0.265,0.441-0.476,0.788-0.634c0.346-0.159,0.765-0.238,1.256-0.238c0.385,0,0.732,0.04,1.038,0.121
				c0.308,0.079,0.564,0.187,0.769,0.322c0.205,0.134,0.361,0.283,0.469,0.446c0.107,0.164,0.161,0.323,0.161,0.48
				c0,0.17-0.057,0.311-0.171,0.42c-0.114,0.108-0.277,0.164-0.488,0.164c-0.153,0-0.282-0.044-0.39-0.132
				c-0.107-0.087-0.23-0.217-0.368-0.392c-0.113-0.145-0.245-0.262-0.398-0.349c-0.153-0.087-0.36-0.131-0.622-0.131
				c-0.269,0-0.492,0.057-0.67,0.172c-0.178,0.114-0.267,0.256-0.267,0.427c0,0.157,0.065,0.285,0.196,0.384
				c0.131,0.1,0.307,0.183,0.529,0.248c0.222,0.065,0.526,0.145,0.916,0.239c0.461,0.113,0.838,0.248,1.131,0.404
				c0.292,0.156,0.514,0.341,0.666,0.554C199.27,480.286,199.345,480.529,199.345,480.801z"/>
			<path id="XMLID_7180_" d="M200.865,476.005c-0.207,0-0.384-0.064-0.531-0.191c-0.147-0.127-0.221-0.307-0.221-0.54
				c0-0.211,0.075-0.384,0.226-0.521c0.151-0.137,0.326-0.204,0.526-0.204c0.193,0,0.363,0.062,0.512,0.185
				c0.149,0.124,0.224,0.303,0.224,0.54c0,0.229-0.073,0.408-0.219,0.537C201.237,475.94,201.065,476.005,200.865,476.005z
				 M201.601,477.542v4.301c0,0.298-0.071,0.524-0.213,0.677c-0.142,0.152-0.321,0.229-0.54,0.229c-0.218,0-0.395-0.078-0.532-0.234
				c-0.137-0.156-0.204-0.38-0.204-0.671v-4.257c0-0.294,0.068-0.516,0.204-0.665c0.136-0.149,0.313-0.224,0.532-0.224
				c0.218,0,0.398,0.075,0.54,0.224C201.53,477.069,201.601,477.277,201.601,477.542z"/>
			<path id="XMLID_7177_" d="M208.12,477.787v4.322c0,0.494-0.053,0.92-0.159,1.276c-0.105,0.355-0.274,0.65-0.507,0.883
				c-0.233,0.232-0.537,0.405-0.913,0.517c-0.376,0.113-0.844,0.169-1.404,0.169c-0.512,0-0.97-0.072-1.374-0.215
				c-0.403-0.144-0.714-0.329-0.932-0.556c-0.218-0.227-0.327-0.461-0.327-0.701c0-0.182,0.062-0.33,0.186-0.444
				c0.123-0.115,0.273-0.172,0.447-0.172c0.218,0,0.409,0.096,0.573,0.289c0.08,0.098,0.162,0.198,0.248,0.298
				c0.085,0.1,0.18,0.185,0.284,0.257c0.104,0.07,0.228,0.123,0.373,0.158c0.146,0.034,0.313,0.052,0.502,0.052
				c0.385,0,0.684-0.053,0.897-0.161c0.213-0.107,0.362-0.257,0.447-0.45c0.085-0.192,0.135-0.398,0.15-0.618
				s0.025-0.573,0.033-1.061c-0.229,0.321-0.493,0.564-0.793,0.731c-0.3,0.167-0.657,0.251-1.071,0.251
				c-0.498,0-0.933-0.127-1.306-0.382c-0.372-0.255-0.659-0.61-0.858-1.068c-0.2-0.458-0.3-0.986-0.3-1.586
				c0-0.447,0.06-0.851,0.182-1.21c0.122-0.36,0.296-0.664,0.521-0.911c0.225-0.247,0.485-0.433,0.779-0.559
				c0.294-0.125,0.618-0.188,0.971-0.188c0.421,0,0.787,0.081,1.096,0.242c0.309,0.163,0.596,0.416,0.861,0.761v-0.202
				c0-0.258,0.063-0.457,0.191-0.6c0.128-0.141,0.291-0.212,0.491-0.212c0.287,0,0.478,0.094,0.572,0.281
				C208.073,477.164,208.12,477.435,208.12,477.787z M203.808,479.673c0,0.603,0.131,1.059,0.395,1.368
				c0.263,0.309,0.604,0.464,1.022,0.464c0.247,0,0.48-0.067,0.7-0.199c0.22-0.133,0.399-0.333,0.537-0.6
				c0.138-0.267,0.207-0.591,0.207-0.973c0-0.606-0.133-1.079-0.401-1.417c-0.267-0.338-0.619-0.507-1.055-0.507
				c-0.425,0-0.766,0.162-1.022,0.485C203.936,478.617,203.808,479.077,203.808,479.673z"/>
			<path id="XMLID_7175_" d="M210.485,477.52v0.18c0.261-0.345,0.548-0.599,0.858-0.761c0.311-0.161,0.668-0.243,1.071-0.243
				c0.393,0,0.743,0.086,1.052,0.257c0.309,0.171,0.54,0.413,0.692,0.724c0.099,0.182,0.162,0.379,0.191,0.589
				c0.029,0.211,0.044,0.48,0.044,0.807v2.769c0,0.298-0.068,0.524-0.205,0.677c-0.136,0.152-0.313,0.229-0.531,0.229
				c-0.222,0-0.402-0.078-0.54-0.234c-0.138-0.156-0.207-0.38-0.207-0.671v-2.48c0-0.49-0.069-0.866-0.205-1.125
				c-0.137-0.259-0.408-0.39-0.815-0.39c-0.265,0-0.507,0.079-0.725,0.237c-0.218,0.159-0.378,0.376-0.48,0.652
				c-0.073,0.222-0.109,0.636-0.109,1.243v1.864c0,0.302-0.07,0.529-0.21,0.679c-0.14,0.151-0.321,0.226-0.542,0.226
				c-0.215,0-0.391-0.078-0.529-0.234c-0.138-0.156-0.207-0.38-0.207-0.671v-4.301c0-0.284,0.062-0.495,0.185-0.636
				c0.124-0.14,0.293-0.21,0.507-0.21c0.131,0,0.249,0.031,0.355,0.093c0.105,0.062,0.19,0.155,0.253,0.277
				C210.454,477.191,210.485,477.342,210.485,477.52z"/>
			<path id="XMLID_7172_" d="M219.539,480.088h-2.911c0.004,0.338,0.072,0.636,0.205,0.894c0.133,0.258,0.309,0.453,0.529,0.583
				c0.219,0.131,0.462,0.196,0.727,0.196c0.178,0,0.341-0.02,0.488-0.062c0.146-0.043,0.289-0.107,0.428-0.197
				c0.138-0.089,0.265-0.184,0.382-0.286c0.116-0.102,0.266-0.241,0.452-0.415c0.076-0.065,0.185-0.098,0.327-0.098
				c0.153,0,0.276,0.043,0.371,0.126c0.094,0.084,0.142,0.201,0.142,0.354c0,0.135-0.052,0.291-0.158,0.471
				c-0.106,0.18-0.265,0.353-0.477,0.518c-0.213,0.165-0.479,0.302-0.801,0.411c-0.322,0.109-0.692,0.164-1.109,0.164
				c-0.956,0-1.699-0.273-2.23-0.818c-0.53-0.545-0.796-1.285-0.796-2.218c0-0.44,0.065-0.848,0.196-1.224
				c0.131-0.377,0.322-0.699,0.573-0.968c0.251-0.269,0.56-0.475,0.926-0.619c0.367-0.143,0.774-0.215,1.221-0.215
				c0.581,0,1.079,0.122,1.496,0.368c0.417,0.245,0.728,0.562,0.936,0.951c0.207,0.389,0.311,0.786,0.311,1.188
				c0,0.375-0.107,0.617-0.322,0.729C220.23,480.032,219.928,480.088,219.539,480.088z M216.628,479.243h2.698
				c-0.036-0.509-0.174-0.89-0.411-1.142c-0.238-0.253-0.551-0.379-0.94-0.379c-0.371,0-0.676,0.128-0.914,0.384
				C216.823,478.362,216.679,478.741,216.628,479.243z"/>
			<path id="XMLID_7169_" d="M225.605,481.897v-0.147c-0.2,0.229-0.397,0.415-0.591,0.558c-0.195,0.144-0.405,0.253-0.632,0.327
				c-0.227,0.076-0.475,0.112-0.744,0.112c-0.357,0-0.686-0.075-0.99-0.226c-0.303-0.151-0.566-0.367-0.788-0.646
				c-0.222-0.28-0.39-0.608-0.504-0.987c-0.115-0.378-0.172-0.787-0.172-1.226c0-0.93,0.227-1.656,0.681-2.176
				c0.454-0.519,1.052-0.779,1.794-0.779c0.429,0,0.791,0.074,1.085,0.22c0.294,0.147,0.582,0.374,0.861,0.679v-2.197
				c0-0.305,0.061-0.536,0.183-0.692c0.121-0.156,0.295-0.234,0.521-0.234c0.225,0,0.398,0.072,0.52,0.215
				c0.122,0.144,0.183,0.355,0.183,0.635v6.563c0,0.284-0.065,0.496-0.196,0.638c-0.131,0.141-0.3,0.212-0.507,0.212
				c-0.204,0-0.372-0.073-0.504-0.22C225.672,482.379,225.605,482.17,225.605,481.897z M222.678,479.711
				c0,0.404,0.062,0.747,0.188,1.03c0.125,0.284,0.297,0.497,0.516,0.64c0.218,0.144,0.456,0.216,0.713,0.216
				c0.262,0,0.501-0.068,0.717-0.205c0.216-0.136,0.389-0.345,0.518-0.626c0.129-0.282,0.194-0.634,0.194-1.055
				c0-0.396-0.064-0.737-0.194-1.023c-0.129-0.285-0.303-0.503-0.523-0.654c-0.22-0.15-0.461-0.225-0.722-0.225
				c-0.272,0-0.516,0.077-0.73,0.232c-0.214,0.154-0.38,0.375-0.499,0.665C222.737,478.994,222.678,479.33,222.678,479.711z"/>
			<path id="XMLID_7166_" d="M231.688,475.334v2.273c0.28-0.29,0.565-0.513,0.856-0.668c0.291-0.154,0.651-0.231,1.079-0.231
				c0.494,0,0.927,0.117,1.3,0.351c0.372,0.236,0.661,0.575,0.867,1.02c0.205,0.444,0.308,0.973,0.308,1.584
				c0,0.451-0.057,0.863-0.172,1.24c-0.115,0.376-0.281,0.702-0.499,0.978c-0.218,0.276-0.482,0.49-0.793,0.641
				c-0.311,0.151-0.654,0.226-1.028,0.226c-0.229,0-0.445-0.027-0.646-0.082c-0.202-0.054-0.374-0.125-0.515-0.215
				c-0.141-0.089-0.262-0.181-0.362-0.275c-0.1-0.094-0.232-0.237-0.395-0.425v0.147c0,0.28-0.067,0.492-0.202,0.636
				c-0.134,0.143-0.305,0.215-0.512,0.215c-0.211,0-0.379-0.071-0.504-0.215c-0.126-0.144-0.188-0.356-0.188-0.636v-6.498
				c0-0.301,0.061-0.53,0.182-0.684c0.122-0.154,0.292-0.231,0.51-0.231c0.229,0,0.405,0.073,0.529,0.22
				C231.626,474.852,231.688,475.061,231.688,475.334z M231.759,479.755c0,0.592,0.135,1.047,0.406,1.365
				c0.271,0.318,0.626,0.478,1.066,0.478c0.374,0,0.697-0.163,0.967-0.488c0.271-0.326,0.406-0.791,0.406-1.398
				c0-0.392-0.056-0.731-0.169-1.014c-0.113-0.284-0.272-0.503-0.479-0.657c-0.207-0.154-0.449-0.232-0.725-0.232
				c-0.283,0-0.536,0.077-0.758,0.232c-0.222,0.154-0.396,0.378-0.523,0.67C231.823,479.003,231.759,479.352,231.759,479.755z"/>
			<path id="XMLID_7164_" d="M238.028,482.933l0.136-0.333l-1.832-4.612c-0.112-0.265-0.169-0.458-0.169-0.578
				c0-0.127,0.033-0.245,0.098-0.354c0.066-0.109,0.155-0.197,0.27-0.262c0.115-0.066,0.234-0.099,0.357-0.099
				c0.214,0,0.376,0.068,0.485,0.205c0.109,0.136,0.205,0.331,0.289,0.586l1.259,3.663l1.194-3.407
				c0.094-0.275,0.18-0.492,0.256-0.648c0.076-0.156,0.157-0.262,0.242-0.316c0.085-0.055,0.206-0.082,0.363-0.082
				c0.113,0,0.221,0.03,0.325,0.09c0.103,0.06,0.183,0.141,0.24,0.243c0.056,0.101,0.085,0.209,0.085,0.321
				c-0.015,0.069-0.038,0.167-0.071,0.295c-0.033,0.127-0.072,0.257-0.12,0.387l-1.941,5.081c-0.168,0.447-0.331,0.797-0.491,1.051
				c-0.16,0.254-0.371,0.451-0.635,0.586c-0.264,0.137-0.619,0.205-1.066,0.205c-0.436,0-0.763-0.047-0.981-0.141
				c-0.219-0.095-0.327-0.268-0.327-0.518c0-0.17,0.051-0.303,0.156-0.395c0.103-0.092,0.257-0.14,0.46-0.14
				c0.08,0,0.159,0.011,0.235,0.034c0.094,0.021,0.176,0.033,0.245,0.033c0.171,0,0.305-0.025,0.404-0.077
				c0.098-0.051,0.186-0.138,0.264-0.265C237.836,483.361,237.926,483.176,238.028,482.933z"/>
		</g>
		<g id="XMLID_7141_">
			<path id="XMLID_7162_" d="M259.586,476.825h0.355v-0.447c0-0.467,0.057-0.836,0.176-1.112c0.117-0.275,0.319-0.474,0.601-0.6
				c0.281-0.124,0.668-0.187,1.157-0.187c0.872,0,1.304,0.211,1.304,0.639c0,0.137-0.045,0.255-0.138,0.353
				c-0.089,0.097-0.197,0.147-0.32,0.147c-0.057,0-0.16-0.011-0.303-0.034c-0.136-0.019-0.259-0.032-0.358-0.032
				c-0.268,0-0.44,0.081-0.52,0.238c-0.073,0.158-0.112,0.384-0.112,0.68v0.354h0.363c0.569,0,0.85,0.17,0.85,0.514
				c0,0.24-0.073,0.396-0.225,0.462c-0.15,0.066-0.358,0.098-0.625,0.098h-0.363v3.944c0,0.293-0.069,0.517-0.212,0.67
				c-0.138,0.156-0.318,0.233-0.541,0.233c-0.211,0-0.385-0.077-0.527-0.233c-0.14-0.154-0.209-0.377-0.209-0.67v-3.944h-0.41
				c-0.223,0-0.392-0.048-0.513-0.15c-0.12-0.098-0.181-0.229-0.181-0.389C258.838,477.002,259.088,476.825,259.586,476.825"/>
			<path id="XMLID_7161_" d="M264.459,480.599v1.244c0,0.301-0.076,0.527-0.215,0.677c-0.142,0.152-0.321,0.227-0.538,0.227
				c-0.219,0-0.395-0.075-0.532-0.23c-0.136-0.151-0.207-0.377-0.207-0.674v-4.145c0-0.669,0.241-1.004,0.723-1.004
				c0.249,0,0.427,0.077,0.536,0.234c0.109,0.157,0.169,0.387,0.182,0.693c0.177-0.307,0.358-0.536,0.544-0.693
				c0.191-0.157,0.438-0.234,0.752-0.234c0.315,0,0.615,0.077,0.91,0.234c0.296,0.157,0.443,0.365,0.443,0.623
				c0,0.181-0.063,0.333-0.187,0.448c-0.126,0.12-0.261,0.179-0.405,0.179c-0.057,0-0.19-0.036-0.397-0.103
				c-0.21-0.065-0.395-0.099-0.553-0.099c-0.218,0-0.397,0.059-0.535,0.171c-0.139,0.118-0.247,0.285-0.324,0.509
				c-0.074,0.227-0.126,0.497-0.156,0.806C264.472,479.772,264.459,480.152,264.459,480.599"/>
			<path id="XMLID_7158_" d="M271.301,480.086h-2.912c0.005,0.337,0.071,0.637,0.203,0.895c0.135,0.256,0.31,0.451,0.531,0.583
				c0.221,0.131,0.461,0.195,0.728,0.195c0.178,0,0.34-0.019,0.488-0.064c0.146-0.04,0.29-0.106,0.428-0.196
				c0.139-0.087,0.264-0.183,0.381-0.287c0.116-0.1,0.268-0.239,0.453-0.413c0.077-0.065,0.186-0.1,0.326-0.1
				c0.154,0,0.276,0.043,0.373,0.127c0.095,0.085,0.14,0.201,0.14,0.354c0,0.135-0.051,0.292-0.154,0.47
				c-0.108,0.182-0.266,0.354-0.48,0.52c-0.215,0.164-0.482,0.303-0.802,0.41c-0.321,0.109-0.692,0.164-1.109,0.164
				c-0.959,0-1.701-0.271-2.231-0.816c-0.53-0.547-0.799-1.287-0.799-2.22c0-0.44,0.067-0.849,0.199-1.225
				c0.129-0.378,0.32-0.698,0.573-0.968c0.25-0.27,0.557-0.475,0.925-0.619c0.366-0.143,0.773-0.215,1.221-0.215
				c0.58,0,1.079,0.123,1.496,0.37c0.415,0.243,0.731,0.561,0.935,0.949c0.208,0.391,0.311,0.785,0.311,1.19
				c0,0.372-0.108,0.614-0.322,0.726C271.991,480.031,271.69,480.086,271.301,480.086 M268.388,479.24h2.698
				c-0.036-0.508-0.171-0.889-0.41-1.14c-0.24-0.254-0.55-0.379-0.942-0.379c-0.37,0-0.675,0.126-0.914,0.384
				C268.584,478.361,268.438,478.739,268.388,479.24"/>
			<path id="XMLID_7155_" d="M277.492,480.086h-2.912c0.003,0.337,0.072,0.637,0.204,0.895c0.133,0.256,0.309,0.451,0.529,0.583
				c0.22,0.131,0.462,0.195,0.73,0.195c0.177,0,0.34-0.019,0.485-0.064c0.148-0.04,0.29-0.106,0.43-0.196
				c0.139-0.087,0.264-0.183,0.381-0.287c0.114-0.1,0.266-0.239,0.452-0.413c0.077-0.065,0.187-0.1,0.326-0.1
				c0.154,0,0.277,0.043,0.373,0.127c0.095,0.085,0.138,0.201,0.138,0.354c0,0.135-0.05,0.292-0.157,0.47
				c-0.102,0.182-0.261,0.354-0.476,0.52c-0.212,0.164-0.482,0.303-0.801,0.41c-0.32,0.109-0.693,0.164-1.11,0.164
				c-0.957,0-1.698-0.271-2.231-0.816c-0.53-0.547-0.797-1.287-0.797-2.22c0-0.44,0.067-0.849,0.199-1.225
				c0.13-0.378,0.321-0.698,0.572-0.968c0.25-0.27,0.558-0.475,0.927-0.619c0.366-0.143,0.775-0.215,1.222-0.215
				c0.579,0,1.078,0.123,1.5,0.37c0.413,0.243,0.726,0.561,0.93,0.949c0.206,0.391,0.313,0.785,0.313,1.19
				c0,0.372-0.11,0.614-0.322,0.726C278.181,480.031,277.88,480.086,277.492,480.086 M274.58,479.24h2.698
				c-0.036-0.508-0.174-0.889-0.41-1.14c-0.242-0.254-0.552-0.379-0.943-0.379c-0.37,0-0.675,0.126-0.914,0.384
				C274.774,478.361,274.628,478.739,274.58,479.24"/>
			<path id="XMLID_7152_" d="M280.752,477.531v0.178c0.279-0.345,0.571-0.598,0.875-0.76c0.298-0.163,0.642-0.245,1.023-0.245
				c0.456,0,0.881,0.119,1.267,0.354c0.385,0.238,0.688,0.583,0.912,1.037c0.224,0.456,0.336,0.993,0.336,1.615
				c0,0.457-0.064,0.879-0.193,1.263c-0.128,0.383-0.308,0.704-0.533,0.964c-0.226,0.258-0.491,0.46-0.798,0.6
				c-0.311,0.138-0.638,0.208-0.992,0.208c-0.424,0-0.783-0.085-1.07-0.257c-0.289-0.167-0.564-0.421-0.827-0.749v2.234
				c0,0.652-0.239,0.981-0.714,0.981c-0.281,0-0.464-0.084-0.558-0.252c-0.087-0.172-0.134-0.415-0.134-0.741v-6.424
				c0-0.284,0.061-0.493,0.184-0.636c0.123-0.137,0.294-0.209,0.508-0.209c0.212,0,0.382,0.072,0.514,0.215
				C280.687,477.054,280.752,477.259,280.752,477.531 M283.669,479.693c0-0.393-0.061-0.731-0.18-1.012
				c-0.12-0.283-0.286-0.498-0.497-0.647c-0.211-0.151-0.449-0.228-0.707-0.228c-0.41,0-0.757,0.163-1.038,0.484
				c-0.283,0.325-0.424,0.801-0.424,1.431c0,0.589,0.14,1.052,0.422,1.381c0.28,0.329,0.623,0.493,1.04,0.493
				c0.246,0,0.477-0.072,0.687-0.214c0.213-0.145,0.382-0.36,0.507-0.647C283.606,480.447,283.669,480.1,283.669,479.693"/>
			<path id="XMLID_7149_" d="M286.663,476.001c-0.208,0-0.384-0.066-0.53-0.192c-0.149-0.128-0.223-0.305-0.223-0.538
				c0-0.211,0.075-0.384,0.228-0.522c0.15-0.135,0.325-0.204,0.525-0.204c0.195,0,0.365,0.061,0.513,0.183
				c0.149,0.126,0.224,0.307,0.224,0.543c0,0.229-0.073,0.408-0.217,0.537C287.037,475.935,286.865,476.001,286.663,476.001
				 M287.4,477.538v4.306c0,0.296-0.071,0.521-0.212,0.673c-0.143,0.155-0.322,0.23-0.54,0.23c-0.219,0-0.393-0.077-0.533-0.233
				c-0.134-0.159-0.204-0.382-0.204-0.669v-4.263c0-0.293,0.07-0.513,0.204-0.663c0.14-0.152,0.314-0.225,0.533-0.225
				c0.219,0,0.397,0.073,0.54,0.225C287.329,477.068,287.4,477.275,287.4,477.538"/>
			<path id="XMLID_7148_" d="M292.198,482.067l-1.311-2.161l-0.808,0.762v1.185c0,0.286-0.076,0.506-0.228,0.66
				c-0.147,0.156-0.325,0.233-0.52,0.233c-0.229,0-0.41-0.075-0.54-0.23c-0.13-0.151-0.197-0.377-0.197-0.674v-6.35
				c0-0.329,0.065-0.58,0.19-0.754c0.128-0.175,0.313-0.259,0.547-0.259c0.229,0,0.409,0.078,0.545,0.236
				c0.134,0.155,0.203,0.387,0.203,0.69v3.612l1.674-1.758c0.208-0.216,0.363-0.368,0.475-0.447c0.109-0.08,0.241-0.119,0.396-0.119
				c0.187,0,0.341,0.059,0.468,0.177c0.121,0.118,0.184,0.267,0.184,0.444c0,0.217-0.203,0.51-0.605,0.873l-0.79,0.725l1.526,2.401
				c0.111,0.18,0.194,0.312,0.243,0.405c0.048,0.091,0.074,0.183,0.074,0.265c0,0.237-0.066,0.422-0.195,0.56
				c-0.129,0.136-0.301,0.203-0.508,0.203c-0.182,0-0.324-0.047-0.421-0.147C292.5,482.5,292.364,482.322,292.198,482.067"/>
			<path id="XMLID_7147_" d="M295.432,482.746c-0.225,0-0.418-0.072-0.582-0.219c-0.163-0.143-0.246-0.348-0.246-0.611
				c0-0.221,0.079-0.413,0.235-0.571c0.158-0.16,0.349-0.241,0.578-0.241c0.228,0,0.422,0.08,0.587,0.237
				c0.16,0.158,0.242,0.351,0.242,0.575c0,0.259-0.082,0.464-0.242,0.608C295.84,482.674,295.65,482.746,295.432,482.746"/>
			<path id="XMLID_7146_" d="M302.835,480.904c0,0.184-0.055,0.383-0.167,0.594c-0.11,0.212-0.28,0.412-0.508,0.603
				c-0.227,0.191-0.512,0.346-0.858,0.461c-0.345,0.116-0.735,0.176-1.165,0.176c-0.922,0-1.641-0.27-2.157-0.804
				c-0.514-0.537-0.772-1.257-0.772-2.158c0-0.613,0.117-1.151,0.355-1.621c0.234-0.467,0.576-0.831,1.022-1.087
				c0.447-0.257,0.985-0.384,1.603-0.384c0.387,0,0.739,0.056,1.063,0.169c0.322,0.112,0.592,0.259,0.818,0.436
				c0.222,0.18,0.393,0.369,0.511,0.569c0.119,0.202,0.177,0.391,0.177,0.567c0,0.177-0.065,0.328-0.197,0.452
				c-0.135,0.123-0.296,0.186-0.481,0.186c-0.126,0-0.228-0.033-0.311-0.095c-0.082-0.064-0.175-0.166-0.275-0.311
				c-0.182-0.275-0.371-0.483-0.572-0.619c-0.197-0.139-0.448-0.208-0.754-0.208c-0.437,0-0.794,0.171-1.064,0.515
				c-0.268,0.342-0.404,0.815-0.404,1.409c0,0.28,0.036,0.539,0.105,0.773c0.067,0.234,0.167,0.434,0.299,0.599
				c0.132,0.165,0.289,0.29,0.474,0.375c0.186,0.088,0.391,0.13,0.61,0.13c0.299,0,0.555-0.069,0.767-0.207
				c0.216-0.138,0.403-0.349,0.566-0.633c0.091-0.167,0.188-0.297,0.292-0.392c0.105-0.094,0.235-0.143,0.388-0.143
				c0.182,0,0.333,0.071,0.451,0.208C302.774,480.6,302.835,480.749,302.835,480.904"/>
			<path id="XMLID_7143_" d="M309.258,479.721c0,0.442-0.07,0.852-0.204,1.228c-0.142,0.374-0.34,0.696-0.603,0.963
				c-0.261,0.269-0.575,0.475-0.936,0.62c-0.367,0.142-0.775,0.215-1.228,0.215c-0.451,0-0.857-0.073-1.217-0.22
				c-0.358-0.143-0.672-0.353-0.933-0.621c-0.265-0.274-0.464-0.594-0.604-0.962c-0.132-0.369-0.201-0.777-0.201-1.223
				c0-0.451,0.071-0.864,0.206-1.239c0.139-0.375,0.338-0.696,0.596-0.96c0.259-0.265,0.57-0.469,0.936-0.614
				c0.369-0.143,0.775-0.215,1.217-0.215c0.45,0,0.86,0.072,1.228,0.219c0.366,0.144,0.679,0.353,0.943,0.619
				c0.263,0.272,0.461,0.591,0.597,0.96C309.189,478.866,309.258,479.272,309.258,479.721 M307.764,479.721
				c0-0.608-0.135-1.079-0.401-1.417c-0.266-0.342-0.625-0.509-1.076-0.509c-0.292,0-0.548,0.076-0.771,0.226
				c-0.222,0.15-0.391,0.373-0.511,0.668c-0.12,0.295-0.181,0.639-0.181,1.032c0,0.39,0.059,0.728,0.178,1.018
				c0.119,0.293,0.288,0.515,0.508,0.669c0.221,0.153,0.479,0.232,0.776,0.232c0.45,0,0.81-0.17,1.076-0.512
				C307.629,480.79,307.764,480.319,307.764,479.721"/>
			<path id="XMLID_7142_" d="M314.935,479.831v1.978c0,0.314-0.069,0.546-0.212,0.705c-0.144,0.156-0.328,0.234-0.561,0.234
				c-0.225,0-0.41-0.078-0.546-0.234c-0.142-0.159-0.214-0.391-0.214-0.705v-2.371c0-0.375-0.012-0.667-0.036-0.875
				c-0.026-0.203-0.096-0.376-0.208-0.507c-0.113-0.135-0.292-0.202-0.534-0.202c-0.488,0-0.808,0.167-0.962,0.506
				c-0.154,0.331-0.233,0.811-0.233,1.439v2.01c0,0.309-0.07,0.543-0.207,0.702c-0.143,0.157-0.326,0.237-0.554,0.237
				c-0.227,0-0.411-0.08-0.555-0.237c-0.145-0.159-0.216-0.393-0.216-0.702v-4.258c0-0.281,0.064-0.494,0.192-0.638
				c0.132-0.147,0.302-0.219,0.511-0.219c0.204,0,0.374,0.071,0.512,0.204c0.136,0.137,0.203,0.325,0.203,0.565v0.141
				c0.26-0.307,0.536-0.535,0.829-0.678c0.297-0.149,0.621-0.221,0.983-0.221c0.374,0,0.695,0.075,0.963,0.224
				c0.27,0.15,0.49,0.376,0.666,0.675c0.252-0.303,0.522-0.53,0.809-0.678c0.287-0.147,0.604-0.221,0.954-0.221
				c0.405,0,0.758,0.082,1.053,0.24c0.293,0.16,0.512,0.39,0.659,0.686c0.127,0.271,0.189,0.694,0.189,1.272v2.906
				c0,0.314-0.07,0.546-0.211,0.705c-0.141,0.156-0.33,0.234-0.562,0.234c-0.227,0-0.41-0.08-0.554-0.237
				c-0.143-0.159-0.216-0.393-0.216-0.702v-2.503c0-0.321-0.014-0.576-0.04-0.768c-0.027-0.193-0.101-0.356-0.22-0.486
				c-0.122-0.131-0.304-0.197-0.547-0.197c-0.196,0-0.382,0.061-0.559,0.177c-0.176,0.114-0.314,0.273-0.414,0.466
				C314.992,478.749,314.935,479.193,314.935,479.831"/>
		</g>
		<g id="XMLID_7127_">
			<path id="XMLID_7140_" d="M245.658,479.361c-0.001-0.003-0.001-0.006-0.001-0.01
				C245.657,479.355,245.657,479.358,245.658,479.361z"/>
			<path id="XMLID_7139_" d="M245.733,479.837c0.001,0,0.001,0,0.002,0c-0.029-0.136-0.051-0.27-0.068-0.403
				C245.684,479.568,245.706,479.703,245.733,479.837z"/>
			<path id="XMLID_7138_" d="M246.226,481.218c-0.003-0.006-0.006-0.012-0.01-0.019C246.22,481.206,246.223,481.212,246.226,481.218
				z"/>
			<path id="XMLID_7137_" d="M246.179,481.126c-0.013-0.025-0.025-0.052-0.037-0.077
				C246.154,481.076,246.166,481.101,246.179,481.126z"/>
			<path id="XMLID_7136_" d="M245.872,480.369c0.073,0.23,0.161,0.452,0.262,0.665c-0.103-0.217-0.189-0.44-0.26-0.665H245.872z"/>
			<path id="XMLID_7135_" d="M251.419,473.658c0.288,0,0.5,0.023,0.743,0.064l0.069-0.438c0,0-0.672-0.207-1.556-0.135l-0.07-0.238
				c0.275-0.058,0.481-0.302,0.481-0.594c0-0.334-0.272-0.605-0.607-0.605c-0.335,0-0.606,0.271-0.606,0.605
				c0,0.292,0.206,0.536,0.48,0.594l0.077,0.266c-0.938,0.129-1.685,0.495-1.685,0.495l0.132,0.405
				c0.568-0.189,1.06-0.304,1.506-0.352C250.822,473.678,251.151,473.658,251.419,473.658z"/>
			<path id="XMLID_7134_" d="M246.215,475.872l0.003-0.004c0.022-0.029,0.043-0.056,0.065-0.082l-0.18-0.129l-0.28-0.204
				c-0.016,0.022-0.456,0.427-0.804,1.175c-0.015-0.023-0.032-0.047-0.051-0.068c-0.104-0.114-0.25-0.172-0.435-0.169
				c-0.002,0-0.005,0-0.008,0c-0.115,0-0.193-0.038-0.245-0.085c0.051-0.065,0.082-0.147,0.082-0.237
				c0-0.211-0.172-0.384-0.384-0.384c-0.212,0-0.384,0.173-0.384,0.384c0,0.212,0.172,0.384,0.384,0.384
				c0.033,0,0.065-0.005,0.096-0.012c0.094,0.105,0.244,0.196,0.464,0.192c0.113-0.001,0.196,0.028,0.251,0.089
				c0.064,0.069,0.085,0.17,0.092,0.245c-0.001,0.001-0.001,0.003-0.002,0.003c-0.25,0.683-0.178,1.532-0.178,1.532l0.607,0.024
				c0.012-0.309,0.057-0.851,0.213-1.28C245.821,476.414,246.199,475.894,246.215,475.872z"/>
			<path id="XMLID_7133_" d="M256.699,474.165c-0.211,0-0.384,0.171-0.384,0.384c0,0.033,0.005,0.065,0.014,0.095
				c-0.105,0.095-0.197,0.245-0.193,0.465c0.002,0.113-0.027,0.195-0.089,0.251c-0.049,0.043-0.11,0.066-0.17,0.081
				c-0.452-0.633-1.008-1.019-1.008-1.019l-0.436,0.467c0.329,0.299,0.665,0.674,0.992,1.142c0.226,0.323,0.459,0.74,0.652,1.156
				l0.588-0.279c0,0-0.268-0.663-0.646-1.258c0.066-0.023,0.132-0.059,0.19-0.11c0.115-0.104,0.171-0.251,0.168-0.435
				c-0.001-0.119,0.038-0.2,0.085-0.253c0.065,0.05,0.147,0.082,0.236,0.082c0.213,0,0.385-0.172,0.385-0.384
				C257.083,474.337,256.912,474.165,256.699,474.165z"/>
			<path id="XMLID_7132_" d="M255.174,479.447c-0.809,0.394-2.14,0.915-3.892,1.159c-0.688,0.095-1.354,0.13-1.968,0.13
				c-0.798,0-1.503-0.059-2.045-0.128c-0.618-0.078-1.1-0.173-1.396-0.24c0.071,0.225,0.157,0.448,0.26,0.665
				c0.002,0.006,0.004,0.012,0.007,0.016c0.012,0.025,0.025,0.052,0.037,0.077c0.012,0.025,0.025,0.05,0.037,0.073
				c0.004,0.007,0.007,0.013,0.01,0.019c0.174,0.327,0.383,0.628,0.62,0.889c0.826,0.904,1.668,1.047,1.676,1.048l0.013,0.002
				l0.012,0.005c0.008,0.003,0.754,0.244,1.889,0.244c1.117,0,2.212-0.225,3.257-0.67c0.773-0.396,1.505-0.997,1.868-1.532
				c0.28-0.415,0.483-0.857,0.603-1.317c0.064-0.244,0.114-0.636,0.085-1.047C256.021,478.992,255.661,479.21,255.174,479.447z"/>
			<path id="XMLID_7128_" d="M246.474,476.064c-0.024,0.034-0.374,0.531-0.652,1.293c-0.208,0.571-0.198,1.402-0.198,1.412v0.002
				c0,0.195,0.011,0.388,0.033,0.58c0,0.005,0,0.007,0.001,0.01c0.002,0.025,0.006,0.048,0.009,0.073
				c0.017,0.133,0.04,0.267,0.068,0.403c0.402,0.102,2.8,0.661,5.48,0.288c1.68-0.234,2.955-0.73,3.73-1.106
				c0.643-0.312,1.057-0.595,1.217-0.711c-0.159-0.59-0.598-1.516-1-2.093c-1.151-1.645-2.392-2.066-3.029-2.171
				c-0.243-0.04-0.438-0.063-0.714-0.063c-0.257,0-0.575,0.021-1.001,0.065c-0.426,0.044-0.902,0.156-1.453,0.342
				c-0.773,0.259-1.473,0.665-2.024,1.175l-0.019,0.017C246.841,475.657,246.67,475.815,246.474,476.064z M253.516,475.681
				c0.551,0,1,0.448,1,1c0,0.552-0.449,1.001-1,1.001c-0.552,0-1-0.449-1-1.001C252.516,476.13,252.964,475.681,253.516,475.681z
				 M248.786,475.642c0.893,0,1.617,0.724,1.617,1.617c0,0.893-0.723,1.615-1.617,1.615c-0.892,0-1.616-0.723-1.616-1.615
				C247.17,476.366,247.894,475.642,248.786,475.642z"/>
		</g>
	</g>
</g>
</svg>
