<?xml version="1.0" encoding="utf-8"?>
<!-- Generator: Adobe Illustrator 27.5.0, SVG Export Plug-In . SVG Version: 6.00 Build 0)  -->
<svg version="1.1" id="Слой_1" xmlns="http://www.w3.org/2000/svg" xmlns:xlink="http://www.w3.org/1999/xlink" x="0px" y="0px"
	 viewBox="0 0 3100 2000" style="enable-background:new 0 0 3100 2000;" xml:space="preserve">
<g>
	<rect x="-0.001" y="0.001" style="fill:#B8C9FF;" width="3100" height="1432.75"/>
	<rect x="-0.001" y="1384.895" style="fill:#5D83E2;" width="3100" height="615.105"/>
	<g>
		<g>
			<g>
				<polygon style="fill:#95A6DB;" points="2527.668,182.585 2296.293,68.295 2064.916,182.585 2063.86,179.979 2296.293,65.262 
					2296.819,65.476 2528.722,179.979 				"/>
			</g>
			<path style="fill:#95A6DB;" d="M2301.471,66.362c0,2.63-2.132,4.76-4.762,4.76c-2.629,0-4.76-2.13-4.76-4.76
				c0-2.629,2.131-4.76,4.76-4.76C2299.339,61.602,2301.471,63.733,2301.471,66.362z"/>
		</g>
		<g>
			<rect x="1884.421" y="201.351" style="fill:#B8C9FF;" width="823.741" height="441.287"/>
			<path style="fill:#95A6DB;" d="M2708.162,178.466h-849.994v487.056h876.246V178.466H2708.162z M1884.421,642.638V201.351h823.421
				v441.287H1884.421L1884.421,642.638z"/>
		</g>
		<g>
			<g>
				<path style="fill:#E62552;" d="M2517.222,592.573h-382.534c-6.763,0-12.245-5.483-12.245-12.246V251.044
					c0-6.763,5.482-12.247,12.245-12.247c6.764,0,12.246,5.483,12.246,12.247v317.037h370.288c6.764,0,12.246,5.483,12.246,12.247
					C2529.468,587.09,2523.985,592.573,2517.222,592.573z"/>
			</g>
			<g>
				<g>
					<path style="fill:#E62552;" d="M2175.924,295.457c-0.765-2.969-0.423-6.224,1.21-9.1c3.341-5.88,10.815-7.94,16.696-4.601
						l120.629,68.389c5.093,2.892,6.553,13.068,8.311,21.721c5.452,26.847,17.228,73.541,17.228,73.541l76.662,46.663
						c6.063,2.993,8.553,10.337,5.558,16.401c-2.995,6.064-10.338,8.553-16.403,5.559c0,0-61.092-36.39-81.776-47.183
						c-5.43-2.833-9.759-7.464-10.577-13.535c-2.688-19.976-19.864-86.851-19.864-86.851l-111.861-63.407
						C2178.729,301.346,2176.722,298.559,2175.924,295.457z"/>
				</g>
				<g>
					<g>
						<polygon style="fill:#E62552;" points="2370.504,523.395 2400.384,497.69 2402.629,458.337 2463.676,528.943 						"/>
					</g>
				</g>
			</g>
		</g>
		<path style="fill:#95A6DB;" d="M2655.412,262.114h-141.731c-5.033,0-9.113-4.08-9.113-9.114l0,0c0-5.033,4.08-9.114,9.113-9.114
			h141.731c5.033,0,9.113,4.081,9.113,9.114l0,0C2664.525,258.034,2660.445,262.114,2655.412,262.114z"/>
		<path style="fill:#95A6DB;" d="M2655.412,291.386h-141.731c-5.033,0-9.113-4.08-9.113-9.113l0,0c0-5.034,4.08-9.114,9.113-9.114
			h141.731c5.033,0,9.113,4.08,9.113,9.114l0,0C2664.525,287.306,2660.445,291.386,2655.412,291.386z"/>
		<path style="fill:#95A6DB;" d="M2655.412,319.764h-141.731c-5.033,0-9.113-4.08-9.113-9.114l0,0c0-5.033,4.08-9.114,9.113-9.114
			h141.731c5.033,0,9.113,4.081,9.113,9.114l0,0C2664.525,315.684,2660.445,319.764,2655.412,319.764z"/>
		<path style="fill:#95A6DB;" d="M2655.412,404.658h-141.731c-5.033,0-9.113-4.08-9.113-9.113l0,0c0-5.033,4.08-9.115,9.113-9.115
			h141.731c5.033,0,9.113,4.081,9.113,9.115l0,0C2664.525,400.578,2660.445,404.658,2655.412,404.658z"/>
		<path style="fill:#95A6DB;" d="M2623.371,433.036h-110.687c-4.483,0-8.117-3.634-8.117-8.119v-1.991
			c0-4.483,3.634-8.118,8.117-8.118h110.687c4.483,0,8.117,3.635,8.117,8.118v1.991
			C2631.488,429.402,2627.854,433.036,2623.371,433.036z"/>
		<path style="fill:#95A6DB;" d="M2069.925,266.41h-141.731c-5.034,0-9.113-4.082-9.113-9.114l0,0c0-5.034,4.079-9.114,9.113-9.114
			h141.731c5.033,0,9.113,4.08,9.113,9.114l0,0C2079.038,262.329,2074.958,266.41,2069.925,266.41z"/>
		<path style="fill:#95A6DB;" d="M2037.884,294.788h-110.684c-4.485,0-8.119-3.636-8.119-8.119v-1.991
			c0-4.484,3.634-8.119,8.119-8.119h110.684c4.483,0,8.117,3.635,8.117,8.119v1.991
			C2046.001,291.152,2042.367,294.788,2037.884,294.788z"/>
	</g>
	<g>
		
			<ellipse transform="matrix(0.7071 -0.7071 0.7071 0.7071 -110.2338 283.9504)" style="fill:#95A6DB;" cx="287.642" cy="275.039" rx="165.347" ry="165.347"/>
		<path style="fill:#B8C9FF;" d="M306.69,275.039c0,10.52-8.528,19.049-19.049,19.049c-10.52,0-19.049-8.529-19.049-19.049
			c0-10.521,8.529-19.049,19.049-19.049C298.162,255.99,306.69,264.519,306.69,275.039z"/>
		<path style="fill:#B8C9FF;" d="M285.496,273.822L285.496,273.822c-5.313,0-9.621-4.307-9.621-9.62V154.334
			c0-5.313,4.308-9.62,9.621-9.62l0,0c5.313,0,9.62,4.308,9.62,9.62v109.869C295.116,269.516,290.809,273.822,285.496,273.822z"/>
		<path style="fill:#B8C9FF;" d="M278.53,268.787l0.883-1.209c2.889-3.957,8.44-4.824,12.397-1.935l73.132,53.382
			c3.958,2.888,4.824,8.438,1.936,12.396l-0.882,1.208c-2.89,3.958-8.44,4.825-12.398,1.936l-73.131-53.381
			C276.509,278.294,275.642,272.744,278.53,268.787z"/>
	</g>
	<g>
		<path d="M1438.759,1407.807c0,0,19.254,38.96,10.093,51.856c-9.162,12.896-28.195,5.048-60.446,15.802
			c-32.25,10.754-82.534,9.752-80.136-27.195c7.723-15.94,39.7-24.516,52.647-27.366c12.946-2.849,35.217-15.712,35.217-15.712
			L1438.759,1407.807z"/>
		<path d="M1508.834,1407.807c0,0-19.254,38.96-10.093,51.856c9.162,12.896,28.195,5.048,60.445,15.802
			c32.251,10.754,82.535,9.752,80.137-27.195c-7.723-15.94-39.7-24.516-52.648-27.366c-12.946-2.849-35.217-15.712-35.217-15.712
			L1508.834,1407.807z"/>
		<path style="fill:#201D40;" d="M1568.276,859.555c-63.599,7.725-127.996,7.968-193.229,0.426l-14.767,318.685
			c0,0,8.25,157.379,19.381,231.356l70.008-0.154c-4.575-86.03,8.714-231.419,8.714-231.419l13.956-181.788l14.029,181.727
			c0,0,13.784,145.329,9.589,231.38l72.955-0.16c10.805-74.027,15.413-231.433,15.413-231.433L1568.276,859.555z"/>
		<path style="fill:#201D40;" d="M1588.778,556.75c0,0,69.294,33.901,131.082,57.881l2.015,71.94
			c-50.37-1.342-149.012-31.022-149.012-31.022L1588.778,556.75z"/>
		<polygon style="fill:#95A6DB;" points="1506.533,537.354 1419.402,541.223 1410.616,626.475 1420.111,869.751 1511.997,868.604 
			1536.013,596.27 		"/>
		<path style="fill:#2C2858;" d="M1408.909,424.835c11.604-13.336,20.758-0.397,37.302-16.91
			c16.543-16.513,29.825-28.397,43.989-10.974c14.165,17.422,21.457,19.868,31.764,18.871c10.307-0.997,10.249,41.398,10.249,41.398
			s40.563-10.142,35.122-39.747c-6.031-32.821-20.959-23.428-29.31-50.017c-8.351-26.59-40.593-41.593-55.348-35.208
			c-15.556,6.732-23.72,14.135-46.374,8.633c-22.653-5.503-42.168,1.164-42.13,30.536c0.039,29.372-34.502,20.608-23.446,57.286
			c4.289,14.227,16.311,27.322,21.893,26.18C1400.098,453.354,1401.429,433.432,1408.909,424.835z"/>
		<rect x="1425.02" y="858.514" style="fill:#494C7F;" width="85.566" height="25.52"/>
		<polygon style="fill:#DE623C;" points="1437.121,571.18 1463.747,583.95 1495.542,571.18 1499.438,515.143 1433.225,515.143 		"/>
		<path style="fill:#201D40;" d="M1222.886,656.72c0,0-7.256,40.009-4.045,159.295h56.77l8.042-115.947l90.256-58.437
			l-34.797-84.504C1339.111,557.128,1236.958,636.679,1222.886,656.72z"/>
		<g>
			<path style="fill:#2C2858;" d="M1339.111,557.128l1.578,380.978c29.665,24.35,87.809,31.002,87.809,31.002l-10.571-422.198
				L1339.111,557.128z"/>
			<path style="fill:#2C2858;" d="M1591.465,557.128l-1.579,380.978c-29.664,24.35-87.809,31.002-87.809,31.002l10.571-422.198
				L1591.465,557.128z"/>
		</g>
		<polygon style="fill:#494C7F;" points="1375.339,597.021 1425.419,813.093 1417.817,543.091 		"/>
		<polygon style="fill:#494C7F;" points="1557.873,582.058 1506.533,815.566 1512.648,546.909 		"/>
		<path style="fill:#F37A50;" d="M1466.332,368.703c-85.453-2.013-65.946,113.095-59.708,131.181
			c3.399,9.86,25.078,47.687,59.942,48.222c34.863-0.535,56.073-38.361,59.475-48.222
			C1532.278,481.798,1554.742,370.05,1466.332,368.703z"/>
		<g>
			<path style="fill:#2C2858;" d="M1484.769,442.037c-1.079,0-2.159-0.399-3.001-1.203c-1.737-1.658-1.802-4.409-0.143-6.146
				c0.499-0.523,12.428-12.778,30.518-10.381c2.38,0.315,4.054,2.501,3.738,4.881c-0.314,2.381-2.498,4.055-4.881,3.739
				c-13.756-1.823-22.994,7.667-23.085,7.764C1487.059,441.586,1485.915,442.037,1484.769,442.037z"/>
		</g>
		<g>
			<path style="fill:#2C2858;" d="M1448.335,442.037c1.078,0,2.158-0.399,3-1.203c1.737-1.658,1.802-4.409,0.144-6.146
				c-0.498-0.523-12.429-12.778-30.518-10.381c-2.38,0.315-4.054,2.501-3.738,4.881c0.314,2.381,2.498,4.055,4.881,3.739
				c13.756-1.823,22.993,7.667,23.085,7.764C1446.043,441.586,1447.188,442.037,1448.335,442.037z"/>
		</g>
		<path d="M1503.929,449.006c0,3.848-3.12,6.968-6.969,6.968c-3.849,0-6.968-3.12-6.968-6.968c0-3.849,3.119-6.969,6.968-6.969
			C1500.808,442.037,1503.929,445.157,1503.929,449.006z"/>
		<path d="M1444.16,449.006c0,3.848-3.119,6.968-6.968,6.968c-3.849,0-6.969-3.12-6.969-6.968c0-3.849,3.12-6.969,6.969-6.969
			C1441.041,442.037,1444.16,445.157,1444.16,449.006z"/>
		<path d="M1487.453,511.881c0,1.111-0.153,1.98-0.443,2.656c-2.048,4.812-11.063-0.676-21.109-0.676
			c-10.512,0-18.502,6.01-19.729-0.067c-0.116-0.541-0.174-1.169-0.174-1.913c0-9.11,9.274-16.482,20.723-16.482
			C1478.17,495.399,1487.453,502.771,1487.453,511.881z"/>
		<path style="fill:#DE623C;" d="M1470.299,456.766c5.604,8.9,12.705,19.759,12.705,19.759s-3.233,9.417-15.642,9.591
			c5.246-2.189,10.428-5.741,8.264-12.735C1473.462,466.386,1470.299,456.766,1470.299,456.766z"/>
		<path style="fill:#F37A50;" d="M1416.646,457.882c5.271,10.342,2.2,22.472-6.861,27.09c-9.061,4.619-20.681-0.021-25.953-10.363
			c-5.272-10.343-2.2-22.472,6.861-27.09C1399.754,442.9,1411.373,447.54,1416.646,457.882z"/>
		<path style="fill:#F37A50;" d="M1519.606,457.882c-5.273,10.342-2.2,22.472,6.86,27.09c9.062,4.619,20.682-0.021,25.953-10.363
			c5.272-10.343,2.2-22.472-6.861-27.09C1536.498,442.9,1524.878,447.54,1519.606,457.882z"/>
		<path style="fill:#2C2858;" d="M1400.309,446.319c1.809-19.704,8.139-46.618,28.189-40.322
			c20.051,6.296,54.047,11.362,46.685-4.795c-7.362-16.157,13.988-10.427,18.599,0c4.61,10.427,45.815,27.363,44.486,9.591
			c-1.329-17.772-27.913-57.168-77.757-53.42C1410.667,361.121,1388.622,419.868,1400.309,446.319z"/>
		<path style="fill:#DE623C;" d="M1456.433,522.455l5.872,1.399c1.811,0.411,3.518,0.696,5.163,0.801
			c1.655,0.137,3.232-0.027,4.921-0.393c1.742-0.292,3.419-1.096,5.58-1.808c-0.683,2.078-2.018,4.048-4.022,5.272
			c-1.939,1.276-4.419,1.955-6.765,1.749c-2.354-0.153-4.561-0.957-6.41-2.161C1458.941,526.087,1457.354,524.516,1456.433,522.455z
			"/>
		<path style="fill:#AA2B2B;" d="M1487.01,514.537c-2.048,4.812-11.063-0.676-21.109-0.676c-10.512,0-18.502,6.01-19.729-0.067
			c3.497-4.387,11.197-7.43,20.144-7.43C1475.745,506.364,1483.802,509.755,1487.01,514.537z"/>
		<g>
			<polygon style="fill:#2C2858;" points="1471.937,605.2 1487.216,810.413 1464.3,837.463 1441.385,810.413 1457.011,605.729 			
				"/>
			<polygon style="fill:#2C2858;" points="1480.315,583.149 1465.074,579.147 1449.49,583.835 1456.997,606.111 1471.985,605.848 
							"/>
			<path style="fill:#FFFFFF;" d="M1464.3,579.188c0,0-10.092,14.782-28.01,23.153l-30.046-45.601l13.158-15.517L1464.3,579.188z"/>
			<path style="fill:#FFFFFF;" d="M1464.3,579.188c0,0,14.609,17.042,28.805,22.156l27.209-49.229l-12.815-14.76L1464.3,579.188z"/>
		</g>
		<path style="fill:#F37A50;" d="M1922.814,588.155c-11.336,4.582-21.948,11.586-36.113,3.728c0,0-29.397,25.728-55.643,44.111
			c0,0,9.889-53.47,9.917-53.485c11.445-6.305,31.702-19.987,41.397-30.068c2.518-2.617,4.905-5.374,7.402-8.032
			c5.942-6.602,11.416-14.138,23.017-16.428c44.824-8.852,51.144-22.574,54.457-21.562c4.434,2.385,4.631,15.979-14.94,23.474
			c-18.938,7.254-25.545,14.263-25.545,14.263s11.888,10.46,10.991,18.165C1937.35,565.819,1936.066,582.8,1922.814,588.155z"/>
		<path style="fill:#201D40;" d="M1883.059,607.915l-30.773-39.848l-134.338,47.236l3.927,71.269
			C1752.67,685.337,1837.627,651.945,1883.059,607.915z"/>
		<g>
			<path style="fill:#E62552;" d="M1374.831,953.187h-172.22c-4.386,0-7.94-3.555-7.94-7.941v-97.32c0-4.386,3.555-7.941,7.94-7.941
				h172.22c4.386,0,7.94,3.556,7.94,7.941v97.32C1382.771,949.631,1379.217,953.187,1374.831,953.187z"/>
			<path style="fill:#AB1C41;" d="M1375.006,856.907c0,5.53-4.482,10.012-10.013,10.012c-5.528,0-10.011-4.482-10.011-10.012
				c0-5.53,4.482-10.012,10.011-10.012C1370.523,846.895,1375.006,851.377,1375.006,856.907z"/>
			<path style="fill:#AB1C41;" d="M1361.993,875.379c1.682-2.193,4.824-2.608,7.019-0.926c2.194,1.682,2.608,4.824,0.926,7.018
				c-1.682,2.195-4.824,2.609-7.019,0.927C1360.725,880.716,1360.311,877.574,1361.993,875.379z"/>
		</g>
		<g id="c_23_">
			<path style="fill:#F37A50;" d="M1260.918,815.566l0.933,12.98c0,0,17.349-0.518,17.954,11.334l-16.291,0.505
				c0,0-9.914,12.806,4.297,37.792c5.667,24.479-12.273,14.124-13.504,22.256c-1.815,12.001-30.932-6.229-34.695-30.683
				c-4.869-31.642,7.013-37.787,7.013-37.787l4.756-15.949L1260.918,815.566z"/>
		</g>
		<polygon style="fill:#C4204A;" points="1620.252,443.839 1700.022,398.376 1676.995,371.138 1735.204,310.894 1688.823,278.876 
			1643.626,374.839 1673.071,396.127 1616.506,438.099 		"/>
		<polygon style="fill:#C4204A;" points="1646.625,475.714 1753.281,495.349 1753.205,453.221 1851.63,443.096 1834.099,378.88 
			1720.247,431.171 1730.645,472.808 1647.608,467.678 		"/>
		<polygon style="fill:#C4204A;" points="1285.364,492.549 1188.857,462.581 1207.229,427.708 1130.445,376.651 1172.818,331.046 
			1243.999,423.727 1217.325,453.716 1288.045,485.463 		"/>
		<polygon style="fill:#C4204A;" points="1327.383,373.816 1277.702,336.68 1295.485,320.275 1261.542,274.985 1295.411,257.296 
			1317.573,325.516 1295.989,337.393 1330.387,370.268 		"/>
		<polygon style="fill:#C4204A;" points="1253.753,560.755 1197.922,587.778 1191.539,564.441 1135.71,573.74 1135.588,535.529 
			1206.355,547.241 1206.969,571.869 1251.984,556.455 		"/>
	</g>
	<g>
		<path style="fill:#4364CC;" d="M1000.41,1604.137l42.041,134.047c1.122,3.576,2.991,5.719,4.991,5.719l0,0
			c3.707,0,6.536-7.153,5.955-15.057l-9.153-124.708H1000.41z"/>
		<path style="fill:#4364CC;" d="M612.672,1604.137l-42.04,134.047c-1.122,3.576-2.992,5.719-4.992,5.719l0,0
			c-3.706,0-6.535-7.153-5.954-15.057l9.152-124.708H612.672z"/>
		<path style="fill:#4364CC;" d="M412.698,1604.137l-42.041,134.047c-1.122,3.576-2.991,5.719-4.991,5.719l0,0
			c-3.707,0-6.535-7.153-5.955-15.057l9.153-124.708H412.698z"/>
		<path style="fill:#768FDB;" d="M653.628,1609.067h380.942c24.068,0,43.58-19.512,43.58-43.581v-245.65
			c0-18.715-15.172-33.887-33.887-33.887H653.628V1609.067z"/>
		<path style="fill:#4364CC;" d="M559.608,1609.067h380.942c24.069,0,43.581-19.512,43.581-43.581v-245.65
			c0-18.715-15.172-33.887-33.887-33.887H559.608V1609.067z"/>
		<path style="fill:#768FDB;" d="M477.475,1367.668h313.022v-232.066c0-17.383-14.091-31.473-31.473-31.473H477.475V1367.668z"/>
		<path style="fill:#95ADF5;" d="M443.78,1362.137h501.448c21.944,0,39.734,17.789,39.734,39.733v52.724H443.78V1362.137z"/>
		<rect x="443.78" y="1443.851" style="fill:#768FDB;" width="541.183" height="165.453"/>
		<path style="fill:#4364CC;" d="M368.598,1367.668h108.878v-263.539h-76.353c-17.963,0-32.524,14.561-32.524,32.524V1367.668z"/>
	</g>
	<path style="fill:#201D40;" d="M699.215,815.451c0,28.915-23.441,52.356-52.357,52.356c-28.916,0-52.357-23.44-52.357-52.356
		c0-28.917,23.441-52.358,52.357-52.358C675.773,763.093,699.215,786.534,699.215,815.451z"/>
	<path style="fill:#2C2858;" d="M780.182,962.952c24.671-23.893,50.584-124.139-17.933-154.438
		c-64.84-28.672-146.651,11.411-149.773,80.26c-3.123,68.847,49.474,102.261,49.474,102.261L780.182,962.952z"/>
	<path style="fill:#F37A50;" d="M1079.427,1563.723l20.661,28.9c0,0,18.454,23.52,40.453,12.477
		c21.999-11.043,12.247-46.375,12.247-46.375l-25.274-33.277L1079.427,1563.723z"/>
	<g>
		<g>
			<g>
				<path style="fill:#2C2858;" d="M1151.926,1554.896c0,0,22.216-0.209,46.347-8.432c13.501-4.599,48.793-17.982,56.717,6.164
					c1.182,3.605,0.631,8.652-5.993,16.326c-9.782,11.336-24.716,23.813-59.737,34.662c-42.014,13.015-45.402,20.454-61.45,24.422
					c-16.632,4.111-22.137-19.088-28.567-37.939l0,0c2.934,3.979,11.678,13.775,42.927,8.063
					C1151.498,1596.457,1124.872,1567.135,1151.926,1554.896z"/>
			</g>
		</g>
	</g>
	<path style="fill:#F37A50;" d="M904.438,1663.081v19.601c0,0,1.333,29.867,25.651,33.679c24.318,3.81,36.936-30.603,36.936-30.603
		l-0.893-30.874L904.438,1663.081z"/>
	<g>
		<path style="fill:#C4204A;" d="M811.268,1174.865c-11.861-0.104-36.165,43.39-34.102,46.99
			c28.757,31.895,141.084,35.171,141.084,35.171l13.494-13.841C931.744,1243.186,864.991,1212.564,811.268,1174.865z"/>
		<path style="fill:#C4204A;" d="M704.752,1075.223c10.921,32.853,60.563,142.6,72.414,146.633l34.102-46.99
			c0,0-51.633-115.233-60.541-132.41C735.368,1012.674,686.818,1021.621,704.752,1075.223z"/>
	</g>
	<path style="fill:#F37A50;" d="M707.814,967.426c0,0,4.734,42.422,6.706,58.02l-55.389,14.104
		c-7.127-47.584-7.667-107.331-7.667-107.331L707.814,967.426z"/>
	<g>
		<path style="fill:#F37A50;" d="M649.634,905.606c-2.734,50.946,27.486,93.987,67.5,96.134c40.014,2.146,74.667-37.413,77.4-88.359
			c2.734-50.947-27.487-93.987-67.5-96.135C687.021,815.098,652.367,854.66,649.634,905.606z"/>
		<path d="M773.318,920.677c0.664,3.792,4.275,6.326,8.066,5.661c3.791-0.664,6.325-4.275,5.661-8.066
			c-0.664-3.791-4.276-6.326-8.067-5.662C775.188,913.274,772.653,916.886,773.318,920.677z"/>
		<path d="M717.004,918.042c0.719,4.104,4.629,6.846,8.732,6.128c4.103-0.719,6.847-4.629,6.128-8.733
			c-0.719-4.103-4.629-6.847-8.732-6.127C719.028,910.027,716.284,913.939,717.004,918.042z"/>
		<g>
			<path style="fill:#2C2858;" d="M710.786,909.68c0.566-0.099,1.105-0.384,1.514-0.849c5.944-6.744,16.189-5.358,16.293-5.346
				c1.431,0.206,2.763-0.783,2.973-2.214c0.209-1.431-0.775-2.761-2.205-2.973c-0.533-0.081-13.139-1.848-20.996,7.064
				c-0.958,1.086-0.854,2.744,0.232,3.702C709.22,909.612,710.028,909.812,710.786,909.68z"/>
		</g>
		<g>
			<path style="fill:#2C2858;" d="M790.763,915.321c0.277-0.048,0.551-0.143,0.812-0.288c1.269-0.698,1.732-2.292,1.034-3.562
				c-5.421-9.857-15.809-9.521-16.248-9.502c-1.444,0.063-2.57,1.288-2.507,2.735c0.063,1.444,1.28,2.564,2.723,2.508
				c0.341-0.011,7.623-0.146,11.435,6.788C788.566,915.01,789.688,915.509,790.763,915.321z"/>
		</g>
		<path style="fill:#DE623C;" d="M764.708,933.928c2.546,4.858,4.607,9.699,7.452,12.944c0.958,1.093,0.87,2.776-0.176,3.787
			c-4.315,4.173-13.794,5.85-19.493,6.499c-0.832,0.094-1.151-1.054-0.39-1.404c6.438-2.963,9.611-5.609,11.07-7.149
			c0.726-0.764,1.027-1.825,0.84-2.862c-0.433-2.38-1.266-7.22-1.64-11.131C762.244,933.26,764.079,932.728,764.708,933.928z"/>
		<g>
			<path style="fill:#DE623C;" d="M736.245,969.434c-18.366-4.73-28.975,4.702-29.526,5.208c-1.179,1.083-1.257,2.914-0.175,4.093
				c1.079,1.173,2.902,1.255,4.081,0.184c0.598-0.535,14.331-12.381,38.438,2.413c1.363,0.837,3.146,0.409,3.983-0.955
				c0.836-1.362,0.41-3.147-0.954-3.982C746.313,972.849,741.017,970.665,736.245,969.434z"/>
		</g>
		<path style="fill:#2C2858;" d="M643.959,905.441c46.362,7.268,128.242-23.952,140.282-45.746
			c-0.31-30.567-42.083-58.287-71.883-53.018C682.558,811.948,635.535,864.59,643.959,905.441z"/>
		<g>
			<path style="fill:#F37A50;" d="M667.519,902.161c6.981,9.758,6.167,22.299-1.819,28.01c-7.984,5.712-20.117,2.434-27.098-7.324
				c-6.98-9.757-6.166-22.298,1.819-28.012C648.407,889.125,660.539,892.403,667.519,902.161z"/>
			<g>
				<path style="fill:#DE623C;" d="M655.202,924.707c0.388-0.067,0.768-0.225,1.106-0.475c4.862-3.604,6.737-8.716,5.015-13.679
					c-1.764-5.08-6.777-8.654-11.923-8.497c-1.448,0.045-2.586,1.253-2.542,2.701c0.045,1.448,1.254,2.586,2.702,2.542
					c2.819-0.085,5.809,2.1,6.807,4.974c0.958,2.763-0.171,5.513-3.182,7.743c-1.164,0.862-1.409,2.504-0.546,3.669
					C653.251,924.511,654.255,924.874,655.202,924.707z"/>
			</g>
		</g>
	</g>
	<path style="fill:#3F964F;" d="M728.715,1380.977l236.001-10.082c0,0,11.643-58.902,2.885-82.257
		c-8.758-23.351-225.592-18.537-225.592-18.537L728.715,1380.977z"/>
	<path style="fill:#0E6A41;" d="M659.305,1229.737c-6.395,14.779-31.318,58.766-28.911,94.423
		c2.483,36.803,28.451,68.844,72.396,68.146c0,0,82.831-47.086,64.902-143.533C767.692,1248.774,724.329,1231.837,659.305,1229.737z
		"/>
	<path style="fill:#0E6A41;" d="M696.242,1400.707l207.885,19.609c0,0,71.311-30.092,70.904-55.648
		c-0.406-25.557-209.868-95.488-209.868-95.488C642.314,1233.354,601.361,1385.828,696.242,1400.707z"/>
	<path style="fill:#0E6A41;" d="M975.031,1364.668l-4.167,293.229c0,0-51.894,21.872-70.081,0.17
		c-8.583-99.523-49.45-187.688-3.826-248.357C958.063,1328.449,975.031,1364.668,975.031,1364.668z"/>
	<path style="fill:#3F964F;" d="M967.101,1287.952l172.994,237.573c0,0-38.611,51.604-65.572,45.563
		c-46.514-58.858-140.639-127.874-141.239-201.944C932.479,1269.938,967.101,1287.952,967.101,1287.952z"/>
	<path style="fill:#E62552;" d="M656.718,1020.932l58.229-0.646c26.717,31.071,53.845,57.766,58.64,78.987
		c6.313,27.94,5.138,178.869,5.138,178.869c-48.986,17.932-103.731,1.957-139.419-11.301c8.954-74.279-50.701-157.77-15.992-214.293
		C631.975,1038.443,643.515,1031.732,656.718,1020.932z"/>
	<g>
		<g>
			<g>
				<path style="fill:#2C2858;" d="M968.55,1682.141c0,0,18.193,12.751,42.605,20.098c13.658,4.109,50.15,13.748,42.553,38
					c-1.134,3.619-4.519,7.404-14.37,9.795c-14.551,3.533-33.956,4.996-68.755-6.546c-41.746-13.848-48.829-9.765-64.191-15.871
					c-15.922-6.329-6.905-28.402-1.174-47.479l0,0c0.073,4.942,1.487,17.998,30.23,31.524
					C944.031,1715.699,939.425,1676.362,968.55,1682.141z"/>
			</g>
		</g>
	</g>
	<g>
		<path style="fill:#2C2858;" d="M771.957,1290.5h188.595l37.227-118.364c1.72-5.467-2.363-11.031-8.093-11.031H818.879
			c-3.705,0-6.982,2.405-8.094,5.938L771.957,1290.5z"/>
		<path style="fill:#494C7F;" d="M786.263,1290.5H966.76c4.819,0,9.081-3.129,10.527-7.725l34.798-110.64
			c1.719-5.467-2.364-11.031-8.095-11.031H833.185c-3.706,0-6.982,2.405-8.094,5.938L786.263,1290.5z"/>
		<path style="fill:#555994;" d="M897.293,1228.135c-2.077,7.312,1.621,14.768,8.261,16.653c6.639,1.887,13.705-2.512,15.783-9.823
			c2.077-7.311-1.621-14.768-8.261-16.654C906.437,1216.424,899.37,1220.822,897.293,1228.135z"/>
		<path style="fill:#2C2858;" d="M683.614,1272.971h102.648v17.232H671.23v-4.849
			C671.23,1278.516,676.774,1272.971,683.614,1272.971z"/>
	</g>
	<path style="fill:#F37A50;" d="M764.297,1281.621c-13.501-0.115-31.238,2.454-30.82-4.541c0.419-6.994,7.373-9.564,8.216-17.969
		c0.746-7.451-24.292-5.538-40.124,19.068l-4.663-2.578l-13.393,22.793l8.471,3.137c14.315,17.211,57.471,26.018,82.842,12.585
		C800.514,1300.515,777.799,1281.736,764.297,1281.621z"/>
	<path style="fill:#C4204A;" d="M602.842,1061.166c-16.635,36.574-77.906,119.627-64.542,165.584
		c9.357,32.178,147.965,79.266,147.965,79.266l13.169-33.563l-96.316-71.669c0,0,56.213-109.614,62.054-130.348
		C675.386,1034.184,629,1003.654,602.842,1061.166z"/>
	<path style="fill:#E62552;" d="M653.062,999.898l1.343,22.9h60.543v-18.3C714.947,1004.498,674.427,1002.85,653.062,999.898z"/>
	<path style="fill:#768FDB;" d="M462.615,1609.067h228.816c24.069,0,43.581-19.512,43.581-43.581v-245.651
		c0-18.714-15.172-33.886-33.887-33.886H462.615V1609.067z"/>
	<path style="fill:#4364CC;" d="M368.598,1609.067h228.815c24.069,0,43.58-19.512,43.58-43.581v-245.65
		c0-18.715-15.171-33.887-33.887-33.887H368.598V1609.067z"/>
	<g>
		<g>
			<path style="fill:#201D40;" d="M2447.988,842.813c-29.752,10.159-126.977,184.926-126.977,184.926l74.925,4.919l80.248-81.325
				L2447.988,842.813z"/>
			<path d="M2548.159,1707.441c-27.717,36.968-95.781,14.283-93.528,64.286c103.506-0.643,146.522,0,146.522,0
				c-0.136-11.484-2.182-38.744-4.568-49.416L2548.159,1707.441z"/>
			<path d="M2703.022,1708.408c-27.717,36.97-95.781,14.285-93.527,64.287c103.505-0.642,146.522,0,146.522,0
				c-0.136-11.484-2.183-38.743-4.569-49.414L2703.022,1708.408z"/>
			<path style="fill:#201D40;" d="M2488.634,1141.488c0,0-16.615,238.172-9.788,290.852c6.827,52.678,42.421,120.539,39.682,294.782
				c33.741,8.169,82.626,0,82.626,0s7.248-197.022-28.421-285.024c14.504-85.48,61.047-281.266,61.047-281.266L2488.634,1141.488z"
				/>
			<path style="fill:#2C2858;" d="M2591.286,1149.83c0,0,1.542,262.947,18.154,313.402c16.61,50.457,48.893,86.451,78.966,258.102
				c34.675,1.678,84.605,2.393,84.605,2.393s-17.758-220.611-71.763-270.127c-1.828-86.685,20.45-305.432,20.45-305.432
				L2591.286,1149.83z"/>
			<polygon style="fill:#95A6DB;" points="2507.989,806.861 2552.805,792.097 2599.938,794.304 2561.787,857.107 			"/>
			<path style="fill:#F37A50;" d="M2524.027,836.128c22.171,11.048,49.988,8.184,69.553-9.683l-8.966-70.76l-65.706,9.697
				L2524.027,836.128z"/>
			<path style="fill:#95A6DB;" d="M2617.315,816.148L2617.315,816.148l-14.802-2.262l-2.575-19.583l-30.719,38.857l-10.243,4.125
				l-10.976-1.228l-40.011-29.196l2.771,19.557l-11.425,5.145l0,0l-41.581,16.886l49.765,240.861l1.537,80.029
				c61.668,5.932,126.941,1.432,187.946-21.682l-20.869-81.378l-8.91-244.497L2617.315,816.148z"/>
			<polygon style="fill:#E62552;" points="2550.855,863.722 2558.151,1053.365 2577.188,1071.521 2594.046,1052.702 
				2565.362,862.589 			"/>
			<polygon style="fill:#E62552;" points="2536.931,841.961 2553.752,836.332 2573.333,838.237 2565.419,862.958 2550.879,864.354 
							"/>
			<g>
				<path style="fill:#2C2858;" d="M2505.163,816.013l25.437,212.311l21.338,149.072c0,0-41.063,20.074-75.689-0.467
					l-28.832-334.051L2505.163,816.013z"/>
				<polygon style="fill:#494C7F;" points="2505.957,813.653 2532.704,1043.021 2478.955,868.753 				"/>
			</g>
			<g>
				<path style="fill:#2C2858;" d="M2601.445,796.261l31.233,377.952c0,0,78.963,4.863,108.219-19.58l-30.516-117.111
					l-45.888-241.783L2601.445,796.261z"/>
				<polygon style="fill:#494C7F;" points="2600.615,795.609 2620.492,1026.746 2640.194,840.822 				"/>
			</g>
			<g>
				<g>
					<path style="fill:#F37A50;" d="M2601.596,702.657c-5.054,49.246-40.505,85.952-79.183,81.983
						c-38.679-3.969-65.938-47.108-60.885-96.354c5.054-49.247,40.504-85.952,79.184-81.983
						C2579.39,610.271,2606.647,653.41,2601.596,702.657z"/>
					<path d="M2481.813,706.691c-3.704,1.578-7.986-0.145-9.564-3.849s0.145-7.985,3.849-9.564c3.704-1.578,7.985,0.145,9.563,3.85
						C2487.24,700.831,2485.518,705.113,2481.813,706.691z"/>
					<path d="M2537.189,699.875c-1.509,3.75-5.773,5.567-9.524,4.059c-3.749-1.509-5.567-5.773-4.058-9.523
						c1.509-3.75,5.773-5.567,9.523-4.058C2536.881,691.862,2538.698,696.126,2537.189,699.875z"/>
					<path style="fill:#DE623C;" d="M2498.336,697.143c-3.861,12.397-8.888,27.604-8.888,27.604s6.846,10.207,21.705,6.477
						c-6.954-0.947-14.263-3.539-13.9-12.571C2497.614,709.623,2498.336,697.143,2498.336,697.143z"/>
					<g>
						<path style="fill:#2C2858;" d="M2545.445,686.669c-1.319,0.768-3.038,0.564-4.138-0.587c-0.259-0.266-6.646-6.72-13.173-2.955
							c-1.614,0.93-3.678,0.376-4.608-1.238c-0.931-1.614-0.366-3.685,1.237-4.608c8.914-5.141,17.912,0.461,21.425,4.143
							c1.287,1.347,1.236,3.483-0.111,4.769C2545.881,686.38,2545.668,686.539,2545.445,686.669z"/>
					</g>
					<g>
						<path style="fill:#2C2858;" d="M2465.438,694.275c1.457,0.458,3.088-0.123,3.905-1.492c0.192-0.316,4.985-8.027,12.187-5.806
							c1.781,0.549,3.669-0.449,4.219-2.23c0.55-1.779-0.462-3.673-2.229-4.218c-9.832-3.032-17.363,4.427-19.971,8.796
							c-0.954,1.6-0.433,3.671,1.168,4.626C2464.95,694.09,2465.191,694.198,2465.438,694.275z"/>
					</g>
					<path style="fill:#2C2858;" d="M2594.4,705.453c-4.003-17.521-18.414-10.315-25.32-33.051
						c-6.905-22.736-13.109-39.758-34.162-30.939c-21.054,8.82-27.482,4.844-37.521,1.676
						c-30.184-9.526-35.315,40.646-35.315,40.646s-25.22-37.008-6.141-60.933c21.15-26.522,30.023-10.941,50.263-30.767
						c20.24-19.825,56.335-17.805,66.496-5.004c10.713,13.496,14.479,24.048,37.422,29.983
						c22.944,5.937,37.236,21.273,23.111,47.579c-14.124,26.307,21.037,35.022-6.467,62.591
						c-10.669,10.694-31.782,17.457-36.239,13.756C2584.56,736.034,2596.98,716.747,2594.4,705.453z"/>
					<path style="fill:#2C2858;" d="M2461.93,714.92c0,0,6.341,23.476,12.503,30.154c0.563-11.392,17.866-2.94,25.867-4.375
						c19.341-3.467,45.154-20.606,57.353,6.167c24.967-0.058,31.924-54.518,31.924-54.518c18.604,53.81-8.376,95.72-68.36,104.919
						C2481.697,803.328,2457.146,755.288,2461.93,714.92z"/>
					<g>
						<path style="fill:#F37A50;" d="M2585.497,694.244c-7.166,9.673-6.558,22.268,1.358,28.133
							c7.916,5.864,20.143,2.776,27.308-6.896c7.166-9.673,6.558-22.268-1.358-28.132
							C2604.889,681.484,2592.662,684.571,2585.497,694.244z"/>
						<g>
							<path style="fill:#DE623C;" d="M2597.479,717.07c-0.389-0.076-0.767-0.239-1.104-0.496
								c-4.818-3.696-6.612-8.857-4.803-13.806c1.854-5.068,6.944-8.57,12.104-8.327c1.453,0.069,2.573,1.301,2.505,2.753
								c-0.069,1.452-1.301,2.573-2.752,2.505c-2.828-0.133-5.863,2.009-6.913,4.877c-1.007,2.755,0.081,5.533,3.064,7.82
								c1.153,0.885,1.371,2.537,0.486,3.69C2599.441,716.904,2598.427,717.253,2597.479,717.07z"/>
						</g>
					</g>
					<g>
						<path style="fill:#DE623C;" d="M2510.136,749.195c-1.655-0.029-3.302,0.097-4.938,0.383
							c-12.076,2.102-18.996,12.076-19.286,12.498c-0.893,1.31-0.555,3.094,0.755,3.987c1.308,0.892,3.088,0.556,3.981-0.747l0,0
							c0.059-0.084,5.919-8.438,15.589-10.094c6.301-1.079,12.953,0.882,19.772,5.831c1.283,0.93,3.077,0.644,4.007-0.638
							c0.931-1.284,0.646-3.077-0.637-4.006C2522.923,751.723,2516.469,749.308,2510.136,749.195z"/>
					</g>
				</g>
			</g>
			<polygon style="fill:#FFFFFF;" points="2553.752,836.332 2590.382,862.203 2609.959,807.319 2599.938,794.304 			"/>
			<polygon style="fill:#FFFFFF;" points="2553.752,836.332 2531.212,866.391 2501.826,822.088 2507.989,806.861 			"/>
		</g>
		<g id="с">
			<path id="с_8_" style="fill:#768FDB;" d="M2087.63,1777.555h-4.496c-7.771,0-14.072-6.3-14.072-14.072v-271.587h32.641v271.587
				C2101.702,1771.255,2095.401,1777.555,2087.63,1777.555z"/>
			<path id="с_7_" style="fill:#768FDB;" d="M2202.149,1777.555h-4.496c-7.771,0-14.072-6.3-14.072-14.072v-271.587h32.641v271.587
				C2216.222,1771.255,2209.922,1777.555,2202.149,1777.555z"/>
			<path id="с_1_" style="fill:#768FDB;" d="M2366.489,1762.294c0,8.429-7.307,15.261-16.319,15.261l0,0
				c-9.014,0-16.32-6.832-16.32-15.261v-270.398h32.64V1762.294z"/>
			<path id="с_5_" style="fill:#768FDB;" d="M2466.938,1777.555h-4.496c-7.771,0-14.072-6.3-14.072-14.072v-271.587h32.641v271.587
				C2481.01,1771.255,2474.709,1777.555,2466.938,1777.555z"/>
			<path id="с_4_" style="fill:#95A6DB;" d="M2284.113,1062.754v344.102c0,3.917-3.175,7.09-7.09,7.09h-213.35
				c-21.525,0-38.976,17.449-38.976,38.976l0,0c0,21.524,17.45,38.975,38.976,38.975h220.439h38.976
				c21.525,0,38.975-17.45,38.975-38.975v-38.976v-351.191c0-21.527-17.449-38.975-38.975-38.975l0,0
				C2301.563,1023.779,2284.113,1041.227,2284.113,1062.754z"/>
			<rect id="с_3_" x="2323.089" y="1023.779" style="fill:#95A6DB;" width="168.682" height="396.486"/>
			<path id="с_2_" style="fill:#768FDB;" d="M2452.796,1062.754v344.102c0,3.917-3.174,7.09-7.09,7.09h-213.351
				c-21.525,0-38.975,17.449-38.975,38.976l0,0c0,21.524,17.449,38.975,38.975,38.975h220.44h38.975
				c21.525,0,38.975-17.45,38.975-38.975v-38.976v-351.191c0-21.527-17.449-38.975-38.975-38.975l0,0
				C2470.245,1023.779,2452.796,1041.227,2452.796,1062.754z"/>
		</g>
		<g id="c_8_">
			<path style="fill:#C4204A;" d="M2186.666,1009.246c-42.989,13.059-64.387,103.563-82.691,198.3
				c-24.729,32.461-51.253,50.29-90.018,88.566c26.268,5.948,54.066-1.021,54.066-1.021s71.416,0.611,102.398-66.91
				c7.09-15.453,9.508-46.547,13.525-60.367C2185.712,1124.492,2186.666,1009.246,2186.666,1009.246z"/>
			<path style="fill:#F37A50;" d="M1935.182,1730.888l-38.721,9.811l-15.816-34.491c1.646-1.215,4.184-24.143,5.737-41.592
				l62.501,8.619C1945.817,1690.844,1940.653,1713.871,1935.182,1730.888z"/>
			<g>
				<g>
					<path style="fill:#201D40;" d="M1866.85,1751.221c0,0-13.39-22.512-30.355-23.93c0,0-32.018,1.836-43.248,15.3
						c-3.526,4.229-2.171,13.251-0.775,19.029c0.87,3.608,3.928,7.525,13.392,10.501c13.976,4.396,32.827,7.092,67.557-1.912
						c41.661-10.799,48.31-6.352,63.707-11.313c15.96-5.141,10.829-24.647,6.478-43.646
						C1943.604,1715.25,1931.99,1738.5,1866.85,1751.221z"/>
				</g>
				<g>
					<g>
						<path style="fill:#2C2858;" d="M1879.597,1702.834c0,0-18.595,11.263-42.908,16.845
							c-13.603,3.122-49.863,10.155-44.023,34.331c0.871,3.606,3.929,7.521,13.392,10.498c13.977,4.397,32.828,7.092,67.557-1.91
							c41.662-10.801,48.312-6.353,63.708-11.313c15.959-5.144,8.595-27.282,4.241-46.279l0,0
							c-0.394,4.82-2.627,17.474-31.571,28.81C1901.349,1737.197,1908.409,1699.09,1879.597,1702.834z"/>
					</g>
				</g>
				<g>
					<path style="fill:#494C7F;" d="M1885.009,1731.96c-1.388-0.093-2.618-1.067-2.971-2.488
						c-2.942-11.825-15.162-12.659-15.679-12.694c-1.807-0.103-3.198-1.651-3.101-3.458c0.096-1.81,1.63-3.199,3.438-3.11
						c6.073,0.287,18.416,4.376,21.725,17.674c0.438,1.764-0.635,3.548-2.399,3.986
						C1885.683,1731.952,1885.341,1731.982,1885.009,1731.96z"/>
				</g>
				<g>
					<path style="fill:#494C7F;" d="M1869.738,1738.078c-1.386-0.092-2.617-1.064-2.97-2.488
						c-2.941-11.823-15.161-12.658-15.678-12.692c-1.808-0.104-3.199-1.651-3.103-3.46c0.097-1.809,1.63-3.197,3.438-3.109
						c6.073,0.287,18.417,4.377,21.725,17.675c0.44,1.763-0.634,3.548-2.397,3.985
						C1870.413,1738.074,1870.071,1738.102,1869.738,1738.078z"/>
				</g>
			</g>
			<path style="fill:#F37A50;" d="M2086.442,1745.473l-37.935,12.511l-18.204-33.293c1.557-1.329,7.006-25.545,7.329-43.062
				l58.419,5.369C2094.233,1704.779,2090.703,1728.112,2086.442,1745.473z"/>
			<path style="fill:#201D40;" d="M2149.405,1313.633c-86.489,15.798-209.328,71.822-221.445,84.566
				c-25.028,26.326-37.285,116.87-49.088,278.137l75.694,5.053c27.939-125.982,54.225-180.909,58.517-232.073
				c0,0,66.33,4.589,166.141-33.927c49.203-18.988,100.477-41.141,85.718-85.592
				C2253.184,1294.383,2231.874,1298.57,2149.405,1313.633z"/>
			<path style="fill:#2C2858;" d="M2246.142,1321.165c-71.858,7.426-167.705,89.651-179.822,102.394
				c-25.028,26.326-28.181,116.229-39.983,277.494l75.331,6.948c12.197-83.55,47.846-179.272,47.743-240.618
				c0,0,67.43-14.617,171.806-38.092c57.097-12.842,74.23-21.686,85.151-58.971c3.715-12.686,8.75-42.076,3.054-48.634
				C2384.21,1292.669,2314.16,1314.139,2246.142,1321.165z"/>
			<g>
				<g>
					<path style="fill:#201D40;" d="M2019.709,1770.563c0,0-14.939-21.515-31.964-21.734c0,0-31.808,4.082-42.063,18.303
						c-3.223,4.467-1.235,13.375,0.563,19.039c1.122,3.537,4.447,7.229,14.097,9.531c14.253,3.402,33.246,4.765,67.256-6.658
						c40.799-13.705,47.744-9.738,62.754-15.769c15.557-6.251,9.069-25.348,3.39-43.991
						C2093.742,1729.282,2083.794,1753.29,2019.709,1770.563z"/>
				</g>
				<g>
					<g>
						<path style="fill:#2C2858;" d="M2029.021,1721.399c0,0-17.755,12.544-41.617,19.822c-13.35,4.071-49.024,13.639-41.498,37.342
							c1.122,3.537,4.449,7.229,14.098,9.533c14.252,3.4,33.245,4.764,67.254-6.662c40.8-13.703,47.745-9.736,62.755-15.767
							c15.557-6.253,6.652-27.818,0.974-46.463l0,0c-0.053,4.837-1.389,17.616-29.466,30.958
							C2053.137,1754.146,2057.499,1715.637,2029.021,1721.399z"/>
					</g>
				</g>
				<g>
					<path style="fill:#494C7F;" d="M2042.828,1751.332c-1.387-0.092-2.617-1.067-2.97-2.488
						c-2.942-11.823-15.162-12.657-15.679-12.693c-1.808-0.104-3.198-1.65-3.101-3.459s1.63-3.199,3.437-3.109
						c6.074,0.287,18.418,4.375,21.726,17.674c0.438,1.764-0.635,3.548-2.398,3.985
						C2043.503,1751.326,2043.161,1751.354,2042.828,1751.332z"/>
				</g>
				<g>
					<path style="fill:#494C7F;" d="M2027.559,1757.452c-1.388-0.092-2.618-1.065-2.972-2.488
						c-2.94-11.823-15.16-12.658-15.679-12.694c-1.806-0.104-3.197-1.651-3.1-3.459c0.096-1.807,1.628-3.198,3.436-3.109
						c6.073,0.288,18.417,4.377,21.726,17.675c0.438,1.763-0.635,3.548-2.397,3.985
						C2028.232,1757.445,2027.892,1757.475,2027.559,1757.452z"/>
				</g>
			</g>
			<g>
				<polygon id="v-2_4_" style="fill:#F37A50;" points="2293.591,936.81 2293.559,936.81 2264.887,936.916 2258.395,1004.633 
					2291.863,1022.305 2327.552,1004.832 2321.784,936.916 				"/>
				<g>
					<g>
						<path style="fill:#2C2858;" d="M2296.322,927.432c25.23,7.087,43.82-23.638,43.82-23.638
							c16.155-0.132,15.959-16.23,15.959-16.23c7.83-1.119,19.042-7.579,18.074-22.338c-0.821-12.496-12.748-13.785-12.056-28.16
							c0.557-11.536,13.058-38.062-22.813-45.889c0,0,2.414-21.226-18.546-29.672c-25.694-10.355-34.8,4.635-46.938,5.679
							c-13.556,1.166-39.746-15.24-48.141,14.409c0,0-18.706-2.486-29.399,9.736c-9.962,11.387-7.813,28.271-3.378,35.05
							c0,0-15.741,2.749-21.393,16.371c-3.79,9.132-2.013,21.978,6.509,29.412c5.422,4.731,11.079,5.978,11.079,5.978
							c5.949,1.951,3.771,18.356,8.654,22.359c7.837,6.422,16.653,11.468,25.743,15.793L2296.322,927.432z"/>
						<path style="fill:#F37A50;" d="M2343.327,887.47c-1.65,47.464-38.842,88.376-76.121,87.079
							c-37.279-1.296-60.529-44.308-58.879-91.774s33.209-84.893,70.489-83.597C2316.095,800.474,2344.979,840.003,2343.327,887.47z
							"/>
						<path d="M2230.027,900.038c-0.929,3.461-4.485,5.514-7.946,4.586c-3.46-0.926-5.514-4.484-4.587-7.945
							c0.929-3.459,4.486-5.514,7.947-4.586C2228.901,893.021,2230.954,896.577,2230.027,900.038z"/>
						<path d="M2283.652,898.057c-1.004,3.747-4.854,5.97-8.601,4.964c-3.746-1.003-5.969-4.854-4.965-8.6s4.854-5.97,8.602-4.965
							C2282.434,890.459,2284.656,894.311,2283.652,898.057z"/>
						<path style="fill:#DE623C;" d="M2250.758,899.794c-5.908,9.479-13.396,21.043-13.396,21.043s3.479,9.986,16.657,10.108
							c-5.581-2.299-11.101-6.045-8.837-13.484C2247.445,910.023,2250.758,899.794,2250.758,899.794z"/>
						<g>
							<path style="fill:#2C2858;" d="M2290.36,888.987c0.234-0.084,0.462-0.199,0.679-0.34c1.496-0.98,1.915-2.986,0.934-4.483
								c-2.675-4.082-10.193-10.929-19.496-7.626c-1.688,0.627-2.565,2.449-1.967,4.133c0.598,1.685,2.448,2.565,4.133,1.967
								c6.889-2.445,11.867,5,11.915,5.076C2287.396,888.992,2288.983,889.483,2290.36,888.987z"/>
						</g>
						<g>
							<path style="fill:#2C2858;" d="M2228.263,885.67c0.437-0.156,0.837-0.429,1.156-0.81c0.952-1.145,0.798-2.846-0.347-3.799
								c-0.18-0.148-4.457-3.653-9.832-2.77c-3.672,0.604-6.824,3.013-9.368,7.162c-0.78,1.27-0.382,2.931,0.89,3.71
								c1.269,0.78,2.931,0.381,3.708-0.889c1.688-2.753,3.589-4.322,5.645-4.659c2.922-0.479,5.48,1.569,5.504,1.59
								C2226.382,885.84,2227.392,885.985,2228.263,885.67z"/>
						</g>
						<path style="fill:#2C2858;" d="M2196.59,835.422l79.752-52.317l82.604,59.1l-20.773,62.87
							c2.216-30.157-17.499-23.292-25.623-33.429c-8.236-10.277-10.321-24.705-34.665-15.898c0,0-16.372-15.325-28.413,0.987
							c-9.311,12.612-18.761,8.5-28.673,7.744c-11.697-0.894-10.634,10.76-17.646,9.332L2196.59,835.422z"/>
						<g>
							<path style="fill:#F37A50;" d="M2332.831,883.734c-7.307,8.447-7.626,20.142-0.713,26.121
								c6.912,5.98,18.439,3.98,25.746-4.468c7.305-8.446,7.625-20.14,0.712-26.12
								C2351.663,873.288,2340.138,875.287,2332.831,883.734z"/>
							<g>
								<path style="fill:#DE623C;" d="M2342.317,905.689c-0.354-0.096-0.692-0.274-0.984-0.537
									c-4.199-3.754-5.499-8.654-3.478-13.107c2.07-4.559,7.024-7.443,11.779-6.855c1.34,0.165,2.29,1.384,2.125,2.722
									c-0.164,1.338-1.384,2.289-2.723,2.125c-2.604-0.322-5.563,1.448-6.735,4.027c-1.123,2.478-0.313,5.124,2.287,7.448
									c1.005,0.9,1.091,2.444,0.192,3.449C2344.143,905.674,2343.182,905.924,2342.317,905.689z"/>
							</g>
						</g>
						<path style="fill:#FFFFFF;" d="M2241.756,952.549c-0.796,1.395,0.444,3.062,2.005,2.683c3.966-0.962,10.539-2.414,16.89-3.173
							c6.35-0.761,13.08-0.902,17.162-0.904c1.604,0,2.417-1.913,1.315-3.08c-3.392-3.587-10.142-8.842-19.873-7.677
							C2249.521,941.563,2244.204,948.262,2241.756,952.549z"/>
					</g>
				</g>
			</g>
			<g id="v_4_">
				<path id="v-25_3_" style="fill:#FFD0B7;" d="M2353.797,1021.542c-20.82-7.022-42.726-10.288-64.69-9.643
					c-74.394,0-85.784,18.794-85.784,18.358l55.209,151.604l30.575,15.089l33.463-9.915
					C2322.569,1187.035,2365.951,1026.063,2353.797,1021.542z"/>
				<path style="fill:#E62552;" d="M2409.407,1322.994c0,0-59.997,6.188-116.224,6.561c-56.226-0.412-116.224-11.32-116.224-11.32
					s7.557-103.256,6.786-142.909c-1.095-45.532,2.919-105.907,2.919-166.081c0,0,39.88-6.42,62.378-9.193
					c3.656-0.454,6.851-0.803,9.349-1.022c0,0,12.817,26.892,68.669,0c2.935-0.292,6.567-0.275,10.629-0.041
					c23.463,1.401,61.252,10.255,61.252,10.255c0,60.012,2.423,118.823,1.612,164.363
					C2403.051,1214.225,2409.407,1322.994,2409.407,1322.994z"/>
			</g>
			<g id="c_6_">
				<path style="fill:#F37A50;" d="M2261.487,1139.324l-13.613-7.887c0,0-3.767-19.307-25.627-19.772
					c2.504,8.101,6.109,19.772,6.109,19.772s-10.759,8.353-36.277-5.943c-24.942-5.604-14.289,12.583-22.556,13.889
					c-12.199,1.926,8.894,25.898,33.799,29.566c32.229,4.747,36.053-1.85,36.053-1.85l18.236,6.371L2261.487,1139.324z"/>
				<path id="c_7_" style="fill:#C4204A;" d="M2387.446,1159.951c-45.497-3.18-123.108-25.651-123.108-25.651
					c-12.42,19.05-8.985,44.354-8.985,44.354c70.654,61.944,176.99,81.97,209.615,67.06c29.786-13.611,8.759-194.933-66.028-236.467
					l-2.592,0.243C2370.709,1052.871,2387.446,1159.951,2387.446,1159.951z"/>
			</g>
			<path style="fill:#C4204A;" d="M2337.689,998.989v0.009c-3.884,6.485-9.382,11.391-17.133,15.292
				c-12.275,6.193-28.958,8.82-39.229,8.016c-8.133-0.64-17.152-3.957-22.933-8.538c-6.139-4.874-8.808-11.081-9.352-13.715
				c3.656-0.454,7.412-1.021,9.909-1.24c0,0,12.257,27.11,68.108,0.218C2329.995,998.737,2333.628,998.754,2337.689,998.989z"/>
		</g>
		<g>
			<path style="fill:#4661B3;" d="M2667.278,1329.555h-958.806c-11.534,0-20.884-9.349-20.884-20.884l0,0
				c0-11.533,9.35-20.884,20.884-20.884h958.806c11.533,0,20.883,9.351,20.883,20.884l0,0
				C2688.161,1320.206,2678.812,1329.555,2667.278,1329.555z"/>
			<path style="fill:#4661B3;" d="M1735.211,1777.555h-4.528c-8.805,0-15.943-7.138-15.943-15.943v-428.533
				c0-8.805,7.139-15.943,15.943-15.943h4.528c8.806,0,15.944,7.139,15.944,15.945v428.531
				C1751.155,1770.416,1744.017,1777.555,1735.211,1777.555z"/>
			<path style="fill:#4661B3;" d="M2647.344,1777.555h-4.526c-8.806,0-15.945-7.139-15.945-15.943V1333.08
				c0-8.807,7.14-15.945,15.945-15.945h4.526c8.807,0,15.945,7.139,15.945,15.945v428.529
				C2663.289,1770.416,2656.15,1777.555,2647.344,1777.555z"/>
		</g>
		<g>
			<path style="fill:#0E6A41;" d="M2153.604,1288.164h-240.491l-47.471-150.935c-2.192-6.972,3.014-14.065,10.321-14.065h217.807
				c4.725,0,8.903,3.066,10.321,7.573L2153.604,1288.164z"/>
			<path style="fill:#3F964F;" d="M2135.363,1288.164H1894.87l-47.47-150.935c-2.192-6.972,3.013-14.065,10.322-14.065h217.806
				c4.727,0,8.904,3.066,10.321,7.573L2135.363,1288.164z"/>
			<path style="fill:#55AB65;" d="M1993.779,1208.637c2.648,9.324-2.067,18.832-10.532,21.238
				c-8.469,2.405-17.478-3.203-20.128-12.527c-2.648-9.322,2.068-18.83,10.534-21.235
				C1982.12,1193.705,1991.131,1199.314,1993.779,1208.637z"/>
			<path style="fill:#0E6A41;" d="M2290.231,1272.405h-154.868v15.382h170.25l0,0
				C2305.613,1279.291,2298.727,1272.405,2290.231,1272.405z"/>
		</g>
		<g>
			<path style="fill:#95A6DB;" d="M1853.484,1287.787h-84.076v-94.799c0-4.967,4.026-8.993,8.993-8.993h66.09
				c4.967,0,8.993,4.026,8.993,8.993V1287.787z"/>
			<g>
				<path style="fill:#95A6DB;" d="M1775.771,1277.996h-18.937c-9.738,0-17.661-7.922-17.661-17.659v-34.134
					c0-9.738,7.923-17.66,17.661-17.66h15.651c4.331,0,7.842,3.511,7.842,7.842c0,4.33-3.511,7.841-7.842,7.841h-15.651
					c-1.091,0-1.979,0.888-1.979,1.978v34.134c0,1.091,0.889,1.979,1.979,1.979h18.937c4.329,0,7.84,3.511,7.84,7.841
					C1783.61,1274.487,1780.1,1277.996,1775.771,1277.996z"/>
			</g>
		</g>
		<g>
			<path style="fill:#F37A50;" d="M2455.438,1132.15c10.753-5.139,22.772-8.164,26.44-23.521c0,0,29.109-7.736,59.6-14.52
				c0,0-37.124-34.023-37.155-34.014c-12.064,4.084-34.334,19.127-47.964,19.469c-3.54,0.09-7.093-0.006-10.647,0.04
				c-8.659-0.071-17.681-1.091-26.961,5.747c-35.857,26.415-49.885,21.932-51.338,24.982c-1.202,4.758,8.446,13.844,26.715,4.699
				c17.677-8.851,27.064-8.99,27.064-8.99s-0.298,15.433,5.833,19.857C2429.811,1127.91,2442.867,1138.158,2455.438,1132.15z"/>
			<path style="fill:#201D40;" d="M2490.599,1058.833c0,0,95.164-45.892,167.503-60.746c-10-36.201,6.314-203.47,6.314-203.47
				s48.859,11.987,73.124,102.589c24.263,90.603-31.384,182.808-31.384,182.808s-150.031,41.697-203.686,26.441
				C2494.054,1104.062,2490.599,1058.833,2490.599,1058.833z"/>
		</g>
	</g>
</g>
</svg>
