<?xml version="1.0" encoding="utf-8"?>
<!-- Generator: Adobe Illustrator 27.5.0, SVG Export Plug-In . SVG Version: 6.00 Build 0)  -->
<svg version="1.1" id="Layer" xmlns="http://www.w3.org/2000/svg" xmlns:xlink="http://www.w3.org/1999/xlink" x="0px" y="0px"
	 viewBox="0 0 450 450" style="enable-background:new 0 0 450 450;" xml:space="preserve">
<g>
	<g>
		<g>
			<path style="fill:#4D4D4D;" d="M308.809,338.592h-5.242c-3.306-4.562-8.168-8.841-14.607-12.559
				c-26.349-15.213-68.935-15.29-95.119-0.172c-6.917,3.993-11.978,8.651-15.224,13.618l-4.328,0.38v6.281
				c0.018,9.965,6.639,19.949,19.849,27.575c26.348,15.213,68.935,15.289,95.119,0.172c13.145-7.589,19.652-17.565,19.545-27.543
				L308.809,338.592z"/>
			<path style="fill:#1A1A1A;" d="M308.807,343.574v2.776c0.101,9.977-6.407,19.953-19.549,27.542
				c-4.354,2.519-9.168,4.611-14.285,6.275v-36.594H308.807z"/>
			
				<ellipse transform="matrix(0.0054 -1 1 0.0054 -99.1308 579.0807)" style="fill:#D1E5FF;" cx="241.55" cy="339.375" rx="38.831" ry="67.261"/>
		</g>
		<g>
			<path style="fill:#D7DAE9;" d="M308.809,300.459h-5.242c-3.306-4.562-8.168-8.841-14.607-12.559
				c-26.349-15.212-68.935-15.289-95.119-0.172c-6.917,3.993-11.978,8.651-15.224,13.618l-4.328,0.379v37.849
				c0.018,9.965,6.639,19.948,19.849,27.576c26.348,15.212,68.935,15.289,95.119,0.172c13.145-7.589,19.652-17.565,19.545-27.542
				L308.809,300.459z"/>
			<path style="fill:#A2A8C1;" d="M308.807,300.456v39.323c0.101,9.977-6.407,19.953-19.549,27.543
				c-4.362,2.519-9.168,4.611-14.285,6.283V285.97h10.389c1.229,0.606,2.434,1.252,3.6,1.928
				c6.439,3.717,11.299,8.002,14.603,12.558H308.807z"/>
			<path style="fill:#EFF0F5;" d="M289.258,328.786c-26.184,15.118-68.771,15.041-95.119-0.172
				c-26.349-15.213-26.482-39.8-0.298-54.917c26.184-15.117,68.771-15.04,95.119,0.172
				C315.309,289.081,315.442,313.668,289.258,328.786z"/>
			<path style="fill:#D7DAE9;" d="M290.363,328.131h-43.639v-49.269h49.556C314.756,293.808,312.804,314.554,290.363,328.131z"/>
		</g>
		<g>
			<path style="fill:#4D4D4D;" d="M296.409,268.231h-4.276c-2.697-3.721-6.662-7.211-11.914-10.243
				c-21.491-12.408-56.226-12.47-77.582-0.14c-5.641,3.257-9.77,7.056-12.417,11.107l-3.53,0.31v27.03
				c0.015,8.128,5.415,16.271,16.189,22.492c21.491,12.408,56.225,12.47,77.582,0.14c10.721-6.19,16.029-14.326,15.942-22.464
				L296.409,268.231z"/>
			<path style="fill:#1A1A1A;" d="M296.412,268.233v28.227c0.086,8.141-5.225,16.275-15.948,22.465
				c-1.742,1.011-3.577,1.928-5.49,2.768v-19.518c-21.461,9.463-52.356,8.491-72.091-2.908c-5.389-3.11-9.432-6.703-12.13-10.529
				c-2.698-3.834-4.051-7.893-4.059-11.96v-7.512l3.53-0.311c2.644-4.051,6.773-7.854,12.41-11.104
				c21.361-12.333,56.096-12.271,77.589,0.14c5.249,3.025,9.215,6.516,11.913,10.241H296.412z"/>
			
				<ellipse transform="matrix(0.0054 -1 1 0.0054 -28.6259 508.9581)" style="fill:#D1E5FF;" cx="241.55" cy="268.87" rx="31.672" ry="54.86"/>
		</g>
		<g>
			<path style="fill:#D7DAE9;" d="M300.367,255.21h-4.584c-2.891-3.99-7.143-7.732-12.773-10.982
				c-23.041-13.303-60.282-13.37-83.18-0.15c-6.048,3.492-10.474,7.565-13.313,11.909l-3.784,0.332v11.669
				c0.016,8.714,5.805,17.445,17.357,24.114c23.041,13.303,60.282,13.37,83.179,0.15c11.495-6.637,17.186-15.36,17.092-24.085
				L300.367,255.21z"/>
			<path style="fill:#A2A8C1;" d="M300.37,255.208v12.955c0.093,8.733-5.607,17.449-17.099,24.09
				c-2.597,1.501-5.373,2.823-8.297,3.973v-52.309h7.481c0.186,0.101,0.373,0.202,0.552,0.311c5.63,3.25,9.883,6.991,12.776,10.98
				H300.37z"/>
			
				<ellipse transform="matrix(0.0054 -1 1 0.0054 -15.6513 496.052)" style="fill:#EFF0F5;" cx="241.55" cy="255.894" rx="33.957" ry="58.818"/>
			<path style="fill:#D7DAE9;" d="M264.336,224.664v24.883H193.49v-13.414c1.866-1.516,3.981-2.963,6.337-4.323
				C217.222,221.763,242.898,219.392,264.336,224.664z"/>
			<path style="fill:#D7DAE9;" d="M283.271,279.982c-2.659,1.532-5.505,2.893-8.507,4.067h-21.407l10.98-28.888h36.003
				C300.775,264.127,295.09,273.162,283.271,279.982z"/>
		</g>
		<g>
			<g>
				<path style="fill:#B0D2FF;" d="M206.208,174.446l1.34-2.321c0.189-0.093,0.377-0.185,0.569-0.296
					c4.276-2.469,7.742-8.447,7.742-13.353c0-0.24-0.015-0.466-0.031-0.691l1.295-2.242l-3.718-2.147l-0.01,0.017
					c-1.383-0.684-3.235-0.529-5.278,0.65c-4.275,2.468-7.742,8.447-7.742,13.353c0,2.364,0.81,4.038,2.121,4.872L206.208,174.446z"
					/>
				<path style="fill:#D1E5FF;" d="M203.828,169.408c0-4.906,3.466-10.885,7.742-13.353c4.276-2.468,7.742-0.492,7.742,4.414
					c0,4.906-3.466,10.885-7.742,13.353C207.294,176.291,203.828,174.315,203.828,169.408z"/>
			</g>
			<g>
				<g style="enable-background:new    ;">
					<g>
						<path style="fill:#B0D2FF;" d="M226.349,207.784l4.418,2.568c-1.007-0.585-2.112-1.001-3.301-1.238l-4.419-2.568
							C224.237,206.784,225.342,207.199,226.349,207.784z"/>
					</g>
					<g>
						<path style="fill:#808080;" d="M193.488,249.55l-4.419-2.568c-0.025-8.647,3.761-18.469,9.543-26.322l4.419,2.568
							C197.249,231.081,193.463,240.903,193.488,249.55z"/>
					</g>
					<g>
						<path style="fill:#B0D2FF;" d="M212.556,161.653l4.419,2.568c-0.612-0.355-1.238-0.382-1.874-0.015l-4.419-2.568
							C211.318,161.271,211.945,161.297,212.556,161.653z"/>
					</g>
					<g>
						<path style="fill:#B0D2FF;" d="M203.03,223.229l-4.419-2.568c-0.006-0.181-0.011-0.356-0.012-0.54
							c-0.022-7.762,5.328-54.583,12.082-58.482l4.419,2.568c-6.755,3.9-12.105,50.721-12.083,58.482
							C203.019,222.872,203.025,223.048,203.03,223.229z"/>
					</g>
					<g>
						<path style="fill:#1A1A1A;" d="M215.101,164.206c6.755-3.9,12.357,36.598,12.379,44.359c0.001,0.184-0.009,0.368-0.014,0.549
							c5.812,1.159,9.641,6.59,9.665,15.238l-43.645,25.198c-0.025-8.647,3.761-18.469,9.543-26.322
							c-0.006-0.181-0.011-0.357-0.012-0.541C202.997,214.927,208.347,168.106,215.101,164.206z"/>
					</g>
				</g>
			</g>
			<g>
				<path style="fill:#B0D2FF;" d="M211.086,172.78l0.841-1.457c0.118-0.058,0.236-0.116,0.357-0.185
					c2.684-1.55,4.859-5.302,4.859-8.382c0-0.15-0.009-0.292-0.02-0.434l0.813-1.408l-2.334-1.348
					c-0.868-0.429-2.037-0.321-3.319,0.419c-2.684,1.549-4.859,5.302-4.859,8.382c0,1.484,0.508,2.535,1.331,3.058L211.086,172.78z"
					/>
				<path style="fill:#D1E5FF;" d="M209.592,169.618c0-3.08,2.176-6.832,4.86-8.382c2.684-1.549,4.859-0.309,4.859,2.771
					s-2.176,6.832-4.859,8.382C211.768,173.938,209.592,172.698,209.592,169.618z"/>
			</g>
		</g>
		<g>
			<g>
				<g>
					<path style="fill:#DEDFDA;" d="M288.806,226.153c1.259-5.304,6.54-10.876,11.796-12.448c5.255-1.571,8.495,1.455,7.236,6.758
						c-1.259,5.304-6.54,10.877-11.796,12.448C290.787,234.483,287.547,231.457,288.806,226.153z"/>
					<path style="fill:#1A1A1A;" d="M316.387,227.083l-9.455-12.322l-16.934,17.364l13.116,8.94
						c1.042,0.963,2.725,1.247,4.806,0.625c4.178-1.249,8.377-5.68,9.379-9.897C317.795,229.702,317.409,228.058,316.387,227.083z"
						/>
					<path style="fill:#4D4D4D;" d="M317.493,230.592c-0.036,0.38-0.099,0.787-0.199,1.203c-0.787,3.329-3.564,6.784-6.748,8.711
						l-16.047-12.999l8.467-8.684L317.493,230.592z"/>
				</g>
				<g>
					<path style="fill:#DEDFDA;" d="M240.695,183.706c1.742-7.334,9.045-15.041,16.312-17.213
						c7.268-2.172,11.748,2.012,10.006,9.346c-1.741,7.334-9.045,15.041-16.312,17.213
						C243.433,195.225,238.953,191.04,240.695,183.706z"/>
					<path style="fill:#A2A8C1;" d="M309.939,214.398l-44.179-46.447l-23.417,24.012l49.241,41.771
						c1.441,1.332,3.769,1.724,6.646,0.864c5.778-1.727,11.585-7.854,12.969-13.686
						C311.886,218.021,311.353,215.747,309.939,214.398z"/>
					<path style="fill:#D7DAE9;" d="M310.836,222.161c-1.257,3.709-4.17,7.399-7.599,9.878l-52.528-48.648l8.666-8.892
						L310.836,222.161z"/>
				</g>
				<path style="fill:#A2A8C1;" d="M241.054,169.799l-90.175,52.726c28.198,24.379,72.714,13.723,102.642,2.005
					c21.044-8.24,36.85-26.035,42.625-47.884c8.29-31.365,14.025-77.481-13.106-103.222L241.054,169.799z"/>
				
					<ellipse transform="matrix(0.6753 -0.7375 0.7375 0.6753 -38.6944 208.0501)" style="fill:#EFF0F5;" cx="216.96" cy="147.975" rx="99.649" ry="57.53"/>
				
					<ellipse transform="matrix(0.6753 -0.7375 0.7375 0.6753 -45.6633 223.9362)" style="fill:#D7DAE9;" cx="231.52" cy="163.833" rx="62.701" ry="36.199"/>
				<path style="fill:#A2A8C1;" d="M243.273,169.139l-26.685-6.267l-18.523,37.963c-0.636,1.235-1.115,2.5-1.391,3.749
					c-1.297,5.851,2.314,9.124,8.066,7.311c3.565-1.124,7.114-3.94,9.607-7.312L243.273,169.139z"/>
			</g>
			<g>
				<path style="fill:#1A1A1A;" d="M247.841,160.135c-0.072,0.308-0.145,0.606-0.235,0.914c-0.66,2.325-1.836,4.677-3.383,6.857
					c-3.148,4.451-7.779,8.214-12.438,9.688c-3.862,1.212-6.947,0.597-8.747-1.357l-0.027,0.027l-20.814-23.736l8.367-9.082
					l5.138-5.581l4.559-4.948l24.984,18.381c0.28,0.172,0.534,0.362,0.769,0.57l0.054,0.036
					C247.923,153.568,248.655,156.435,247.841,160.135z"/>
				<path style="fill:#4D4D4D;" d="M247.606,161.048c-0.66,2.325-1.836,4.677-3.383,6.857l-33.659-24.46l5.138-5.581
					L247.606,161.048z"/>
				<path style="fill:#808080;" d="M221.666,139.459c-1.297,5.851-7.011,12.065-12.763,13.878c-5.752,1.814-9.363-1.46-8.066-7.311
					c1.297-5.851,7.011-12.065,12.763-13.878C219.352,130.335,222.963,133.608,221.666,139.459z"/>
			</g>
			<g>
				<path style="fill:#1A1A1A;" d="M236.516,106.14l-74.956-10.389c-0.742-0.103-1.261-0.788-1.158-1.53
					c0.103-0.742,0.788-1.261,1.53-1.158l74.956,10.389c0.742,0.103,1.261,0.788,1.158,1.531
					C237.944,105.724,237.259,106.243,236.516,106.14z"/>
			</g>
			<g>
				<path style="fill:#1A1A1A;" d="M173.975,172.112l-16.81-73.849c-0.166-0.731,0.291-1.458,1.022-1.624
					c0.731-0.166,1.458,0.291,1.624,1.022l16.81,73.849c0.166,0.73-0.291,1.458-1.022,1.624
					C174.869,173.3,174.142,172.843,173.975,172.112z"/>
			</g>
			<g>
				<g>
					<path style="fill:#1A1A1A;" d="M166.096,87.477l-14.08,14.877l8.263,4.726c0.892,0.8,2.317,1.018,4.066,0.467
						c3.512-1.108,7.002-4.902,7.794-8.475c0.393-1.772,0.047-3.156-0.829-3.967L166.096,87.477z"/>
					<path style="fill:#4D4D4D;" d="M172.119,99.13c-0.525,2.298-2.153,4.677-4.179,6.359l-10.358-9.009l5.183-5.482L172.119,99.13z
						"/>
					<g>
						<path style="fill:#B0D2FF;" d="M150.934,97.326c0.996-4.494,5.385-9.267,9.803-10.66c4.418-1.393,7.192,1.121,6.195,5.615
							c-0.997,4.494-5.385,9.267-9.803,10.66C152.712,104.335,149.938,101.821,150.934,97.326z"/>
					</g>
				</g>
				<g>
					<path style="fill:#4D4D4D;" d="M219.905,215.016l-68.978-110.072c-0.398-0.635-0.206-1.472,0.429-1.87
						c0.635-0.398,1.472-0.206,1.87,0.429l68.979,110.071c0.398,0.635,0.206,1.472-0.429,1.87
						C221.142,215.842,220.303,215.651,219.905,215.016z"/>
				</g>
				<g>
					<path style="fill:#4D4D4D;" d="M282.395,147.877L167.057,88.403c-0.666-0.343-0.927-1.162-0.584-1.828
						c0.344-0.666,1.162-0.927,1.828-0.584l115.337,59.474c0.666,0.343,0.927,1.162,0.584,1.828
						C283.879,147.96,283.061,148.221,282.395,147.877z"/>
				</g>
				<g>
					<path style="fill:#A2A8C1;" d="M159.164,72.271l-23.055,24.36l13.531,7.739c1.461,1.31,3.794,1.668,6.659,0.765
						c5.752-1.814,11.466-8.027,12.763-13.878c0.643-2.902,0.077-5.168-1.358-6.495L159.164,72.271z"/>
					<path style="fill:#D7DAE9;" d="M168.356,93.495c-0.896,2.253-2.37,4.469-4.161,6.377l-17.078-14.871l5.183-5.482
						L168.356,93.495z"/>
					<g>
						<path style="fill:#EFF0F5;" d="M134.338,88.399c1.632-7.359,8.818-15.174,16.053-17.455
							c7.234-2.281,11.776,1.836,10.145,9.195c-1.632,7.359-8.819,15.174-16.053,17.456
							C137.248,99.876,132.706,95.759,134.338,88.399z"/>
					</g>
				</g>
				<g>
					<path style="fill:#A2A8C1;" d="M147.85,70.759l-14.079,14.877l8.263,4.726c0.892,0.8,2.317,1.018,4.066,0.467
						c3.512-1.107,7.002-4.902,7.794-8.475c0.393-1.773,0.047-3.156-0.829-3.967L147.85,70.759z"/>
					<path style="fill:#D7DAE9;" d="M154.055,80.912c0.009,0.443-0.045,0.923-0.163,1.438c-0.425,1.945-1.655,3.953-3.266,5.563
						l-10.43-9.073l5.183-5.473L154.055,80.912z"/>
					<g>
						<path style="fill:#EFF0F5;" d="M132.689,80.608c0.996-4.494,5.385-9.267,9.803-10.66c4.418-1.393,7.192,1.121,6.195,5.615
							c-0.996,4.494-5.385,9.267-9.803,10.66C134.467,87.617,131.693,85.103,132.689,80.608z"/>
					</g>
				</g>
			</g>
		</g>
		<g>
			<g>
				<path style="fill:#808080;" d="M266.078,208.945l1.34-2.322c0.189-0.093,0.377-0.185,0.569-0.296
					c4.276-2.469,7.742-8.447,7.742-13.353c0-0.24-0.015-0.466-0.031-0.692l1.295-2.242l-3.718-2.147l-0.009,0.017
					c-1.383-0.684-3.235-0.529-5.277,0.65c-4.276,2.469-7.742,8.447-7.742,13.353c0,2.363,0.81,4.038,2.121,4.872L266.078,208.945z"
					/>
				<path style="fill:#1A1A1A;" d="M263.698,203.907c0-4.906,3.466-10.885,7.742-13.353c4.276-2.468,7.742-0.492,7.742,4.414
					s-3.466,10.885-7.742,13.353C267.164,210.789,263.698,208.813,263.698,203.907z"/>
			</g>
			<g>
				<g style="enable-background:new    ;">
					<g>
						<path style="fill:#B0D2FF;" d="M286.219,242.283l4.418,2.568c-1.007-0.585-2.112-1.001-3.3-1.238l-4.419-2.568
							C284.107,241.282,285.212,241.698,286.219,242.283z"/>
					</g>
					<g>
						<path style="fill:#808080;" d="M253.358,284.049l-4.419-2.568c-0.025-8.647,3.762-18.469,9.543-26.322l4.419,2.568
							C257.119,265.58,253.333,275.402,253.358,284.049z"/>
					</g>
					<g>
						<path style="fill:#B0D2FF;" d="M272.427,196.152l4.418,2.568c-0.612-0.356-1.238-0.382-1.874-0.015l-4.418-2.568
							C271.189,195.77,271.815,195.796,272.427,196.152z"/>
					</g>
					<g>
						<path style="fill:#4D4D4D;" d="M262.901,257.727l-4.419-2.568c-0.005-0.181-0.011-0.356-0.012-0.54
							c-0.022-7.762,5.328-54.583,12.083-58.482l4.418,2.568c-6.755,3.9-12.104,50.721-12.082,58.482
							C262.889,257.371,262.895,257.546,262.901,257.727z"/>
					</g>
					<g>
						<path style="fill:#1A1A1A;" d="M274.971,198.705c6.755-3.9,12.357,36.598,12.379,44.359c0,0.184-0.009,0.368-0.013,0.549
							c5.812,1.159,9.641,6.59,9.665,15.237l-43.645,25.198c-0.025-8.647,3.761-18.469,9.543-26.322
							c-0.006-0.181-0.011-0.356-0.012-0.54C262.867,249.425,268.217,202.605,274.971,198.705z"/>
					</g>
				</g>
			</g>
			<g>
				<path style="fill:#808080;" d="M270.956,207.279l0.841-1.457c0.118-0.058,0.237-0.116,0.357-0.185
					c2.684-1.55,4.86-5.302,4.86-8.382c0-0.15-0.01-0.292-0.02-0.434l0.813-1.408l-2.334-1.348
					c-0.868-0.429-2.037-0.322-3.319,0.419c-2.684,1.549-4.859,5.302-4.859,8.382c0,1.483,0.508,2.535,1.332,3.058L270.956,207.279z
					"/>
				<path style="fill:#1A1A1A;" d="M269.462,204.117c0-3.08,2.176-6.832,4.86-8.382c2.684-1.549,4.859-0.309,4.859,2.771
					c0,3.08-2.176,6.832-4.859,8.382C271.638,208.437,269.462,207.197,269.462,204.117z"/>
			</g>
		</g>
	</g>
</g>
</svg>
